<?xml version="1.0" standalone="no"?>
<!DOCTYPE svg PUBLIC "-//W3C//DTD SVG 20010904//EN"
 "http://www.w3.org/TR/2001/REC-SVG-20010904/DTD/svg10.dtd">
<svg version="1.0" xmlns="http://www.w3.org/2000/svg"
 width="512.000000pt" height="512.000000pt" viewBox="0 0 512.000000 512.000000"
 preserveAspectRatio="xMidYMid meet">

<g transform="translate(0.000000,512.000000) scale(0.100000,-0.100000)"
fill="#000000" stroke="none">
<path d="M329 4156 c-95 -25 -173 -89 -221 -179 l-23 -42 -3 -847 c-2 -833 -2
-847 18 -901 29 -77 87 -140 168 -179 l67 -33 2225 0 2225 0 67 33 c81 39 139
102 168 179 20 54 20 68 18 901 l-3 847 -23 42 c-30 56 -78 110 -124 139 -90
57 36 54 -2333 53 -1694 0 -2190 -3 -2226 -13z m4479 -169 c23 -15 51 -45 62
-67 20 -38 20 -56 20 -850 0 -788 -1 -812 -20 -850 -38 -75 -101 -100 -252
-100 l-98 0 0 509 c0 499 0 509 -21 535 l-20 26 -1919 0 -1919 0 -20 -26 c-21
-26 -21 -36 -21 -535 l0 -509 -97 0 c-152 0 -215 25 -253 100 -19 38 -20 62
-20 851 0 731 2 814 16 846 19 38 68 80 111 93 15 5 1014 8 2219 7 l2190 -2
42 -28z m-438 -1402 l0 -455 -1810 0 -1810 0 0 455 0 455 1810 0 1810 0 0
-455z"/>
<path d="M4169 3781 c-32 -33 -37 -67 -14 -110 29 -56 103 -64 151 -16 55 55
9 155 -71 155 -27 0 -44 -8 -66 -29z"/>
<path d="M4497 3799 c-27 -16 -49 -67 -42 -99 4 -16 21 -41 38 -56 88 -74 202
58 121 140 -28 28 -83 35 -117 15z"/>
<path d="M995 2795 c-14 -13 -25 -36 -25 -50 0 -14 11 -37 25 -50 l24 -25
1541 0 1541 0 24 25 c32 31 32 69 0 100 l-24 25 -1541 0 -1541 0 -24 -25z"/>
<path d="M1015 2488 c-49 -26 -58 -69 -24 -112 l20 -26 1549 0 1549 0 20 26
c34 43 26 86 -20 109 -24 13 -233 15 -1551 15 -1083 -1 -1529 -4 -1543 -12z"/>
<path d="M1024 1685 c-14 -14 -41 -60 -61 -102 -49 -102 -50 -170 -5 -263 26
-53 32 -77 32 -131 0 -36 -7 -87 -16 -113 -19 -56 -8 -97 32 -115 37 -16 52
-14 79 13 73 73 74 290 4 429 -19 36 -19 41 -5 85 9 26 27 64 41 84 32 47 32
88 2 116 -31 29 -72 28 -103 -3z"/>
<path d="M1785 1686 c-32 -32 -72 -114 -91 -186 -16 -63 -9 -120 22 -167 24
-38 45 -135 39 -178 -4 -22 -13 -62 -22 -89 -14 -46 -14 -50 4 -75 44 -59 108
-47 138 25 45 109 40 247 -15 363 -33 69 -31 85 19 178 37 67 39 105 9 133
-29 27 -73 26 -103 -4z"/>
<path d="M2554 1696 c-11 -8 -38 -49 -59 -91 -55 -108 -59 -180 -17 -273 43
-94 49 -152 24 -239 -23 -80 -17 -106 31 -133 57 -32 108 30 129 155 14 80 0
171 -36 251 -34 74 -33 100 9 180 19 37 35 80 35 95 0 57 -67 89 -116 55z"/>
<path d="M3306 1686 c-42 -46 -88 -156 -94 -224 -4 -55 -1 -70 27 -132 41 -88
49 -158 27 -232 -9 -31 -16 -67 -16 -81 0 -28 41 -67 70 -67 30 0 68 39 84 87
37 108 30 228 -20 341 -13 30 -24 65 -24 78 0 13 18 57 40 99 29 55 38 83 34
101 -14 55 -88 72 -128 30z"/>
<path d="M4067 1683 c-41 -44 -90 -160 -95 -224 -3 -46 1 -68 27 -128 42 -95
48 -152 26 -240 -21 -80 -14 -113 29 -133 42 -18 80 5 107 65 20 44 23 69 24
157 0 93 -4 112 -29 170 -15 36 -30 76 -33 90 -4 24 17 80 57 150 26 45 25 66
-5 95 -33 34 -74 33 -108 -2z"/>
</g>
</svg>
