<?xml version="1.0" standalone="no"?>
<!DOCTYPE svg PUBLIC "-//W3C//DTD SVG 20010904//EN"
 "http://www.w3.org/TR/2001/REC-SVG-20010904/DTD/svg10.dtd">
<svg version="1.0" xmlns="http://www.w3.org/2000/svg"
 width="512.000000pt" height="512.000000pt" viewBox="0 0 512.000000 512.000000"
 preserveAspectRatio="xMidYMid meet">

<g transform="translate(0.000000,512.000000) scale(0.100000,-0.100000)"
fill="#000000" stroke="none">
<path d="M2000 4845 l0 -274 83 -3 84 -3 -363 -465 -364 -465 3 -421 2 -420
37 -75 c20 -40 53 -89 72 -108 l35 -34 -49 -54 c-122 -133 -124 -338 -6 -470
l44 -48 -38 -43 c-61 -69 -84 -125 -88 -222 -5 -110 20 -182 89 -255 l47 -50
-40 -45 c-23 -25 -55 -74 -72 -110 l-31 -65 -3 -385 c-3 -338 -1 -393 14 -448
35 -132 141 -242 272 -282 56 -17 93 -20 289 -20 l225 0 76 -37 c75 -37 77
-38 218 -41 153 -4 224 8 294 51 33 21 50 22 290 27 l255 5 67 32 c85 40 151
106 191 191 l32 67 0 430 0 430 -28 56 c-15 32 -45 76 -66 100 l-38 43 42 43
c134 134 135 355 2 491 -22 23 -36 42 -29 42 24 0 99 117 117 184 32 119 -3
250 -90 336 l-44 43 41 46 c22 25 53 71 67 101 l26 55 3 432 3 431 -356 464
-356 463 75 3 76 3 0 274 0 275 -555 0 -555 0 0 -275z m960 0 l0 -125 -405 0
-405 0 0 125 0 125 405 0 405 0 0 -125z m146 -717 l340 -443 -437 -3 c-241 -1
-638 -1 -884 0 l-446 3 258 335 c142 185 295 384 341 443 l83 107 202 0 202 0
341 -442z m414 -950 c0 -334 -2 -355 -21 -398 -24 -53 -50 -83 -99 -113 -29
-18 -54 -23 -155 -27 l-120 -5 0 -75 0 -75 135 -5 c150 -6 181 -16 224 -72 78
-105 47 -251 -66 -310 -36 -18 -64 -22 -171 -26 l-128 -4 3 -72 3 -71 137 -5
c132 -5 138 -6 179 -35 106 -75 117 -222 24 -311 -53 -51 -101 -64 -240 -64
l-106 0 3 -72 3 -73 120 -5 c131 -7 158 -15 212 -72 63 -65 63 -68 63 -490 0
-431 0 -427 -76 -500 -61 -58 -103 -68 -285 -68 l-158 0 14 39 c7 22 17 60 20
85 l7 46 -75 0 -75 0 -7 -37 c-10 -55 -53 -129 -92 -159 -60 -46 -110 -56
-251 -52 -139 4 -179 17 -234 75 -33 35 -67 109 -68 146 l0 27 -75 0 -75 0 0
-33 c0 -19 7 -56 15 -83 8 -27 15 -50 15 -52 0 -2 -78 -2 -172 0 -145 3 -179
6 -208 22 -49 26 -98 74 -123 121 -21 39 -22 53 -25 405 -2 269 0 377 9 410
17 59 97 141 155 158 30 9 161 12 463 12 l421 0 0 75 0 75 -428 0 c-247 0
-441 4 -461 10 -89 25 -143 92 -149 185 -6 91 32 157 115 199 28 14 87 16 478
16 l445 0 0 75 0 75 -423 0 c-488 0 -498 1 -565 74 -45 49 -57 89 -50 167 5
53 37 103 92 143 27 20 40 21 487 24 l459 3 0 79 0 80 -432 0 -433 0 -50 28
c-56 31 -109 95 -125 150 -6 22 -10 173 -10 375 l0 337 965 0 965 0 0 -352z"/>
<path d="M2160 4085 l0 -75 80 0 80 0 0 75 0 75 -80 0 -80 0 0 -75z"/>
<path d="M2000 3925 l0 -75 80 0 80 0 0 75 0 75 -80 0 -80 0 0 -75z"/>
<path d="M2804 2626 c-3 -7 -4 -42 -2 -77 l3 -64 78 -3 77 -3 0 81 0 80 -75 0
c-54 0 -77 -4 -81 -14z"/>
<path d="M2802 1998 l3 -73 78 -3 77 -3 0 76 0 75 -80 0 -81 0 3 -72z"/>
<path d="M2800 1435 l0 -75 80 0 80 0 0 75 0 75 -80 0 -80 0 0 -75z"/>
</g>
</svg>
