<?xml version="1.0" standalone="no"?>
<!DOCTYPE svg PUBLIC "-//W3C//DTD SVG 20010904//EN"
 "http://www.w3.org/TR/2001/REC-SVG-20010904/DTD/svg10.dtd">
<svg version="1.0" xmlns="http://www.w3.org/2000/svg"
 width="512.000000pt" height="512.000000pt" viewBox="0 0 512.000000 512.000000"
 preserveAspectRatio="xMidYMid meet">

<g transform="translate(0.000000,512.000000) scale(0.100000,-0.100000)"
fill="#000000" stroke="none">
<path d="M2340 5104 c-200 -43 -362 -207 -405 -409 -12 -60 -15 -280 -15
-1507 l0 -1436 -49 -36 c-64 -47 -166 -157 -214 -229 -51 -76 -101 -185 -127
-278 -28 -94 -38 -297 -20 -405 60 -375 349 -683 727 -776 124 -30 313 -30
437 1 447 109 755 518 733 971 -14 286 -128 514 -350 699 l-77 64 0 1452 c0
1606 4 1507 -65 1631 -71 126 -211 229 -352 259 -83 18 -138 18 -223 -1z m243
-224 c72 -34 123 -85 159 -158 l33 -67 3 -1512 2 -1512 58 -32 c84 -47 229
-198 274 -284 65 -126 83 -202 83 -355 0 -154 -19 -234 -82 -350 -43 -80 -58
-99 -136 -178 -80 -82 -179 -143 -297 -183 -87 -30 -105 -33 -220 -33 -146 0
-214 15 -336 75 -258 126 -415 380 -415 669 0 266 136 504 367 643 l54 31 2
1516 3 1515 21 46 c26 56 82 120 132 151 83 51 208 59 295 18z"/>
<path d="M2350 2400 l0 -1540 105 0 105 0 0 1540 0 1540 -105 0 -105 0 0
-1540z"/>
<path d="M3310 4480 l0 -100 265 0 265 0 0 100 0 100 -265 0 -265 0 0 -100z"/>
<path d="M3310 3945 l0 -105 265 0 265 0 0 105 0 105 -265 0 -265 0 0 -105z"/>
<path d="M3310 3415 l0 -105 265 0 265 0 0 105 0 105 -265 0 -265 0 0 -105z"/>
<path d="M3310 2880 l0 -100 265 0 265 0 0 100 0 100 -265 0 -265 0 0 -100z"/>
<path d="M3310 2345 l0 -105 265 0 265 0 0 105 0 105 -265 0 -265 0 0 -105z"/>
</g>
</svg>
