<?xml version="1.0" standalone="no"?>
<!DOCTYPE svg PUBLIC "-//W3C//DTD SVG 20010904//EN"
 "http://www.w3.org/TR/2001/REC-SVG-20010904/DTD/svg10.dtd">
<svg version="1.0" xmlns="http://www.w3.org/2000/svg"
 width="512.000000pt" height="512.000000pt" viewBox="0 0 512.000000 512.000000"
 preserveAspectRatio="xMidYMid meet">

<g transform="translate(0.000000,512.000000) scale(0.100000,-0.100000)"
fill="#000000" stroke="none">
<path d="M2413 4866 c-148 -28 -298 -97 -410 -186 -138 -110 -258 -300 -304
-480 -28 -109 -31 -310 -6 -413 93 -378 409 -655 784 -685 451 -36 837 240
945 675 30 121 30 313 -1 428 -23 88 -83 220 -131 291 -85 123 -236 247 -374
308 -146 65 -355 90 -503 62z m362 -180 c44 -14 109 -42 145 -63 86 -50 217
-181 263 -263 l36 -65 -62 -5 c-149 -12 -309 23 -430 95 -95 57 -114 50 -197
-65 -82 -115 -222 -212 -375 -260 -49 -16 -106 -24 -192 -27 l-123 -6 0 35 c0
19 9 69 20 112 67 262 291 476 559 532 100 21 257 12 356 -20z m-30 -489 c138
-58 211 -72 382 -72 l152 0 7 -74 c27 -287 -137 -576 -399 -705 -115 -57 -201
-77 -329 -77 -193 0 -357 66 -501 200 -86 80 -170 218 -197 321 -6 25 -13 52
-16 61 -4 14 13 17 128 22 261 11 459 101 628 285 36 39 65 71 65 71 0 1 36
-14 80 -32z"/>
<path d="M1875 2965 c-260 -48 -483 -152 -735 -345 -157 -120 -400 -363 -496
-496 -104 -145 -155 -304 -155 -484 0 -159 35 -283 113 -400 47 -70 853 -971
884 -988 17 -9 65 -12 165 -10 140 3 142 3 162 30 l19 26 -86 788 c-61 554
-91 796 -102 811 -16 26 -53 38 -86 29 -13 -3 -112 -95 -220 -204 -175 -175
-198 -202 -198 -230 0 -22 28 -81 86 -185 47 -83 91 -158 97 -164 7 -7 26 -15
43 -19 24 -4 37 0 59 18 44 39 38 69 -42 210 l-71 123 101 102 c55 56 103 101
105 99 3 -4 142 -1236 142 -1263 0 -11 -13 -13 -53 -11 l-53 3 -403 449 c-221
247 -416 472 -432 500 -49 86 -69 166 -69 280 0 119 16 193 66 294 82 169 380
473 624 637 135 90 249 149 370 188 156 52 159 52 170 23 21 -57 424 -934 442
-964 l20 -32 -50 -45 c-28 -25 -63 -66 -79 -90 -27 -44 -29 -45 -80 -45 -60 0
-99 -13 -131 -43 -60 -56 -72 -151 -28 -218 33 -50 75 -70 153 -77 52 -4 66
-9 75 -26 42 -81 138 -158 237 -191 82 -27 209 -18 287 20 69 34 143 100 178
159 66 114 74 266 17 380 -30 61 -84 128 -130 159 l-24 16 20 24 c21 28 453
967 453 987 0 15 36 8 152 -31 244 -80 501 -253 744 -501 209 -212 284 -323
318 -468 33 -137 10 -336 -48 -434 -14 -23 -206 -246 -428 -496 l-403 -455
-58 -3 c-42 -2 -57 1 -57 10 0 32 131 1206 138 1231 7 27 8 27 105 -71 l99
-99 -71 -125 c-39 -69 -71 -135 -71 -146 0 -12 11 -33 23 -48 28 -32 76 -37
106 -10 33 30 191 322 191 352 0 24 -36 64 -203 231 -191 191 -205 203 -240
203 -46 0 -73 -25 -81 -76 -11 -73 -166 -1505 -166 -1538 0 -61 23 -71 182
-74 91 -2 149 0 167 8 14 6 217 227 451 491 360 406 431 491 466 558 105 203
102 475 -6 695 -53 110 -118 192 -284 363 -336 346 -673 548 -1015 607 -80 14
-185 16 -700 15 -450 -1 -624 -4 -676 -14z m1205 -153 c0 -24 -415 -911 -436
-932 -21 -21 -34 -25 -84 -25 -50 0 -63 4 -84 25 -21 21 -436 909 -436 932 0
5 234 8 520 8 286 0 520 -4 520 -8z m-423 -1156 c111 -57 165 -176 133 -291
-16 -56 -81 -132 -135 -156 -54 -25 -138 -24 -195 2 -212 96 -193 387 30 460
36 12 132 4 167 -15z m-507 -216 c0 -5 -9 -10 -20 -10 -11 0 -20 5 -20 10 0 6
9 10 20 10 11 0 20 -4 20 -10z"/>
<path d="M2501 1604 c-18 -22 -21 -41 -21 -111 0 -76 2 -86 25 -108 15 -16 36
-25 55 -25 19 0 40 9 55 25 23 22 25 32 25 108 0 105 -19 137 -80 137 -30 0
-43 -6 -59 -26z"/>
</g>
</svg>
