<?xml version="1.0" standalone="no"?>
<!DOCTYPE svg PUBLIC "-//W3C//DTD SVG 20010904//EN"
 "http://www.w3.org/TR/2001/REC-SVG-20010904/DTD/svg10.dtd">
<svg version="1.0" xmlns="http://www.w3.org/2000/svg"
 width="512.000000pt" height="512.000000pt" viewBox="0 0 512.000000 512.000000"
 preserveAspectRatio="xMidYMid meet">

<g transform="translate(0.000000,512.000000) scale(0.100000,-0.100000)"
fill="#000000" stroke="none">
<path d="M2570 4670 c-192 -41 -354 -133 -496 -281 -126 -133 -214 -306 -245
-483 l-10 -62 -537 -133 c-295 -74 -553 -140 -573 -148 -68 -26 -69 -33 -69
-388 0 -352 2 -364 65 -391 51 -21 2379 -21 2430 0 63 27 65 39 65 391 0 345
-2 359 -57 384 -37 17 -819 211 -849 211 -16 0 -39 -13 -60 -34 -27 -27 -34
-42 -34 -74 0 -82 2 -82 415 -186 l370 -92 3 -197 2 -197 -1070 0 -1070 0 2
197 3 197 548 137 c301 75 558 141 572 147 35 16 52 57 58 142 20 283 228 537
522 637 l80 28 400 0 c392 0 402 0 475 -23 248 -78 422 -246 507 -487 l28 -80
5 -1690 c4 -1332 8 -1695 18 -1712 29 -52 104 -70 151 -37 53 38 51 -43 51
1696 0 1110 -3 1641 -11 1703 -50 409 -356 744 -754 826 -79 16 -137 19 -470
18 -328 0 -392 -3 -465 -19z"/>
<path d="M904 2541 c-43 -26 -54 -66 -54 -198 0 -133 13 -173 65 -197 18 -9
38 -16 45 -16 7 0 27 7 45 16 52 24 65 64 65 198 0 134 -13 176 -59 200 -40
21 -69 20 -107 -3z"/>
<path d="M2184 2541 c-43 -26 -54 -66 -54 -198 0 -133 13 -173 65 -197 18 -9
38 -16 45 -16 7 0 27 7 45 16 52 24 65 64 65 198 0 134 -13 176 -59 200 -40
21 -69 20 -107 -3z"/>
<path d="M1553 2334 c-50 -25 -63 -65 -63 -198 0 -78 5 -128 14 -151 15 -35
59 -65 96 -65 37 0 81 30 96 65 9 23 14 73 14 151 0 134 -13 174 -65 198 -41
20 -52 20 -92 0z"/>
<path d="M2833 2334 c-50 -25 -63 -65 -63 -198 0 -78 5 -128 14 -151 15 -35
59 -65 96 -65 37 0 81 30 96 65 9 23 14 73 14 151 0 134 -13 174 -65 198 -41
20 -52 20 -92 0z"/>
<path d="M904 1901 c-43 -26 -54 -66 -54 -198 0 -133 13 -173 65 -197 18 -9
38 -16 45 -16 7 0 27 7 45 16 52 24 65 64 65 198 0 134 -13 176 -59 200 -40
21 -69 20 -107 -3z"/>
<path d="M2184 1901 c-43 -26 -54 -66 -54 -198 0 -133 13 -173 65 -197 18 -9
38 -16 45 -16 7 0 27 7 45 16 52 24 65 64 65 198 0 134 -13 176 -59 200 -40
21 -69 20 -107 -3z"/>
<path d="M1553 1694 c-50 -25 -63 -65 -63 -198 0 -78 5 -128 14 -151 15 -35
59 -65 96 -65 37 0 81 30 96 65 9 23 14 73 14 151 0 134 -13 174 -65 198 -41
20 -52 20 -92 0z"/>
<path d="M2833 1694 c-50 -25 -63 -65 -63 -198 0 -78 5 -128 14 -151 15 -35
59 -65 96 -65 37 0 81 30 96 65 9 23 14 73 14 151 0 134 -13 174 -65 198 -41
20 -52 20 -92 0z"/>
<path d="M904 1261 c-43 -26 -54 -66 -54 -198 0 -133 13 -173 65 -197 18 -9
38 -16 45 -16 7 0 27 7 45 16 52 24 65 64 65 198 0 134 -13 176 -59 200 -40
21 -69 20 -107 -3z"/>
<path d="M2184 1261 c-43 -26 -54 -66 -54 -198 0 -133 13 -173 65 -197 18 -9
38 -16 45 -16 7 0 27 7 45 16 52 24 65 64 65 198 0 134 -13 176 -59 200 -40
21 -69 20 -107 -3z"/>
<path d="M1553 1054 c-50 -25 -63 -65 -63 -198 0 -78 5 -128 14 -151 15 -35
59 -65 96 -65 37 0 81 30 96 65 9 23 14 73 14 151 0 134 -13 174 -65 198 -41
20 -52 20 -92 0z"/>
<path d="M2833 1054 c-50 -25 -63 -65 -63 -198 0 -78 5 -128 14 -151 15 -35
59 -65 96 -65 37 0 81 30 96 65 9 23 14 73 14 151 0 134 -13 174 -65 198 -41
20 -52 20 -92 0z"/>
</g>
</svg>
