<?xml version="1.0" standalone="no"?>
<!DOCTYPE svg PUBLIC "-//W3C//DTD SVG 20010904//EN"
 "http://www.w3.org/TR/2001/REC-SVG-20010904/DTD/svg10.dtd">
<svg version="1.0" xmlns="http://www.w3.org/2000/svg"
 width="512.000000pt" height="512.000000pt" viewBox="0 0 512.000000 512.000000"
 preserveAspectRatio="xMidYMid meet">

<g transform="translate(0.000000,512.000000) scale(0.100000,-0.100000)"
fill="#000000" stroke="none">
<path d="M403 4866 l-28 -24 0 -2137 0 -2137 28 -24 c23 -20 39 -24 93 -24
l64 0 0 -120 c0 -115 1 -122 25 -145 24 -25 26 -25 210 -25 184 0 186 0 210
25 24 23 25 30 25 145 l0 120 1530 0 1530 0 0 -120 c0 -115 1 -122 25 -145 24
-25 26 -25 210 -25 184 0 186 0 210 25 24 23 25 30 25 145 l0 120 64 0 c54 0
70 4 93 24 l28 24 0 2137 0 2137 -28 24 -28 24 -2129 0 -2129 0 -28 -24z
m1377 -756 l0 -620 -625 0 -625 0 0 620 0 620 625 0 625 0 0 -620z m1400 0 l0
-620 -620 0 -620 0 0 620 0 620 620 0 620 0 0 -620z m1410 0 l0 -620 -625 0
-625 0 0 620 0 620 625 0 625 0 0 -620z m-2810 -1405 l0 -625 -622 2 -623 3
-3 610 c-1 336 0 616 3 623 3 9 138 12 625 12 l620 0 0 -625z m1400 0 l0 -625
-620 0 -620 0 0 625 0 625 620 0 620 0 0 -625z m1405 0 l0 -620 -622 -3 -623
-2 0 625 0 625 623 -2 622 -3 0 -620z m-2805 -1405 l0 -620 -625 0 -625 0 0
620 0 620 625 0 625 0 0 -620z m1400 0 l0 -620 -620 0 -620 0 0 620 0 620 620
0 620 0 0 -620z m1410 0 l0 -620 -625 0 -625 0 0 620 0 620 625 0 625 0 0
-620z m-3720 -845 l0 -65 -75 0 -75 0 0 65 0 65 75 0 75 0 0 -65z m3530 0 l0
-65 -75 0 -75 0 0 65 0 65 75 0 75 0 0 -65z"/>
<path d="M671 4354 c-19 -25 -21 -40 -21 -201 0 -171 0 -174 25 -198 34 -35
86 -34 114 1 19 25 21 40 21 199 0 159 -2 174 -21 199 -16 20 -29 26 -59 26
-30 0 -43 -6 -59 -26z"/>
<path d="M2087 4368 c-29 -23 -37 -67 -37 -212 0 -149 9 -200 40 -216 31 -16
79 -11 100 10 19 19 20 33 20 205 0 172 -1 186 -20 205 -23 23 -77 27 -103 8z"/>
<path d="M3482 4357 c-21 -22 -22 -32 -22 -203 0 -176 1 -181 23 -202 29 -27
77 -28 108 -3 24 19 24 22 24 206 0 184 0 187 -24 206 -32 26 -82 25 -109 -4z"/>
<path d="M679 2961 c-23 -19 -24 -24 -27 -195 -3 -185 0 -204 43 -232 30 -20
66 -13 95 18 19 20 20 35 20 200 0 177 0 179 -25 203 -29 30 -74 32 -106 6z"/>
<path d="M2079 2954 c-24 -25 -24 -29 -24 -205 0 -171 1 -179 22 -201 31 -31
89 -30 114 1 17 21 19 42 19 206 l0 184 -26 20 c-36 29 -75 27 -105 -5z"/>
<path d="M3485 2955 c-25 -24 -25 -27 -25 -199 0 -96 3 -182 6 -191 7 -18 55
-45 79 -45 9 0 30 13 46 29 l29 29 0 167 c0 206 -11 235 -86 235 -14 0 -36
-11 -49 -25z"/>
<path d="M679 1550 l-30 -30 3 -181 c3 -176 4 -181 27 -200 32 -26 77 -24 106
6 25 24 25 27 25 199 0 96 -3 182 -6 191 -7 18 -55 45 -79 45 -9 0 -30 -13
-46 -30z"/>
<path d="M2105 1571 c-47 -20 -50 -34 -50 -223 l0 -180 28 -24 c34 -29 66 -31
101 -3 l26 20 0 184 c0 160 -2 185 -17 203 -21 25 -60 35 -88 23z"/>
<path d="M3505 1568 c-43 -23 -45 -35 -45 -220 0 -177 0 -179 25 -203 26 -27
70 -32 96 -12 34 26 39 55 39 222 l0 167 -29 29 c-31 31 -53 35 -86 17z"/>
</g>
</svg>
