<?xml version="1.0" standalone="no"?>
<!DOCTYPE svg PUBLIC "-//W3C//DTD SVG 20010904//EN"
 "http://www.w3.org/TR/2001/REC-SVG-20010904/DTD/svg10.dtd">
<svg version="1.0" xmlns="http://www.w3.org/2000/svg"
 width="512.000000pt" height="512.000000pt" viewBox="0 0 512.000000 512.000000"
 preserveAspectRatio="xMidYMid meet">

<g transform="translate(0.000000,512.000000) scale(0.100000,-0.100000)"
fill="#000000" stroke="none">
<path d="M1040 3827 c-49 -16 -133 -102 -148 -153 -7 -23 -12 -86 -12 -140 l0
-99 -131 4 c-169 4 -207 -6 -274 -73 -70 -71 -75 -93 -75 -350 l0 -216 -96 0
c-128 0 -168 -13 -229 -75 -64 -63 -75 -100 -75 -245 0 -145 11 -182 75 -245
61 -62 101 -75 229 -75 l96 0 0 -216 c0 -257 5 -279 75 -350 67 -67 105 -77
274 -73 l131 4 0 -99 c0 -54 5 -117 12 -140 16 -55 99 -138 154 -154 61 -18
260 -16 317 4 57 19 128 93 145 152 8 28 12 163 12 456 l0 416 1040 0 1040 0
0 -416 c0 -298 3 -428 12 -458 16 -55 99 -138 154 -154 61 -18 260 -16 317 4
57 19 128 93 145 152 7 21 12 84 12 138 l0 99 134 -3 c171 -5 216 8 279 78 24
26 49 66 55 88 8 25 12 117 12 256 l0 216 98 0 c129 0 178 17 235 80 56 62 67
102 67 240 0 138 -11 178 -67 240 -57 63 -106 80 -235 80 l-98 0 0 216 c0 139
-4 231 -12 256 -6 22 -31 62 -55 88 -63 70 -108 83 -279 78 l-134 -3 0 99 c0
54 -5 117 -12 138 -17 59 -88 133 -145 152 -57 20 -256 22 -317 4 -55 -16
-138 -99 -154 -154 -9 -30 -12 -160 -12 -458 l0 -416 -1040 0 -1040 0 0 416
c0 293 -4 428 -12 456 -17 59 -88 133 -145 152 -55 19 -267 21 -323 3z m295
-172 l25 -24 0 -1151 0 -1151 -25 -24 c-23 -24 -31 -25 -135 -25 -104 0 -112
1 -135 25 l-25 24 0 1151 0 1151 25 24 c23 24 31 25 135 25 104 0 112 -1 135
-25z m2720 0 l25 -24 0 -1151 0 -1151 -25 -24 c-23 -24 -31 -25 -135 -25 -104
0 -112 1 -135 25 l-25 24 0 1151 0 1151 25 24 c23 24 31 25 135 25 104 0 112
-1 135 -25z m-3200 -400 l25 -24 0 -751 0 -751 -25 -24 c-23 -24 -31 -25 -135
-25 -104 0 -112 1 -135 25 l-25 24 0 751 0 751 25 24 c23 24 31 25 135 25 104
0 112 -1 135 -25z m3680 0 l25 -24 0 -751 0 -751 -25 -24 c-23 -24 -31 -25
-135 -25 -104 0 -112 1 -135 25 l-25 24 0 751 0 751 25 24 c23 24 31 25 135
25 104 0 112 -1 135 -25z m-4135 -775 l0 -160 -95 0 c-88 0 -98 2 -120 25 -24
23 -25 31 -25 135 0 104 1 112 25 135 22 23 32 25 120 25 l95 0 0 -160z m3200
0 l0 -160 -1040 0 -1040 0 0 160 0 160 1040 0 1040 0 0 -160z m1335 135 c24
-23 25 -31 25 -135 0 -104 -1 -112 -25 -135 -22 -23 -32 -25 -120 -25 l-95 0
0 160 0 160 95 0 c88 0 98 -2 120 -25z"/>
</g>
</svg>
