<?xml version="1.0" standalone="no"?>
<!DOCTYPE svg PUBLIC "-//W3C//DTD SVG 20010904//EN"
 "http://www.w3.org/TR/2001/REC-SVG-20010904/DTD/svg10.dtd">
<svg version="1.0" xmlns="http://www.w3.org/2000/svg"
 width="512.000000pt" height="512.000000pt" viewBox="0 0 512.000000 512.000000"
 preserveAspectRatio="xMidYMid meet">

<g transform="translate(0.000000,512.000000) scale(0.100000,-0.100000)"
fill="#000000" stroke="none">
<path d="M203 3909 c-49 -24 -108 -86 -131 -138 -16 -33 -17 -148 -20 -1280
l-3 -1244 32 -34 33 -33 2446 0 2446 0 32 33 32 33 0 159 c-1 165 -9 238 -29
258 -7 7 -57 14 -119 17 l-107 5 0 97 c0 93 -1 99 -27 125 -26 26 -31 27 -168
31 l-140 5 0 92 c0 78 -3 96 -21 119 l-20 26 -184 0 -183 0 -4 783 c-3 722 -5
784 -21 814 -92 171 -292 205 -413 71 -54 -60 -66 -99 -72 -220 l-5 -108 -914
0 -914 0 -18 43 c-10 23 -35 58 -55 77 l-37 35 -353 3 -353 3 -39 -38 c-37
-36 -55 -64 -68 -105 -5 -16 -20 -18 -131 -18 l-125 0 0 93 c0 55 -6 115 -16
146 -40 134 -208 211 -331 150z m147 -154 l30 -16 0 -779 0 -780 -80 0 -80 0
2 776 3 776 24 19 c28 23 62 24 101 4z m3529 -10 c14 -14 16 -93 19 -785 l4
-770 -87 0 -86 0 3 771 3 771 25 20 c29 23 92 20 119 -7z m-2324 -235 c3 -6 3
-42 -1 -80 l-7 -70 -288 0 -289 0 0 80 0 80 289 0 c183 0 292 -4 296 -10z
m-747 -186 c4 -31 65 -99 106 -118 29 -14 80 -16 363 -16 l328 0 38 31 c21 17
49 53 63 80 l24 49 915 0 915 0 0 -290 0 -291 -81 3 -81 3 -13 38 c-15 45 -47
82 -90 105 -26 15 -72 17 -362 17 l-331 0 -44 -30 c-28 -21 -52 -49 -68 -83
l-25 -52 -957 0 -958 0 0 290 0 291 128 -3 c121 -3 127 -4 130 -24z m2422
-634 l0 -80 -296 0 -297 0 7 53 c3 28 6 64 6 80 l0 27 290 0 290 0 0 -80z
m-1023 -87 l263 -6 29 -52 c16 -28 45 -63 64 -78 l36 -27 314 0 c173 0 329 3
346 6 44 9 109 71 126 119 l13 40 81 3 81 3 0 -216 0 -215 -1502 2 -1503 3 -3
213 -2 212 697 0 c384 0 816 -3 960 -7z m1683 -918 l0 -335 -1835 0 -1835 0 0
335 0 335 1835 0 1835 0 0 -335z m423 239 c4 -58 13 -106 21 -119 18 -27 67
-35 212 -35 l104 0 0 -96 c0 -92 1 -97 29 -125 28 -28 33 -29 125 -29 l96 0 0
-85 0 -85 -415 0 -415 0 0 335 0 335 118 0 119 0 6 -96z"/>
</g>
</svg>
