<?xml version="1.0" standalone="no"?>
<!DOCTYPE svg PUBLIC "-//W3C//DTD SVG 20010904//EN"
 "http://www.w3.org/TR/2001/REC-SVG-20010904/DTD/svg10.dtd">
<svg version="1.0" xmlns="http://www.w3.org/2000/svg"
 width="512.000000pt" height="512.000000pt" viewBox="0 0 512.000000 512.000000"
 preserveAspectRatio="xMidYMid meet">

<g transform="translate(0.000000,512.000000) scale(0.100000,-0.100000)"
fill="#000000" stroke="none">
<path d="M4485 4557 c-61 -28 -88 -74 -154 -267 -35 -102 -66 -188 -70 -192
-3 -3 -163 -34 -354 -67 -192 -34 -361 -68 -375 -75 -58 -30 -102 -104 -102
-168 1 -68 60 -153 123 -177 41 -16 83 -14 213 10 64 11 118 19 120 16 3 -3
114 -1744 114 -1793 0 -10 -12 -14 -37 -14 -111 -1 -207 -110 -190 -216 l5
-32 -76 -6 c-42 -4 -795 -49 -1673 -101 -1228 -73 -1606 -99 -1642 -111 -100
-34 -184 -144 -194 -254 -8 -86 17 -157 77 -223 76 -84 122 -99 303 -105 l147
-4 0 -98 c0 -139 -8 -134 232 -138 264 -4 268 -2 268 154 l0 84 1340 0 1340 0
0 -84 c0 -156 4 -158 268 -154 240 4 232 -1 232 138 l0 97 143 5 c126 4 148 7
197 30 77 34 124 79 157 146 28 56 28 59 28 247 0 179 -1 193 -24 243 -38 83
-120 148 -227 177 -7 2 -17 47 -24 102 -6 54 -67 526 -134 1048 l-122 950 57
18 c96 29 112 56 209 332 113 327 115 379 16 459 -30 25 -47 31 -99 33 -38 2
-74 -2 -92 -10z m117 -141 c15 -22 7 -56 -73 -288 -73 -213 -84 -237 -108
-246 -49 -19 -792 -144 -817 -138 -15 4 -26 16 -30 32 -13 51 5 57 391 124
198 34 371 67 385 73 21 10 36 45 100 231 58 171 79 221 95 226 22 8 46 2 57
-14z m-342 -728 c0 -7 52 -420 116 -917 63 -497 114 -904 112 -906 -3 -3 -342
-24 -345 -21 -2 1 -113 1782 -113 1810 0 9 27 18 83 28 105 20 147 22 147 6z
m254 -1999 c14 -70 36 -64 -290 -83 -246 -15 -298 -15 -305 -4 -14 21 -10 44
9 67 16 19 35 22 237 35 121 7 248 14 281 15 61 1 62 1 68 -30z m169 -213 c43
-18 95 -78 102 -119 4 -18 5 -99 3 -178 -3 -142 -4 -147 -31 -182 -15 -21 -42
-45 -60 -55 -30 -16 -154 -17 -2121 -20 -1414 -1 -2101 1 -2127 8 -107 29
-153 167 -82 250 43 52 69 59 245 70 90 5 350 21 578 35 415 25 649 39 1605
96 281 16 791 47 1135 68 740 46 712 45 753 27z m-3605 -743 l-3 -48 -107 -3
-108 -3 0 51 0 50 111 0 110 0 -3 -47z m3182 -3 l0 -51 -107 3 -108 3 -3 48
-3 47 110 0 111 0 0 -50z"/>
<path d="M4100 1140 c-25 -25 -26 -61 -1 -91 19 -23 24 -24 171 -24 147 0 152
1 171 24 25 30 24 66 -1 91 -18 18 -33 20 -170 20 -137 0 -152 -2 -170 -20z"/>
</g>
</svg>
