<svg width="20" height="18" viewBox="0 0 20 18" fill="none" xmlns="http://www.w3.org/2000/svg">
<path fill-rule="evenodd" clip-rule="evenodd" d="M3.58333 10.8333H16.4167C17.146 10.8333 17.8455 10.5436 18.3612 10.0279C18.8769 9.51215 19.1667 8.81268 19.1667 8.08333V1.66667C19.1667 1.42355 19.0701 1.19039 18.8982 1.01849C18.7263 0.846577 18.4931 0.75 18.25 0.75H1.74999C1.50688 0.75 1.27372 0.846577 1.10181 1.01849C0.929905 1.19039 0.833328 1.42355 0.833328 1.66667V8.08333C0.833328 8.81268 1.12306 9.51215 1.63878 10.0279C2.15451 10.5436 2.85398 10.8333 3.58333 10.8333ZM2.66666 2.58333V8.08333C2.66666 8.32645 2.76324 8.55961 2.93515 8.73151C3.10706 8.90342 3.34021 9 3.58333 9H4.49999V6.25C4.49999 6.00689 4.59657 5.77373 4.76848 5.60182C4.94039 5.42991 5.17355 5.33333 5.41666 5.33333H14.5833C14.8264 5.33333 15.0596 5.42991 15.2315 5.60182C15.4034 5.77373 15.5 6.00689 15.5 6.25V9H16.4167C16.6598 9 16.8929 8.90342 17.0648 8.73151C17.2368 8.55961 17.3333 8.32645 17.3333 8.08333V2.58333H2.66666ZM13.6667 9H6.33333V7.16667H13.6667V9Z" fill="black"/>
<path d="M7.25 12.6667C7.25 12.4236 7.15342 12.1904 6.98151 12.0185C6.8096 11.8466 6.57644 11.75 6.33333 11.75C6.09021 11.75 5.85706 11.8466 5.68515 12.0185C5.51324 12.1904 5.41666 12.4236 5.41666 12.6667V16.3333C5.41666 16.5764 5.51324 16.8096 5.68515 16.9815C5.85706 17.1534 6.09021 17.25 6.33333 17.25C6.57644 17.25 6.8096 17.1534 6.98151 16.9815C7.15342 16.8096 7.25 16.5764 7.25 16.3333V12.6667ZM10 11.75C10.2431 11.75 10.4763 11.8466 10.6482 12.0185C10.8201 12.1904 10.9167 12.4236 10.9167 12.6667V16.3333C10.9167 16.5764 10.8201 16.8096 10.6482 16.9815C10.4763 17.1534 10.2431 17.25 10 17.25C9.75688 17.25 9.52372 17.1534 9.35181 16.9815C9.17991 16.8096 9.08333 16.5764 9.08333 16.3333V12.6667C9.08333 12.4236 9.17991 12.1904 9.35181 12.0185C9.52372 11.8466 9.75688 11.75 10 11.75ZM14.5833 12.6667C14.5833 12.4236 14.4868 12.1904 14.3148 12.0185C14.1429 11.8466 13.9098 11.75 13.6667 11.75C13.4235 11.75 13.1904 11.8466 13.0185 12.0185C12.8466 12.1904 12.75 12.4236 12.75 12.6667V16.3333C12.75 16.5764 12.8466 16.8096 13.0185 16.9815C13.1904 17.1534 13.4235 17.25 13.6667 17.25C13.9098 17.25 14.1429 17.1534 14.3148 16.9815C14.4868 16.8096 14.5833 16.5764 14.5833 16.3333V12.6667Z" fill="black"/>
</svg>
