<svg width="14" height="16" viewBox="0 0 14 16" fill="none" xmlns="http://www.w3.org/2000/svg">
<path d="M2.82642 0.763831C3.04368 0.872591 3.20888 1.06316 3.28571 1.29365C3.36254 1.52415 3.34472 1.77572 3.23617 1.99308L2.83283 2.79975C2.47704 3.51159 2.32367 4.30751 2.38946 5.10059C2.45525 5.89367 2.73769 6.65343 3.20592 7.29691C3.84356 8.17363 4.23923 9.20273 4.35315 10.2808C4.46707 11.3589 4.29524 12.448 3.85492 13.4386L3.2545 14.7888C3.20563 14.8989 3.13556 14.9982 3.0483 15.0811C2.96104 15.1641 2.8583 15.229 2.74594 15.2723C2.63358 15.3155 2.51381 15.3362 2.39346 15.3331C2.2731 15.3301 2.15453 15.3034 2.0445 15.2545C1.93448 15.2056 1.83515 15.1356 1.75221 15.0483C1.66926 14.961 1.60431 14.8583 1.56107 14.7459C1.51783 14.6336 1.49714 14.5138 1.50019 14.3935C1.50324 14.2731 1.52996 14.1545 1.57883 14.0445L2.17925 12.6942C2.48898 11.9976 2.60985 11.2316 2.52972 10.4734C2.44958 9.71521 2.17127 8.99146 1.72275 8.37491C1.05729 7.45974 0.656029 6.37934 0.562755 5.25165C0.469482 4.12396 0.687784 2.99232 1.19383 1.98025L1.59717 1.17358C1.70593 0.956319 1.89649 0.791123 2.12699 0.714291C2.35748 0.63746 2.60905 0.655278 2.82642 0.763831ZM7.40975 0.763831C7.62701 0.872591 7.79221 1.06316 7.86904 1.29365C7.94587 1.52415 7.92805 1.77572 7.8195 1.99308L7.41617 2.79975C7.06024 3.51151 6.90672 4.30738 6.97235 5.10046C7.03798 5.89354 7.32025 6.65334 7.78833 7.29691C8.42613 8.17355 8.82195 9.20261 8.93604 10.2807C9.05012 11.3588 8.87844 12.4479 8.43825 13.4386L7.83783 14.7888C7.73913 15.011 7.5562 15.1849 7.32928 15.2723C7.10236 15.3596 6.85004 15.3532 6.62783 15.2545C6.40563 15.1558 6.23173 14.9729 6.1444 14.7459C6.05707 14.519 6.06346 14.2667 6.16217 14.0445L6.76258 12.6942C7.07231 11.9976 7.19318 11.2316 7.11305 10.4734C7.03292 9.71521 6.7546 8.99146 6.30608 8.37491C5.64072 7.4597 5.23952 6.37931 5.14624 5.25164C5.05297 4.12397 5.27122 2.99235 5.77717 1.98025L6.1805 1.17358C6.28926 0.956319 6.47983 0.791123 6.71032 0.714291C6.94082 0.63746 7.19239 0.655278 7.40975 0.763831ZM12.4028 1.99308C12.4611 1.88503 12.4971 1.76637 12.5086 1.64415C12.5202 1.52193 12.507 1.39864 12.47 1.28159C12.433 1.16454 12.3728 1.05612 12.2931 0.962761C12.2134 0.869401 12.1158 0.793003 12.0059 0.738102C11.8961 0.683201 11.7764 0.650914 11.6539 0.643158C11.5314 0.635402 11.4086 0.652334 11.2927 0.69295C11.1769 0.733567 11.0704 0.797039 10.9795 0.879602C10.8887 0.962164 10.8153 1.06213 10.7638 1.17358L10.3605 1.98025C9.85455 2.99235 9.63631 4.12397 9.72958 5.25164C9.82285 6.37931 10.2241 7.4597 10.8894 8.37491C11.3379 8.99146 11.6163 9.71521 11.6964 10.4734C11.7765 11.2316 11.6556 11.9976 11.3459 12.6942L10.7455 14.0445C10.6468 14.2667 10.6404 14.519 10.7277 14.7459C10.8151 14.9729 10.989 15.1558 11.2112 15.2545C11.4334 15.3532 11.6857 15.3596 11.9126 15.2723C12.1395 15.1849 12.3225 15.011 12.4212 14.7888L13.0207 13.4386C13.461 12.448 13.6328 11.3589 13.5189 10.2808C13.405 9.20273 13.0093 8.17363 12.3717 7.29691C11.9037 6.65326 11.6216 5.89341 11.5562 5.10033C11.4907 4.30725 11.6444 3.51143 12.0004 2.79975L12.4038 1.99308H12.4028Z" fill="black"/>
</svg>
