<svg width="18" height="20" viewBox="0 0 18 20" fill="none" xmlns="http://www.w3.org/2000/svg">
<path fill-rule="evenodd" clip-rule="evenodd" d="M8.19883 5.41667H9.91667C10.8891 5.41667 11.8218 5.80298 12.5094 6.49061C13.197 7.17825 13.5833 8.11088 13.5833 9.08334V10.9167C13.5833 11.1598 13.4868 11.3929 13.3148 11.5649C13.1429 11.7368 12.9098 11.8333 12.6667 11.8333H1.66667C1.42355 11.8333 1.19039 11.7368 1.01849 11.5649C0.846577 11.3929 0.75 11.1598 0.75 10.9167V9.08334C0.75 8.11088 1.13631 7.17825 1.82394 6.49061C2.51157 5.80298 3.44421 5.41667 4.41667 5.41667H6.32608C6.5596 4.05994 7.29326 2.84005 8.38225 1.99782C9.47123 1.15559 10.8364 0.752215 12.2083 0.867333C13.5801 0.98245 14.859 1.60769 15.7924 2.61963C16.7258 3.63157 17.2459 4.95666 17.25 6.33334V18.25C17.25 18.4931 17.1534 18.7263 16.9815 18.8982C16.8096 19.0701 16.5764 19.1667 16.3333 19.1667C16.0902 19.1667 15.8571 19.0701 15.6852 18.8982C15.5132 18.7263 15.4167 18.4931 15.4167 18.25V6.33334C15.4176 5.44026 15.0925 4.57756 14.5024 3.90717C13.9124 3.23678 13.0979 2.80478 12.212 2.69226C11.326 2.57975 10.4294 2.79444 9.69053 3.29606C8.95164 3.79768 8.42122 4.55172 8.19883 5.41667ZM4.41667 7.25H9.91667C10.4029 7.25 10.8692 7.44316 11.213 7.78697C11.5568 8.13079 11.75 8.59711 11.75 9.08334V10H2.58333V9.08334C2.58333 8.59711 2.77649 8.13079 3.1203 7.78697C3.46412 7.44316 3.93044 7.25 4.41667 7.25Z" fill="#1D1D1F"/>
<path d="M3.5 12.75C3.74312 12.75 3.97627 12.8466 4.14818 13.0185C4.32009 13.1904 4.41667 13.4236 4.41667 13.6667V14.5833C4.41667 14.8265 4.32009 15.0596 4.14818 15.2315C3.97627 15.4034 3.74312 15.5 3.5 15.5C3.25688 15.5 3.02373 15.4034 2.85182 15.2315C2.67991 15.0596 2.58333 14.8265 2.58333 14.5833V13.6667C2.58333 13.4236 2.67991 13.1904 2.85182 13.0185C3.02373 12.8466 3.25688 12.75 3.5 12.75ZM8.08333 13.6667C8.08333 13.4236 7.98676 13.1904 7.81485 13.0185C7.64294 12.8466 7.40978 12.75 7.16667 12.75C6.92355 12.75 6.69039 12.8466 6.51849 13.0185C6.34658 13.1904 6.25 13.4236 6.25 13.6667V14.5833C6.25 14.8265 6.34658 15.0596 6.51849 15.2315C6.69039 15.4034 6.92355 15.5 7.16667 15.5C7.40978 15.5 7.64294 15.4034 7.81485 15.2315C7.98676 15.0596 8.08333 14.8265 8.08333 14.5833V13.6667ZM10.8333 12.75C11.0764 12.75 11.3096 12.8466 11.4815 13.0185C11.6534 13.1904 11.75 13.4236 11.75 13.6667V14.5833C11.75 14.8265 11.6534 15.0596 11.4815 15.2315C11.3096 15.4034 11.0764 15.5 10.8333 15.5C10.5902 15.5 10.3571 15.4034 10.1852 15.2315C10.0132 15.0596 9.91667 14.8265 9.91667 14.5833V13.6667C9.91667 13.4236 10.0132 13.1904 10.1852 13.0185C10.3571 12.8466 10.5902 12.75 10.8333 12.75ZM4.41667 17.3333C4.41667 17.0902 4.32009 16.8571 4.14818 16.6852C3.97627 16.5132 3.74312 16.4167 3.5 16.4167C3.25688 16.4167 3.02373 16.5132 2.85182 16.6852C2.67991 16.8571 2.58333 17.0902 2.58333 17.3333V18.25C2.58333 18.4931 2.67991 18.7263 2.85182 18.8982C3.02373 19.0701 3.25688 19.1667 3.5 19.1667C3.74312 19.1667 3.97627 19.0701 4.14818 18.8982C4.32009 18.7263 4.41667 18.4931 4.41667 18.25V17.3333ZM7.16667 16.4167C7.40978 16.4167 7.64294 16.5132 7.81485 16.6852C7.98676 16.8571 8.08333 17.0902 8.08333 17.3333V18.25C8.08333 18.4931 7.98676 18.7263 7.81485 18.8982C7.64294 19.0701 7.40978 19.1667 7.16667 19.1667C6.92355 19.1667 6.69039 19.0701 6.51849 18.8982C6.34658 18.7263 6.25 18.4931 6.25 18.25V17.3333C6.25 17.0902 6.34658 16.8571 6.51849 16.6852C6.69039 16.5132 6.92355 16.4167 7.16667 16.4167ZM11.75 17.3333C11.75 17.0902 11.6534 16.8571 11.4815 16.6852C11.3096 16.5132 11.0764 16.4167 10.8333 16.4167C10.5902 16.4167 10.3571 16.5132 10.1852 16.6852C10.0132 16.8571 9.91667 17.0902 9.91667 17.3333V18.25C9.91667 18.4931 10.0132 18.7263 10.1852 18.8982C10.3571 19.0701 10.5902 19.1667 10.8333 19.1667C11.0764 19.1667 11.3096 19.0701 11.4815 18.8982C11.6534 18.7263 11.75 18.4931 11.75 18.25V17.3333Z" fill="#1D1D1F"/>
</svg>
