<svg width="22" height="20" viewBox="0 0 22 20" fill="none" xmlns="http://www.w3.org/2000/svg">
<path d="M8.70832 2.66666C8.34719 2.66666 7.98959 2.73779 7.65594 2.87599C7.3223 3.01419 7.01914 3.21676 6.76378 3.47212C6.50842 3.72748 6.30586 4.03064 6.16765 4.36428C6.02945 4.69793 5.95832 5.05553 5.95832 5.41666C5.95832 5.7778 6.02945 6.1354 6.16765 6.46904C6.30586 6.80269 6.50842 7.10584 6.76378 7.36121C7.01914 7.61657 7.3223 7.81913 7.65594 7.95733C7.98959 8.09553 8.34719 8.16666 8.70832 8.16666C9.43767 8.16666 10.1371 7.87693 10.6529 7.36121C11.1686 6.84548 11.4583 6.14601 11.4583 5.41666C11.4583 4.68732 11.1686 3.98784 10.6529 3.47212C10.1371 2.95639 9.43767 2.66666 8.70832 2.66666ZM4.12499 5.41666C4.12499 4.20109 4.60788 3.0353 5.46742 2.17576C6.32696 1.31621 7.49275 0.833328 8.70832 0.833328C9.9239 0.833328 11.0897 1.31621 11.9492 2.17576C12.8088 3.0353 13.2917 4.20109 13.2917 5.41666C13.2917 6.63224 12.8088 7.79803 11.9492 8.65757C11.0897 9.51711 9.9239 10 8.70832 10C7.49275 10 6.32696 9.51711 5.46742 8.65757C4.60788 7.79803 4.12499 6.63224 4.12499 5.41666ZM13.3586 1.67299C13.4497 1.44763 13.6267 1.26771 13.8505 1.17282C14.0744 1.07793 14.3267 1.07583 14.5521 1.16699C15.3986 1.50945 16.1235 2.0969 16.634 2.85404C17.1444 3.61118 17.4171 4.50352 17.4171 5.41666C17.4171 6.3298 17.1444 7.22214 16.634 7.97928C16.1235 8.73643 15.3986 9.32388 14.5521 9.66633C14.3271 9.75557 14.0759 9.75221 13.8534 9.65698C13.6309 9.56175 13.4551 9.38238 13.3643 9.158C13.2736 8.93363 13.2752 8.68246 13.3689 8.45931C13.4626 8.23615 13.6408 8.05911 13.8646 7.96683C14.3726 7.76134 14.8076 7.40882 15.1139 6.95447C15.4202 6.50012 15.5839 5.96463 15.5839 5.41666C15.5839 4.86869 15.4202 4.33321 15.1139 3.87885C14.8076 3.4245 14.3726 3.07198 13.8646 2.86649C13.6392 2.77532 13.4593 2.59836 13.3644 2.37454C13.2695 2.15071 13.2674 1.89836 13.3586 1.67299ZM7.30032 11.8333H10.1163C10.9422 11.8333 11.6096 11.8333 12.1513 11.87C12.7105 11.9085 13.2037 11.9892 13.6702 12.1817C14.2264 12.4121 14.7317 12.7499 15.1573 13.1756C15.5829 13.6014 15.9205 14.1068 16.1507 14.6631C16.3451 15.1306 16.4257 15.6237 16.4624 16.1811C16.5 16.7237 16.5 17.3911 16.5 18.2179V18.25C16.5 18.4931 16.4034 18.7263 16.2315 18.8982C16.0596 19.0701 15.8264 19.1667 15.5833 19.1667C15.3402 19.1667 15.1071 19.0701 14.9351 18.8982C14.7632 18.7263 14.6667 18.4931 14.6667 18.25C14.6667 17.3828 14.6667 16.7787 14.6337 16.3067C14.6025 15.841 14.5429 15.5706 14.4577 15.3643C14.3195 15.0306 14.1169 14.7273 13.8614 14.4719C13.606 14.2165 13.3027 14.0139 12.969 13.8757C12.7627 13.7904 12.4923 13.7308 12.0276 13.6997C11.5546 13.6667 10.9505 13.6667 10.0833 13.6667H7.33332C6.46616 13.6667 5.86207 13.6667 5.38999 13.6997C4.92524 13.7308 4.65391 13.7904 4.44766 13.8757C4.11391 14.0139 3.81066 14.2165 3.55523 14.4719C3.2998 14.7273 3.09719 15.0306 2.95899 15.3643C2.87374 15.5706 2.81416 15.841 2.78299 16.3057C2.74999 16.7787 2.74999 17.3828 2.74999 18.25C2.74999 18.4931 2.65341 18.7263 2.4815 18.8982C2.3096 19.0701 2.07644 19.1667 1.83332 19.1667C1.59021 19.1667 1.35705 19.0701 1.18514 18.8982C1.01323 18.7263 0.916656 18.4931 0.916656 18.25V18.2179C0.916656 17.3911 0.916656 16.7237 0.953323 16.1811C0.991823 15.6237 1.07249 15.1297 1.26499 14.6631C1.49543 14.1069 1.83318 13.6016 2.25895 13.176C2.68471 12.7504 3.19016 12.4128 3.74641 12.1826C4.21391 11.9882 4.70707 11.9076 5.26441 11.8709C5.80707 11.8333 6.47441 11.8333 7.30032 11.8333ZM16.5293 12.6372C16.5898 12.4018 16.7412 12.2 16.9504 12.0762C17.1597 11.9525 17.4095 11.9169 17.6449 11.9772C18.629 12.2315 19.5008 12.8055 20.1232 13.609C20.7456 14.4126 21.0833 15.4002 21.0833 16.4167V18.25C21.0833 18.4931 20.9867 18.7263 20.8148 18.8982C20.6429 19.0701 20.4098 19.1667 20.1667 19.1667C19.9235 19.1667 19.6904 19.0701 19.5185 18.8982C19.3466 18.7263 19.25 18.4931 19.25 18.25V16.4167C19.2497 15.807 19.047 15.2148 18.6737 14.7328C18.3005 14.2508 17.7777 13.9065 17.1875 13.7537C16.9522 13.6929 16.7507 13.5411 16.6273 13.3318C16.5038 13.1224 16.4686 12.8726 16.5293 12.6372Z" fill="black"/>
</svg>
