<svg width="22" height="22" viewBox="0 0 22 22" fill="none" xmlns="http://www.w3.org/2000/svg">
<path d="M14.3202 0.53717C13.8242 0.643503 13.4438 0.843336 13.0102 1.22467C12.4997 1.67384 10.8057 3.41459 10.6526 3.64742C10.425 3.9923 10.2785 4.38425 10.224 4.79385C10.1696 5.20344 10.2086 5.62006 10.3382 6.01242C10.4903 6.46709 10.6562 6.73292 11.0357 7.12709L11.3483 7.4525L11.2585 7.51209C10.1218 8.26925 8.65883 9.68275 7.78158 10.8717C7.63216 11.0733 7.49741 11.2622 7.48091 11.2915C7.45708 11.3328 7.37 11.2686 7.09866 11.0092C6.81541 10.7388 6.6825 10.6416 6.40841 10.5068C5.93541 10.2749 5.67875 10.2135 5.17 10.2135C4.565 10.2126 4.17633 10.3272 3.64925 10.6627C3.37608 10.8368 1.74258 12.4208 1.20816 13.0304C0.677412 13.6345 0.448246 14.2707 0.486746 15.0269C0.515162 15.5769 0.636162 15.9463 0.946912 16.4267C1.089 16.6476 5.00591 20.6058 5.37166 20.8991C5.66133 21.1301 6.00416 21.3143 6.34333 21.4198C6.70083 21.5307 7.43783 21.5408 7.81 21.4408C8.18764 21.3306 8.53992 21.1471 8.84675 20.9009C9.24091 20.5838 11.1815 18.6056 11.3474 18.3526C11.5752 18.0078 11.7218 17.6158 11.7763 17.2062C11.8307 16.7966 11.7916 16.3799 11.6618 15.9876C11.5106 15.5348 11.3437 15.2671 10.9734 14.8821L10.6691 14.5658L10.9899 14.333C12.1312 13.5053 13.5052 12.1312 14.333 10.9899L14.5658 10.6691L14.8821 10.9734C15.2671 11.3438 15.5347 11.5106 15.9876 11.6618C16.3799 11.7916 16.7966 11.8307 17.2062 11.7763C17.6158 11.7218 18.0078 11.5752 18.3526 11.3474C18.6056 11.1815 20.5837 9.24092 20.9009 8.84675C21.1447 8.54425 21.3464 8.15742 21.4408 7.81C21.5407 7.43784 21.5307 6.70084 21.4197 6.34334C21.3052 5.98163 21.1219 5.64547 20.8798 5.35334C20.537 4.93442 16.6457 1.08809 16.4111 0.935003C15.7925 0.535248 15.0423 0.392523 14.3202 0.53717ZM15.334 2.43192C15.5347 2.55017 19.5131 6.53859 19.6029 6.71C19.6964 6.88784 19.6964 7.33884 19.6029 7.51667C19.5103 7.69267 17.4744 9.735 17.27 9.85692C17.0491 9.988 16.6742 9.99625 16.4267 9.87342C16.3084 9.81567 15.6759 9.20609 14.2028 7.72842C12.2182 5.74017 12.1412 5.65767 12.0853 5.46609C12.0111 5.214 12.0111 5.082 12.0872 4.85559C12.1394 4.697 12.2751 4.54575 13.1963 3.61809C13.7729 3.03692 14.2927 2.52634 14.3504 2.48417C14.6291 2.28342 15.048 2.26142 15.334 2.43192ZM12.9626 9.05759L13.2174 9.31425L13.1349 9.47009C12.7527 10.1833 11.4033 11.6664 10.406 12.4694C10.0054 12.7912 9.40775 13.2 9.33625 13.2C9.31241 13.2 9.18041 13.0863 9.04291 12.9479L8.79358 12.6958L8.85591 12.5721C9.19233 11.913 10.4619 10.4839 11.4217 9.68459C11.9194 9.27025 12.5913 8.8 12.6857 8.8C12.6977 8.8 12.8214 8.9155 12.9626 9.05759ZM5.56141 12.1211C5.65491 12.1633 6.40108 12.8828 7.77975 14.2597C9.78541 16.2635 9.85875 16.3414 9.91558 16.5339C9.98891 16.7869 9.988 16.918 9.91283 17.1444C9.86058 17.303 9.72308 17.4561 8.76791 18.4168C7.57441 19.6167 7.48 19.69 7.11516 19.69C6.71733 19.6891 6.7265 19.6964 4.5045 17.4662C3.3825 16.3396 2.43375 15.3606 2.39708 15.29C2.34941 15.1993 2.32925 15.081 2.32925 14.8867C2.32833 14.6538 2.343 14.5869 2.42641 14.4467C2.4805 14.3559 3.0085 13.8004 3.59975 13.2128C4.56408 12.2531 4.69425 12.1376 4.85833 12.0853C5.0765 12.0166 5.36341 12.0313 5.56141 12.1211Z" fill="#1D1D1F"/>
</svg>
