<?xml version="1.0" encoding="utf-8"?>
<!-- Generator: Adobe Illustrator 23.1.0, SVG Export Plug-In . SVG Version: 6.00 Build 0)  -->
<svg version="1.1" id="Capa_1" xmlns="http://www.w3.org/2000/svg" xmlns:xlink="http://www.w3.org/1999/xlink" x="0px" y="0px"
	 viewBox="0 0 388.9 407.4" style="enable-background:new 0 0 388.9 407.4;" xml:space="preserve">
<g>
	<path d="M0.2,115.5c0-13.2-0.4-26.3,0.1-39.5c0.6-16.2,12.1-29.6,27.8-33.6c1.7-0.4,3.7-1,4.8-2.2C49.3,21.8,70.8,13.4,94,8.4
		c36.1-7.8,72.8-8.9,109.6-8.2c34.3,0.6,68.1,4.5,101.1,14.3c19.5,5.8,38.3,13.1,52.7,28.4c0.7,0.8,1.9,1.2,3,1.6
		c20.9,6.9,28.5,20.9,28.5,41.7c0,23.8-0.5,47.7-1.8,71.4c-1.8,31.9-4.5,63.8-13.6,94.8c-8.5,29-23,54.5-41.7,77.9
		c-15.8,19.7-32.9,38-53.7,52.5c-18.1,12.6-38,20.4-60.1,22.9c-24.3,2.7-48.4,3.2-72-4.3c-19.2-6-35.6-16.9-50.7-29.7
		c-25.6-21.8-48-46.6-64.4-76.2c-12.3-22.2-19.3-46.3-23.7-71.1C0.7,188.3,0.1,151.9,0.2,115.5z M20.6,118.6c-0.4,0-0.7,0.1-1.1,0.1
		c2.2,30,4.4,60,6.6,90c2,27.4,10.3,52.9,23.3,76.8c14.2,26,33.5,47.9,55.9,67.1c15,12.8,31.3,23.4,50.5,29.1
		c17.5,5.2,35.3,5.7,53.3,3.7c18.5-2,36-6.5,52.1-16.4c18.1-11.1,32.9-25.8,46.6-41.8c15.6-18.2,29.1-37.8,38.6-60
		c14.7-34,17.2-70.3,19.6-106.5c1.6-23.9,1.3-47.9,1.7-71.9c0.1-3.5-0.1-7-0.6-10.5c-1.1-8.5-7.6-14.3-15.5-13.8
		c-6.8,0.5-13.6,1.3-20.3,1.9c-16.5,1.6-33,3.4-49.6,4.7c-15.1,1.2-30.2,2.1-45.3,2.4c-20.3,0.5-40.7,0.9-61,0.2
		c-25.8-0.9-51.5-2.6-77.2-4.6c-17.7-1.4-35.4-3.3-52.9-5.8c-16.3-2.3-24.3,4-24.6,21.1C20.4,95.9,20.6,107.2,20.6,118.6z M330,45.5
		c-4.7-2.1-8.3-3.9-12-5.3C283.8,28,248.1,23.4,212.2,21.6c-16.9-0.8-33.9,0.2-50.9,0.8c-24.2,0.8-48.2,4.1-71.7,10
		c-10,2.5-19.7,5.8-29.4,12C150.3,55.1,239.4,56.2,330,45.5z"/>
	<path d="M326.3,184.9c-0.3,17.5-9,30.2-23.4,33.3c-9.9,2.1-19.9,3.6-29.8,5.1c-9.2,1.5-18.3,3.2-25.8,9.4
		c-13.8,11.4-17.1,30-7.4,45.7c4.4,7.2,10.4,13.3,15.7,19.9c5.5,6.7,10.7,13.4,11.6,22.6c1.2,13.3-5.2,22.5-15.4,29.7
		c-12.1,8.6-25.9,12.5-40.2,14.5c-21.9,3-43.4,0.5-63.9-7.9c-8.4-3.4-16-8.2-21.7-15.4c-8.5-10.8-9.2-24.4-1.1-35.5
		c5.6-7.6,11.9-14.7,17.9-22c18.7-22.9,7-54.6-22.1-59.9c-10.9-2-21.8-4-32.7-6c-15.2-2.7-26.7-16-26.7-31.4
		c0-6.2-0.2-12.8,1.6-18.7c4.4-14.3,19.1-21.6,36.1-19.9c15.9,1.7,31.8,3.1,47.7,3.8c21.3,0.9,42.6,1.5,63.9,1
		c23.8-0.5,47.5-2.4,71.2-3.7c5.8-0.3,11.8-1.5,17.3-0.6c18.3,3.3,27.5,15.2,27.2,34C326.3,183.6,326.3,184.2,326.3,184.9z"/>
</g>
</svg>
