<svg width="19" height="20" viewBox="0 0 19 20" fill="none" xmlns="http://www.w3.org/2000/svg">
<path d="M1.00662 6.10097C1.00662 5.51789 0.989135 4.93923 1.01099 4.35615C1.03723 3.64055 1.53999 3.04863 2.22637 2.87194C2.30069 2.85427 2.38813 2.82777 2.43622 2.77476C3.1532 1.96198 4.09315 1.59093 5.10742 1.37007C6.68565 1.02552 8.29012 0.976928 9.89896 1.00785C11.3985 1.03435 12.8762 1.20663 14.3189 1.63952C15.1714 1.89572 15.9933 2.21818 16.6229 2.89403C16.6535 2.92937 16.7059 2.94704 16.754 2.9647C17.6677 3.2695 18 3.88792 18 4.80671C18 5.85802 17.9781 6.91375 17.9213 7.96065C17.8426 9.36976 17.7246 10.7789 17.3267 12.1482C16.9551 13.4292 16.3212 14.5556 15.5037 15.5893C14.8129 16.4595 14.0653 17.2679 13.156 17.9084C12.3647 18.4649 11.4947 18.8095 10.5285 18.9199C9.46615 19.0392 8.41254 19.0613 7.38078 18.73C6.54138 18.4649 5.8244 17.9835 5.16425 17.418C4.04506 16.4551 3.06576 15.3596 2.34878 14.0521C1.81104 13.0714 1.50501 12.0069 1.31265 10.9114C1.02848 9.31675 1.00225 7.70886 1.00662 6.10097ZM1.89848 6.23791C1.88099 6.23791 1.86788 6.24233 1.85039 6.24233C1.94657 7.56751 2.04275 8.89269 2.13893 10.2179C2.22637 11.4282 2.58923 12.5546 3.15757 13.6104C3.77837 14.7588 4.62214 15.7262 5.60144 16.5743C6.25721 17.1398 6.96983 17.608 7.80922 17.8598C8.57429 18.0895 9.35248 18.1116 10.1394 18.0232C10.9482 17.9349 11.7133 17.7361 12.4171 17.2988C13.2085 16.8085 13.8555 16.1591 14.4544 15.4524C15.1364 14.6484 15.7266 13.7826 16.142 12.802C16.7846 11.3001 16.8939 9.69664 16.9988 8.09758C17.0688 7.04185 17.0557 5.98171 17.0732 4.92156C17.0775 4.76695 17.0688 4.61235 17.0469 4.45775C16.9988 4.08228 16.7147 3.82607 16.3693 3.84816C16.072 3.87025 15.7747 3.90559 15.4818 3.93209C14.7605 4.00277 14.0391 4.08228 13.3134 4.1397C12.6532 4.19271 11.9931 4.23246 11.3329 4.24572C10.4454 4.2678 9.55359 4.28547 8.6661 4.25455C7.53817 4.21479 6.4146 4.1397 5.29103 4.05136C4.51722 3.98951 3.7434 3.90559 2.97833 3.79515C2.26572 3.69356 1.91597 3.97184 1.90285 4.7272C1.88974 5.23519 1.89848 5.73434 1.89848 6.23791ZM15.425 3.00888C15.2195 2.91611 15.0621 2.8366 14.9004 2.77476C13.4052 2.23585 11.8444 2.03266 10.2749 1.95315C9.5361 1.91781 8.79289 1.96198 8.04967 1.98849C6.99168 2.02382 5.94244 2.16959 4.91506 2.43021C4.47787 2.54065 4.0538 2.68642 3.62973 2.96029C7.56877 3.43294 11.4641 3.48153 15.425 3.00888Z" fill="black"/>
<path d="M15.2631 8.11231C15.25 8.88533 14.8697 9.44633 14.2401 9.58326C13.8073 9.67603 13.3701 9.74228 12.9373 9.80854C12.5351 9.8748 12.1373 9.9499 11.8094 10.2238C11.2061 10.7273 11.0618 11.549 11.4859 12.2425C11.6782 12.5605 11.9405 12.83 12.1722 13.1215C12.4127 13.4175 12.64 13.7134 12.6794 14.1198C12.7318 14.7073 12.452 15.1137 12.0061 15.4317C11.4771 15.8116 10.8738 15.9839 10.2486 16.0722C9.29119 16.2048 8.35124 16.0943 7.45501 15.7233C7.08777 15.5731 6.75551 15.3611 6.50632 15.043C6.13471 14.566 6.10411 13.9652 6.45823 13.4749C6.70305 13.1392 6.97848 12.8255 7.24079 12.5031C8.05832 11.4915 7.54682 10.0912 6.27461 9.85713C5.79808 9.76879 5.32155 9.68044 4.84501 9.5921C4.18049 9.47283 3.67773 8.88533 3.67773 8.20507C3.67773 7.9312 3.66899 7.63966 3.74768 7.37904C3.94004 6.74737 4.5827 6.42491 5.32592 6.5C6.02104 6.57509 6.71617 6.63694 7.41129 6.66786C8.34249 6.70761 9.2737 6.73412 10.2049 6.71203C11.2454 6.68994 12.2815 6.60602 13.3177 6.54859C13.5712 6.53534 13.8335 6.48233 14.074 6.52209C14.874 6.66786 15.2762 7.19351 15.2631 8.02396C15.2631 8.05488 15.2631 8.08139 15.2631 8.11231Z" fill="black"/>
<path d="M1.00662 6.10097C1.00662 5.51789 0.989135 4.93923 1.01099 4.35615C1.03723 3.64055 1.53999 3.04863 2.22637 2.87194C2.30069 2.85427 2.38813 2.82777 2.43622 2.77476C3.1532 1.96198 4.09315 1.59093 5.10742 1.37007C6.68565 1.02552 8.29012 0.976928 9.89896 1.00785C11.3985 1.03435 12.8762 1.20663 14.3189 1.63952C15.1714 1.89572 15.9933 2.21818 16.6229 2.89403C16.6535 2.92937 16.7059 2.94704 16.754 2.9647C17.6677 3.2695 18 3.88792 18 4.80671C18 5.85802 17.9781 6.91375 17.9213 7.96065C17.8426 9.36976 17.7246 10.7789 17.3267 12.1482C16.9551 13.4292 16.3212 14.5556 15.5037 15.5893C14.8129 16.4595 14.0653 17.2679 13.156 17.9084C12.3647 18.4649 11.4947 18.8095 10.5285 18.9199C9.46615 19.0392 8.41254 19.0613 7.38078 18.73C6.54138 18.4649 5.8244 17.9835 5.16425 17.418C4.04506 16.4551 3.06576 15.3596 2.34878 14.0521C1.81104 13.0714 1.50501 12.0069 1.31265 10.9114C1.02848 9.31675 1.00225 7.70886 1.00662 6.10097ZM1.89848 6.23791C1.88099 6.23791 1.86788 6.24233 1.85039 6.24233C1.94657 7.56751 2.04275 8.89269 2.13893 10.2179C2.22637 11.4282 2.58923 12.5546 3.15757 13.6104C3.77837 14.7588 4.62214 15.7262 5.60144 16.5743C6.25721 17.1398 6.96983 17.608 7.80922 17.8598C8.57429 18.0895 9.35248 18.1116 10.1394 18.0232C10.9482 17.9349 11.7133 17.7361 12.4171 17.2988C13.2085 16.8085 13.8555 16.1591 14.4544 15.4524C15.1364 14.6484 15.7266 13.7826 16.142 12.802C16.7846 11.3001 16.8939 9.69664 16.9988 8.09758C17.0688 7.04185 17.0557 5.98171 17.0732 4.92156C17.0775 4.76695 17.0688 4.61235 17.0469 4.45775C16.9988 4.08228 16.7147 3.82607 16.3693 3.84816C16.072 3.87025 15.7747 3.90559 15.4818 3.93209C14.7605 4.00277 14.0391 4.08228 13.3134 4.1397C12.6532 4.19271 11.9931 4.23246 11.3329 4.24572C10.4454 4.2678 9.55359 4.28547 8.6661 4.25455C7.53817 4.21479 6.4146 4.1397 5.29103 4.05136C4.51722 3.98951 3.7434 3.90559 2.97833 3.79515C2.26572 3.69356 1.91597 3.97184 1.90285 4.7272C1.88974 5.23519 1.89848 5.73434 1.89848 6.23791ZM15.425 3.00888C15.2195 2.91611 15.0621 2.8366 14.9004 2.77476C13.4052 2.23585 11.8444 2.03266 10.2749 1.95315C9.5361 1.91781 8.79289 1.96198 8.04967 1.98849C6.99168 2.02382 5.94244 2.16959 4.91506 2.43021C4.47787 2.54065 4.0538 2.68642 3.62973 2.96029C7.56877 3.43294 11.4641 3.48153 15.425 3.00888Z" stroke="black" stroke-width="0.7"/>
<path d="M15.2631 8.11231C15.25 8.88533 14.8697 9.44633 14.2401 9.58326C13.8073 9.67603 13.3701 9.74228 12.9373 9.80854C12.5351 9.8748 12.1373 9.9499 11.8094 10.2238C11.2061 10.7273 11.0618 11.549 11.4859 12.2425C11.6782 12.5605 11.9405 12.83 12.1722 13.1215C12.4127 13.4175 12.64 13.7134 12.6794 14.1198C12.7318 14.7073 12.452 15.1137 12.0061 15.4317C11.4771 15.8116 10.8738 15.9839 10.2486 16.0722C9.29119 16.2048 8.35124 16.0943 7.45501 15.7233C7.08777 15.5731 6.75551 15.3611 6.50632 15.043C6.13471 14.566 6.10411 13.9652 6.45823 13.4749C6.70305 13.1392 6.97848 12.8255 7.24079 12.5031C8.05832 11.4915 7.54682 10.0912 6.27461 9.85713C5.79808 9.76879 5.32155 9.68044 4.84501 9.5921C4.18049 9.47283 3.67773 8.88533 3.67773 8.20507C3.67773 7.9312 3.66899 7.63966 3.74768 7.37904C3.94004 6.74737 4.5827 6.42491 5.32592 6.5C6.02104 6.57509 6.71617 6.63694 7.41129 6.66786C8.34249 6.70761 9.2737 6.73412 10.2049 6.71203C11.2454 6.68994 12.2815 6.60602 13.3177 6.54859C13.5712 6.53534 13.8335 6.48233 14.074 6.52209C14.874 6.66786 15.2762 7.19351 15.2631 8.02396C15.2631 8.05488 15.2631 8.08139 15.2631 8.11231Z" stroke="black" stroke-width="0.7"/>
</svg>
