<?xml version="1.0" encoding="utf-8"?>
<!-- Generator: Adobe Illustrator 23.1.0, SVG Export Plug-In . SVG Version: 6.00 Build 0)  -->
<svg version="1.1" id="Capa_1" xmlns="http://www.w3.org/2000/svg" xmlns:xlink="http://www.w3.org/1999/xlink" x="0px" y="0px"
	 viewBox="0 0 388.9 407.4" style="enable-background:new 0 0 388.9 407.4;" xml:space="preserve">
<path d="M28.8,116.3c15.5-4.3,30.5-8.4,45.5-12.5c34.6-9.3,69.2-18.7,103.9-27.8c4.6-1.2,6.3-3,6-7.9c-0.5-7.6,3.8-12.3,10.7-13.2
	c5.9-0.7,9.8,2.5,10.1,8.4c0.5,10.2,0.5,10.2,10.3,13c47.8,13.6,95.6,27.1,143.4,40.6c0.3,0.1,0.6,0,1.5-0.1c0-4.8,0.1-9.6,0-14.4
	c-0.3-8.8,2.5-12.8,9.3-13c7-0.1,10.7,4.2,10.7,12.6c0,50.5-0.1,100.9-0.1,151.4c0,3.8,0,7.6,0.1,11.4c0.3,7.4-3.2,12.3-9.9,15.1
	c-19.9,8.4-39.8,16.8-59.6,25.2c-36,15.2-71.9,30.5-107.9,45.8c-5.4,2.3-10.7,2.3-16,0C130.7,326.9,74.8,303,18.9,279
	c-7.6-3.2-10.1-7-10.1-15.3c0-53.8,0-107.6,0-161.4c0-8.4,4-13,10.9-13c5.4,0.1,8.8,3.4,9,8.9C28.9,104.1,28.8,110,28.8,116.3z
	 M184.8,328.2c0-14.3-0.1-27.8,0.1-41.2c0.1-3.4-1.1-4.6-4.1-5.7c-35.8-13.9-71.5-28.1-107.2-42.1c-14.5-5.7-29-11.3-44-17.1
	c0,12.1,0.2,23.6-0.1,35.1c-0.1,4.2,1.2,6,5,7.5c35.6,14.9,71.1,30,106.6,45C155.4,315.8,169.8,321.9,184.8,328.2z M359,222.8
	c-1,0.4-1.7,0.6-2.4,0.9c-22.5,8.6-45,17.2-67.4,25.9c-27,10.5-53.9,21.1-80.9,31.8c-1.3,0.5-3.2,2.1-3.2,3.2
	c-0.2,14.2-0.1,28.4-0.1,43.3c51.8-22,103-43.8,154.1-65.5C359,249,359,236.1,359,222.8z M184.3,261c0-8.8,0.1-16.9-0.1-24.9
	c0-1.1-1.4-2.7-2.5-3.1c-33.1-12.1-66.2-24.1-99.3-36c-1.1-0.4-2.5-0.7-3.6-0.4c-11,3.4-22,7-33.7,10.7
	C91.8,225.3,137.8,243,184.3,261z M342.6,207.1c-11.3-3.6-22-7-32.7-10.3c-1.2-0.4-2.7,0-4,0.4c-7.9,2.8-15.7,5.7-23.5,8.5
	c-24.6,8.9-49.1,17.8-73.6,26.9c-1.5,0.5-3.6,2.2-3.7,3.4c-0.3,8.2-0.2,16.4-0.2,24.9C250.9,242.9,296.5,225.1,342.6,207.1z
	 M184.6,95c-42.5,11.5-84.4,22.8-126.3,34.1c8.9,3.5,17.7,6.2,26.5,8.8c1.2,0.4,2.8-0.2,4.1-0.5c28.7-7.7,57.4-15.5,86.1-23.2
	c9.6-2.6,9.6-2.6,9.6-12.7C184.6,99.6,184.6,97.7,184.6,95z M205.1,111.1c1.4,0.4,2.7,0.9,4.1,1.3c26,7.2,52.2,14.1,78.1,21.8
	c10.5,3.2,20.3,4,30.5-0.6c4-1.8,8.4-2.6,13.6-4.1C288.6,117.8,247,106.4,205.1,95C205.1,100.4,205.1,105.5,205.1,111.1z
	 M205.2,192.8c0,6.8,0,13,0,20c24.4-8.6,48.5-17,73.7-25.8c-9.2-1.9-17.2-3.6-25.2-5.2c-3.3-0.7-7.1-2.1-10.1-1.3
	C230.7,184.2,218.1,188.6,205.2,192.8z M110.4,187c25.2,8.7,49.5,17.1,74.2,25.6c0-6.1,0.1-11.7-0.1-17.2c-0.1-1.1-1.4-2.7-2.5-3.1
	c-11.9-4-23.9-7.8-35.9-11.7c-1-0.3-2.2-0.9-3.2-0.7C132.4,182.2,121.9,184.5,110.4,187z M184.3,132.3
	c-21.3,5.7-42.3,11.2-64.3,17.1c8.5,3.1,15.7,5.8,23,8.2c1.8,0.6,4.1,0.5,5.9,0c7.8-2,15.5-4.3,23.2-6.4
	c13.1-3.7,13.1-3.7,12.6-17.4C184.6,133.4,184.5,133.1,184.3,132.3z M204.9,132.3c0,4.2,0.2,7.9-0.1,11.7c-0.2,2.7,0.8,3.9,3.4,4.6
	c10.7,3,21.4,6.3,32.1,9.3c1.7,0.5,3.8,0.3,5.5-0.2c7.5-2.4,15-5.1,23.5-8C247.3,143.7,226.3,138,204.9,132.3z M276.9,167.3
	c8.6,2.3,15.8,4.2,23.1,6.1c3.3,0.9,7,3.2,9.9,2.4c8.1-2.1,15.8-5.5,24.4-8.6c-4.2-1.2-7.5-2.3-10.9-3.1c-9.4-2.3-18.5-6.9-28.7-2.3
	C289.5,164.2,283.7,165.3,276.9,167.3z M55.2,167.2c4,1.5,7.4,2.5,10.6,4.1c9,4.5,17.9,5.4,27.5,1.2c5.7-2.4,12-3.3,18-4.9
	c-7.3-2.9-14.5-5.2-21.8-7c-2.9-0.7-6.1-0.8-9-0.1C72.3,162.4,64.2,164.8,55.2,167.2z M212.5,169.9c-16.4-6-20.3-6-35.2,0.2
	C190.6,176.4,200,176.3,212.5,169.9z M29.5,141.8c0,4.5,0,8.5,0,13c7.2-2.3,13.9-4.4,21.4-6.8C43.3,145.8,36.6,143.9,29.5,141.8z
	 M359.9,141.8c-6.9,2-13.4,4-21,6.3c7.5,2.4,14.1,4.5,21,6.6C359.9,150,359.9,146.1,359.9,141.8z M47.9,185.3
	c-6.8-2.2-12.6-4.1-18.6-6c0,4.2,0,8,0,12.3C35.4,189.5,41.1,187.6,47.9,185.3z M341.9,185.3c6.5,2.2,12.1,4.1,17.8,6
	c0-4.2,0-8,0-12.2C353.8,181.1,348.4,183.1,341.9,185.3z"/>
</svg>
