<svg width="26" height="22" viewBox="0 0 26 22" fill="none" xmlns="http://www.w3.org/2000/svg">
<path d="M2.29235 5.12968C3.29391 4.84092 4.26317 4.56558 5.23243 4.29025C7.46819 3.66571 9.70394 3.03446 11.9462 2.42335C12.2434 2.34276 12.3533 2.22189 12.3339 1.89283C12.3016 1.38245 12.5794 1.06683 13.0253 1.00639C13.4065 0.959379 13.6585 1.17427 13.6779 1.57049C13.7102 2.25546 13.7102 2.25546 14.3435 2.4435C17.4322 3.3568 20.5209 4.26339 23.6096 5.16997C23.629 5.17669 23.6483 5.16997 23.7065 5.16326C23.7065 4.84092 23.713 4.51857 23.7065 4.19623C23.6871 3.60527 23.868 3.33665 24.3074 3.32322C24.7598 3.31651 24.9988 3.60527 24.9988 4.16937C24.9988 7.56068 24.9924 10.9453 24.9924 14.3366C24.9924 14.5918 24.9924 14.847 24.9988 15.1021C25.0182 15.5991 24.7921 15.9281 24.3591 16.1162C23.0733 16.6803 21.7874 17.2444 20.5079 17.8085C18.1817 18.8292 15.862 19.8567 13.5357 20.8842C13.1868 21.0386 12.8443 21.0386 12.5019 20.8842C8.87684 19.2724 5.26474 17.6675 1.65263 16.0557C1.16154 15.8408 1 15.5857 1 15.0283C1 11.4154 1 7.80244 1 4.18952C1 3.62542 1.25847 3.31651 1.70433 3.31651C2.05326 3.32322 2.27296 3.54483 2.28588 3.91418C2.29881 4.31039 2.29235 4.70661 2.29235 5.12968ZM12.3726 19.3598C12.3726 18.3994 12.3662 17.4928 12.3791 16.593C12.3856 16.3647 12.308 16.2841 12.1142 16.2102C9.80087 15.2767 7.49403 14.3231 5.1872 13.383C4.25025 13.0002 3.3133 12.6241 2.34404 12.2346C2.34404 13.0472 2.35696 13.8195 2.33758 14.5918C2.33112 14.8738 2.41512 14.9947 2.66066 15.0954C4.96104 16.096 7.25495 17.1101 9.54886 18.1174C10.4729 18.527 11.4034 18.9367 12.3726 19.3598ZM23.629 12.2817C23.5643 12.3085 23.5191 12.3219 23.4739 12.3421C22.02 12.9196 20.5661 13.4971 19.1187 14.0814C17.374 14.7865 15.6358 15.4984 13.8911 16.2169C13.8071 16.2505 13.6844 16.3579 13.6844 16.4318C13.6714 17.3854 13.6779 18.339 13.6779 19.3396C17.0251 17.8622 20.3335 16.3982 23.6354 14.941C23.629 14.0411 23.629 13.1748 23.629 12.2817ZM12.3403 14.847C12.3403 14.256 12.3468 13.712 12.3339 13.1748C12.3339 13.1009 12.2434 12.9935 12.1723 12.9666C10.0335 12.1541 7.89466 11.3482 5.75583 10.5491C5.68475 10.5222 5.59429 10.5021 5.52321 10.5222C4.81242 10.7505 4.10163 10.9923 3.34561 11.2408C6.36323 12.4495 9.33563 13.6382 12.3403 14.847ZM22.5692 11.2273C21.8391 10.9856 21.1477 10.7572 20.4563 10.5356C20.3787 10.5088 20.2818 10.5356 20.1978 10.5625C19.6873 10.7505 19.1833 10.9453 18.6793 11.1333C17.0897 11.731 15.5066 12.3287 13.9235 12.9398C13.8265 12.9733 13.6908 13.0875 13.6844 13.1681C13.665 13.7188 13.6714 14.2694 13.6714 14.8402C16.6438 13.6315 19.5904 12.4361 22.5692 11.2273ZM12.3597 3.69929C9.61348 4.47157 6.90602 5.23041 4.19855 5.98926C4.77365 6.2243 5.34228 6.40562 5.91091 6.58022C5.98845 6.60708 6.09184 6.56679 6.17584 6.54664C8.03036 6.02955 9.88487 5.50575 11.7394 4.98866C12.3597 4.81405 12.3597 4.81405 12.3597 4.13579C12.3597 4.0082 12.3597 3.88061 12.3597 3.69929ZM13.6844 4.78048C13.7748 4.80734 13.8588 4.84092 13.9493 4.86778C15.6293 5.35129 17.3223 5.81466 18.9959 6.33175C19.6744 6.54664 20.3076 6.60037 20.9667 6.29146C21.2252 6.17058 21.5095 6.11685 21.8455 6.01612C19.0799 5.23041 16.3918 4.46485 13.6844 3.69929C13.6844 4.06192 13.6844 4.40441 13.6844 4.78048ZM13.6908 10.267C13.6908 10.7237 13.6908 11.14 13.6908 11.6101C15.2675 11.0326 16.8248 10.4685 18.4531 9.87751C17.8586 9.74992 17.3417 9.63576 16.8248 9.52831C16.6115 9.4813 16.366 9.38728 16.1721 9.44101C15.3386 9.68948 14.5244 9.98496 13.6908 10.267ZM7.56511 9.87751C9.19347 10.4618 10.7637 11.0259 12.3597 11.5967C12.3597 11.187 12.3662 10.811 12.3533 10.4416C12.3468 10.3677 12.2628 10.2603 12.1917 10.2334C11.4228 9.96482 10.6474 9.70963 9.87195 9.44773C9.80733 9.42758 9.72979 9.38728 9.66517 9.40072C8.98669 9.55517 8.30821 9.70963 7.56511 9.87751ZM12.3403 6.20416C10.964 6.58694 9.60702 6.95629 8.18544 7.3525C8.73469 7.56068 9.19993 7.742 9.67164 7.90317C9.78795 7.94346 9.93657 7.93675 10.0529 7.90317C10.5569 7.76886 11.0544 7.6144 11.552 7.47338C12.3985 7.22491 12.3985 7.22491 12.3662 6.30489C12.3597 6.27803 12.3533 6.25788 12.3403 6.20416ZM13.6714 6.20416C13.6714 6.48621 13.6844 6.73468 13.665 6.98987C13.6521 7.17118 13.7167 7.25177 13.8847 7.29878C14.5761 7.50024 15.2675 7.72185 15.9589 7.92331C16.0687 7.95689 16.2044 7.94346 16.3143 7.90988C16.7989 7.74871 17.2835 7.56739 17.8328 7.37265C16.4112 6.96972 15.0543 6.58694 13.6714 6.20416ZM18.3239 8.55457C18.8796 8.70902 19.3448 8.83662 19.8165 8.96421C20.0298 9.02465 20.2689 9.17911 20.4563 9.12538C20.9797 8.98436 21.4772 8.75603 22.0329 8.54785C21.7615 8.46727 21.5483 8.3934 21.3286 8.33967C20.7212 8.18522 20.1332 7.87631 19.4741 8.18522C19.1381 8.34639 18.7633 8.42026 18.3239 8.55457ZM3.99824 8.54785C4.25671 8.64858 4.47641 8.71574 4.68318 8.82319C5.26474 9.12538 5.83983 9.18582 6.46016 8.90377C6.82848 8.7426 7.23557 8.68216 7.62327 8.57471C7.15156 8.37997 6.68632 8.22551 6.21461 8.10463C6.02722 8.05762 5.82045 8.05091 5.63306 8.09792C5.1032 8.22551 4.5798 8.38668 3.99824 8.54785ZM14.1625 8.72917C13.1028 8.32624 12.8508 8.32624 11.888 8.7426C12.7474 9.16568 13.3548 9.15896 14.1625 8.72917ZM2.33758 6.84212C2.33758 7.14432 2.33758 7.41294 2.33758 7.71514C2.80282 7.56068 3.23576 7.41965 3.72039 7.25848C3.2293 7.11074 2.79636 6.98315 2.33758 6.84212ZM23.6871 6.84212C23.2413 6.97643 22.8212 7.11074 22.3302 7.2652C22.8148 7.42637 23.2413 7.56739 23.6871 7.70842C23.6871 7.39279 23.6871 7.13089 23.6871 6.84212ZM3.52653 9.76335C3.08714 9.61561 2.71236 9.48802 2.32465 9.36042C2.32465 9.64247 2.32465 9.89766 2.32465 10.1864C2.71882 10.0454 3.08714 9.91781 3.52653 9.76335ZM22.524 9.76335C22.944 9.91109 23.3059 10.0387 23.6742 10.1663C23.6742 9.88423 23.6742 9.62904 23.6742 9.34699C23.293 9.4813 22.944 9.61561 22.524 9.76335Z" fill="black"/>
<path d="M24.9924 14.3366L24.9988 4.16937C24.9988 3.60527 24.7598 3.31651 24.3074 3.32322C23.868 3.33665 23.6871 3.60527 23.7065 4.19623C23.713 4.51857 23.7065 4.84092 23.7065 5.16326C23.6483 5.16997 23.629 5.17669 23.6096 5.16997L14.3435 2.4435C13.7893 2.27896 13.7198 2.25842 13.6895 1.79688L13.6779 1.57049C13.6585 1.17427 13.4065 0.959379 13.0253 1.00639C12.5794 1.06683 12.3016 1.38245 12.3339 1.89283C12.3533 2.22189 12.2434 2.34276 11.9462 2.42335C9.70394 3.03446 7.46819 3.66571 5.23243 4.29025C4.26317 4.56558 3.29391 4.84092 2.29235 5.12968C2.29235 4.9181 2.29395 4.71323 2.29395 4.51172L2.28588 3.91418C2.27296 3.54483 2.05326 3.32322 1.70433 3.31651C1.25847 3.31651 1 3.62542 1 4.18952V15.0283L1.00781 15.2236C1.04544 15.6487 1.22312 15.8677 1.65263 16.0557C5.26474 17.6675 8.87684 19.2724 12.5019 20.8842C12.8443 21.0386 13.1868 21.0386 13.5357 20.8842L20.5079 17.8085C21.7874 17.2444 23.0733 16.6803 24.3591 16.1162C24.7921 15.9281 25.0182 15.5991 24.9988 15.1021L24.9924 14.3366ZM5.1872 13.383C7.49403 14.3231 9.80087 15.2767 12.1142 16.2102C12.308 16.2841 12.3856 16.3647 12.3791 16.593L12.3711 17.9541C12.3711 18.413 12.3726 18.8799 12.3726 19.3598C11.4034 18.9367 10.4729 18.527 9.54886 18.1174C7.25495 17.1101 4.96104 16.096 2.66066 15.0954C2.44587 15.0073 2.35499 14.9038 2.33984 14.6904L2.33758 14.5918C2.35696 13.8195 2.34404 13.0472 2.34404 12.2346C3.3133 12.6241 4.25025 13.0002 5.1872 13.383ZM23.6354 14.941C20.3335 16.3982 17.0251 17.8622 13.6779 19.3396C13.6779 18.339 13.6714 17.3854 13.6844 16.4318C13.6845 16.3764 13.7533 16.3017 13.8232 16.2539L13.8911 16.2169C14.7633 15.8577 15.6344 15.5004 16.5049 15.1445L19.1187 14.0814C20.5661 13.4971 22.02 12.9196 23.4739 12.3421C23.5191 12.3219 23.5643 12.3085 23.629 12.2817C23.629 13.1748 23.629 14.0411 23.6354 14.941ZM2.54395 12.5303C2.54551 13.0329 2.55069 13.5252 2.54688 14.0137L2.53711 14.5967C2.53431 14.7205 2.55343 14.7738 2.57227 14.8027C2.58156 14.8169 2.59591 14.8328 2.62109 14.8506L2.73633 14.9102L2.74023 14.9121L12.1719 19.0527C12.1709 18.2062 12.1672 17.3948 12.1787 16.5898V16.5869L12.1729 16.4922C12.1687 16.4741 12.1636 16.4662 12.1611 16.4629C12.1537 16.4529 12.1312 16.4311 12.043 16.3975L12.0391 16.3955C10.8823 15.9288 9.72674 15.4571 8.57227 14.9844L5.11133 13.5684C4.26368 13.2221 3.41618 12.8808 2.54395 12.5303ZM19.1934 14.2666C17.4495 14.9714 15.712 15.683 13.9678 16.4014L13.9658 16.4023C13.9619 16.4039 13.951 16.4091 13.9365 16.4189C13.9225 16.4285 13.9084 16.4405 13.8965 16.4521C13.8915 16.457 13.8869 16.4612 13.8838 16.4648C13.8727 17.3084 13.876 18.1517 13.877 19.0312C17.0869 17.6142 20.2657 16.2092 23.4346 14.8105C23.4296 14.0555 23.4288 13.3222 23.4287 12.5752L19.1934 14.2666ZM5.52321 10.5222C5.59429 10.5021 5.68475 10.5222 5.75583 10.5491C7.89466 11.3482 10.0335 12.1541 12.1723 12.9666C12.2434 12.9935 12.3339 13.1009 12.3339 13.1748C12.3468 13.712 12.3403 14.256 12.3403 14.847C9.33563 13.6382 6.36323 12.4495 3.34561 11.2408C4.10163 10.9923 4.81242 10.7505 5.52321 10.5222ZM20.4563 10.5356C21.1477 10.7572 21.8391 10.9856 22.5692 11.2273C19.5904 12.4361 16.6438 13.6315 13.6714 14.8402C13.6714 14.2694 13.665 13.7188 13.6844 13.1681C13.6893 13.1078 13.7665 13.0285 13.8457 12.9785L13.9235 12.9398C15.5066 12.3287 17.0897 11.731 18.6793 11.1333C19.1833 10.9453 19.6873 10.7505 20.1978 10.5625C20.2818 10.5356 20.3787 10.5088 20.4563 10.5356ZM3.92871 11.2588C6.68021 12.3608 9.39798 13.4478 12.1406 14.5508C12.1418 14.076 12.1441 13.6328 12.1338 13.1934C12.1315 13.1894 12.1279 13.1838 12.123 13.1777C12.1157 13.1686 12.1081 13.1606 12.1016 13.1553C12.0987 13.1529 12.0965 13.1519 12.0957 13.1514L12.1016 13.1533L8.89355 11.9404L5.68555 10.7363C5.65986 10.7266 5.63299 10.7191 5.61035 10.7158C5.59014 10.7129 5.58015 10.7145 5.57812 10.7148L5.57715 10.7139C5.0339 10.8884 4.49297 11.0713 3.92871 11.2588ZM20.3594 10.7266C20.3319 10.7307 20.2997 10.7399 20.2588 10.7529C19.7504 10.9403 19.2545 11.1307 18.749 11.3193L18.75 11.3203C17.1605 11.918 15.5774 12.5152 13.9951 13.126L13.9893 13.1289C13.9831 13.131 13.9702 13.1367 13.9531 13.1475C13.9367 13.1578 13.9197 13.1704 13.9053 13.1836C13.8953 13.1927 13.8878 13.201 13.8828 13.207C13.8681 13.6474 13.8701 14.0874 13.8711 14.543C16.5819 13.4407 19.2725 12.3487 21.9873 11.2471C21.4449 11.068 20.9203 10.8948 20.3955 10.7266L20.3906 10.7246L20.3594 10.7266ZM16.1721 9.44101C16.366 9.38728 16.6115 9.4813 16.8248 9.52831C17.3417 9.63576 17.8586 9.74992 18.4531 9.87751C16.8248 10.4685 15.2675 11.0326 13.6908 11.6101V10.267C14.5244 9.98496 15.3386 9.68948 16.1721 9.44101ZM9.66517 9.40072C9.72979 9.38728 9.80733 9.42758 9.87195 9.44773C10.6474 9.70963 11.4228 9.96482 12.1917 10.2334C12.2628 10.2603 12.3468 10.3677 12.3533 10.4416C12.3662 10.811 12.3597 11.187 12.3597 11.5967C10.7637 11.0259 9.19347 10.4618 7.56511 9.87751C8.30821 9.70963 8.98669 9.55517 9.66517 9.40072ZM16.2266 9.63281C15.4434 9.86635 14.6802 10.1402 13.8906 10.4092V11.3232C15.164 10.8574 16.4282 10.3992 17.7305 9.92676C17.4036 9.85601 17.0941 9.78904 16.7842 9.72461L16.7812 9.72363C16.7235 9.71088 16.6635 9.69476 16.6094 9.68066C16.5534 9.6661 16.5012 9.65267 16.4512 9.64258C16.3483 9.62185 16.2768 9.61924 16.2266 9.63281ZM8.27734 9.91992C9.58775 10.3902 10.8669 10.8498 12.1602 11.3125C12.1614 11.0159 12.1624 10.7395 12.1533 10.4658C12.1503 10.4599 12.1456 10.4512 12.1387 10.4424C12.1314 10.4331 12.1239 10.4258 12.1182 10.4209C12.1113 10.4152 12.1117 10.4174 12.1211 10.4209C11.355 10.1533 10.5834 9.89972 9.80762 9.6377C9.78722 9.63116 9.76663 9.6226 9.75195 9.61719C9.73434 9.6107 9.7216 9.60611 9.70996 9.60254C9.70333 9.6005 9.69853 9.59934 9.69531 9.59863C9.22996 9.70457 8.76408 9.80954 8.27734 9.91992ZM3.52653 9.76335C3.08714 9.91781 2.71882 10.0454 2.32465 10.1864V9.36042C2.71236 9.48802 3.08714 9.61561 3.52653 9.76335ZM23.6742 10.1663C23.3059 10.0387 22.944 9.91109 22.524 9.76335C22.944 9.61561 23.293 9.4813 23.6742 9.34699V10.1663ZM2.52441 9.90332C2.65201 9.8582 2.77907 9.81317 2.90918 9.76758C2.7785 9.72356 2.65118 9.68093 2.52441 9.63867V9.90332ZM23.1826 9.73828C23.1623 9.74574 23.1416 9.75225 23.1211 9.75977C23.2413 9.80196 23.3584 9.84322 23.4746 9.88379V9.63184L23.1826 9.73828ZM19.4741 8.18522C20.1332 7.87631 20.7212 8.18522 21.3286 8.33967C21.5483 8.3934 21.7615 8.46727 22.0329 8.54785C21.4772 8.75603 20.9797 8.98436 20.4563 9.12538C20.2689 9.17911 20.0298 9.02465 19.8165 8.96421C19.3448 8.83662 18.8796 8.70902 18.3239 8.55457C18.7633 8.42026 19.1381 8.34639 19.4741 8.18522ZM5.63306 8.09792C5.82045 8.05091 6.02722 8.05762 6.21461 8.10463C6.68632 8.22551 7.15156 8.37997 7.62327 8.57471C7.23557 8.68216 6.82848 8.7426 6.46016 8.90377C5.91744 9.15053 5.40946 9.13489 4.90137 8.9248L4.68318 8.82319C4.47641 8.71574 4.25671 8.64858 3.99824 8.54785C4.43458 8.42693 4.83817 8.30596 5.23633 8.19922L5.63306 8.09792ZM14.1625 8.72917C13.1028 8.32624 12.8508 8.32624 11.888 8.7426C12.7474 9.16568 13.3548 9.15896 14.1625 8.72917ZM20.3838 8.28516C20.1053 8.23233 19.8386 8.23497 19.5586 8.36621C19.3982 8.44297 19.2319 8.49883 19.0625 8.5498C19.3409 8.62632 19.604 8.69976 19.8691 8.77148H19.8711L20.0547 8.83691C20.1138 8.86058 20.1635 8.88133 20.2139 8.89941C20.3206 8.93771 20.3738 8.94151 20.4014 8.93359L20.4043 8.93262L20.7832 8.81543C20.9927 8.74308 21.2015 8.6603 21.4199 8.57324C21.3735 8.56018 21.3281 8.54564 21.2812 8.53418L21.2793 8.5332C21.1217 8.49313 20.9642 8.44306 20.8174 8.39844C20.6676 8.3529 20.5251 8.31198 20.3838 8.28516ZM6.16504 8.29785C6.00519 8.25792 5.83237 8.25418 5.68164 8.29199H5.67969C5.33229 8.37565 4.99 8.47251 4.62793 8.57617C4.67801 8.59808 4.72746 8.6206 4.77539 8.64551C5.31146 8.92407 5.82147 8.97413 6.37695 8.72168L6.37988 8.7207L6.53125 8.66016C6.67067 8.60903 6.81198 8.57011 6.9502 8.53516C6.68876 8.44518 6.42806 8.36526 6.16504 8.29785ZM12.9902 8.62891C12.8173 8.62983 12.6453 8.66794 12.418 8.74805C12.6423 8.82272 12.8458 8.85681 13.043 8.85547C13.23 8.85416 13.4182 8.81929 13.6201 8.75C13.3596 8.66669 13.1705 8.62798 12.9902 8.62891ZM17.8328 7.37265C17.2835 7.56739 16.7989 7.74871 16.3143 7.90988L16.2275 7.93066C16.138 7.94698 16.0412 7.94847 15.9589 7.92331C15.2675 7.72185 14.5761 7.50024 13.8847 7.29878C13.7167 7.25177 13.6521 7.17118 13.665 6.98987C13.6844 6.73468 13.6714 6.48621 13.6714 6.20416C15.0543 6.58694 16.4112 6.96972 17.8328 7.37265ZM12.3662 6.30489C12.3985 7.22491 12.3985 7.22491 11.552 7.47338L10.8047 7.69043C10.5551 7.76345 10.3049 7.83602 10.0529 7.90317C9.93657 7.93675 9.78795 7.94346 9.67164 7.90317C9.19993 7.742 8.73469 7.56068 8.18544 7.3525C9.60702 6.95629 10.964 6.58694 12.3403 6.20416C12.3533 6.25788 12.3597 6.27803 12.3662 6.30489ZM13.873 6.46777C13.8755 6.64759 13.8778 6.8267 13.8643 7.00488C13.8596 7.07219 13.8721 7.08263 13.8682 7.07715C13.865 7.07284 13.8723 7.08794 13.9385 7.10645H13.9404L16.0146 7.73145L16.0176 7.73242L16.0674 7.74121C16.1208 7.74603 16.1869 7.73869 16.251 7.71973L16.9814 7.46582C17.0453 7.4429 17.1096 7.41902 17.1748 7.39551C16.0564 7.07901 14.9712 6.77246 13.873 6.46777ZM8.82812 7.38184C9.14494 7.5019 9.43906 7.6123 9.73633 7.71387L9.79395 7.72754C9.85601 7.73586 9.93135 7.72986 9.99707 7.71094L10.001 7.70996L10.749 7.49902C10.9965 7.42659 11.2441 7.35269 11.4961 7.28125L11.7715 7.19922C11.8481 7.17503 11.9109 7.15287 11.9639 7.13086C12.0677 7.08765 12.1058 7.05386 12.125 7.02637C12.1449 6.99765 12.1641 6.94698 12.1719 6.82812C12.178 6.7342 12.1749 6.61584 12.1699 6.45801C11.0579 6.76663 9.96283 7.0673 8.82812 7.38184ZM3.72039 7.25848C3.23576 7.41965 2.80282 7.56068 2.33758 7.71514V6.84212C2.79636 6.98315 3.2293 7.11074 3.72039 7.25848ZM23.6871 7.70842C23.2413 7.56739 22.8148 7.42637 22.3302 7.2652C22.8212 7.11074 23.2413 6.97643 23.6871 6.84212V7.70842ZM2.53711 7.43848C2.71162 7.38085 2.88227 7.32369 3.05566 7.2666C2.88125 7.21442 2.70992 7.16279 2.53711 7.11035V7.43848ZM22.9873 7.26855C23.1564 7.32415 23.3214 7.37929 23.4873 7.43262V7.11328C23.3215 7.16423 23.1566 7.2153 22.9873 7.26855ZM12.1602 3.96191C9.69806 4.65415 7.26643 5.33662 4.83691 6.01758C4.93183 6.05155 5.02618 6.08603 5.12109 6.11816L5.96973 6.38867L5.97656 6.3916L6.00195 6.38477C6.01779 6.38157 6.0357 6.37707 6.05762 6.37109C6.07556 6.3662 6.0993 6.35916 6.12207 6.35352L8.90332 5.5752C9.83052 5.31499 10.7581 5.05449 11.6855 4.7959L11.8857 4.73828C11.9411 4.7215 11.986 4.70649 12.0234 4.69141C12.0946 4.66272 12.1131 4.64334 12.1201 4.63379C12.1279 4.62303 12.143 4.59551 12.1514 4.51074C12.1598 4.42481 12.1602 4.3093 12.1602 4.13574V3.96191ZM21.8455 6.01612C21.5095 6.11685 21.2252 6.17058 20.9667 6.29146L20.7207 6.39062C20.1487 6.58435 19.5895 6.51973 18.9959 6.33175C18.159 6.07316 17.3172 5.82787 16.4746 5.58691L13.9493 4.86778C13.8588 4.84092 13.7748 4.80734 13.6844 4.78048V3.69929C16.3918 4.46485 19.0799 5.23041 21.8455 6.01612ZM13.8848 4.63477C13.928 4.64975 13.9664 4.66405 14.0059 4.67578C15.6823 5.15826 17.3788 5.62284 19.0547 6.14062H19.0566L19.2969 6.21094C19.8522 6.35363 20.3595 6.35518 20.8818 6.11035L21.1006 6.02246C21.1058 6.02064 21.1109 6.01839 21.1162 6.0166C18.6733 5.32235 16.2855 4.64299 13.8848 3.96387V4.63477ZM25.1953 9.25293C25.1937 10.9469 25.1924 12.6414 25.1924 14.3369C25.1924 14.5923 25.1928 14.8447 25.1992 15.0967H25.1973C25.2078 15.377 25.1507 15.6249 25.0166 15.833C24.8824 16.0412 24.6826 16.1928 24.4385 16.2988L24.4395 16.2998C23.1537 16.8638 21.8679 17.4273 20.5889 17.9912C18.263 19.0118 15.9426 20.0389 13.6162 21.0664L13.6172 21.0674C13.2175 21.2443 12.8158 21.2442 12.4209 21.0664C8.79624 19.4549 5.18422 17.8499 1.57227 16.2383C1.30945 16.1233 1.10571 15.9854 0.973633 15.7773C0.842383 15.5705 0.799809 15.3231 0.799805 15.0283V4.18945C0.799814 3.88024 0.870864 3.61073 1.03027 3.41504C1.19461 3.21347 1.43154 3.11626 1.7041 3.11621H1.70801L1.86621 3.13281C2.01957 3.16176 2.15621 3.22998 2.26367 3.33984C2.40612 3.4855 2.47756 3.68448 2.48535 3.90723L2.49414 4.51172C2.49415 4.62837 2.49264 4.74578 2.49219 4.86426C3.40407 4.60196 4.29103 4.34954 5.17773 4.09766L8.5332 3.15918C9.65214 2.84684 10.7721 2.53612 11.8936 2.23047L11.9805 2.20312C12.0529 2.17611 12.0837 2.1506 12.0996 2.12988C12.1188 2.10478 12.1423 2.05083 12.1338 1.90527L12.1318 1.79688C12.1349 1.54745 12.2058 1.32757 12.3447 1.15527C12.5035 0.958466 12.7343 0.844435 12.998 0.808594L13.001 0.807617L13.1719 0.800781C13.3396 0.809115 13.4941 0.863904 13.6182 0.970703C13.7826 1.11244 13.8663 1.32263 13.8779 1.56055L13.8896 1.78418C13.8937 1.84598 13.898 1.89689 13.9043 1.94043C13.9167 2.02599 13.9328 2.05716 13.9443 2.07227C13.9552 2.08651 13.9789 2.10861 14.0537 2.13965C14.1313 2.17179 14.2381 2.20377 14.4004 2.25195L23.5068 4.93164V4.19922C23.4971 3.89199 23.5362 3.62501 23.6699 3.42969C23.8143 3.21912 24.0397 3.13106 24.3018 3.12305H24.3047L24.4043 3.12598C24.6343 3.1425 24.8343 3.23054 24.9775 3.40527C25.1348 3.59711 25.1992 3.86354 25.1992 4.16895C25.1992 5.86463 25.1969 7.55905 25.1953 9.25293ZM12.3584 4.36035C12.3499 4.81679 12.282 4.83592 11.7394 4.98866L6.17584 6.54664L6.04102 6.58105C5.99502 6.59029 5.94966 6.5936 5.91091 6.58022C5.34228 6.40562 4.77365 6.2243 4.19855 5.98926C6.90602 5.23041 9.61348 4.47157 12.3597 3.69929V4.13579L12.3584 4.36035Z" fill="black"/>
</svg>
