<svg width="11" height="26" viewBox="0 0 11 26" fill="none" xmlns="http://www.w3.org/2000/svg">
<path d="M1.00617 15.3417C1.00617 13.486 1.02391 11.6303 1.00025 9.77464C0.982511 8.23709 1.8992 6.94695 3.20622 6.46389C3.27719 6.43444 3.35407 6.36964 3.39547 6.29894C3.91591 5.44475 4.43636 4.59644 4.95088 3.73635C5.00411 3.64209 5.02185 3.51838 5.02185 3.40645C5.02777 2.80557 5.02185 2.1988 5.02777 1.59791C5.03368 1.16198 5.32939 0.926336 5.72563 1.02059C5.98585 1.0795 6.13962 1.27391 6.13962 1.56257C6.13962 2.15756 6.13371 2.75255 6.14553 3.34754C6.15145 3.48893 6.18693 3.64799 6.2579 3.76581C6.7606 4.60822 7.28105 5.44475 7.80149 6.27538C7.86063 6.36964 7.96708 6.458 8.07354 6.50513C9.39239 7.05299 10.2085 8.24887 10.2085 9.6745C10.2085 13.4919 10.2263 17.3093 10.2026 21.1266C10.1908 23.0059 8.78914 24.5905 6.90846 24.7378C5.89123 24.8203 4.86217 24.8615 3.85086 24.6789C2.43738 24.4197 1.17768 23.0471 1.07122 21.6215C1.00617 20.7732 1.018 19.919 1.01208 19.0707C1.00025 17.8218 1.00617 16.5847 1.00617 15.3417ZM4.09334 7.43002C3.05245 7.48304 2.12985 8.51397 2.12394 9.59791C2.12394 13.4153 2.12394 17.2327 2.12394 21.0501C2.12394 21.2503 2.14168 21.4565 2.18308 21.6568C2.37824 22.6701 3.34224 23.5537 4.36539 23.6068C5.14605 23.648 5.93263 23.648 6.71329 23.6126C8.0144 23.5537 9.07302 22.3932 9.07302 21.0972C9.07302 17.3034 9.07302 13.5154 9.07302 9.72162C9.07302 9.52133 9.05528 9.31514 9.01388 9.11485C8.83646 8.27832 8.13859 7.57729 7.27513 7.47126C6.62458 7.39467 5.9622 7.43002 5.29982 7.42413C5.2525 7.42413 5.18153 7.49482 5.16971 7.54784C5.07508 7.9661 4.94497 8.38436 4.90948 8.81441C4.85626 9.42118 4.874 10.0397 4.86217 10.6524C4.85626 11.0059 4.66109 11.2003 4.31807 11.2003C3.96323 11.2003 3.76215 11.0118 3.76215 10.6112C3.76806 9.54489 3.79763 8.48451 4.09334 7.43002ZM6.41167 6.24592C6.12779 5.76875 5.87349 5.33871 5.60735 4.8851C5.3353 5.35638 5.08099 5.78642 4.82077 6.24003C4.88583 6.24592 4.9154 6.25182 4.95088 6.25182C5.4181 6.24592 5.89123 6.24592 6.41167 6.24592Z" fill="black"/>
<path d="M10.2085 9.6745C10.2085 8.24887 9.39239 7.05299 8.07354 6.50513C7.99379 6.46976 7.91332 6.41148 7.85351 6.34473L7.80149 6.27538C7.28105 5.44475 6.7606 4.60822 6.2579 3.76581C6.18693 3.64799 6.15145 3.48893 6.14553 3.34754C6.13962 3.05006 6.13769 2.75257 6.13769 2.45508L6.13962 1.56257C6.13962 1.27391 5.98585 1.0795 5.72563 1.02059C5.32939 0.926336 5.03368 1.16198 5.02777 1.59791L5.02185 3.40645L5.01855 3.49219C5.01106 3.5785 4.99072 3.66574 4.95088 3.73635C4.43636 4.59644 3.91591 5.44475 3.39547 6.29894L3.3584 6.35059C3.31599 6.39996 3.2594 6.44182 3.20622 6.46389L2.96582 6.56348C1.78824 7.10883 0.983708 8.33325 1.00025 9.77464C1.02391 11.6303 1.00617 13.486 1.00617 15.3417L1.00488 17.2041C1.00488 17.8247 1.00617 18.4464 1.01208 19.0707C1.018 19.919 1.00617 20.7732 1.07122 21.6215C1.17768 23.0471 2.43738 24.4197 3.85086 24.6789C4.86217 24.8615 5.89123 24.8203 6.90846 24.7378C8.73042 24.5951 10.1026 23.1034 10.1973 21.3018L10.2026 21.1266C10.2144 19.2179 10.2163 17.3091 10.2148 15.4004L10.2085 9.6745ZM8.77344 9.72168C8.77344 9.53865 8.75638 9.35317 8.71972 9.17578C8.56568 8.45432 7.96349 7.85814 7.24023 7.76855C6.65359 7.69949 6.06934 7.72381 5.43555 7.72266C5.34019 8.12466 5.23849 8.46971 5.20801 8.83887V8.84082C5.15597 9.43424 5.17432 10.0259 5.16211 10.6582C5.15813 10.8874 5.09105 11.1075 4.92871 11.2705C4.76538 11.4344 4.54588 11.4999 4.31836 11.5C4.09022 11.5 3.86146 11.4391 3.69238 11.2656C3.52462 11.0933 3.46194 10.8582 3.46191 10.6113V10.6094L3.47461 9.80469C3.49486 9.14835 3.54849 8.48387 3.69043 7.81738C3.41544 7.91623 3.15646 8.09253 2.94336 8.32812C2.62463 8.68067 2.42633 9.14084 2.42383 9.59961V21.0498C2.42383 21.1413 2.42787 21.2337 2.43652 21.3252L2.47656 21.5957L2.47754 21.5996L2.51758 21.7646C2.75541 22.5804 3.55881 23.265 4.38086 23.3076L4.95996 23.3301C5.53946 23.3456 6.1215 23.3387 6.70019 23.3125L6.91015 23.292C7.94694 23.1332 8.77319 22.1691 8.77344 21.0977V9.72168ZM5.2998 7.72266V7.72461L5.30566 7.72266H5.2998ZM6.41167 6.24592C5.89123 6.24592 5.4181 6.24592 4.95088 6.25182C4.9154 6.25182 4.88583 6.24592 4.82077 6.24003C5.08099 5.78642 5.3353 5.35638 5.60735 4.8851C5.87349 5.33871 6.12779 5.76875 6.41167 6.24592ZM5.33496 5.95019C5.51579 5.94901 5.69898 5.94851 5.88672 5.94824C5.79281 5.78977 5.70111 5.6341 5.60937 5.47852C5.5166 5.63772 5.42594 5.79377 5.33496 5.95019ZM9.07302 21.0972L9.06054 21.3379C8.93968 22.5337 7.93323 23.5574 6.71329 23.6126L6.12695 23.6328C5.7356 23.6415 5.3435 23.6404 4.95215 23.6299L4.36539 23.6068C3.40613 23.557 2.49884 22.777 2.22851 21.8447L2.18308 21.6568C2.16238 21.5567 2.1473 21.4551 2.13769 21.3535L2.12394 21.0501V9.59791C2.12985 8.51397 3.05245 7.48304 4.09334 7.43002C3.79763 8.48451 3.76806 9.54489 3.76215 10.6112L3.77148 10.752C3.80874 11.0126 3.95572 11.1558 4.19238 11.1914L4.31807 11.2003C4.66109 11.2003 4.85626 11.0059 4.86217 10.6524C4.87104 10.193 4.86284 9.73011 4.88086 9.27148L4.90948 8.81441C4.94497 8.38436 5.07508 7.9661 5.16971 7.54784C5.18153 7.49482 5.2525 7.42413 5.29982 7.42413C5.9622 7.43002 6.62458 7.39467 7.27513 7.47126C8.13859 7.57729 8.83646 8.27832 9.01388 9.11485C9.05528 9.31514 9.07302 9.52133 9.07302 9.72162V21.0972ZM6.43945 1.5625C6.43945 2.15923 6.43374 2.74616 6.44531 3.33496L6.45312 3.41602C6.46085 3.46843 6.47345 3.51727 6.48926 3.55762L6.51465 3.61133L6.51562 3.6123L7.27832 4.86719C7.53577 5.28455 7.79548 5.70096 8.05566 6.11621L8.1123 6.17871C8.13695 6.19945 8.16653 6.21773 8.19531 6.23047C9.62013 6.82484 10.5088 8.12718 10.5088 9.6748C10.5088 12.5364 10.5187 15.4005 10.5137 18.2646L10.5029 21.1289C10.49 23.1559 8.97544 24.8761 6.93164 25.0361L6.93262 25.0371C5.9106 25.12 4.84924 25.1644 3.79785 24.9746L3.79687 24.9736C3.01551 24.8303 2.29064 24.384 1.74902 23.79C1.20764 23.1963 0.831733 22.4357 0.772459 21.6445L0.73535 20.9971C0.727087 20.7813 0.72273 20.5656 0.719725 20.3506L0.711912 19.0732C0.70007 17.8226 0.706053 16.5828 0.706053 15.3418C0.706053 13.9471 0.715915 12.5574 0.710936 11.168L0.700194 9.77832C0.681074 8.12143 1.66802 6.71786 3.09082 6.18652L3.09961 6.18262C3.1046 6.17943 3.11038 6.17495 3.11621 6.16992C3.12204 6.16488 3.127 6.15976 3.13086 6.15527C3.13273 6.15309 3.13476 6.14941 3.13476 6.14941L3.13574 6.14746L3.13965 6.14258L4.68945 3.58789C4.70573 3.55856 4.72168 3.49546 4.72168 3.40625V3.40332L4.72461 2.50195C4.72461 2.20037 4.72456 1.89682 4.72754 1.59473L4.7334 1.48828C4.75807 1.24571 4.85782 1.02704 5.04004 0.877929C5.24921 0.706781 5.52162 0.665451 5.79101 0.728515L5.79199 0.727539C5.98083 0.770293 6.14845 0.867955 6.26758 1.02246C6.386 1.17607 6.43944 1.36442 6.43945 1.5625Z" fill="black"/>
</svg>
