<?xml version="1.0" encoding="utf-8"?>
<!-- Generator: Adobe Illustrator 23.1.0, SVG Export Plug-In . SVG Version: 6.00 Build 0)  -->
<svg version="1.1" id="Capa_1" xmlns="http://www.w3.org/2000/svg" xmlns:xlink="http://www.w3.org/1999/xlink" x="0px" y="0px"
	 viewBox="0 0 388.9 407.4" style="enable-background:new 0 0 388.9 407.4;" xml:space="preserve">
<path d="M103.1,246.8c0-31.5,0.3-63-0.1-94.5c-0.3-26.1,15.2-48,37.3-56.2c1.2-0.5,2.5-1.6,3.2-2.8c8.8-14.5,17.6-28.9,26.3-43.5
	c0.9-1.6,1.2-3.7,1.2-5.6c0.1-10.2,0-20.5,0.1-30.7c0.1-7.4,5.1-11.4,11.8-9.8c4.4,1,7,4.3,7,9.2c0,10.1-0.1,20.2,0.1,30.3
	c0.1,2.4,0.7,5.1,1.9,7.1c8.5,14.3,17.3,28.5,26.1,42.6c1,1.6,2.8,3.1,4.6,3.9c22.3,9.3,36.1,29.6,36.1,53.8
	c0,64.8,0.3,129.6-0.1,194.4c-0.2,31.9-23.9,58.8-55.7,61.3c-17.2,1.4-34.6,2.1-51.7-1c-23.9-4.4-45.2-27.7-47-51.9
	c-1.1-14.4-0.9-28.9-1-43.3C103,288.9,103.1,267.9,103.1,246.8z M155.3,112.5c-17.6,0.9-33.2,18.4-33.3,36.8c0,64.8,0,129.6,0,194.4
	c0,3.4,0.3,6.9,1,10.3c3.3,17.2,19.6,32.2,36.9,33.1c13.2,0.7,26.5,0.7,39.7,0.1c22-1,39.9-20.7,39.9-42.7c0-64.4,0-128.7,0-193.1
	c0-3.4-0.3-6.9-1-10.3c-3-14.2-14.8-26.1-29.4-27.9c-11-1.3-22.2-0.7-33.4-0.8c-0.8,0-2,1.2-2.2,2.1c-1.6,7.1-3.8,14.2-4.4,21.5
	c-0.9,10.3-0.6,20.8-0.8,31.2c-0.1,6-3.4,9.3-9.2,9.3c-6,0-9.4-3.2-9.4-10C149.8,148.4,150.3,130.4,155.3,112.5z M194.5,92.4
	c-4.8-8.1-9.1-15.4-13.6-23.1c-4.6,8-8.9,15.3-13.3,23c1.1,0.1,1.6,0.2,2.2,0.2C177.7,92.4,185.7,92.4,194.5,92.4z"/>
</svg>
