<svg width="18" height="18" viewBox="0 0 18 18" fill="none" xmlns="http://www.w3.org/2000/svg">
<path d="M0.749977 1.58332C0.749977 1.34021 0.846554 1.10705 1.01846 0.935142C1.19037 0.763234 1.42353 0.666656 1.66664 0.666656H1.91781C3.32673 0.666656 4.66781 1.25974 5.64681 2.29649C6.62803 3.34578 7.17165 4.73008 7.16664 6.16666C7.16664 6.40977 7.07007 6.64293 6.89816 6.81484C6.72625 6.98675 6.49309 7.08332 6.24998 7.08332H5.99881C4.58989 7.08332 3.24881 6.49024 2.26889 5.45349C1.28801 4.40406 0.744722 3.01978 0.749977 1.58332ZM2.71806 2.60174C2.87603 3.1979 3.17933 3.74559 3.60081 4.19582C4.04998 4.66974 4.60273 4.99516 5.19764 5.14916C5.04004 4.55278 4.73706 4.00477 4.31581 3.55416C3.88388 3.09241 3.33038 2.76196 2.71898 2.60082L2.71806 2.60174ZM11.8187 3.73199C11.7362 3.19849 11.5419 2.69157 11.2046 2.27082C10.8312 1.79994 10.2972 1.48334 9.70489 1.38166C9.09256 1.27257 8.42798 1.37432 7.74323 1.64841C7.63145 1.69313 7.52959 1.75942 7.44344 1.84351C7.35729 1.9276 7.28854 2.02784 7.24113 2.13849C7.19372 2.24915 7.16857 2.36806 7.16711 2.48844C7.16566 2.60882 7.18792 2.7283 7.23264 2.84007C7.27736 2.95184 7.34366 3.05371 7.42775 3.13986C7.51184 3.22601 7.61207 3.29476 7.72273 3.34217C7.94621 3.43792 8.19858 3.44097 8.42431 3.35066C8.88448 3.16732 9.19431 3.15357 9.38314 3.18749C9.55731 3.21866 9.67831 3.29749 9.77364 3.41666C9.99273 3.68891 10.1311 4.27741 9.94414 5.02724C9.8955 5.22171 9.91193 5.42676 9.99094 5.61099C10.07 5.79522 10.2072 5.94847 10.3816 6.04728C10.556 6.14608 10.758 6.18499 10.9566 6.15804C11.1553 6.13109 11.3396 6.03978 11.4814 5.89807C11.8682 5.51032 12.5246 5.38841 13.1754 5.56166C13.4889 5.64599 13.7346 5.78441 13.8849 5.92282C14.0343 6.06032 14.0416 6.14741 14.0416 6.16574C14.0416 6.40885 14.1382 6.64201 14.3101 6.81392C14.482 6.98583 14.7152 7.08241 14.9583 7.08241C15.2014 7.08241 15.4346 6.98583 15.6065 6.81392C15.7784 6.64201 15.875 6.40885 15.875 6.16574C15.875 5.49657 15.5386 4.95391 15.1288 4.57532C14.7209 4.19949 14.1938 3.93641 13.6475 3.79066C13.0505 3.63068 12.4247 3.6106 11.8187 3.73199ZM0.749977 8.91666C0.749977 8.67354 0.846554 8.44038 1.01846 8.26848C1.19037 8.09657 1.42353 7.99999 1.66664 7.99999H16.3333C16.5764 7.99999 16.8096 8.09657 16.9815 8.26848C17.1534 8.44038 17.25 8.67354 17.25 8.91666V10.4667C17.25 12.2139 16.6276 13.9061 15.4946 15.1692C14.3579 16.4333 12.795 17.1667 11.1404 17.1667H6.85956C5.20498 17.1667 3.64206 16.4333 2.50539 15.1683C1.37239 13.9061 0.749977 12.2139 0.749977 10.4667V8.91666ZM2.58331 9.83332V10.4667C2.58331 11.7867 3.05539 13.0371 3.86939 13.9437C4.68064 14.8475 5.75864 15.3333 6.85864 15.3333H11.1413C12.2413 15.3333 13.3193 14.8475 14.1296 13.9437C14.9455 13.0362 15.4166 11.7877 15.4166 10.4667V9.83332H2.58331Z" fill="black"/>
</svg>
