<svg width="20" height="19" viewBox="0 0 20 19" fill="none" xmlns="http://www.w3.org/2000/svg">
<path d="M11.8333 4.41667C11.8333 4.17355 11.9299 3.94039 12.1018 3.76849C12.2737 3.59658 12.5069 3.5 12.75 3.5H15.5C15.7431 3.5 15.9763 3.59658 16.1482 3.76849C16.3201 3.94039 16.4167 4.17355 16.4167 4.41667C16.4167 4.65978 16.3201 4.89294 16.1482 5.06485C15.9763 5.23676 15.7431 5.33333 15.5 5.33333H12.75C12.5069 5.33333 12.2737 5.23676 12.1018 5.06485C11.9299 4.89294 11.8333 4.65978 11.8333 4.41667ZM12.75 6.25C12.5069 6.25 12.2737 6.34658 12.1018 6.51849C11.9299 6.69039 11.8333 6.92355 11.8333 7.16667C11.8333 7.40978 11.9299 7.64294 12.1018 7.81485C12.2737 7.98676 12.5069 8.08333 12.75 8.08333H15.5C15.7431 8.08333 15.9763 7.98676 16.1482 7.81485C16.3201 7.64294 16.4167 7.40978 16.4167 7.16667C16.4167 6.92355 16.3201 6.69039 16.1482 6.51849C15.9763 6.34658 15.7431 6.25 15.5 6.25H12.75ZM3.58333 4.41667C3.58333 4.17355 3.67991 3.94039 3.85181 3.76849C4.02372 3.59658 4.25688 3.5 4.49999 3.5H7.24999C7.49311 3.5 7.72627 3.59658 7.89818 3.76849C8.07008 3.94039 8.16666 4.17355 8.16666 4.41667C8.16666 4.65978 8.07008 4.89294 7.89818 5.06485C7.72627 5.23676 7.49311 5.33333 7.24999 5.33333H4.49999C4.25688 5.33333 4.02372 5.23676 3.85181 5.06485C3.67991 4.89294 3.58333 4.65978 3.58333 4.41667ZM3.58333 7.16667C3.58333 6.92355 3.67991 6.69039 3.85181 6.51849C4.02372 6.34658 4.25688 6.25 4.49999 6.25H7.24999C7.49311 6.25 7.72627 6.34658 7.89818 6.51849C8.07008 6.69039 8.16666 6.92355 8.16666 7.16667C8.16666 7.40978 8.07008 7.64294 7.89818 7.81485C7.72627 7.98676 7.49311 8.08333 7.24999 8.08333H4.49999C4.25688 8.08333 4.02372 7.98676 3.85181 7.81485C3.67991 7.64294 3.58333 7.40978 3.58333 7.16667Z" fill="black"/>
<path fill-rule="evenodd" clip-rule="evenodd" d="M17.3333 0.75C17.8196 0.75 18.2859 0.943154 18.6297 1.28697C18.9735 1.63079 19.1667 2.0971 19.1667 2.58333V15.4167C19.1667 15.6598 19.0701 15.8929 18.8982 16.0648C18.7263 16.2368 18.4931 16.3333 18.25 16.3333H17.3333V17.25C17.3333 17.4931 17.2368 17.7263 17.0648 17.8982C16.8929 18.0701 16.6598 18.1667 16.4167 18.1667C16.1735 18.1667 15.9404 18.0701 15.7685 17.8982C15.5966 17.7263 15.5 17.4931 15.5 17.25V16.3333H10.9167V17.25C10.9167 17.4931 10.8201 17.7263 10.6482 17.8982C10.4763 18.0701 10.2431 18.1667 10 18.1667C9.75688 18.1667 9.52372 18.0701 9.35181 17.8982C9.17991 17.7263 9.08333 17.4931 9.08333 17.25V16.3333H4.49999V17.25C4.49999 17.4931 4.40342 17.7263 4.23151 17.8982C4.0596 18.0701 3.82644 18.1667 3.58333 18.1667C3.34021 18.1667 3.10706 18.0701 2.93515 17.8982C2.76324 17.7263 2.66666 17.4931 2.66666 17.25V16.3333H1.74999C1.50688 16.3333 1.27372 16.2368 1.10181 16.0648C0.929905 15.8929 0.833328 15.6598 0.833328 15.4167V2.58333C0.833328 2.0971 1.02648 1.63079 1.3703 1.28697C1.71412 0.943154 2.18043 0.75 2.66666 0.75H17.3333ZM10.9167 2.58333H17.3333V14.5H10.9167V2.58333ZM2.66666 14.5V2.58333H9.08333V14.5H2.66666Z" fill="black"/>
</svg>
