<svg width="22" height="22" viewBox="0 0 22 22" fill="none" xmlns="http://www.w3.org/2000/svg">
<path fill-rule="evenodd" clip-rule="evenodd" d="M19.8 3.3C19.8 2.42479 19.4523 1.58542 18.8335 0.966548C18.2146 0.347678 17.3752 6.51788e-08 16.5 6.51788e-08H7.7C6.62959 -0.000164675 5.58239 0.31196 4.68673 0.898121C3.79108 1.48428 3.08589 2.31901 2.6576 3.3H1.1C0.808262 3.3 0.528473 3.41589 0.322183 3.62218C0.115893 3.82847 0 4.10826 0 4.4C0 4.69174 0.115893 4.97153 0.322183 5.17782C0.528473 5.38411 0.808262 5.5 1.1 5.5H2.2V19.8C2.2 20.3835 2.43179 20.9431 2.84437 21.3556C3.25695 21.7682 3.81652 22 4.4 22H13.2C13.7835 22 14.3431 21.7682 14.7556 21.3556C15.1682 20.9431 15.4 20.3835 15.4 19.8V15.4H17.6C18.1835 15.4 18.7431 15.1682 19.1556 14.7556C19.5682 14.3431 19.8 13.7835 19.8 13.2V5.5H20.9C21.1917 5.5 21.4715 5.38411 21.6778 5.17782C21.8841 4.97153 22 4.69174 22 4.4C22 4.10826 21.8841 3.82847 21.6778 3.62218C21.4715 3.41589 21.1917 3.3 20.9 3.3H19.8ZM16.5 2.2C16.7917 2.2 17.0715 2.31589 17.2778 2.52218C17.4841 2.72847 17.6 3.00826 17.6 3.3H15.4C15.4 3.00826 15.5159 2.72847 15.7222 2.52218C15.9285 2.31589 16.2083 2.2 16.5 2.2ZM17.6 13.2V5.5H15.4V13.2H17.6ZM13.2 3.3V19.8H4.4V5.5C4.4 4.62479 4.74768 3.78542 5.36655 3.16655C5.98542 2.54768 6.82479 2.2 7.7 2.2H13.387C13.266 2.5443 13.2 2.915 13.2 3.3Z" fill="#1D1D1F"/>
</svg>
