<svg width="22" height="16" viewBox="0 0 22 16" fill="none" xmlns="http://www.w3.org/2000/svg">
<path fill-rule="evenodd" clip-rule="evenodd" d="M11 2.04166C7.56104 2.03641 4.24591 3.32503 1.71328 5.65149C1.6245 5.73281 1.52057 5.79584 1.40743 5.83699C1.29429 5.87815 1.17416 5.89661 1.05388 5.89133C0.933607 5.88606 0.815549 5.85714 0.706449 5.80624C0.597349 5.75533 0.499343 5.68344 0.418028 5.59466C0.253803 5.41536 0.167531 5.17817 0.178189 4.93527C0.188848 4.69236 0.295564 4.46363 0.474861 4.29941C3.34561 1.66333 7.10258 0.203013 11 0.208327C15.0563 0.208327 18.7532 1.75933 21.5252 4.29941C21.614 4.38073 21.6859 4.47873 21.7368 4.58783C21.7877 4.69693 21.8166 4.81499 21.8219 4.93527C21.8271 5.05554 21.8087 5.17568 21.7675 5.28882C21.7264 5.40196 21.6633 5.50588 21.582 5.59466C21.5007 5.68344 21.4027 5.75533 21.2936 5.80624C21.1845 5.85714 21.0664 5.88606 20.9462 5.89133C20.8259 5.89661 20.7058 5.87815 20.5926 5.83699C20.4795 5.79584 20.3756 5.73281 20.2868 5.65149C17.7541 3.32503 14.439 2.03641 11 2.04166ZM11 6.62499C8.67811 6.62499 6.55878 7.48666 4.94361 8.91024C4.85388 8.99325 4.74845 9.05747 4.63354 9.09912C4.51862 9.14078 4.39653 9.15903 4.27445 9.15281C4.15238 9.14658 4.03278 9.116 3.9227 9.06287C3.81261 9.00974 3.71427 8.93512 3.63345 8.84342C3.55263 8.75172 3.49096 8.64478 3.45208 8.52889C3.41321 8.413 3.3979 8.29051 3.40706 8.16862C3.41622 8.04673 3.44967 7.9279 3.50543 7.81913C3.5612 7.71036 3.63816 7.61383 3.73178 7.53524C5.73833 5.76405 8.32358 4.78818 11 4.79166C13.7858 4.79166 16.3304 5.82749 18.2683 7.53524C18.3619 7.61383 18.4389 7.71036 18.4946 7.81913C18.5504 7.9279 18.5838 8.04673 18.593 8.16862C18.6022 8.29051 18.5868 8.413 18.548 8.52889C18.5091 8.64478 18.4474 8.75172 18.3666 8.84342C18.2858 8.93512 18.1874 9.00974 18.0774 9.06287C17.9673 9.116 17.8477 9.14658 17.7256 9.15281C17.6035 9.15903 17.4814 9.14078 17.3665 9.09912C17.2516 9.05747 17.1462 8.99325 17.0564 8.91024C15.3846 7.43422 13.2302 6.62132 11 6.62499ZM11 11.2083C9.96035 11.2065 8.95125 11.56 8.14003 12.2102C7.95015 12.3622 7.7077 12.4325 7.46599 12.4057C7.22429 12.3789 7.00314 12.2571 6.85119 12.0672C6.69925 11.8774 6.62895 11.6349 6.65577 11.3932C6.68259 11.1515 6.80432 10.9304 6.99419 10.7784C8.13071 9.8681 9.5439 9.373 11 9.37499C12.4914 9.37499 13.8655 9.88466 14.9554 10.739C15.1468 10.889 15.2707 11.1089 15.2999 11.3502C15.3291 11.5916 15.2613 11.8347 15.1113 12.026C15.037 12.1207 14.9448 12.1999 14.8399 12.259C14.735 12.3181 14.6196 12.356 14.5001 12.3705C14.2587 12.3997 14.0156 12.3318 13.8243 12.1818C13.0189 11.5494 12.0241 11.2065 11 11.2083ZM10.0834 14.875C10.0834 14.6319 10.1799 14.3987 10.3518 14.2268C10.5238 14.0549 10.7569 13.9583 11 13.9583H11.0092C11.2523 13.9583 11.4855 14.0549 11.6574 14.2268C11.8293 14.3987 11.9259 14.6319 11.9259 14.875C11.9259 15.1181 11.8293 15.3513 11.6574 15.5232C11.4855 15.6951 11.2523 15.7917 11.0092 15.7917H11C10.7569 15.7917 10.5238 15.6951 10.3518 15.5232C10.1799 15.3513 10.0834 15.1181 10.0834 14.875Z" fill="#1D1D1F"/>
</svg>
