<svg width="70" height="70" viewBox="0 0 70 70" fill="none" xmlns="http://www.w3.org/2000/svg">
<path d="M2.02129 35.1648L2.02416 35.1619L2.02696 35.159L2.02968 35.156L2.03232 35.1529L2.03497 35.1498L2.03762 35.1467L2.04012 35.1435L2.04255 35.1403L2.04498 35.137L2.04733 35.1338L2.04968 35.1304L2.05189 35.127L2.05409 35.1236L2.05622 35.1202L2.05828 35.1166L2.06027 35.1132L2.06218 35.1095L2.06409 35.106L2.06586 35.1023L2.06762 35.0986L2.06932 35.095L2.07093 35.0913L2.07248 35.0876L2.07395 35.0838L2.07542 35.0799L2.07674 35.0761L2.07807 35.0723L2.07924 35.0685L2.08042 35.0645L2.08152 35.0606L2.08255 35.0568L2.08351 35.0527L2.08439 35.0488L2.0852 35.0449L2.08593 35.0409L2.0866 35.0368L2.08719 35.0329L2.0877 35.0288L2.08821 35.0248L2.08858 35.0207L2.08895 35.0167L2.08917 35.0126L2.08939 35.0086L2.08946 35.0046L2.08954 35.0005L2.08954 34.9964L2.08939 34.9924L2.08924 34.9883L2.08902 34.9843L2.08873 34.9803L2.08836 34.9762L2.08785 34.9722L2.08733 34.9682L2.08682 34.9641L2.08608 34.9601L2.08535 34.9562L2.08461 34.9522L2.08373 34.9482L2.08285 34.9443L2.08174 34.9404L2.08071 34.9364L2.07954 34.9326L2.07843 34.9287L2.07711 34.9248L2.07579 34.921L2.07432 34.9172L2.07284 34.9134L2.0713 34.9096L2.06968 34.9059L2.06807 34.9023L2.0663 34.8986L2.06454 34.8949L2.06269 34.8913L2.06071 34.8877L2.05872 34.8843L2.05666 34.8807L2.05461 34.8772L2.0524 34.8738L2.05019 34.8704L2.04792 34.8671L2.04556 34.8637L2.04321 34.8605L2.04071 34.8573L2.03821 34.854L2.03563 34.851L2.03306 34.8479L2.03034 34.8448L2.02762 34.8418L2.02482 34.8389L2.02203 34.8359L2.01916 34.8331L2.01622 34.8303L2.01321 34.8275L2.01019 34.8248L2.0071 34.8222L2.00401 34.8195L2.00085 34.8171L1.99769 34.8145L1.99438 34.8121L1.99114 34.8098L1.98776 34.8074L1.98438 34.8052L1.981 34.803L1.97754 34.8009L1.97401 34.7988L1.97055 34.7968L1.96695 34.7948L1.96342 34.7929L1.95981 34.7911L1.95614 34.7893L1.95239 34.7876L1.94871 34.786L1.94496 34.7845L1.94121 34.7829L1.93746 34.7815L1.93364 34.78L1.92974 34.7788L1.92598 34.7775L1.92201 34.7764L1.91812 34.7753L1.91422 34.7742L1.91025 34.7733L1.90635 34.7723L1.90231 34.7715L1.89834 34.7708L1.89436 34.77L1.8904 34.7695L1.88635 34.7689L1.8823 34.7684L1.87833 34.768L1.87422 34.7677L1.87024 34.7674L1.8662 34.7672L1.86208 34.767L1.85804 34.767L1.85399 34.767L1.84995 34.7671L1.8459 34.7672L1.84186 34.7674L1.83781 34.7678L1.83377 34.7681L1.82973 34.7685L1.82568 34.769L1.82171 34.7696L1.81767 34.7703L1.81362 34.7709L1.80972 34.7717L1.80575 34.7726L1.80178 34.7735L1.79788 34.7745L1.79391 34.7755L1.79009 34.7767L1.78611 34.7778L1.78229 34.7792L1.77847 34.7805L1.77464 34.7818L1.77082 34.7833L1.76707 34.7848L1.76339 34.7864L1.75972 34.7881L1.75597 34.7898L1.75236 34.7916L1.74876 34.7934L1.74515 34.7953L1.74162 34.7973L1.73809 34.7992L1.73464 34.8014L1.73118 34.8035L1.7278 34.8057L1.72441 34.8081L1.72111 34.8103L1.7178 34.8128L1.71463 34.8152L1.7114 34.8177L1.70824 34.8203L1.70507 34.8228L1.70213 34.8255L1.69912 34.8282L1.6961 34.8309L1.69324 34.8338L1.69037 34.8367L1.6875 34.8395L1.68478 34.8426L1.68206 34.8456L1.67934 34.8486L1.67676 34.8517L1.67419 34.8549L1.67169 34.8581L1.66926 34.8613L1.66683 34.8646L1.66456 34.8679L1.66227 34.8712L1.66007 34.8746L1.65794 34.8781L1.6558 34.8815L1.65382 34.8851L1.65183 34.8886L1.64992 34.8923L1.64808 34.8959L1.64625 34.8995L1.64463 34.9031L1.64294 34.9069L1.64132 34.9106L1.63977 34.9143L1.6383 34.9182L1.63698 34.922L1.63565 34.9258L1.63433 34.9296L1.63323 34.9335L1.63205 34.9373L1.63102 34.9413L1.62999 34.9453L1.62911 34.9493L1.62823 34.9532L1.62742 34.9571L1.62676 34.9612L1.62617 34.9651L1.62551 34.9692L1.62506 34.9732L1.62462 34.9773L1.62426 34.9813L1.62396 34.9853L1.62374 34.9893L1.62359 34.9935L1.62352 34.9975L1.62345 35.0015L1.62352 35.0056L1.62374 35.0096L1.62389 35.0138L1.62418 35.0177L1.62455 35.0218L1.62492 35.0258L1.62543 35.0299L1.62595 35.0339L1.62654 35.0379L1.62727 35.0418L1.62801 35.0458L1.62889 35.0498L1.62977 35.0538L1.63073 35.0577L1.63175 35.0616L1.63286 35.0655L1.63411 35.0694L1.63528 35.0732L1.63661 35.0771L1.63801 35.081L1.6394 35.0847L1.64095 35.0885L1.6425 35.0922L1.64411 35.0959L1.64588 35.0996L1.64764 35.1033L1.64948 35.1069L1.65132 35.1105L1.6533 35.1141L1.65529 35.1175L1.65735 35.121L1.65948 35.1245L1.66169 35.1279L1.66397 35.1312L1.66632 35.1346L1.6686 35.1379L1.6711 35.1411L1.6736 35.1444L1.6761 35.1474L1.67868 35.1506L1.68132 35.1537L1.68404 35.1567L1.68684 35.1597L1.68963 35.1626L1.6925 35.1655L1.69537 35.1683L1.69831 35.1711L1.70132 35.1738L1.70441 35.1765L1.7075 35.1791L1.71059 35.1816L1.71376 35.1842L1.71706 35.1866L1.72023 35.1891L1.72361 35.1914L1.72692 35.1937L1.7303 35.1959L1.73376 35.198L1.73721 35.2002L1.74074 35.2022L1.74427 35.2041L1.74787 35.2061L1.75148 35.208L1.75508 35.2098L1.75876 35.2116L1.76244 35.2132L1.76611 35.2148L1.76986 35.2164L1.77369 35.2178L1.77751 35.2193L1.78134 35.2206L1.78523 35.2219L1.78906 35.223L1.79295 35.2241L1.79685 35.2253L1.80082 35.2263L1.80472 35.2272L1.80869 35.2281L1.81266 35.2289L1.81664 35.2296L1.82068 35.2303L1.82465 35.2308L1.8287 35.2314L1.83274 35.2319L1.83678 35.2322L1.84083 35.2325L1.8448 35.2328L1.84892 35.2329L1.85296 35.233L1.85701 35.233L1.86105 35.233L1.8651 35.2329L1.86914 35.2327L1.87326 35.2324L1.87723 35.2321L1.88128 35.2317L1.88532 35.2312L1.88937 35.2307L1.89334 35.2301L1.89738 35.2294L1.90135 35.2287L1.90532 35.2278L1.90929 35.2269L1.91326 35.2261L1.91716 35.225L1.92106 35.2239L1.92496 35.2228L1.92886 35.2215L1.93261 35.2203L1.9365 35.2189L1.94025 35.2175L1.94408 35.216L1.94783 35.2144L1.95151 35.2128L1.95518 35.2111L1.95886 35.2093L1.96253 35.2075L1.96606 35.2056L1.96967 35.2038L1.9732 35.2017L1.97673 35.1997L1.98011 35.1976L1.98357 35.1953L1.98695 35.1931L1.99026 35.1908L1.99357 35.1884L1.99681 35.1861L2.00004 35.1836L2.00328 35.1811L2.00629 35.1785L2.00938 35.1758L2.01247 35.1732L2.01548 35.1705L2.01843 35.1677L2.02129 35.1648Z" stroke="black" stroke-width="2" stroke-miterlimit="10" stroke-linecap="round" stroke-linejoin="round"/>
<path d="M2.08626 35.0388L2.66839 35.0388" stroke="black" stroke-width="2" stroke-miterlimit="10" stroke-linecap="round" stroke-linejoin="round"/>
<path d="M2.08625 34.9612H2.66839" stroke="black" stroke-width="2" stroke-miterlimit="10" stroke-linecap="round" stroke-linejoin="round"/>
<path d="M6.2458 34.9026L6.2441 34.9043L6.24248 34.9061L6.24087 34.9079L6.23932 34.9096L6.23778 34.9114L6.23623 34.9132L6.23477 34.9151L6.23337 34.917L6.23189 34.9189L6.23057 34.9208L6.22917 34.9228L6.22785 34.9247L6.22653 34.9268L6.22535 34.9288L6.2241 34.9308L6.22292 34.9329L6.22182 34.935L6.22065 34.9371L6.21962 34.9393L6.21859 34.9413L6.21756 34.9435L6.2166 34.9457L6.21572 34.9479L6.21483 34.9501L6.21395 34.9523L6.21322 34.9545L6.21241 34.9568L6.21175 34.959L6.21101 34.9613L6.21043 34.9636L6.20976 34.9659L6.20917 34.9682L6.20866 34.9705L6.20822 34.9729L6.2077 34.9752L6.20733 34.9776L6.20697 34.9799L6.20667 34.9822L6.2063 34.9846L6.20608 34.9869L6.20586 34.9893L6.20572 34.9917L6.20557 34.9941L6.2055 34.9965L6.2055 34.9988L6.2055 35.0012L6.20549 35.0035L6.20557 35.006L6.20572 35.0083L6.20586 35.0107L6.20608 35.0131L6.20631 35.0154L6.2066 35.0177L6.20697 35.0202L6.20733 35.0224L6.2077 35.0249L6.20822 35.0271L6.20866 35.0295L6.20917 35.0318L6.20976 35.0341L6.21042 35.0364L6.21101 35.0388L6.21175 35.041L6.21241 35.0432L6.21322 35.0455L6.21395 35.0477L6.21484 35.0499L6.21572 35.0521L6.2166 35.0544L6.21756 35.0565L6.21859 35.0587L6.21962 35.0607L6.22065 35.063L6.22182 35.065L6.22293 35.0671L6.2241 35.0692L6.22535 35.0712L6.22653 35.0733L6.22785 35.0753L6.22918 35.0772L6.23057 35.0792L6.2319 35.0811L6.23337 35.083L6.23476 35.0849L6.23623 35.0868L6.23778 35.0886L6.23932 35.0905L6.24087 35.0922L6.24249 35.0939L6.24411 35.0957L6.2458 35.0974L7.04024 35.8918L7.04186 35.8934L7.04362 35.8951L7.04538 35.8967L7.04708 35.8982L7.04892 35.8998L7.05068 35.9012L7.05252 35.9028L7.05436 35.9042L7.05634 35.9056L7.05818 35.907L7.06009 35.9083L7.06208 35.9095L7.06399 35.9109L7.06605 35.912L7.06804 35.9133L7.07009 35.9145L7.07216 35.9156L7.07421 35.9167L7.07635 35.9178L7.07841 35.9188L7.08054 35.9198L7.08274 35.9208L7.08495 35.9217L7.08708 35.9225L7.08929 35.9234L7.09142 35.9242L7.0937 35.925L7.09591 35.9257L7.09819 35.9264L7.10047 35.927L7.10267 35.9276L7.10503 35.9282L7.1073 35.9287L7.10959 35.9292L7.11187 35.9298L7.11415 35.9301L7.11657 35.9305L7.11885 35.9309L7.1212 35.9312L7.12349 35.9314L7.12584 35.9317L7.12819 35.9318L7.13055 35.932L7.1329 35.9321L7.13525 35.9321L7.13761 35.9321L9.55241 35.9322L9.55366 35.9321L9.55484 35.9321L9.55616 35.9321L9.55741 35.932L9.55866 35.932L9.55991 35.9319L9.56116 35.9318L9.56248 35.9317L9.56373 35.9316L9.56498 35.9314L9.56631 35.9312L9.56763 35.9311L9.56888 35.9309L9.5702 35.9307L9.57145 35.9305L9.5727 35.9303L9.57403 35.93L9.57528 35.9298L9.5766 35.9295L9.57793 35.9292L9.57925 35.9289L9.5805 35.9285L9.58182 35.9282L9.58315 35.9278L9.58447 35.9275L9.5858 35.927L9.58704 35.9267L9.58837 35.9262L9.58962 35.9257L9.59094 35.9253L9.59226 35.9248L9.59352 35.9243L9.59484 35.9237L9.59609 35.9232L9.59742 35.9226L9.59866 35.9221L9.59999 35.9215L9.60124 35.9209L9.60249 35.9203L9.60374 35.9197L9.60499 35.919L9.60624 35.9184L9.60742 35.9176L9.60874 35.9169L9.60991 35.9162L9.61116 35.9155L9.61242 35.9147L9.61359 35.9139L9.61477 35.9131L9.61595 35.9123L9.61712 35.9115L9.61822 35.9106L9.61948 35.9098L9.62058 35.9089L9.62168 35.9081L9.62286 35.9072L9.62396 35.9062L9.62506 35.9053L9.62616 35.9043L9.62727 35.9034L9.6283 35.9025L9.62933 35.9015L9.63036 35.9004L9.63139 35.8994L9.63242 35.8984L9.63345 35.8973L9.63448 35.8963L9.63543 35.8952L9.63639 35.8941L9.63734 35.893L9.63823 35.892L9.63919 35.8909L9.64007 35.8897L9.64095 35.8885L9.64183 35.8875L9.64264 35.8862L9.64352 35.8851L9.64433 35.8839L9.64514 35.8827L9.64595 35.8816L9.64676 35.8803L9.64749 35.8792L9.64823 35.8778L9.64896 35.8767L9.64962 35.8754L9.65036 35.8742L9.65102 35.873L9.65168 35.8717L9.65235 35.8705L9.65294 35.8692L9.6536 35.8679L9.65411 35.8667L9.6547 35.8653L9.65521 35.8641L9.6558 35.8628L9.65632 35.8615L9.65683 35.8603L9.65727 35.8589L9.65772 35.8576L9.65823 35.8564L9.65867 35.855L9.65911 35.8537L9.65948 35.8525L9.65985 35.8511L9.66022 35.8498L9.66051 35.8485L9.66088 35.8473L9.66117 35.8459L9.66147 35.8446L9.66176 35.8433L9.66205 35.842L9.66228 35.8407L9.66257 35.8394L9.66279 35.8381L9.66294 35.8368L9.66316 35.8356L9.6633 35.8342L9.66345 35.8329L9.6636 35.8317L9.66375 35.8304L9.66382 35.8292L9.66389 35.8279L9.66397 35.8267L9.66404 35.8254L9.66411 35.8242L9.66411 35.8228L9.66419 35.8216L9.66419 35.8204L9.66419 34.1796L9.66419 34.1784L9.66411 34.1772L9.66411 34.1759L9.66404 34.1746L9.66396 34.1734L9.66389 34.1721L9.66382 34.1709L9.66375 34.1696L9.6636 34.1683L9.66345 34.1671L9.66331 34.1658L9.66316 34.1645L9.66294 34.1632L9.66279 34.1619L9.6625 34.1606L9.66228 34.1593L9.66205 34.1581L9.66176 34.1567L9.66147 34.1554L9.66117 34.1541L9.66088 34.1528L9.66051 34.1515L9.66022 34.1502L9.65985 34.1489L9.65948 34.1475L9.65911 34.1463L9.65867 34.145L9.65823 34.1436L9.65772 34.1424L9.65727 34.1411L9.65683 34.1397L9.65632 34.1385L9.6558 34.1372L9.65521 34.1359L9.6547 34.1347L9.65411 34.1333L9.6536 34.1321L9.65294 34.1308L9.65235 34.1295L9.65169 34.1283L9.65103 34.127L9.65036 34.1258L9.64962 34.1246L9.64897 34.1233L9.64823 34.1222L9.6475 34.1208L9.64676 34.1197L9.64595 34.1184L9.64514 34.1173L9.64433 34.1161L9.64352 34.115L9.64264 34.1138L9.64183 34.1125L9.64095 34.1115L9.64007 34.1103L9.63918 34.1092L9.63823 34.1081L9.63734 34.107L9.63639 34.1059L9.63543 34.1048L9.63448 34.1037L9.63345 34.1027L9.63242 34.1017L9.63139 34.1006L9.63036 34.0996L9.62933 34.0986L9.62837 34.0976L9.62727 34.0967L9.62617 34.0957L9.62506 34.0947L9.62396 34.0938L9.62286 34.0928L9.62168 34.0919L9.62058 34.0911L9.61947 34.0902L9.61822 34.0894L9.61712 34.0886L9.61595 34.0877L9.61477 34.0869L9.61359 34.0861L9.61242 34.0853L9.61117 34.0845L9.60992 34.0839L9.60874 34.0831L9.60741 34.0824L9.60624 34.0817L9.60499 34.081L9.60374 34.0803L9.60249 34.0797L9.60124 34.0791L9.59999 34.0785L9.59866 34.0779L9.59741 34.0774L9.59609 34.0768L9.59484 34.0763L9.59352 34.0757L9.59227 34.0752L9.59094 34.0747L9.58962 34.0743L9.58837 34.0738L9.58712 34.0734L9.58579 34.073L9.58447 34.0725L9.58315 34.0722L9.58182 34.0718L9.5805 34.0715L9.57925 34.0711L9.57792 34.0708L9.5766 34.0705L9.57535 34.0703L9.57403 34.07L9.57271 34.0697L9.57145 34.0695L9.5702 34.0693L9.56888 34.0691L9.56763 34.0689L9.56631 34.0688L9.56498 34.0686L9.56373 34.0684L9.56248 34.0683L9.56116 34.0682L9.55991 34.0681L9.55866 34.068L9.55741 34.068L9.55616 34.0679L9.55484 34.0679L9.55366 34.0679L9.55241 34.0678L7.13761 34.0679L7.13525 34.0679L7.1329 34.0679L7.13054 34.068L7.12819 34.0682L7.12584 34.0683L7.12348 34.0686L7.12121 34.0689L7.11885 34.0691L7.11657 34.0695L7.11414 34.0699L7.11186 34.0703L7.10958 34.0708L7.10731 34.0713L7.10503 34.0718L7.10267 34.0724L7.10047 34.073L7.09819 34.0736L7.09591 34.0743L7.0937 34.075L7.09142 34.0758L7.08929 34.0766L7.08708 34.0775L7.08495 34.0783L7.08274 34.0792L7.08054 34.0803L7.07841 34.0812L7.07634 34.0822L7.07421 34.0833L7.07215 34.0844L7.07009 34.0856L7.06804 34.0867L7.06605 34.088L7.06406 34.0892L7.06208 34.0905L7.06009 34.0917L7.05818 34.093L7.05634 34.0944L7.05436 34.0958L7.05252 34.0972L7.05068 34.0988L7.04892 34.1003L7.04708 34.1018L7.04539 34.1033L7.04362 34.105L7.04186 34.1066L7.04024 34.1082L6.2458 34.9026Z" stroke="black" stroke-width="2" stroke-miterlimit="10" stroke-linecap="round" stroke-linejoin="round"/>
<path d="M7.0849 34.0783L7.0849 35.9217" stroke="black" stroke-width="2" stroke-miterlimit="10" stroke-linecap="round" stroke-linejoin="round"/>
<path d="M6.30376 35.1554L2.66828 35.1554L2.66828 34.8446L6.30376 34.8446" stroke="black" stroke-width="2" stroke-miterlimit="10" stroke-linecap="round" stroke-linejoin="round"/>
<path d="M35.1554 6.30378V2.6683H34.8446V6.30378" stroke="black" stroke-width="2" stroke-miterlimit="10" stroke-linecap="round" stroke-linejoin="round"/>
<path d="M34.0783 7.0849H35.9217" stroke="black" stroke-width="2" stroke-miterlimit="10" stroke-linecap="round" stroke-linejoin="round"/>
<path d="M34.9026 6.24577L34.9043 6.24408L34.9061 6.24246L34.9079 6.24084L34.9095 6.2393L34.9114 6.23776L34.9132 6.23621L34.9151 6.23474L34.917 6.23334L34.9189 6.23187L34.9208 6.23055L34.9228 6.22915L34.9247 6.22783L34.9268 6.2265L34.9288 6.22533L34.9308 6.22408L34.9329 6.2229L34.935 6.2218L34.9371 6.22062L34.9393 6.21959L34.9413 6.21856L34.9435 6.21753L34.9457 6.21658L34.9479 6.21569L34.9501 6.21481L34.9523 6.21393L34.9545 6.21319L34.9568 6.21238L34.959 6.21172L34.9612 6.21099L34.9636 6.2104L34.9659 6.20974L34.9682 6.20915L34.9705 6.20864L34.9729 6.20819L34.9751 6.20768L34.9776 6.20731L34.9799 6.20694L34.9823 6.20658L34.9846 6.20628L34.9869 6.20606L34.9893 6.20584L34.9917 6.20569L34.994 6.20555L34.9965 6.20547H34.9988H35.0012H35.0035L35.006 6.20555L35.0083 6.20569L35.0107 6.20584L35.0131 6.20606L35.0154 6.20628L35.0177 6.20658L35.0201 6.20694L35.0224 6.20731L35.0249 6.20768L35.0271 6.20819L35.0295 6.20864L35.0318 6.20915L35.0341 6.20974L35.0364 6.2104L35.0388 6.21099L35.041 6.21172L35.0432 6.21238L35.0455 6.21319L35.0477 6.21393L35.0499 6.21481L35.0521 6.21569L35.0543 6.21658L35.0565 6.21753L35.0587 6.21856L35.0607 6.21959L35.0629 6.22062L35.065 6.2218L35.0671 6.2229L35.0692 6.22408L35.0712 6.22533L35.0732 6.2265L35.0753 6.22783L35.0772 6.22915L35.0792 6.23055L35.0811 6.23187L35.083 6.23334L35.0849 6.23474L35.0868 6.23621L35.0886 6.23776L35.0905 6.2393L35.0921 6.24084L35.0939 6.24246L35.0957 6.24408L35.0974 6.24577L35.8918 7.04022L35.8934 7.04183L35.895 7.0436L35.8967 7.04536L35.8982 7.04705L35.8998 7.04889L35.9012 7.05066L35.9028 7.05249L35.9042 7.05433L35.9056 7.05632L35.907 7.05816L35.9083 7.06007L35.9095 7.06206L35.9108 7.06404L35.912 7.06603L35.9133 7.06801L35.9145 7.07007L35.9156 7.07213L35.9167 7.07419L35.9178 7.07632L35.9188 7.07838L35.9198 7.08051L35.9208 7.08272L35.9217 7.08493L35.9225 7.08706L35.9234 7.08926L35.9242 7.0914L35.925 7.09368L35.9257 7.09588L35.9264 7.09816L35.927 7.10044L35.9276 7.10265L35.9282 7.105L35.9287 7.10728L35.9292 7.10956L35.9298 7.11184L35.9301 7.11412L35.9305 7.11655L35.9309 7.11883L35.9312 7.12118L35.9314 7.12346L35.9317 7.12581L35.9318 7.12817L35.932 7.13052L35.9321 7.13287V7.13523L35.9321 7.13758L35.9322 9.55238L35.9321 9.55363L35.9321 9.55481V9.55613L35.932 9.55738L35.932 9.55863L35.9319 9.55988L35.9318 9.56113L35.9317 9.56246L35.9316 9.56371L35.9314 9.56496L35.9312 9.56628L35.9311 9.56761L35.9309 9.56886L35.9307 9.57018L35.9305 9.57143L35.9303 9.57268L35.93 9.574L35.9297 9.57533L35.9295 9.57658L35.9292 9.5779L35.9289 9.57923L35.9285 9.58048L35.9282 9.5818L35.9278 9.58312L35.9275 9.58445L35.927 9.58577L35.9266 9.58709L35.9262 9.58834L35.9257 9.5896L35.9253 9.59092L35.9248 9.59224L35.9243 9.59349L35.9237 9.59482L35.9232 9.59607L35.9226 9.59739L35.9221 9.59864L35.9215 9.59996L35.9209 9.60121L35.9203 9.60246L35.9197 9.60371L35.919 9.60496L35.9184 9.60621L35.9176 9.60739L35.9169 9.60871L35.9161 9.60989L35.9155 9.61114L35.9147 9.61239L35.9139 9.61357L35.9131 9.61475L35.9123 9.61592L35.9114 9.6171L35.9106 9.6182L35.9098 9.61945L35.9089 9.62055L35.9081 9.62166L35.9072 9.62283L35.9062 9.62394L35.9053 9.62504L35.9043 9.62614L35.9034 9.62725L35.9024 9.62835L35.9014 9.62931L35.9004 9.63033L35.8994 9.63136L35.8984 9.63239L35.8973 9.63342L35.8963 9.63445L35.8952 9.63541L35.8941 9.63637L35.893 9.63732L35.892 9.6382L35.8909 9.63916L35.8897 9.64004L35.8885 9.64092L35.8875 9.64181L35.8862 9.64262L35.885 9.6435L35.8839 9.64431L35.8827 9.64512L35.8816 9.64593L35.8803 9.64673L35.8792 9.64747L35.8778 9.64821L35.8767 9.64894L35.8754 9.6496L35.8742 9.65034L35.873 9.651L35.8717 9.65166L35.8705 9.65232L35.8692 9.65291L35.8679 9.65357L35.8667 9.65409L35.8653 9.65468L35.8641 9.65519L35.8628 9.65578L35.8615 9.6563L35.8603 9.65681L35.8589 9.65725L35.8576 9.65769L35.8564 9.65821L35.855 9.65865L35.8537 9.65909L35.8525 9.65946L35.8511 9.65983L35.8498 9.66019L35.8485 9.66049L35.8472 9.66085L35.8459 9.66115L35.8446 9.66144L35.8433 9.66174L35.8419 9.66203L35.8407 9.66225L35.8394 9.66247L35.8381 9.66277L35.8368 9.66291L35.8356 9.66313L35.8342 9.66328L35.8329 9.66343L35.8317 9.66358L35.8304 9.66372L35.8292 9.6638L35.8279 9.66387L35.8267 9.66394L35.8254 9.66402L35.8242 9.66409H35.8228L35.8216 9.66416H35.8204H34.1796H34.1784L34.1772 9.66409H34.1758L34.1746 9.66402L34.1733 9.66394L34.1721 9.66387L34.1708 9.6638L34.1696 9.66372L34.1683 9.66358L34.1671 9.66343L34.1658 9.66328L34.1644 9.66313L34.1632 9.66291L34.1619 9.66277L34.1606 9.66247L34.1593 9.66225L34.1581 9.66203L34.1567 9.66174L34.1554 9.66144L34.1541 9.66115L34.1528 9.66085L34.1515 9.66049L34.1502 9.66019L34.1489 9.65983L34.1475 9.65946L34.1463 9.65909L34.145 9.65865L34.1436 9.65821L34.1424 9.65769L34.1411 9.65725L34.1397 9.65681L34.1385 9.6563L34.1372 9.65578L34.1359 9.65519L34.1347 9.65468L34.1333 9.65409L34.1321 9.65357L34.1308 9.65291L34.1295 9.65232L34.1283 9.65166L34.127 9.651L34.1258 9.65034L34.1246 9.6496L34.1233 9.64894L34.1222 9.64821L34.1208 9.64747L34.1197 9.64673L34.1184 9.64593L34.1173 9.64512L34.1161 9.64431L34.115 9.6435L34.1138 9.64262L34.1125 9.64181L34.1115 9.64092L34.1103 9.64004L34.1091 9.63916L34.108 9.6382L34.107 9.63732L34.1059 9.63637L34.1048 9.63541L34.1037 9.63445L34.1027 9.63342L34.1016 9.63239L34.1006 9.63136L34.0996 9.63033L34.0986 9.62931L34.0976 9.62835L34.0966 9.62725L34.0957 9.62614L34.0947 9.62504L34.0938 9.62394L34.0928 9.62283L34.0919 9.62166L34.0911 9.62055L34.0902 9.61945L34.0894 9.6182L34.0886 9.6171L34.0877 9.61592L34.0869 9.61475L34.0861 9.61357L34.0853 9.61239L34.0845 9.61114L34.0839 9.60989L34.0831 9.60871L34.0824 9.60739L34.0816 9.60621L34.081 9.60496L34.0803 9.60371L34.0797 9.60246L34.0791 9.60121L34.0785 9.59996L34.0779 9.59864L34.0774 9.59739L34.0768 9.59607L34.0763 9.59482L34.0757 9.59349L34.0752 9.59224L34.0747 9.59092L34.0743 9.5896L34.0738 9.58834L34.0734 9.58709L34.073 9.58577L34.0725 9.58445L34.0722 9.58312L34.0718 9.5818L34.0715 9.58048L34.0711 9.57923L34.0708 9.5779L34.0705 9.57658L34.0703 9.57533L34.07 9.574L34.0697 9.57268L34.0695 9.57143L34.0693 9.57018L34.0691 9.56886L34.0689 9.56761L34.0688 9.56628L34.0686 9.56496L34.0684 9.56371L34.0683 9.56246L34.0682 9.56113L34.0681 9.55988L34.068 9.55863L34.068 9.55738L34.0679 9.55613V9.55481L34.0679 9.55363L34.0678 9.55238L34.0679 7.13758L34.0679 7.13523V7.13287L34.068 7.13052L34.0682 7.12817L34.0683 7.12581L34.0686 7.12346L34.0688 7.12118L34.0691 7.11883L34.0695 7.11655L34.0699 7.11412L34.0702 7.11184L34.0708 7.10956L34.0713 7.10728L34.0718 7.105L34.0724 7.10265L34.073 7.10044L34.0736 7.09816L34.0743 7.09588L34.075 7.09368L34.0758 7.0914L34.0766 7.08926L34.0775 7.08706L34.0783 7.08493L34.0792 7.08272L34.0802 7.08051L34.0812 7.07838L34.0822 7.07632L34.0833 7.07419L34.0844 7.07213L34.0855 7.07007L34.0867 7.06801L34.088 7.06603L34.0892 7.06404L34.0905 7.06206L34.0917 7.06007L34.093 7.05816L34.0944 7.05632L34.0958 7.05433L34.0972 7.05249L34.0988 7.05066L34.1002 7.04889L34.1018 7.04705L34.1033 7.04536L34.105 7.0436L34.1066 7.04183L34.1082 7.04022L34.9026 6.24577Z" stroke="black" stroke-width="2" stroke-miterlimit="10" stroke-linecap="round" stroke-linejoin="round"/>
<path d="M34.9612 2.08624V2.66838" stroke="black" stroke-width="2" stroke-miterlimit="10" stroke-linecap="round" stroke-linejoin="round"/>
<path d="M35.0388 2.08624V2.66838" stroke="black" stroke-width="2" stroke-miterlimit="10" stroke-linecap="round" stroke-linejoin="round"/>
<path d="M35.1648 2.0213L35.1619 2.02416L35.159 2.02696L35.156 2.02968L35.1529 2.03233L35.1498 2.03497L35.1467 2.03762L35.1435 2.04005L35.1403 2.04255L35.137 2.04497L35.1338 2.04733L35.1304 2.04968L35.127 2.05189L35.1236 2.05409L35.1202 2.05623L35.1166 2.05829L35.1132 2.06027L35.1095 2.06218L35.106 2.06409L35.1023 2.06586L35.0986 2.06762L35.095 2.06932L35.0913 2.07093L35.0876 2.07248L35.0838 2.07395L35.0799 2.07542L35.0761 2.07674L35.0723 2.07807L35.0685 2.07924L35.0645 2.08042L35.0606 2.08152L35.0568 2.08255L35.0527 2.08351L35.0488 2.08439L35.0449 2.0852L35.0409 2.08594L35.0368 2.0866L35.0329 2.08719L35.0288 2.0877L35.0248 2.08822L35.0207 2.08858L35.0167 2.08895L35.0126 2.08917L35.0086 2.08939L35.0046 2.08947L35.0005 2.08954H34.9964L34.9924 2.08939L34.9883 2.08924L34.9843 2.08902L34.9803 2.08873L34.9762 2.08836L34.9722 2.08785L34.9682 2.08733L34.9642 2.08674L34.9601 2.08608L34.9562 2.08535L34.9522 2.08461L34.9482 2.08373L34.9443 2.08285L34.9404 2.08174L34.9364 2.08071L34.9326 2.07954L34.9287 2.07843L34.9248 2.07711L34.921 2.07579L34.9172 2.07432L34.9134 2.07285L34.9096 2.0713L34.9059 2.06968L34.9023 2.06807L34.8986 2.0663L34.8949 2.06454L34.8913 2.0627L34.8877 2.06071L34.8843 2.05873L34.8807 2.05667L34.8772 2.05461L34.8738 2.0524L34.8704 2.0502L34.8671 2.04792L34.8637 2.04556L34.8605 2.04321L34.8573 2.04071L34.854 2.03821L34.8509 2.03571L34.8478 2.03306L34.8448 2.03034L34.8418 2.02762L34.8389 2.02482L34.8359 2.02203L34.8331 2.01916L34.8303 2.01622L34.8276 2.01321L34.8248 2.01019L34.8222 2.0071L34.8195 2.00401L34.8171 2.00085L34.8145 1.99769L34.8121 1.99438L34.8098 1.99114L34.8074 1.98776L34.8052 1.98438L34.803 1.98099L34.8009 1.97754L34.7988 1.97401L34.7968 1.97055L34.7948 1.96695L34.7929 1.96342L34.7911 1.95982L34.7893 1.95614L34.7876 1.95239L34.786 1.94871L34.7845 1.94496L34.7829 1.94121L34.7815 1.93746L34.78 1.93364L34.7788 1.92974L34.7775 1.92599L34.7764 1.92202L34.7753 1.91812L34.7742 1.91422L34.7733 1.91025L34.7723 1.90635L34.7715 1.90231L34.7708 1.89834L34.77 1.89437L34.7695 1.89039L34.7689 1.88635L34.7684 1.88231L34.768 1.87834L34.7676 1.87429L34.7674 1.87025L34.7672 1.8662L34.767 1.86208L34.767 1.85804L34.767 1.85399L34.7671 1.84995L34.7672 1.8459L34.7674 1.84186L34.7678 1.83781L34.7681 1.83377L34.7685 1.82973L34.769 1.82568L34.7696 1.82171L34.7703 1.81766L34.7709 1.81362L34.7717 1.80972L34.7726 1.80575L34.7735 1.80178L34.7745 1.79788L34.7755 1.79391L34.7767 1.79009L34.7778 1.78612L34.7792 1.78229L34.7805 1.77847L34.7818 1.77464L34.7833 1.77082L34.7848 1.76707L34.7864 1.76339L34.7881 1.75972L34.7898 1.75597L34.7916 1.75236L34.7934 1.74876L34.7953 1.74516L34.7973 1.74163L34.7992 1.7381L34.8014 1.73464L34.8035 1.73118L34.8057 1.7278L34.8081 1.72442L34.8103 1.72111L34.8128 1.7178L34.8152 1.71464L34.8177 1.7114L34.8203 1.70824L34.8228 1.70508L34.8255 1.70213L34.8282 1.69912L34.8309 1.6961L34.8338 1.69324L34.8367 1.69037L34.8395 1.6875L34.8426 1.68478L34.8456 1.68206L34.8486 1.67934L34.8517 1.67676L34.8549 1.67419L34.8581 1.67176L34.8613 1.66926L34.8646 1.66684L34.8679 1.66456L34.8712 1.66228L34.8746 1.66007L34.8781 1.65794L34.8815 1.6558L34.8851 1.65382L34.8886 1.65183L34.8923 1.64992L34.8959 1.64808L34.8995 1.64625L34.9031 1.64463L34.9069 1.64294L34.9106 1.64132L34.9143 1.63977L34.9182 1.6383L34.922 1.63698L34.9258 1.63566L34.9296 1.63433L34.9335 1.63323L34.9373 1.63205L34.9413 1.63102L34.9453 1.62999L34.9493 1.62911L34.9532 1.62823L34.9571 1.62742L34.9612 1.62676L34.9651 1.62617L34.9692 1.62551L34.9732 1.62507L34.9773 1.62462L34.9813 1.62426L34.9853 1.62396L34.9893 1.62374L34.9935 1.6236L34.9975 1.62352L35.0015 1.62345L35.0056 1.62352L35.0096 1.62374L35.0138 1.62389L35.0177 1.62418L35.0218 1.62455L35.0258 1.62492L35.0299 1.62543L35.0339 1.62595L35.0379 1.62654L35.0418 1.62727L35.0458 1.62801L35.0498 1.62889L35.0538 1.62977L35.0577 1.63073L35.0616 1.63176L35.0655 1.63286L35.0694 1.63411L35.0732 1.63529L35.0771 1.63661L35.081 1.63801L35.0847 1.63941L35.0885 1.64095L35.0922 1.6425L35.0959 1.64411L35.0996 1.64588L35.1032 1.64764L35.1069 1.64948L35.1105 1.65132L35.1141 1.6533L35.1175 1.65529L35.121 1.65735L35.1245 1.65948L35.1279 1.66169L35.1312 1.66397L35.1346 1.66632L35.1379 1.6686L35.1411 1.6711L35.1444 1.6736L35.1474 1.6761L35.1506 1.67868L35.1537 1.68132L35.1567 1.68404L35.1597 1.68684L35.1626 1.68963L35.1655 1.6925L35.1683 1.69537L35.1711 1.69831L35.1738 1.70133L35.1765 1.70442L35.1791 1.7075L35.1816 1.71059L35.1842 1.71375L35.1866 1.71706L35.1891 1.72023L35.1914 1.72361L35.1937 1.72692L35.1959 1.7303L35.198 1.73376L35.2002 1.73721L35.2022 1.74074L35.2041 1.74427L35.2061 1.74788L35.208 1.75148L35.2098 1.75508L35.2116 1.75876L35.2132 1.76244L35.2148 1.76611L35.2164 1.76986L35.2178 1.77369L35.2193 1.77751L35.2206 1.78134L35.2219 1.78523L35.223 1.78906L35.2241 1.79296L35.2253 1.79685L35.2263 1.80082L35.2272 1.80472L35.2281 1.80869L35.2289 1.81266L35.2296 1.81664L35.2303 1.82068L35.2308 1.82465L35.2314 1.8287L35.2319 1.83274L35.2322 1.83678L35.2325 1.84083L35.2327 1.84487L35.2329 1.84892L35.233 1.85296L35.233 1.85701L35.233 1.86105L35.2329 1.8651L35.2327 1.86914L35.2324 1.87326L35.2321 1.87723L35.2317 1.88128L35.2312 1.88532L35.2307 1.88937L35.2301 1.89334L35.2294 1.89738L35.2287 1.90135L35.2278 1.90532L35.2269 1.90929L35.2261 1.91327L35.225 1.91716L35.2239 1.92106L35.2228 1.92496L35.2215 1.92886L35.2203 1.93261L35.2189 1.9365L35.2175 1.94025L35.216 1.94408L35.2144 1.94783L35.2128 1.95151L35.2111 1.95518L35.2093 1.95886L35.2075 1.96254L35.2056 1.96607L35.2038 1.96967L35.2017 1.9732L35.1997 1.97673L35.1975 1.98019L35.1953 1.98357L35.1931 1.98695L35.1908 1.99026L35.1884 1.99357L35.1861 1.99681L35.1836 2.00004L35.1811 2.00328L35.1785 2.00629L35.1758 2.00938L35.1732 2.01247L35.1705 2.01549L35.1677 2.01843L35.1648 2.0213Z" stroke="black" stroke-width="2" stroke-miterlimit="10" stroke-linecap="round" stroke-linejoin="round"/>
<path d="M67.9787 34.8352L67.9758 34.8381L67.9731 34.8411L67.9703 34.844L67.9677 34.8471L67.965 34.8502L67.9624 34.8533L67.96 34.8565L67.9575 34.8597L67.955 34.863L67.9527 34.8662L67.9503 34.8696L67.9481 34.873L67.9459 34.8764L67.9438 34.8798L67.9417 34.8834L67.9397 34.8868L67.9378 34.8905L67.9359 34.894L67.9341 34.8977L67.9324 34.9014L67.9307 34.905L67.9291 34.9087L67.9275 34.9124L67.9261 34.9162L67.9246 34.9201L67.9233 34.9239L67.9219 34.9277L67.9208 34.9315L67.9196 34.9355L67.9185 34.9394L67.9174 34.9432L67.9165 34.9473L67.9156 34.9512L67.9148 34.9551L67.9141 34.9591L67.9134 34.9632L67.9128 34.9671L67.9123 34.9712L67.9118 34.9752L67.9114 34.9793L67.911 34.9833L67.9108 34.9874L67.9106 34.9914L67.9105 34.9954L67.9105 34.9995L67.9105 35.0036L67.9106 35.0076L67.9108 35.0117L67.911 35.0157L67.9113 35.0197L67.9116 35.0238L67.9122 35.0278L67.9127 35.0318L67.9133 35.0358L67.9139 35.0399L67.9147 35.0438L67.9154 35.0478L67.9163 35.0518L67.9172 35.0557L67.9183 35.0596L67.9193 35.0636L67.9205 35.0674L67.9216 35.0714L67.9229 35.0752L67.9243 35.0791L67.9257 35.0828L67.9272 35.0866L67.9287 35.0904L67.9303 35.0941L67.9319 35.0977L67.9337 35.1014L67.9355 35.1051L67.9373 35.1087L67.9393 35.1123L67.9413 35.1158L67.9433 35.1193L67.9454 35.1228L67.9476 35.1262L67.9498 35.1296L67.9521 35.1329L67.9544 35.1363L67.9568 35.1395L67.9593 35.1427L67.9618 35.146L67.9643 35.1491L67.9669 35.1522L67.9697 35.1552L67.9724 35.1582L67.9752 35.1611L67.978 35.1641L67.9808 35.1669L67.9838 35.1697L67.9868 35.1725L67.9898 35.1752L67.9929 35.1778L67.996 35.1805L67.9991 35.1829L68.0023 35.1855L68.0056 35.1879L68.0089 35.1902L68.0122 35.1926L68.0156 35.1948L68.019 35.197L68.0225 35.1991L68.026 35.2012L68.0295 35.2032L68.0331 35.2052L68.0366 35.2071L68.0402 35.2089L68.0439 35.2107L68.0476 35.2124L68.0513 35.214L68.055 35.2155L68.0588 35.2171L68.0625 35.2185L68.0664 35.22L68.0703 35.2212L68.074 35.2225L68.078 35.2236L68.0819 35.2247L68.0858 35.2258L68.0897 35.2267L68.0936 35.2277L68.0977 35.2285L68.1017 35.2292L68.1056 35.23L68.1096 35.2305L68.1137 35.2311L68.1177 35.2316L68.1217 35.232L68.1257 35.2324L68.1298 35.2326L68.1338 35.2328L68.1379 35.233L68.142 35.233L68.146 35.233L68.1501 35.2329L68.1541 35.2328L68.1581 35.2326L68.1622 35.2322L68.1663 35.2319L68.1703 35.2315L68.1743 35.231L68.1783 35.2304L68.1823 35.2297L68.1864 35.2291L68.1903 35.2283L68.1942 35.2274L68.1982 35.2265L68.2021 35.2255L68.2061 35.2245L68.2099 35.2233L68.2139 35.2222L68.2177 35.2208L68.2215 35.2195L68.2254 35.2182L68.2292 35.2167L68.2329 35.2152L68.2366 35.2136L68.2403 35.2119L68.244 35.2102L68.2476 35.2084L68.2512 35.2066L68.2548 35.2047L68.2584 35.2027L68.2619 35.2008L68.2654 35.1986L68.2688 35.1965L68.2722 35.1943L68.2756 35.1919L68.2789 35.1897L68.2822 35.1872L68.2854 35.1848L68.2886 35.1823L68.2918 35.1797L68.2949 35.1772L68.2979 35.1745L68.3009 35.1718L68.3039 35.1691L68.3068 35.1662L68.3096 35.1633L68.3125 35.1605L68.3152 35.1574L68.3179 35.1544L68.3207 35.1514L68.3232 35.1483L68.3258 35.1451L68.3282 35.1419L68.3307 35.1387L68.3332 35.1354L68.3354 35.1321L68.3377 35.1288L68.3399 35.1254L68.3421 35.1219L68.3442 35.1185L68.3462 35.1149L68.3482 35.1114L68.3501 35.1077L68.3519 35.1041L68.3538 35.1005L68.3554 35.0969L68.3571 35.0931L68.3587 35.0894L68.3602 35.0857L68.3617 35.0818L68.363 35.078L68.3643 35.0742L68.3657 35.0704L68.3668 35.0665L68.3679 35.0627L68.369 35.0587L68.37 35.0547L68.3709 35.0507L68.3718 35.0468L68.3726 35.0429L68.3732 35.0388L68.3738 35.0349L68.3745 35.0308L68.3749 35.0268L68.3755 35.0228L68.3757 35.0187L68.376 35.0147L68.3763 35.0107L68.3764 35.0065L68.3765 35.0025L68.3766 34.9985L68.3765 34.9944L68.3763 34.9904L68.3761 34.9862L68.3758 34.9823L68.3755 34.9782L68.3751 34.9742L68.3746 34.9701L68.3741 34.9661L68.3735 34.9621L68.3727 34.9582L68.372 34.9542L68.3711 34.9502L68.3702 34.9462L68.3693 34.9423L68.3682 34.9384L68.3671 34.9345L68.3659 34.9306L68.3647 34.9268L68.3634 34.9229L68.362 34.919L68.3606 34.9153L68.3591 34.9115L68.3575 34.9078L68.3559 34.9041L68.3541 34.9004L68.3524 34.8968L68.3505 34.8931L68.3487 34.8895L68.3467 34.8859L68.3447 34.8825L68.3427 34.879L68.3405 34.8755L68.3383 34.8721L68.336 34.8688L68.3337 34.8654L68.3314 34.8621L68.3289 34.8589L68.3264 34.8556L68.3239 34.8526L68.3213 34.8494L68.3187 34.8463L68.316 34.8433L68.3132 34.8403L68.3104 34.8374L68.3075 34.8345L68.3046 34.8317L68.3017 34.8289L68.2987 34.8262L68.2956 34.8235L68.2925 34.8209L68.2894 34.8184L68.2862 34.8158L68.2829 34.8134L68.2798 34.8109L68.2764 34.8086L68.2731 34.8063L68.2697 34.8041L68.2662 34.802L68.2628 34.7998L68.2593 34.7978L68.2557 34.7959L68.2521 34.7939L68.2485 34.792L68.2449 34.7902L68.2412 34.7884L68.2376 34.7868L68.2339 34.7852L68.2301 34.7836L68.2263 34.7822L68.2226 34.7808L68.2187 34.7794L68.2148 34.7782L68.2109 34.777L68.207 34.7759L68.2031 34.7747L68.1992 34.7737L68.1953 34.7728L68.1913 34.7719L68.1873 34.7711L68.1834 34.7704L68.1793 34.7697L68.1753 34.7692L68.1713 34.7686L68.1673 34.7681L68.1632 34.7678L68.1592 34.7675L68.1551 34.7673L68.1511 34.7671L68.147 34.767L68.143 34.767L68.1389 34.767L68.1349 34.7671L68.1309 34.7673L68.1267 34.7676L68.1228 34.7679L68.1187 34.7683L68.1147 34.7688L68.1106 34.7693L68.1067 34.7699L68.1026 34.7706L68.0987 34.7713L68.0947 34.7722L68.0907 34.7731L68.0867 34.7739L68.0828 34.775L68.0789 34.7761L68.075 34.7773L68.0711 34.7785L68.0674 34.7798L68.0635 34.7812L68.0597 34.7825L68.0559 34.784L68.0522 34.7856L68.0485 34.7872L68.0448 34.7889L68.0411 34.7907L68.0375 34.7925L68.0339 34.7944L68.0303 34.7962L68.0268 34.7983L68.0233 34.8003L68.0198 34.8025L68.0164 34.8047L68.013 34.8069L68.0097 34.8092L68.0064 34.8116L68.0032 34.8139L68 34.8164L67.9967 34.8189L67.9937 34.8215L67.9906 34.8242L67.9875 34.8268L67.9846 34.8296L67.9816 34.8323L67.9787 34.8352Z" stroke="black" stroke-width="2" stroke-miterlimit="10" stroke-linecap="round" stroke-linejoin="round"/>
<path d="M67.9137 34.9612H67.3316" stroke="black" stroke-width="2" stroke-miterlimit="10" stroke-linecap="round" stroke-linejoin="round"/>
<path d="M67.9137 35.0388L67.3316 35.0388" stroke="black" stroke-width="2" stroke-miterlimit="10" stroke-linecap="round" stroke-linejoin="round"/>
<path d="M63.7542 35.0974L63.7559 35.0957L63.7575 35.0939L63.7591 35.0922L63.7607 35.0905L63.7622 35.0886L63.7638 35.0868L63.7652 35.0849L63.7666 35.083L63.7681 35.0811L63.7694 35.0792L63.7708 35.0772L63.7722 35.0753L63.7735 35.0733L63.7746 35.0712L63.7759 35.0692L63.7771 35.0671L63.7782 35.065L63.7794 35.063L63.7804 35.0607L63.7814 35.0587L63.7824 35.0565L63.7834 35.0544L63.7843 35.0521L63.7852 35.0499L63.786 35.0477L63.7868 35.0455L63.7876 35.0432L63.7883 35.041L63.789 35.0388L63.7896 35.0364L63.7902 35.0341L63.7908 35.0318L63.7913 35.0295L63.7918 35.0271L63.7923 35.0249L63.7927 35.0224L63.793 35.0202L63.7934 35.0177L63.7937 35.0154L63.7939 35.0131L63.7941 35.0107L63.7943 35.0083L63.7944 35.006L63.7945 35.0035L63.7945 35.0012L63.7945 34.9988L63.7945 34.9965L63.7944 34.9941L63.7943 34.9917L63.7941 34.9893L63.7939 34.9869L63.7937 34.9846L63.7933 34.9822L63.793 34.9799L63.7927 34.9776L63.7923 34.9752L63.7918 34.9729L63.7913 34.9705L63.7908 34.9682L63.7902 34.9659L63.7896 34.9636L63.789 34.9613L63.7883 34.959L63.7876 34.9568L63.7868 34.9545L63.786 34.9523L63.7852 34.9501L63.7843 34.9479L63.7834 34.9457L63.7824 34.9435L63.7814 34.9413L63.7804 34.9393L63.7794 34.9371L63.7782 34.935L63.7771 34.9329L63.7759 34.9308L63.7747 34.9288L63.7735 34.9268L63.7721 34.9247L63.7708 34.9228L63.7694 34.9208L63.7681 34.9189L63.7666 34.917L63.7652 34.9151L63.7638 34.9132L63.7622 34.9114L63.7607 34.9096L63.7591 34.9079L63.7575 34.9061L63.7559 34.9043L63.7542 34.9026L62.9598 34.1082L62.9581 34.1066L62.9564 34.105L62.9546 34.1033L62.9529 34.1018L62.9511 34.1003L62.9493 34.0988L62.9475 34.0972L62.9456 34.0958L62.9437 34.0944L62.9418 34.093L62.9399 34.0917L62.9379 34.0905L62.9359 34.0892L62.9339 34.088L62.932 34.0867L62.9299 34.0856L62.9278 34.0844L62.9258 34.0833L62.9237 34.0822L62.9216 34.0812L62.9195 34.0803L62.9173 34.0792L62.9151 34.0783L62.9129 34.0775L62.9107 34.0766L62.9086 34.0758L62.9063 34.075L62.9041 34.0743L62.9018 34.0736L62.8995 34.073L62.8973 34.0724L62.895 34.0718L62.8927 34.0713L62.8904 34.0708L62.8881 34.0703L62.8859 34.0699L62.8834 34.0695L62.8811 34.0691L62.8788 34.0689L62.8765 34.0686L62.8742 34.0683L62.8718 34.0682L62.8695 34.068L62.8671 34.0679L62.8647 34.0679L62.8624 34.0679L60.4476 34.0678L60.4463 34.0679L60.4452 34.0679L60.4438 34.0679L60.4426 34.068L60.4413 34.068L60.4401 34.0681L60.4388 34.0682L60.4375 34.0683L60.4363 34.0684L60.435 34.0686L60.4337 34.0688L60.4324 34.0689L60.4311 34.0691L60.4298 34.0693L60.4285 34.0695L60.4273 34.0697L60.426 34.07L60.4246 34.0703L60.4234 34.0705L60.4221 34.0708L60.4208 34.0711L60.4195 34.0715L60.4182 34.0718L60.4169 34.0722L60.4155 34.0725L60.4142 34.073L60.4129 34.0734L60.4116 34.0738L60.4104 34.0743L60.4091 34.0747L60.4077 34.0752L60.4065 34.0757L60.4052 34.0763L60.4039 34.0768L60.4026 34.0774L60.4013 34.0779L60.4 34.0785L60.3988 34.0791L60.3975 34.0797L60.3963 34.0803L60.395 34.081L60.3938 34.0817L60.3926 34.0824L60.3913 34.0831L60.3901 34.0839L60.3888 34.0845L60.3876 34.0853L60.3864 34.0861L60.3852 34.0869L60.3841 34.0877L60.3829 34.0886L60.3818 34.0894L60.3805 34.0902L60.3794 34.0911L60.3783 34.0919L60.3771 34.0928L60.376 34.0938L60.3749 34.0947L60.3738 34.0957L60.3727 34.0967L60.3716 34.0976L60.3707 34.0986L60.3696 34.0996L60.3686 34.1006L60.3676 34.1017L60.3666 34.1027L60.3655 34.1037L60.3646 34.1048L60.3636 34.1059L60.3627 34.107L60.3618 34.1081L60.3608 34.1092L60.3599 34.1103L60.3591 34.1115L60.3582 34.1125L60.3574 34.1138L60.3565 34.115L60.3557 34.1161L60.3549 34.1173L60.3541 34.1184L60.3532 34.1197L60.3525 34.1208L60.3518 34.1222L60.351 34.1233L60.3504 34.1246L60.3496 34.1258L60.349 34.127L60.3483 34.1283L60.3477 34.1295L60.3471 34.1308L60.3464 34.1321L60.3459 34.1333L60.3453 34.1347L60.3448 34.1359L60.3442 34.1372L60.3437 34.1385L60.3432 34.1397L60.3427 34.1411L60.3423 34.1424L60.3418 34.1436L60.3413 34.145L60.3409 34.1463L60.3405 34.1475L60.3402 34.1489L60.3398 34.1502L60.3395 34.1515L60.3391 34.1528L60.3388 34.1541L60.3385 34.1554L60.3382 34.1567L60.3379 34.1581L60.3377 34.1593L60.3375 34.1606L60.3372 34.1619L60.3371 34.1632L60.3368 34.1645L60.3367 34.1658L60.3366 34.1671L60.3364 34.1683L60.3363 34.1696L60.3362 34.1709L60.3361 34.1721L60.336 34.1734L60.336 34.1746L60.3359 34.1759L60.3359 34.1772L60.3358 34.1784L60.3358 34.1796L60.3358 35.8204L60.3358 35.8216L60.3359 35.8228L60.3359 35.8242L60.336 35.8254L60.336 35.8267L60.3361 35.8279L60.3362 35.8292L60.3363 35.8304L60.3364 35.8317L60.3365 35.8329L60.3367 35.8342L60.3368 35.8356L60.3371 35.8368L60.3372 35.8381L60.3374 35.8394L60.3377 35.8407L60.3379 35.842L60.3382 35.8433L60.3385 35.8446L60.3388 35.8459L60.3391 35.8473L60.3395 35.8485L60.3398 35.8498L60.3402 35.8511L60.3405 35.8525L60.3409 35.8537L60.3413 35.855L60.3418 35.8564L60.3423 35.8576L60.3427 35.8589L60.3432 35.8603L60.3437 35.8615L60.3442 35.8628L60.3448 35.8641L60.3453 35.8653L60.3459 35.8667L60.3464 35.8679L60.3471 35.8692L60.3477 35.8705L60.3483 35.8717L60.349 35.873L60.3496 35.8742L60.3504 35.8754L60.351 35.8767L60.3518 35.8778L60.3525 35.8792L60.3532 35.8803L60.3541 35.8816L60.3549 35.8827L60.3557 35.8839L60.3565 35.8851L60.3574 35.8862L60.3582 35.8875L60.3591 35.8885L60.3599 35.8897L60.3608 35.8909L60.3618 35.892L60.3627 35.893L60.3636 35.8941L60.3646 35.8952L60.3655 35.8963L60.3666 35.8973L60.3676 35.8984L60.3686 35.8994L60.3696 35.9004L60.3707 35.9015L60.3717 35.9025L60.3727 35.9034L60.3738 35.9043L60.3749 35.9053L60.376 35.9062L60.3771 35.9072L60.3783 35.9081L60.3794 35.9089L60.3805 35.9098L60.3818 35.9106L60.3829 35.9115L60.3841 35.9123L60.3852 35.9131L60.3864 35.9139L60.3876 35.9147L60.3888 35.9155L60.3901 35.9162L60.3913 35.9169L60.3926 35.9176L60.3938 35.9184L60.395 35.919L60.3963 35.9197L60.3975 35.9203L60.3988 35.9209L60.4 35.9215L60.4013 35.9221L60.4026 35.9226L60.4039 35.9232L60.4052 35.9237L60.4065 35.9243L60.4077 35.9248L60.4091 35.9253L60.4104 35.9257L60.4116 35.9262L60.413 35.9267L60.4142 35.927L60.4155 35.9275L60.4169 35.9278L60.4182 35.9282L60.4195 35.9285L60.4207 35.9289L60.4221 35.9292L60.4234 35.9295L60.4247 35.9298L60.426 35.93L60.4273 35.9303L60.4285 35.9305L60.4298 35.9307L60.4311 35.9309L60.4324 35.9311L60.4337 35.9312L60.435 35.9314L60.4363 35.9316L60.4375 35.9317L60.4388 35.9318L60.4401 35.9319L60.4413 35.932L60.4426 35.932L60.4438 35.9321L60.4452 35.9321L60.4463 35.9321L60.4476 35.9322L62.8624 35.9321L62.8648 35.9321L62.8671 35.9321L62.8695 35.932L62.8718 35.9318L62.8742 35.9317L62.8765 35.9314L62.8788 35.9312L62.8811 35.9309L62.8834 35.9305L62.8859 35.9301L62.8881 35.9298L62.8904 35.9292L62.8927 35.9287L62.895 35.9282L62.8973 35.9276L62.8995 35.927L62.9018 35.9264L62.9041 35.9257L62.9063 35.925L62.9086 35.9242L62.9107 35.9234L62.9129 35.9225L62.9151 35.9217L62.9173 35.9208L62.9195 35.9198L62.9216 35.9188L62.9237 35.9178L62.9258 35.9167L62.9278 35.9156L62.9299 35.9145L62.932 35.9133L62.934 35.912L62.936 35.9109L62.9379 35.9095L62.9399 35.9083L62.9418 35.907L62.9437 35.9056L62.9456 35.9042L62.9475 35.9028L62.9493 35.9012L62.9511 35.8998L62.9529 35.8982L62.9546 35.8967L62.9564 35.8951L62.9581 35.8934L62.9598 35.8918L63.7542 35.0974Z" stroke="black" stroke-width="2" stroke-miterlimit="10" stroke-linecap="round" stroke-linejoin="round"/>
<path d="M62.9151 35.9217L62.9151 34.0783" stroke="black" stroke-width="2" stroke-miterlimit="10" stroke-linecap="round" stroke-linejoin="round"/>
<path d="M63.6962 34.8446L67.3317 34.8446L67.3317 35.1554L63.6962 35.1554" stroke="black" stroke-width="2" stroke-miterlimit="10" stroke-linecap="round" stroke-linejoin="round"/>
<path d="M34.8446 63.6962V67.3317H35.1554V63.6962" stroke="black" stroke-width="2" stroke-miterlimit="10" stroke-linecap="round" stroke-linejoin="round"/>
<path d="M35.9217 62.9151H34.0783" stroke="black" stroke-width="2" stroke-miterlimit="10" stroke-linecap="round" stroke-linejoin="round"/>
<path d="M35.0974 63.7542L35.0957 63.7559L35.0939 63.7575L35.0921 63.7591L35.0905 63.7607L35.0886 63.7622L35.0868 63.7638L35.0849 63.7652L35.083 63.7666L35.0811 63.7681L35.0792 63.7694L35.0772 63.7708L35.0753 63.7722L35.0732 63.7735L35.0712 63.7747L35.0692 63.7759L35.0671 63.7771L35.065 63.7782L35.063 63.7794L35.0607 63.7804L35.0587 63.7814L35.0565 63.7824L35.0543 63.7834L35.0521 63.7843L35.0499 63.7852L35.0477 63.7861L35.0455 63.7868L35.0432 63.7876L35.041 63.7883L35.0388 63.789L35.0364 63.7896L35.0341 63.7902L35.0318 63.7908L35.0295 63.7913L35.0271 63.7918L35.0249 63.7923L35.0224 63.7927L35.0201 63.793L35.0178 63.7933L35.0154 63.7937L35.0131 63.7939L35.0107 63.7941L35.0083 63.7943L35.006 63.7944L35.0035 63.7945L35.0012 63.7945H34.9988L34.9965 63.7945L34.994 63.7944L34.9917 63.7943L34.9893 63.7941L34.9869 63.7939L34.9846 63.7937L34.9822 63.7933L34.9799 63.793L34.9776 63.7927L34.9751 63.7923L34.9729 63.7918L34.9705 63.7913L34.9682 63.7908L34.9659 63.7902L34.9636 63.7896L34.9612 63.789L34.959 63.7883L34.9568 63.7876L34.9545 63.7868L34.9523 63.7861L34.9501 63.7852L34.9479 63.7843L34.9457 63.7834L34.9435 63.7824L34.9413 63.7814L34.9393 63.7804L34.937 63.7794L34.935 63.7782L34.9329 63.7771L34.9308 63.7759L34.9288 63.7747L34.9268 63.7735L34.9247 63.7722L34.9228 63.7708L34.9208 63.7694L34.9189 63.7681L34.917 63.7666L34.9151 63.7652L34.9132 63.7638L34.9114 63.7622L34.9095 63.7607L34.9079 63.7591L34.9061 63.7575L34.9043 63.7559L34.9026 63.7542L34.1082 62.9598L34.1066 62.9581L34.105 62.9564L34.1033 62.9546L34.1018 62.9529L34.1003 62.9511L34.0988 62.9493L34.0972 62.9475L34.0958 62.9456L34.0944 62.9437L34.093 62.9418L34.0917 62.9399L34.0905 62.9379L34.0891 62.936L34.088 62.934L34.0867 62.932L34.0855 62.9299L34.0844 62.9279L34.0833 62.9258L34.0822 62.9237L34.0812 62.9216L34.0802 62.9195L34.0792 62.9173L34.0783 62.9151L34.0775 62.9129L34.0766 62.9107L34.0758 62.9086L34.075 62.9063L34.0743 62.9041L34.0736 62.9018L34.073 62.8995L34.0724 62.8973L34.0718 62.895L34.0713 62.8927L34.0708 62.8904L34.0702 62.8881L34.0699 62.8859L34.0695 62.8834L34.0691 62.8812L34.0688 62.8788L34.0686 62.8765L34.0683 62.8742L34.0682 62.8718L34.068 62.8695L34.0679 62.8671V62.8648L34.0679 62.8624L34.0678 60.4476L34.0679 60.4463V60.4452V60.4439L34.068 60.4426L34.068 60.4414L34.0681 60.4401L34.0682 60.4388L34.0683 60.4375L34.0684 60.4363L34.0686 60.435L34.0688 60.4337L34.0689 60.4324L34.0691 60.4311L34.0693 60.4298L34.0695 60.4286L34.0697 60.4273L34.07 60.426L34.0702 60.4247L34.0705 60.4234L34.0708 60.4221L34.0711 60.4208L34.0715 60.4195L34.0718 60.4182L34.0722 60.4169L34.0725 60.4155L34.073 60.4142L34.0733 60.413L34.0738 60.4116L34.0743 60.4104L34.0747 60.4091L34.0752 60.4077L34.0757 60.4065L34.0763 60.4052L34.0768 60.4039L34.0774 60.4026L34.0779 60.4013L34.0785 60.4L34.0791 60.3988L34.0797 60.3975L34.0803 60.3963L34.081 60.395L34.0816 60.3938L34.0824 60.3926L34.0831 60.3913L34.0838 60.3901L34.0845 60.3888L34.0853 60.3876L34.0861 60.3864L34.0869 60.3852L34.0877 60.3841L34.0886 60.3829L34.0894 60.3818L34.0902 60.3805L34.0911 60.3794L34.0919 60.3783L34.0928 60.3772L34.0938 60.376L34.0947 60.3749L34.0957 60.3738L34.0966 60.3727L34.0975 60.3717L34.0986 60.3707L34.0996 60.3696L34.1006 60.3686L34.1016 60.3676L34.1027 60.3666L34.1037 60.3655L34.1048 60.3646L34.1059 60.3636L34.107 60.3627L34.108 60.3618L34.1092 60.3608L34.1103 60.3599L34.1115 60.3591L34.1125 60.3582L34.1138 60.3574L34.115 60.3565L34.1161 60.3557L34.1173 60.3549L34.1184 60.3541L34.1197 60.3532L34.1208 60.3525L34.1222 60.3518L34.1233 60.351L34.1246 60.3504L34.1258 60.3496L34.127 60.349L34.1283 60.3483L34.1295 60.3477L34.1308 60.3471L34.1321 60.3464L34.1333 60.3459L34.1347 60.3453L34.1359 60.3448L34.1372 60.3442L34.1385 60.3437L34.1397 60.3432L34.1411 60.3427L34.1424 60.3423L34.1436 60.3418L34.145 60.3413L34.1463 60.3409L34.1475 60.3405L34.1489 60.3402L34.1502 60.3398L34.1515 60.3395L34.1528 60.3391L34.1541 60.3388L34.1554 60.3385L34.1567 60.3382L34.1581 60.338L34.1593 60.3377L34.1606 60.3374L34.1619 60.3372L34.1632 60.3371L34.1644 60.3368L34.1658 60.3367L34.1671 60.3366L34.1683 60.3364L34.1696 60.3363L34.1708 60.3362L34.1721 60.3361L34.1733 60.336L34.1746 60.336L34.1758 60.3359H34.1772L34.1784 60.3358H34.1796H35.8204H35.8216L35.8228 60.3359H35.8242L35.8254 60.336L35.8267 60.336L35.8279 60.3361L35.8292 60.3362L35.8304 60.3363L35.8317 60.3364L35.8329 60.3366L35.8342 60.3367L35.8356 60.3368L35.8368 60.3371L35.8381 60.3372L35.8394 60.3374L35.8407 60.3377L35.8419 60.338L35.8433 60.3382L35.8446 60.3385L35.8459 60.3388L35.8472 60.3391L35.8485 60.3395L35.8498 60.3398L35.8511 60.3402L35.8525 60.3405L35.8537 60.3409L35.855 60.3413L35.8564 60.3418L35.8576 60.3423L35.8589 60.3427L35.8603 60.3432L35.8615 60.3437L35.8628 60.3442L35.8641 60.3448L35.8653 60.3453L35.8667 60.3459L35.8679 60.3464L35.8692 60.3471L35.8705 60.3477L35.8717 60.3483L35.873 60.349L35.8742 60.3496L35.8754 60.3504L35.8767 60.351L35.8778 60.3518L35.8792 60.3525L35.8803 60.3532L35.8816 60.3541L35.8827 60.3549L35.8839 60.3557L35.885 60.3565L35.8862 60.3574L35.8875 60.3582L35.8885 60.3591L35.8897 60.3599L35.8908 60.3608L35.892 60.3618L35.893 60.3627L35.8941 60.3636L35.8952 60.3646L35.8963 60.3655L35.8973 60.3666L35.8984 60.3676L35.8994 60.3686L35.9004 60.3696L35.9014 60.3707L35.9025 60.3717L35.9034 60.3727L35.9043 60.3738L35.9053 60.3749L35.9062 60.376L35.9072 60.3772L35.9081 60.3783L35.9089 60.3794L35.9098 60.3805L35.9106 60.3818L35.9114 60.3829L35.9123 60.3841L35.9131 60.3852L35.9139 60.3864L35.9147 60.3876L35.9155 60.3888L35.9162 60.3901L35.9169 60.3913L35.9176 60.3926L35.9184 60.3938L35.919 60.395L35.9197 60.3963L35.9203 60.3975L35.9209 60.3988L35.9215 60.4L35.9221 60.4013L35.9226 60.4026L35.9232 60.4039L35.9237 60.4052L35.9243 60.4065L35.9248 60.4077L35.9253 60.4091L35.9257 60.4104L35.9262 60.4116L35.9267 60.413L35.927 60.4142L35.9275 60.4155L35.9278 60.4169L35.9282 60.4182L35.9285 60.4195L35.9289 60.4208L35.9292 60.4221L35.9295 60.4234L35.9298 60.4247L35.93 60.426L35.9303 60.4273L35.9305 60.4286L35.9307 60.4298L35.9309 60.4311L35.9311 60.4324L35.9312 60.4337L35.9314 60.435L35.9316 60.4363L35.9317 60.4375L35.9318 60.4388L35.9319 60.4401L35.932 60.4414L35.932 60.4426L35.9321 60.4439V60.4452V60.4463L35.9322 60.4476L35.9321 62.8624L35.9321 62.8648V62.8671L35.932 62.8695L35.9318 62.8718L35.9317 62.8742L35.9314 62.8765L35.9312 62.8788L35.9309 62.8812L35.9305 62.8834L35.9301 62.8859L35.9298 62.8881L35.9292 62.8904L35.9287 62.8927L35.9282 62.895L35.9276 62.8973L35.927 62.8995L35.9264 62.9018L35.9257 62.9041L35.925 62.9063L35.9242 62.9086L35.9234 62.9107L35.9225 62.9129L35.9217 62.9151L35.9208 62.9173L35.9198 62.9195L35.9188 62.9216L35.9178 62.9237L35.9167 62.9258L35.9156 62.9279L35.9145 62.9299L35.9133 62.932L35.912 62.934L35.9109 62.936L35.9095 62.9379L35.9083 62.9399L35.907 62.9418L35.9056 62.9437L35.9042 62.9456L35.9028 62.9475L35.9012 62.9493L35.8997 62.9511L35.8982 62.9529L35.8967 62.9546L35.895 62.9564L35.8934 62.9581L35.8918 62.9598L35.0974 63.7542Z" stroke="black" stroke-width="2" stroke-miterlimit="10" stroke-linecap="round" stroke-linejoin="round"/>
<path d="M35.0388 67.9137L35.0388 67.3316" stroke="black" stroke-width="2" stroke-miterlimit="10" stroke-linecap="round" stroke-linejoin="round"/>
<path d="M34.9612 67.9137L34.9612 67.3316" stroke="black" stroke-width="2" stroke-miterlimit="10" stroke-linecap="round" stroke-linejoin="round"/>
<path d="M34.8352 67.9787L34.8381 67.9758L34.8411 67.9731L34.844 67.9703L34.8471 67.9676L34.8502 67.965L34.8533 67.9624L34.8565 67.9599L34.8597 67.9574L34.863 67.955L34.8662 67.9526L34.8696 67.9503L34.873 67.9481L34.8764 67.9459L34.8798 67.9437L34.8834 67.9417L34.8868 67.9397L34.8905 67.9378L34.894 67.9359L34.8977 67.9341L34.9014 67.9323L34.905 67.9307L34.9087 67.929L34.9124 67.9275L34.9162 67.926L34.9201 67.9246L34.9239 67.9232L34.9277 67.9219L34.9315 67.9207L34.9355 67.9196L34.9394 67.9185L34.9432 67.9174L34.9473 67.9165L34.9512 67.9156L34.9551 67.9148L34.9591 67.914L34.9632 67.9134L34.9671 67.9128L34.9712 67.9123L34.9752 67.9118L34.9793 67.9114L34.9833 67.911L34.9874 67.9108L34.9914 67.9106L34.9954 67.9105L34.9995 67.9104H35.0036L35.0076 67.9106L35.0117 67.9107L35.0157 67.9109L35.0197 67.9112L35.0238 67.9116L35.0278 67.9121L35.0318 67.9126L35.0359 67.9132L35.0399 67.9139L35.0438 67.9146L35.0478 67.9154L35.0518 67.9162L35.0557 67.9171L35.0596 67.9182L35.0636 67.9193L35.0674 67.9204L35.0714 67.9216L35.0752 67.9229L35.0791 67.9243L35.0828 67.9257L35.0866 67.9271L35.0904 67.9287L35.0941 67.9303L35.0977 67.9319L35.1014 67.9337L35.1051 67.9354L35.1087 67.9373L35.1123 67.9393L35.1157 67.9412L35.1193 67.9433L35.1228 67.9454L35.1262 67.9476L35.1296 67.9498L35.1329 67.9521L35.1363 67.9544L35.1395 67.9568L35.1427 67.9593L35.146 67.9618L35.149 67.9643L35.1522 67.9669L35.1552 67.9696L35.1582 67.9724L35.1611 67.9751L35.1641 67.9779L35.1669 67.9808L35.1697 67.9838L35.1725 67.9868L35.1752 67.9898L35.1778 67.9929L35.1805 67.996L35.1829 67.9991L35.1855 68.0023L35.1879 68.0056L35.1902 68.0088L35.1926 68.0122L35.1948 68.0156L35.197 68.019L35.1991 68.0224L35.2012 68.026L35.2032 68.0294L35.2052 68.033L35.2071 68.0366L35.2089 68.0402L35.2107 68.0438L35.2124 68.0476L35.214 68.0513L35.2155 68.055L35.2171 68.0588L35.2185 68.0625L35.22 68.0663L35.2212 68.0702L35.2225 68.074L35.2236 68.078L35.2247 68.0819L35.2258 68.0858L35.2267 68.0897L35.2277 68.0936L35.2285 68.0977L35.2292 68.1016L35.23 68.1056L35.2305 68.1096L35.2311 68.1136L35.2316 68.1177L35.232 68.1216L35.2323 68.1258L35.2326 68.1297L35.2328 68.1338L35.233 68.1379L35.233 68.1419L35.233 68.146L35.2329 68.15L35.2328 68.1541L35.2326 68.1581L35.2322 68.1622L35.2319 68.1663L35.2315 68.1702L35.231 68.1743L35.2304 68.1783L35.2297 68.1823L35.2291 68.1864L35.2283 68.1902L35.2274 68.1942L35.2265 68.1982L35.2255 68.2021L35.2245 68.2061L35.2233 68.2099L35.2222 68.2139L35.2208 68.2177L35.2195 68.2215L35.2182 68.2253L35.2167 68.2292L35.2152 68.2329L35.2136 68.2366L35.2119 68.2403L35.2102 68.244L35.2084 68.2476L35.2066 68.2512L35.2047 68.2548L35.2027 68.2583L35.2008 68.2619L35.1986 68.2653L35.1965 68.2688L35.1943 68.2722L35.1919 68.2756L35.1897 68.2789L35.1872 68.2822L35.1848 68.2853L35.1823 68.2886L35.1797 68.2917L35.1772 68.2949L35.1745 68.2978L35.1718 68.3008L35.1691 68.3039L35.1662 68.3067L35.1633 68.3096L35.1605 68.3125L35.1574 68.3152L35.1544 68.3179L35.1514 68.3206L35.1483 68.3232L35.1451 68.3258L35.1419 68.3283L35.1387 68.3307L35.1354 68.3331L35.1321 68.3354L35.1288 68.3377L35.1254 68.3399L35.1219 68.342L35.1185 68.3442L35.1149 68.3462L35.1114 68.3481L35.1077 68.35L35.1041 68.3519L35.1005 68.3537L35.0969 68.3553L35.0931 68.357L35.0894 68.3587L35.0857 68.3602L35.0818 68.3617L35.078 68.363L35.0742 68.3643L35.0704 68.3656L35.0665 68.3667L35.0627 68.3679L35.0587 68.3689L35.0547 68.37L35.0507 68.3709L35.0468 68.3717L35.0429 68.3726L35.0388 68.3732L35.0349 68.3738L35.0308 68.3745L35.0268 68.3749L35.0228 68.3754L35.0187 68.3757L35.0147 68.376L35.0107 68.3762L35.0065 68.3764L35.0025 68.3765L34.9985 68.3765L34.9944 68.3765L34.9904 68.3762L34.9862 68.3761L34.9823 68.3758L34.9782 68.3754L34.9742 68.3751L34.9701 68.3745L34.9661 68.374L34.9621 68.3734L34.9582 68.3727L34.9542 68.372L34.9502 68.3711L34.9462 68.3702L34.9423 68.3692L34.9384 68.3682L34.9345 68.3671L34.9306 68.3659L34.9268 68.3647L34.9229 68.3634L34.919 68.362L34.9153 68.3606L34.9115 68.359L34.9078 68.3575L34.9041 68.3559L34.9004 68.3541L34.8968 68.3523L34.8931 68.3505L34.8895 68.3487L34.8859 68.3467L34.8825 68.3447L34.879 68.3426L34.8755 68.3405L34.8721 68.3383L34.8688 68.336L34.8654 68.3337L34.8621 68.3314L34.8589 68.3289L34.8556 68.3264L34.8526 68.3239L34.8494 68.3213L34.8463 68.3186L34.8433 68.3159L34.8403 68.3131L34.8374 68.3103L34.8345 68.3075L34.8317 68.3046L34.8289 68.3017L34.8262 68.2986L34.8235 68.2956L34.8209 68.2925L34.8184 68.2894L34.8158 68.2862L34.8134 68.2829L34.8109 68.2797L34.8086 68.2764L34.8063 68.2731L34.8041 68.2697L34.802 68.2662L34.7998 68.2628L34.7978 68.2592L34.7959 68.2557L34.7939 68.2521L34.792 68.2485L34.7902 68.2449L34.7884 68.2412L34.7868 68.2375L34.7852 68.2339L34.7836 68.2301L34.7822 68.2263L34.7808 68.2225L34.7794 68.2186L34.7782 68.2148L34.777 68.2109L34.7759 68.207L34.7747 68.2031L34.7737 68.1991L34.7728 68.1952L34.7719 68.1913L34.7711 68.1873L34.7704 68.1833L34.7697 68.1793L34.7692 68.1753L34.7686 68.1713L34.7681 68.1672L34.7678 68.1632L34.7675 68.1591L34.7673 68.1552L34.7671 68.1511L34.767 68.147L34.767 68.143L34.767 68.1389L34.7671 68.1349L34.7673 68.1308L34.7676 68.1267L34.7679 68.1227L34.7683 68.1187L34.7688 68.1147L34.7693 68.1106L34.7699 68.1066L34.7706 68.1026L34.7713 68.0986L34.7722 68.0946L34.7731 68.0907L34.7739 68.0867L34.775 68.0828L34.7761 68.0789L34.7773 68.075L34.7785 68.0711L34.7798 68.0674L34.7812 68.0635L34.7825 68.0597L34.784 68.0559L34.7856 68.0521L34.7872 68.0485L34.7889 68.0448L34.7907 68.0411L34.7925 68.0374L34.7944 68.0339L34.7962 68.0303L34.7983 68.0268L34.8003 68.0232L34.8024 68.0199L34.8047 68.0164L34.8069 68.013L34.8092 68.0097L34.8116 68.0064L34.8139 68.0032L34.8164 67.9999L34.8189 67.9967L34.8215 67.9937L34.8242 67.9906L34.8268 67.9875L34.8296 67.9846L34.8323 67.9815L34.8352 67.9787Z" stroke="black" stroke-width="2" stroke-miterlimit="10" stroke-linecap="round" stroke-linejoin="round"/>
<path d="M18.133 51.867L35 68.734L51.867 51.867L68.734 35L51.867 18.133L35 1.26599L18.133 18.133L1.266 35L18.133 51.867Z" stroke="black" stroke-width="2" stroke-miterlimit="10" stroke-linecap="round" stroke-linejoin="round"/>
<path d="M9.55042 35.9321L21.8092 48.1908L34.0679 60.4496" stroke="black" stroke-width="2" stroke-miterlimit="10" stroke-linecap="round" stroke-linejoin="round"/>
<path d="M35.9321 9.55038L48.1909 21.8091L60.4496 34.0679" stroke="black" stroke-width="2" stroke-miterlimit="10" stroke-linecap="round" stroke-linejoin="round"/>
<path d="M34.0679 9.55038L21.8091 21.8091L9.55037 34.0679" stroke="black" stroke-width="2" stroke-miterlimit="10" stroke-linecap="round" stroke-linejoin="round"/>
<path d="M35.9321 60.4496L48.1908 48.1908L60.4496 35.9321" stroke="black" stroke-width="2" stroke-miterlimit="10" stroke-linecap="round" stroke-linejoin="round"/>
<path d="M35.9322 60.7956L60.7957 35.9321" stroke="black" stroke-width="2" stroke-miterlimit="10" stroke-linecap="round" stroke-linejoin="round"/>
<path d="M35.9321 9.20432L60.7956 34.0678" stroke="black" stroke-width="2" stroke-miterlimit="10" stroke-linecap="round" stroke-linejoin="round"/>
<path d="M34.0679 9.20432L9.20437 34.0678" stroke="black" stroke-width="2" stroke-miterlimit="10" stroke-linecap="round" stroke-linejoin="round"/>
<path d="M9.20435 35.9321L34.0678 60.7956" stroke="black" stroke-width="2" stroke-miterlimit="10" stroke-linecap="round" stroke-linejoin="round"/>
</svg>
