<?xml version="1.0" encoding="utf-8"?>
<!-- Generator: Adobe Illustrator 23.1.1, SVG Export Plug-In . SVG Version: 6.00 Build 0)  -->
<svg version="1.1" id="Layer_1" xmlns="http://www.w3.org/2000/svg" xmlns:xlink="http://www.w3.org/1999/xlink" x="0px" y="0px"
	 viewBox="0 0 700 700" style="enable-background:new 0 0 700 700;" xml:space="preserve">
<g>
	<path d="M695.13,173.8c-7.21-22.49-27.18-36.46-52.1-36.47c-71.13-0.02-142.26-0.02-213.39-0.01l-79.7,0l-53.48,0
		c-50.93,0-101.86,0-152.79,0c-8.7,0.01-17.48-0.02-26.21-0.04c-8.43-0.02-16.98-0.04-25.57-0.04c-12.78,0-25.67,0.05-38.42,0.21
		c-28.06,0.36-51.04,23.34-51.22,51.23c-0.33,49.46-0.33,99.75,0,153.74c0.16,26.03,20.52,48.25,46.36,50.59
		c10.72,0.97,21.73,0.91,32.38,0.85c2.59-0.01,5.17-0.02,7.77-0.03c182.11,0,368.35-0.04,553.57-0.14c4.92,0,9.16-0.37,12.95-1.13
		c25.41-5.09,42.55-26.48,42.63-53.24c0.16-49.09,0.14-98.82-0.07-147.81C697.8,185.33,696.87,179.2,695.13,173.8z M493.46,374.19
		H96.84v-58.16h396.62V374.19z M678.79,337.76c-0.01,22.66-14.06,36.74-36.65,36.75c-17.22,0.01-34.45,0.01-51.67,0.01
		c-12.08,0-24.16,0-36.25,0l-41.31,0l0-19.47c0-15.54,0-30.83,0-46.12c0-9.35-3.13-12.51-12.4-12.51
		c-136.97-0.01-273.93-0.01-410.9,0c-9.33,0-12.32,3.05-12.33,12.55c-0.01,14.32-0.01,28.64-0.01,42.96l0,21.97h-0.51
		c-2.97,0-5.92,0.09-8.77,0.17c-6.38,0.19-12.4,0.37-18.41-0.37c-15.97-1.96-28.06-15.72-28.13-32
		c-0.21-54.7-0.21-104.58,0.01-152.5c0.08-18.19,14.68-32.5,33.22-32.58c20.74-0.09,41.83-0.07,62.22-0.06
		c8.49,0.01,16.98,0.02,25.47,0.02l91.04,0c136.56,0,273.11,0,409.67,0c17.71,0,31.01,10,34.72,26.09
		c0.84,3.63,0.95,7.41,0.96,10.62C678.81,237.54,678.82,284.79,678.79,337.76z"/>
	<path d="M299.32,434.8c-1.46-0.74-2.97-1.11-4.45-1.11c-1.58,0-3.12,0.42-4.51,1.27c-3.1,1.89-4.95,5.59-4.95,9.89
		c-0.06,37.24-0.04,74.82-0.01,106.66c0,3.74,1.08,6.77,3.11,8.76c1.71,1.67,4.01,2.55,6.74,2.49c5.84-0.1,9.34-4.3,9.35-11.22
		c0.02-12.87,0.01-25.73,0.01-38.6l-0.01-29.14c-0.01-12.9-0.02-26.23,0.03-39.35C304.65,439.72,302.96,436.65,299.32,434.8z"/>
	<path d="M214.91,436.37c-1.7-1.66-3.98-2.54-6.61-2.54c-0.08,0-0.15,0-0.23,0c-5.74,0.11-9.32,4.26-9.33,10.84
		c-0.02,9.23-0.02,18.46-0.01,27.7l0,11.28l0,11.55c-0.01,9.28-0.01,18.57,0.02,27.85c0.02,6.57,3.62,10.7,9.39,10.78
		c2.72,0.05,5.07-0.84,6.8-2.54c1.98-1.94,3.02-4.82,3.03-8.3c0.04-26.55,0.04-52.92,0-78.37
		C217.95,441.17,216.89,438.32,214.91,436.37z"/>
	<path d="M381.86,433.84c-0.01,0-0.02,0-0.03,0c-5.95,0-9.51,4.11-9.53,11c-0.03,9.11-0.02,18.21-0.02,27.32l0,11.65l0,9.52
		c-0.01,9.51-0.01,19.35,0.04,29.02c0.01,1.79,0.11,3.86,0.75,5.63c1.56,4.27,5.97,6.62,10.74,5.72c4.79-0.91,7.65-4.96,7.66-10.85
		c0.05-27.72,0.05-53.22,0-77.93C391.46,438.09,387.78,433.86,381.86,433.84z"/>
	<path d="M478.18,444.6c-0.03-6.46-3.73-10.68-9.41-10.76c-0.06,0-0.12,0-0.17,0c-2.63,0-4.92,0.87-6.6,2.53
		c-1.98,1.94-3.03,4.81-3.04,8.28c-0.05,16.75-0.05,33.4,0,49.5c0.02,6.46,3.73,10.7,9.46,10.79c2.68,0.04,5.01-0.82,6.71-2.49
		c1.98-1.94,3.04-4.83,3.05-8.35c0.03-5.7,0.02-11.41,0.01-17.11l-0.01-7.43l0.01-7.54C478.2,456.22,478.2,450.41,478.18,444.6z"/>
	<path d="M131.08,444.78c-0.05-6.86-3.61-10.94-9.53-10.94c-0.03,0-0.05,0-0.08,0c-5.82,0.04-9.46,4.12-9.49,10.66
		c-0.09,17.66-0.09,33.98,0.01,49.9c0.02,3.19,0.95,5.87,2.69,7.75c1.71,1.84,4.13,2.78,6.93,2.79c5.77-0.03,9.4-4.13,9.46-10.69
		c0.06-5.67,0.04-11.44,0.03-17.02c-0.01-2.5-0.01-5-0.01-7.5c0-2.48,0.01-4.96,0.01-7.44
		C131.11,456.55,131.12,450.62,131.08,444.78z"/>
	<path d="M85.19,214.3c1.14,0.06,2.3,0.05,3.43,0.05l1.2-0.01l262.61,0l263.46,0c0.44,0,0.89,0,1.33,0.01
		c1.36,0.02,2.77,0.03,4.12-0.1c4.62-0.43,8.22-4.06,8.55-8.64c0.36-4.89-2.36-8.8-6.92-9.97c-1.97-0.5-4.12-0.55-6.16-0.55
		c-176.21-0.02-352.41-0.02-528.62-0.02l-0.64,0c-1.17,0-2.37-0.01-3.5,0.18c-5.19,0.89-8.56,5.11-8.2,10.27
		C76.22,210.41,80.05,214.02,85.19,214.3z"/>
	<path d="M629.91,250.24c-0.32-4.77-3.99-8.35-8.91-8.71c-1.28-0.09-2.6-0.08-3.87-0.07l-1.17,0.01l-292.26,0l-233.81,0
		c-0.42,0-0.84,0-1.25-0.01c-0.41,0-0.82-0.01-1.24-0.01c-0.99,0-1.99,0.02-2.97,0.11c-4.43,0.4-8.02,3.87-8.52,8.24
		c-0.55,4.74,2.15,8.96,6.54,10.26c1.45,0.43,3.18,0.64,5.28,0.64c162.3,0.03,335.63,0.03,529.88,0.01c1.61,0,3.32-0.05,4.92-0.42
		C627.28,259.21,630.24,255.17,629.91,250.24z"/>
	<path d="M619.5,318.02c-0.07,0-0.14,0-0.22,0c-7.52,0.12-13.7,6.32-13.78,13.83c-0.04,3.73,1.37,7.23,3.98,9.87
		c2.63,2.66,6.15,4.12,9.92,4.13c0.01,0,0.02,0,0.02,0c3.79,0,7.3-1.43,9.89-4.02c2.59-2.6,4.01-6.11,4-9.9
		c-0.01-3.76-1.51-7.29-4.22-9.94C626.48,319.43,623.08,318.02,619.5,318.02z"/>
	<path d="M561.67,318.02c-0.03,0-0.05,0-0.08,0c-3.65,0-7.09,1.43-9.71,4.04c-2.67,2.66-4.14,6.21-4.13,9.99
		c0.01,3.78,1.44,7.27,4.05,9.85c2.62,2.59,6.14,4.03,9.97,3.96c3.77-0.03,7.29-1.53,9.9-4.22c2.59-2.66,3.97-6.18,3.9-9.89
		C575.42,324.22,569.18,318.06,561.67,318.02z"/>
</g>
</svg>
