<?xml version="1.0" encoding="utf-8"?>
<!-- Generator: Adobe Illustrator 23.1.1, SVG Export Plug-In . SVG Version: 6.00 Build 0)  -->
<svg version="1.1" id="Layer_1" xmlns="http://www.w3.org/2000/svg" xmlns:xlink="http://www.w3.org/1999/xlink" x="0px" y="0px"
	 viewBox="0 0 700 700" style="enable-background:new 0 0 700 700;" xml:space="preserve">
<g>
	<g transform="translate(0.000000,512.000000) scale(0.100000,-0.100000)">
		<path d="M2736.34,4707.92v-335.51c0-19.65,15.55-35.78,35.19-36.51l75.11-2.76l40.9-1.49c29.65-1.08,45.72-35.19,27.66-58.73
			l-439.31-572.99l-476.13-619.31c-4.91-6.38-7.57-14.21-7.57-22.27v-551.5v-560.03c0-5.42,1.21-10.77,3.53-15.67l44.65-94.04
			c27.06-54.12,71.71-120.42,97.42-146.13l22.03-21.4c14.12-13.72,14.83-36.17,1.6-50.75l-42.57-46.91
			c-165.07-179.95-167.77-457.32-8.12-635.92l37.31-40.71c12.63-13.78,12.82-34.87,0.44-48.88l-29.64-33.54
			c-82.53-93.36-113.65-169.13-119.07-300.37c-6.77-148.83,27.06-246.25,120.42-345.02l40.72-43.32
			c12.95-13.78,13.25-35.16,0.69-49.29l-31.93-35.93c-31.12-33.83-74.42-100.12-97.42-148.83l-36.78-80.73
			c-2.17-4.76-3.29-9.92-3.29-15.14v-512.98c-10-457.32-7.29-531.73,13-606.15c47.36-178.6,190.77-327.43,368.02-381.55
			c75.77-23,391.02-32.76,391.02-32.76h296.88c4.98,0,9.9-1.02,14.47-2.99l95.9-41.37c101.48-50.06,104.18-51.41,294.96-55.47
			c207.01-5.41,303.08,10.82,397.79,69c44.65,28.41,67.65,29.77,392.37,36.53l337.12,6.61c5.21,0.1,10.33,1.32,15.03,3.56
			l83.52,39.89c115.01,54.12,204.3,143.42,258.43,258.43l41.34,82.96c2.52,5.06,3.83,10.64,3.83,16.29v573.2v572.79
			c0,5.91-1.44,11.74-4.18,16.98l-35.58,67.8c-20.29,43.3-60.89,102.83-89.3,135.3l-28.94,32.74
			c-12.67,14.34-12.13,36.03,1.24,49.72l33.11,33.9c181.3,181.3,182.66,480.32,2.71,664.33c-29.77,31.12-48.71,56.83-39.24,56.83
			c32.47,0,133.95,158.3,158.3,248.95c43.3,161.01-4.06,338.25-121.77,454.61l-34.58,33.79c-13.96,13.65-14.73,35.86-1.74,50.43
			l32.26,36.19c29.77,33.83,71.71,96.06,90.65,136.65l33.42,67.12c2.39,4.8,3.7,10.07,3.82,15.44l13.34,576.36l4.05,564.69
			c0.06,8.26-2.68,16.3-7.78,22.8l-484.16,617.76l-447.84,570.18c-18.42,23.45-2.5,57.9,27.3,59.07l32.16,1.26l69.92,2.7
			c19.61,0.76,35.12,16.88,35.12,36.5v335.58v335.55c0,20.18-16.36,36.53-36.53,36.53h-727.8h-700.98
			c-20.18,0-36.53-16.36-36.53-36.53V4707.92z M4035.23,4707.92v-132.6c0-20.18-16.36-36.53-36.53-36.53h-511.44h-511.44
			c-20.18,0-36.53,16.36-36.53,36.53v132.6v132.6c0,20.18,16.36,36.53,36.53,36.53h511.44h511.44c20.18,0,36.53-16.36,36.53-36.53
			V4707.92z M4238.43,3747.96l417.52-544c18.44-24.03,1.31-58.77-28.98-58.77h-520.55l-1196.06-13.53l-536.06,3.62
			c-30.2,0.2-47.13,34.89-28.7,58.82l308.88,401.06c194.72,253.69,404.53,526.58,467.61,607.48l102.85,132.59
			c6.92,8.92,17.58,14.14,28.87,14.14h245.8h256.9c11.32,0,22.01-5.25,28.92-14.22L4238.43,3747.96z M4806.45,2452.45
			c0-451.91-2.74-480.32-28.77-538.5c-32.88-71.71-68.51-112.3-135.64-152.89c-39.73-24.35-73.99-31.12-212.37-36.53l-129.39-5.32
			c-19.58-0.81-35.03-16.91-35.03-36.5v-66.42v-66.27c0-19.65,15.54-35.78,35.18-36.51l147.48-5.46
			c202.95-8.12,244.9-21.65,303.08-97.42c105.53-142.07,63.59-339.61-89.3-419.43c-48.71-24.35-86.59-29.77-231.37-35.18
			l-136.29-4.26c-20.31-0.63-36.2-17.73-35.36-38.03l2.52-60.54l2.63-62.33c0.8-19.04,16.12-34.27,35.17-34.96l151.62-5.53
			c178.6-6.77,186.72-8.12,242.19-47.36c143.42-101.48,158.3-300.37,32.47-420.79c-71.71-69-136.65-86.59-324.72-86.59h-105.33
			c-20.77,0-37.36-17.3-36.5-38.05l2.47-59.36l2.68-65.17c0.78-18.99,15.99-34.21,34.98-35l128.76-5.37
			c177.25-9.47,213.78-20.3,286.84-97.42c85.24-87.95,85.24-92,85.24-662.98c0-583.15,0-577.74-102.83-676.51
			c-82.53-78.47-139.36-92-385.61-92h-168.61c-25.29,0-42.93,25.07-34.38,48.87l1.4,3.89c9.47,29.77,23,81.18,27.06,115.01
			l3.08,20.21c3.36,22.11-13.75,42.03-36.12,42.03h-58.96h-71.21c-17.56,0-32.63-12.49-35.89-29.74l-3.84-20.32
			c-13.53-74.42-71.71-174.54-124.48-215.13c-81.18-62.24-148.83-75.77-339.61-70.36c-188.07,5.41-242.19,23-316.61,101.48
			c-44.65,47.36-90.65,147.48-92.01,197.54l0,0c0,20.18-16.36,36.53-36.53,36.53h-64.94h-64.94c-20.18,0-36.53-16.36-36.53-36.53
			v-8.12c0-25.71,9.47-75.77,20.3-112.3c10.82-36.53,20.3-67.65,20.3-70.36c0-2.71-105.54-2.71-232.72,0
			c-196.19,4.06-242.19,8.12-281.43,29.77c-66.3,35.18-132.6,100.12-166.42,163.71c-28.41,52.77-29.77,71.71-33.83,547.97
			c-2.71,363.96,0,510.09,12.18,554.74c23,79.83,131.24,190.77,209.72,213.78c40.59,12.18,217.84,16.24,626.45,16.24h533.09
			c20.18,0,36.53,16.36,36.53,36.53v64.94v64.94c0,20.18-16.36,36.53-36.53,36.53h-542.56c-334.19,0-596.68,5.41-623.74,13.53
			c-120.42,33.83-193.48,124.48-201.6,250.31c-8.12,123.12,43.3,212.42,155.6,269.25c37.88,18.94,117.71,21.65,646.74,21.65h565.56
			c20.18,0,36.53,16.36,36.53,36.53v64.45v65.44c0,20.18-16.36,36.53-36.53,36.53h-538.6c-663.51,0-677.1,1.36-768.2,100.61
			c-61.18,66.62-77.5,121.01-67.98,227.06c6.8,72.06,50.31,140.04,125.09,194.43c36.71,27.19,54.39,28.55,662.15,32.63l587.79,3.84
			c20.08,0.13,36.29,16.45,36.29,36.53v67.87v71.71c0,20.18-16.36,36.53-36.53,36.53h-547.97h-576.32c-6.25,0-12.4,1.6-17.85,4.66
			l-59.33,33.23c-75.77,41.94-147.48,128.54-169.13,202.95c-8.12,29.77-13.53,234.07-13.53,507.38v419.43
			c0,20.18,16.36,36.53,36.53,36.53h1266.13h1285.65c20.18,0,36.53-16.36,36.53-36.53V2452.45z"/>
		<path d="M2952.82,3679.63v-101.48h108.24h108.24v101.48v101.48h-108.24h-108.24V3679.63z"/>
		<path d="M2736.34,3463.15v-101.48h108.24h108.24v101.48v101.48h-108.24h-108.24V3463.15z"/>
		<path d="M3824.16,1705.58c-4.06-9.47-5.41-56.83-2.71-104.18l4.06-86.59l105.54-4.06l104.18-4.06v109.59v108.24h-101.48
			C3860.69,1724.53,3829.57,1719.11,3824.16,1705.58z"/>
		<path d="M3821.45,855.89l4.06-98.77l105.54-4.06l104.18-4.06v102.83v101.48h-108.24h-109.59L3821.45,855.89z"/>
		<path d="M3818.75,94.14V-7.33h108.24h108.24V94.14v101.48h-108.24h-108.24V94.14z"/>
	</g>
</g>
</svg>
