<?xml version="1.0" encoding="utf-8"?>
<!-- Generator: Adobe Illustrator 23.1.1, SVG Export Plug-In . SVG Version: 6.00 Build 0)  -->
<svg version="1.1" id="Layer_1" xmlns="http://www.w3.org/2000/svg" xmlns:xlink="http://www.w3.org/1999/xlink" x="0px" y="0px"
	 viewBox="0 0 700 700" style="enable-background:new 0 0 700 700;" xml:space="preserve">
<path d="M2162.46,567.84c-21.75-39.16-51.72-71.37-85.78-106.44c-11.09-11.5-20-22.22-27.24-32.77
	c-17.45-25.57-26.37-54.33-33.41-81.61c-3.6-13.95-9.75-25.56-18.28-34.52c-8.88-9.33-20.61-16.06-34.86-20
	c-1.83-0.48-3.77-0.83-5.82-1.19c-1.3-0.23-2.65-0.47-4.01-0.75l-2.38-0.5v-2.44v-22.3v-2.33l2.25-0.58
	c13.18-3.39,20.77-11.59,22.56-24.35c0.74-5.21,0.58-10.47,0.4-16.04c-0.04-1.4-0.09-2.83-0.12-4.26c-3.96,0-7.98-0.02-11.99-0.08
	v18.95c0,5.99-2.91,10.19-8.89,12.83l-4.3,1.9l0.09-4.7l0.01-0.27c0.08-3.73,0.15-7.6-1.49-9.27c-0.86-0.88-2.39-1.32-4.56-1.32
	c-0.16,0-0.32,0-0.48,0.01c-2.74,0.07-4.71,0.12-5.59,10.88l-0.31,3.75l-3.59-1.14c-5-1.58-7.96-5.29-8.35-10.45
	c-0.42-6.01-0.61-12.13-0.79-18.06c-0.03-1.06-0.06-2.11-0.1-3.17h-12.54c0.01,0.49,0.01,0.97,0.02,1.46
	c0.09,5.87,0.18,11.93,0.62,17.75c0.83,12.67,8.22,21.09,22.6,25.78l2.07,0.67v2.18v21.73v2.07l-1.94,0.73l-0.51,0.2
	c-1.01,0.39-2.06,0.79-3.22,0.96l-0.03,0l-0.03,0c-0.43,0.05-0.88,0.09-1.33,0.13c-0.69,0.05-1.34,0.11-1.83,0.23l-0.04,0.01
	l-0.04,0.01c-26.5,5.98-44.59,21.82-53.79,47.09c-2.84,7.74-5.06,15.84-7.2,23.68c-1.76,6.43-3.57,13.07-5.74,19.56
	c-9.12,27.71-23.85,52.46-43.79,73.54c-18.13,19.07-33.23,35.14-48,51.63c-23.62,26.69-42.22,55.7-55.28,86.23
	c-12.25,28.8-18.4,55.75-18.78,82.37c-0.13,12.8,1.27,26.1,4.16,39.51c5.79,27.55,16.6,53,32.13,75.68
	c15.07,22.01,34.97,41.95,59.13,59.27c41.99,29.89,90.09,46.04,142.96,48.01c3.96,0.15,7.93,0.23,11.8,0.23
	c30.66,0,58.33-4.62,84.59-14.11c28.58-10.24,54.11-24.15,75.9-41.36c22.16-17.5,41.06-38.91,56.16-63.61
	c16.52-27.05,26.24-56.71,28.88-88.15c1.05-13.84,0.25-28.74-2.36-44.27C2185.24,618.75,2175.97,592.17,2162.46,567.84z
	 M1944.61,346.96c3.01,0,5.98,0.62,8.58,1.81c4.62,2.08,8.22,6.04,10.13,11.16c2.11,5.64,1.85,12.03-0.7,17.54
	c-3.17,6.92-10.89,11.94-18.36,11.94c-1.09,0-2.15-0.11-3.17-0.33c-11.25-2.41-16.52-9.06-16.58-20.92
	c-0.65-5.5,0.81-10.47,4.25-14.37C1932.54,349.51,1938.46,346.96,1944.61,346.96z M1865.99,420.75c1.61-3.65,3.29-7.26,4.92-10.76
	c3.24-6.94,6.29-13.49,8.78-20.3c3.42-9.77,6.3-20.01,9.09-29.9c1.22-4.34,2.48-8.82,3.78-13.23c5.7-19.57,19.23-31.73,41.36-37.14
	l3.71-0.91v3.82c0,1.57,0.05,3.13,0.09,4.64c0.12,3.94,0.23,7.66-0.42,11.49c-0.6,3.79-3.98,7.41-7.07,9.3
	c-11.19,6.66-17.26,15.18-18.61,26.07c-1.06,8.52,1.58,17.39,7.25,24.33c5.46,6.69,13.11,10.72,21.53,11.37
	c1.25,0.09,2.5,0.14,3.71,0.14c12.83,0,21.98-5.08,27.97-15.54c7.3-12.84,6.61-25.11-2.05-36.45c-3.16-4.02-7.92-7.46-11.23-9.7
	c-4.27-2.85-9.12-7.14-8.56-15.01c0.09-2.05,0.06-4.2,0.03-6.47c-0.02-1.21-0.03-2.45-0.03-3.72v-3.32l3.31,0.34
	c9.61,0.99,18.16,4.64,26.16,11.17c9.3,7.6,15.18,18.05,18.5,32.91c5.34,24.21,12.86,44.51,22.96,62.07l0.04,0.08l0.04,0.08
	c0.36,0.73,0.68,1.43,1.02,2.17c0.34,0.76,0.7,1.54,1.11,2.38l2.17,4.34h-4.85h-151.95h-4.6L1865.99,420.75z M2144.9,776.06
	c-31.49,47.94-77.85,80.42-137.78,96.54c-16.43,4.39-33.14,6.89-51.07,7.63c-3.88,0.16-7.78,0.24-11.6,0.24
	c-55.26,0-105.42-16.57-149.09-49.26c-37.87-28.36-63.32-64.58-75.64-107.66c-5.48-19.24-7.47-38.52-5.93-57.31
	c2.58-31.93,12.89-62.91,31.5-94.71c17.16-29.44,39.67-54.47,57.37-72.98c5.62-5.91,11.45-11.8,17.08-17.5
	c5.61-5.68,11.41-11.55,17-17.43c2.59-2.68,4.7-5.79,6.94-9.08c0.87-1.28,1.78-2.61,2.71-3.91c2.8-4.18,6.7-6.12,12.27-6.12
	c12.35,0.12,25.57,0.18,42.87,0.18c7.16,0,14.32-0.01,21.47-0.02c7.15-0.01,14.29-0.02,21.43-0.02c5.83,0,11.65,0.01,17.47,0.01
	c5.81,0.01,11.62,0.01,17.42,0.01c15.49,0,33.81-0.04,52.26-0.31c0,0,0,0,0,0c2.98,0,6.7,0.5,9.45,4.39
	c10.46,14.86,23.71,28.03,36.53,40.77c7.67,7.63,15.61,15.52,22.91,23.72c35.63,39.81,57.27,76.25,68.1,114.65
	C2183.17,680.11,2175.2,729.96,2144.9,776.06z"/>
<path d="M573.87,360.14c-22.37-40.27-53.18-73.39-88.21-109.46c-11.4-11.82-20.56-22.84-28.01-33.7
	c-17.95-26.29-27.12-55.87-34.35-83.92c-3.7-14.34-10.02-26.29-18.79-35.5c-9.13-9.59-21.19-16.51-35.85-20.57
	c-1.89-0.5-3.88-0.85-5.98-1.22c-1.34-0.24-2.73-0.48-4.12-0.78l-2.45-0.51v-2.5V49.05v-2.39l2.32-0.6
	c13.56-3.49,21.36-11.92,23.2-25.04c0.76-5.36,0.59-10.77,0.41-16.49c-0.05-1.44-0.09-2.91-0.12-4.38c-4.07,0-8.21-0.02-12.33-0.08
	v19.49c0,6.16-2.99,10.48-9.14,13.19l-4.43,1.95l0.1-4.84l0.01-0.28c0.08-3.84,0.16-7.81-1.53-9.54c-0.88-0.9-2.46-1.36-4.69-1.36
	c-0.16,0-0.32,0-0.49,0.01c-2.81,0.07-4.84,0.12-5.75,11.19l-0.32,3.86l-3.69-1.17c-5.14-1.63-8.19-5.44-8.59-10.74
	c-0.43-6.18-0.62-12.48-0.81-18.57c-0.03-1.09-0.07-2.17-0.1-3.26h-12.89c0.01,0.5,0.02,1,0.02,1.5c0.09,6.03,0.18,12.27,0.64,18.26
	c0.85,13.03,8.46,21.69,23.24,26.51l2.13,0.69v2.24v22.34v2.13l-1.99,0.75l-0.53,0.2c-1.04,0.4-2.11,0.82-3.31,0.99l-0.03,0l-0.03,0
	c-0.44,0.06-0.9,0.09-1.37,0.13c-0.71,0.06-1.37,0.11-1.89,0.24L334.11,76l-0.04,0.01c-27.25,6.15-45.86,22.44-55.31,48.43
	c-2.92,7.96-5.2,16.29-7.4,24.35c-1.81,6.61-3.67,13.44-5.9,20.12c-9.38,28.5-24.53,53.94-45.03,75.62
	c-18.65,19.61-34.18,36.14-49.36,53.1c-24.29,27.44-43.42,57.28-56.85,88.67c-12.6,29.62-18.92,57.33-19.32,84.7
	c-0.14,13.16,1.3,26.83,4.28,40.63c5.96,28.33,17.07,54.5,33.04,77.82c15.5,22.63,35.96,43.14,60.81,60.95
	c43.18,30.73,92.64,47.34,147.01,49.37c4.07,0.16,8.15,0.23,12.13,0.23c31.53,0,59.98-4.75,86.99-14.51
	c29.39-10.53,55.65-24.83,78.05-42.53c22.79-18,42.22-40.01,57.76-65.42c16.99-27.81,26.98-58.31,29.7-90.65
	c1.08-14.23,0.26-29.56-2.43-45.52C597.3,412.5,587.76,385.17,573.87,360.14z M349.86,133.01c3.09,0,6.15,0.64,8.83,1.86
	c4.75,2.14,8.46,6.22,10.42,11.48c2.17,5.8,1.9,12.38-0.72,18.04c-3.26,7.11-11.2,12.28-18.88,12.28c-1.12,0-2.21-0.11-3.26-0.34
	c-11.57-2.48-16.99-9.32-17.05-21.52c-0.67-5.66,0.84-10.76,4.37-14.77C337.45,135.63,343.53,133.01,349.86,133.01z M269.01,208.88
	c1.65-3.75,3.39-7.47,5.06-11.06c3.33-7.13,6.47-13.87,9.03-20.88c3.52-10.05,6.48-20.57,9.34-30.75c1.25-4.46,2.55-9.07,3.89-13.6
	c5.86-20.13,19.77-32.63,42.53-38.2l3.82-0.93v3.93c0,1.61,0.05,3.22,0.1,4.77c0.12,4.05,0.24,7.88-0.43,11.81
	c-0.62,3.9-4.1,7.62-7.27,9.56c-11.5,6.84-17.75,15.61-19.14,26.81c-1.1,8.76,1.62,17.88,7.46,25.02
	c5.62,6.88,13.48,11.03,22.14,11.69c1.29,0.09,2.58,0.14,3.81,0.14c13.19,0,22.6-5.23,28.76-15.98c7.51-13.21,6.8-25.82-2.11-37.48
	c-3.25-4.13-8.15-7.68-11.55-9.98c-4.4-2.93-9.38-7.34-8.8-15.44c0.09-2.11,0.06-4.32,0.03-6.65c-0.02-1.25-0.03-2.52-0.03-3.83
	v-3.42l3.4,0.35c9.88,1.02,18.68,4.77,26.9,11.49c9.56,7.81,15.61,18.57,19.02,33.84c5.5,24.89,13.22,45.77,23.61,63.83l0.05,0.08
	l0.04,0.08c0.38,0.75,0.7,1.47,1.04,2.23c0.35,0.78,0.71,1.58,1.15,2.44l2.23,4.46h-4.99H271.83h-4.73L269.01,208.88z
	 M555.82,574.26c-32.38,49.3-80.05,82.7-141.68,99.27c-16.9,4.52-34.08,7.08-52.52,7.84c-3.99,0.16-8,0.24-11.93,0.24
	c-56.82,0-108.4-17.04-153.31-50.65c-38.94-29.17-65.11-66.41-77.79-110.71c-5.63-19.79-7.68-39.61-6.1-58.93
	c2.65-32.83,13.25-64.69,32.39-97.4c17.65-30.27,40.8-56.01,58.99-75.05c5.78-6.08,11.77-12.14,17.56-18
	c5.77-5.84,11.74-11.88,17.49-17.92c2.66-2.76,4.83-5.95,7.13-9.33c0.9-1.32,1.83-2.69,2.79-4.02c2.88-4.29,6.89-6.29,12.61-6.29
	c12.7,0.13,26.29,0.18,44.09,0.18c7.36,0,14.72-0.01,22.08-0.02c7.35-0.01,14.7-0.02,22.03-0.02c5.99,0,11.98,0.01,17.97,0.01
	c5.97,0.01,11.95,0.01,17.92,0.01c15.93,0,34.77-0.04,53.74-0.32c0,0,0,0,0,0c3.06,0,6.89,0.51,9.72,4.52
	c10.76,15.28,24.38,28.83,37.56,41.92c7.89,7.85,16.05,15.96,23.56,24.4c36.64,40.94,58.9,78.41,70.03,117.9
	C595.17,475.6,586.98,526.86,555.82,574.26z"/>
</svg>
