<?xml version="1.0" encoding="utf-8"?>
<!-- Generator: Adobe Illustrator 23.1.1, SVG Export Plug-In . SVG Version: 6.00 Build 0)  -->
<svg version="1.1" id="Layer_1" xmlns="http://www.w3.org/2000/svg" xmlns:xlink="http://www.w3.org/1999/xlink" x="0px" y="0px"
	 viewBox="0 0 700 700" style="enable-background:new 0 0 700 700;" xml:space="preserve">
<g>
	<path d="M7.06,611.45c0.03,23.06,8.19,43.9,22.96,58.68c14.77,14.78,35.59,22.92,58.63,22.93c170.83,0.07,346.76,0.05,522.91-0.06
		c7.12,0,13.71-0.68,19.58-2c37.56-8.45,61.83-39.47,61.84-79.03c0.03-132.07,0.02-264.13,0.02-396.2l0-125.46
		c0-1.53-0.01-3.16-0.07-4.77c-1.89-46.23-35.31-78.54-81.27-78.56C435.62,6.87,263.12,6.8,88.06,7.23
		c-12.17,0.03-24.34,2.51-34.28,6.97C22.81,28.13,7.09,53.33,7.06,89.11C7,151.18,7.01,214.29,7.02,275.32
		c0,24.87,0.01,49.74,0.01,74.62c0,25.77-0.01,51.54-0.01,77.32C7,487.63,6.98,550.05,7.06,611.45z M28.17,89.22
		c0.01-37.14,24.09-61.14,61.34-61.14c168.39-0.03,343.64-0.03,520.89,0c37.23,0.01,61.29,24.02,61.3,61.18
		c0.03,159.36,0.04,329.78,0,521.01c-0.01,37.35-24.22,61.5-61.69,61.51c-61.76,0.02-123.52,0.02-185.28,0.01l-74.82,0l-75.63,0
		c-23.65,0-47.3,0-70.95,0c-38.07,0-76.14-0.01-114.21-0.02c-29.95-0.01-52.6-16.8-59.11-43.81c-1.2-5-1.79-10.57-1.8-17.04
		C28.15,454.31,28.13,288.54,28.17,89.22z"/>
	<path d="M158.67,268.4c45.97,0.01,91.95,0.01,137.92,0l193.36,0c5.22,0,10.45,0.01,15.67,0.01c12.59,0.02,25.6,0.03,38.4-0.05
		c4.64-0.03,7.88-1.08,9.92-3.2c2.02-2.11,2.91-5.36,2.74-9.93c-0.31-8.2-0.82-14.9-1.6-21.1c-6.83-54.18-34.51-102.73-77.95-136.7
		c-43.43-33.97-97.2-49.13-151.38-42.69c-48.64,5.79-93.91,29.01-127.46,65.39s-53.09,83.44-55.02,132.5
		c-0.27,6.79,0.48,10.45,2.6,12.64C147.99,267.49,151.7,268.4,158.67,268.4z M320.77,247.27l0.2-0.53
		c4.84-12.75,15.51-20.42,28.53-20.51c0.08,0,0.16,0,0.24,0c13.29,0,24.16,7.65,29.1,20.51l0.2,0.53H320.77z M165.03,246.76
		c2.27-44,22.85-87.87,56.46-120.36c36.28-35.07,84.14-53.4,134.78-51.67c49.57,1.71,95.39,22.53,129.01,58.62
		c30.04,32.25,48.02,73.56,49.32,113.33l0.01,0.4H402.31l-7.98-18.78l0.19-0.19l69.59-69.39l-15.5-14.32l-69,69.54l-0.26-0.15
		c-17.24-9.93-33.56-11.38-49.89-4.45c-15.85,6.73-26.41,19.36-31.4,37.54l-0.08,0.29H165.01L165.03,246.76z"/>
	<path d="M156.5,559.95c22.97,30.48,46.94,49.42,75.45,59.61c19.43,6.94,38.04,6.43,53.84-1.49c15.52-7.78,26.84-22.03,32.72-41.2
		c2.58-8.39,3.88-17.33,5.15-25.98c0.56-3.85,1.14-7.82,1.83-11.71l-1.18-0.26l-0.02-0.29c-0.14-2.02-0.24-4.04-0.34-6.07
		c-0.21-4.28-0.43-8.71-1.02-13.01c-6.3-45.6-24.98-87.39-55.52-124.21c-23.51-28.35-47.25-45.02-74.71-52.48
		c-6.83-1.86-13.5-2.76-19.9-2.76c-27.15,0-49.47,16.26-59.5,44.81c-6.61,18.83-8.12,39.53-4.62,63.29
		C114.56,488.04,130.65,525.64,156.5,559.95z M135.7,386.3c9.19-19.85,26.76-28.5,48.2-23.76c17.88,3.96,34.55,13.64,50.98,29.61
		c42.38,41.19,64.95,90.63,68.99,151.13l0,0.05l-0.01,0.05c-0.49,2.29-0.94,4.93-1.42,7.73c-1.23,7.21-2.64,15.39-5.43,23.26
		c-6.68,18.81-20.22,28.86-38.1,28.86c-4.46,0-9.19-0.62-14.16-1.9c-18.09-4.63-34.89-15-51.35-31.7
		c-39.02-39.59-60.85-86.14-64.87-138.36C127.22,414.25,129.57,399.54,135.7,386.3z"/>
	<path d="M403.18,438.16c-15.28,29.03-24.7,62.65-28,99.9c0.5,19.38,3.51,34.65,9.49,48.06c11.55,25.93,35.15,39.99,63.14,37.6
		c19.11-1.63,37.31-9.35,55.64-23.62c41.71-32.45,70.05-77.43,84.24-133.67c7.76-30.78,7.36-57.6-1.22-81.98
		c-5.4-15.35-14.54-27.44-26.43-34.95c-11.91-7.53-26.66-10.51-42.66-8.65c-16.17,1.89-31.68,8.27-46.12,18.96
		C442.07,381.43,419.16,407.79,403.18,438.16z M529.3,361.44c15.65,0.7,27.22,8.72,34.38,23.84c7.96,16.79,10.15,35.71,6.71,57.86
		c-8.94,57.54-35.59,104.5-79.22,139.56c-14.92,11.99-29.71,18.55-45.2,20.04c-1.62,0.16-3.21,0.23-4.77,0.23
		c-15.55,0-28.08-7.7-35.61-22.04c-7.26-13.82-8.78-28.77-9.34-42.86l0-0.03l0-0.03c3.55-35.17,12.7-66.47,27.19-93.04
		c15.45-28.32,37.54-52.34,65.67-71.39C501.93,364.91,515.46,360.83,529.3,361.44z"/>
</g>
</svg>
