<?xml version="1.0" encoding="utf-8"?>
<!-- Generator: Adobe Illustrator 23.1.1, SVG Export Plug-In . SVG Version: 6.00 Build 0)  -->
<svg version="1.1" id="Layer_1" xmlns="http://www.w3.org/2000/svg" xmlns:xlink="http://www.w3.org/1999/xlink" x="0px" y="0px"
	 viewBox="0 0 700 700" style="enable-background:new 0 0 700 700;" xml:space="preserve">
<g>
	<path d="M3016.36,847.49c-0.57-10.95-9.54-19.58-20.48-20.3c-2.73-0.18-5.55-0.45-8.21,0.01c-5.81,1.01-7.87-1.84-9.36-6.98
		c-3.93-13.58-8.15-27.09-12.79-40.43c-1.69-4.85-0.89-7.58,2.91-11.08c35.92-33.17,52.12-74.09,46.88-122.94
		c-7-65.26-60.56-118.33-125.47-124.39c-5.19-0.48-7.39-2.48-8.89-7.29c-12.73-40.7-25.7-81.32-38.6-121.96
		c-3.22-10.14-6.44-20.28-9.48-29.85c5.15-3.7,10.07-6.38,13.92-10.15c20.87-20.47,41.6-41.09,62.1-61.94
		c7.66-7.79,10.48-17.64,8.29-28.44c-2.51-12.39-9.81-21.07-21.95-24.91c-12.88-4.07-24.48-1.04-34.07,8.37
		c-16.94,16.65-33.75,33.45-50.36,50.43c-3.65,3.73-7.31,5.21-12.52,5.19c-43.85-0.19-87.71-0.18-131.56-0.08
		c-19.56,0.05-34.3,14.81-33.94,33.6c0.34,17.5,15.19,31.96,33.57,32.1c27.86,0.21,55.73,0.21,83.59-0.06
		c5.06-0.05,7.16,1.56,8.49,6.32c2.95,10.53,6.25,20.99,9.96,31.28c1.93,5.34,1.2,9.02-2.64,13.4
		c-41.44,47.21-82.68,94.58-123.81,142.05c-3.3,3.81-6.23,5.03-11.12,3.47c-5.62-1.79-11.56-2.6-17.36-3.83
		c-24.76-5.26-49.43-11.03-74.33-15.48c-7.85-1.4-12.19-3.25-14.44-11.6c-4.98-18.43-11.3-36.51-17.43-55.84
		c11.03,0,20.84,0.14,30.64-0.04c12.84-0.23,23.65-8.19,27.54-19.95c5.42-16.41-3.78-33.47-21.05-37.63
		c-31.48-7.59-63.01-14.99-94.65-21.85c-15.97-3.46-32.18-7.24-48.39-7.82c-23.76-0.86-42.71,19.75-42.68,43.5
		c0.03,23.72,18.97,43.13,42.84,43.74c7.3,0.19,14.64,0.43,21.92-0.08c4.93-0.34,6.58,1.69,7.92,6.03
		c7.6,24.62,15.39,49.18,23.41,73.67c1.44,4.39,0.93,6.68-3.01,9.55c-55.29,40.34-65.98,119.11-22.93,172.36
		c8.9,11,20.39,19.9,31.19,30.25c-10.65,12.25-22.14,25.5-33.67,38.72c-5.85,6.71-10.59,15.91-17.99,19.33
		c-7.38,3.41-17.44,1-26.33,1.15c-0.69,0.01-1.37-0.01-2.06,0.02c-9.83,0.48-19.05,6.71-20.22,16.34
		c-1.33,10.97-1.46,22.4,0.12,33.31c1.59,10.92,11.08,16.12,24.49,16.12c202.14,0.01,404.28,0,606.42,0c1.6,0,3.2,0.05,4.8-0.05
		c11.31-0.71,20.3-9.42,20.8-20.72C3016.76,863.95,3016.8,855.69,3016.36,847.49z M2989.71,629.15
		c12.64,42.81-1.42,94.34-33.56,120.83c-21.89-68.79-43.66-137.23-65.66-206.35C2936.33,548.85,2976.28,583.66,2989.71,629.15z
		 M2848.57,484.23c35.59,111.89,71.17,223.78,106.75,335.67c0.68,2.15,1.28,4.32,2.14,7.22c-9.77,0-19.08,0.37-28.31-0.3
		c-1.95-0.14-4.5-3.78-5.31-6.28c-15.97-49.71-31.7-99.49-47.51-149.24c-31.5-99.07-63.02-198.14-94.54-297.2
		c-0.74-2.33-1.47-4.66-2.38-7.55c9.88,0,19.02-0.31,28.1,0.25c1.9,0.12,4.52,3.18,5.24,5.39
		C2824.84,409.48,2836.69,446.86,2848.57,484.23z M2888.7,804.07c2.02-0.17,4.05-0.21,6.61-0.33c2.4,7.44,4.76,14.75,7.34,22.76
		c-132.8,0-265.17,0-398.67,0c12.75-14.66,24.82-28.66,37.11-42.47c1.5-1.69,4.06-2.89,6.33-3.39
		c65.7-14.44,131.45-28.71,197.13-43.23c5.16-1.14,7.91-0.41,11.16,4.19C2788.15,787.52,2832.31,808.9,2888.7,804.07z
		 M2775.87,731.25c0.57-0.34,1.09-0.88,1.71-1.01c29.13-6.38,58.28-12.73,88.27-19.27c7.52,23.6,14.95,46.92,22.39,70.28
		C2853.72,789.53,2798.83,770.2,2775.87,731.25z M2816.69,556.55c5.34,16.73,10.53,32.97,15.9,49.79c-1.65,0-2.55,0.16-3.38-0.02
		c-17.73-3.87-35.45-7.78-54.19-11.9C2785.89,578.13,2799.57,566.35,2816.69,556.55z M2754.11,585.76
		c-0.93,1.41-3.29,3.07-4.65,2.82c-10.47-1.95-20.85-4.34-32.24-6.81c26.46-30.34,52.18-59.84,78.75-90.32
		c4.7,14.65,9.09,27.99,13.11,41.44c0.34,1.13-1.44,3.66-2.84,4.43C2784.76,549.08,2767.53,565.32,2754.11,585.76z M2739.4,344.6
		c-23.27,0-46.54,0.05-69.81-0.06c-2.89-0.01-6.81,0.09-8.42-1.6c-2.84-2.98-6.27-7.61-5.75-10.97c0.52-3.4,5.27-6.5,8.71-8.95
		c1.54-1.1,4.43-0.34,6.71-0.34c44.95-0.01,89.89-0.09,134.83,0.09c6.17,0.03,10.81-1.77,15.14-6.19
		c17.42-17.75,35.09-35.25,52.71-52.81c1.92-1.92,3.91-3.95,6.25-5.23c4.7-2.56,9.46-1.99,13.12,1.98c3.87,4.2,4.05,9.05,0.73,13.77
		c-1.17,1.66-2.7,3.09-4.15,4.54c-17.9,17.92-35.93,35.71-53.66,53.79c-8.18,8.34-17.65,12.24-29.35,12.07
		C2784.12,344.38,2761.76,344.6,2739.4,344.6z M2778.37,436.13c3.28,10.17,6.37,19.11,8.91,28.19c0.47,1.67-0.77,4.4-2.07,5.9
		c-29.72,34.3-59.51,68.53-89.5,102.59c-1.51,1.72-5.06,2.82-7.37,2.45c-8.45-1.38-16.78-3.5-26.34-5.61
		C2701.05,524.84,2739.3,480.95,2778.37,436.13z M2404.83,454.25c-14.38-0.04-24.36-9.25-24.22-22.19
		c0.14-12.63,10.18-22.68,24.04-21.35c14.64,1.4,29.13,4.84,43.54,8.05c29.36,6.53,58.61,13.56,87.93,20.26
		c4.81,1.1,9.28,2.52,8.74,8.44c-0.58,6.31-5.44,6.87-10.64,6.85c-21.68-0.09-43.36-0.04-65.04-0.04
		C2447.74,454.26,2426.28,454.3,2404.83,454.25z M2452.45,476.43c11.06,0,21.07,0,31.77,0c7.01,21.94,14.05,43.99,21.16,66.24
		c-9.63,2.6-19,5.13-29.29,7.91C2468.33,526.23,2460.55,501.84,2452.45,476.43z M2425.96,680.84
		c-9.59-56.38,27.11-107.66,82.37-115.91c20.35-3.04,39.44,2.3,58.77,6.51c88.89,19.36,177.74,38.9,266.64,58.2
		c5.08,1.1,7.54,3.24,9.03,8.32c5.02,17.05,10.67,33.91,16.42,51.91c-18.57,4.11-36.56,8.13-54.57,12.06
		c-87.32,19.08-174.61,38.26-261.97,57.15C2488.65,770.75,2435.12,734.67,2425.96,680.84z M2480.03,778.55
		c0.88-1,2.8-1.97,3.96-1.71c9.23,2.08,18.38,4.45,28.09,6.87c-12.1,13.93-23.99,27.69-36.03,41.32c-1.03,1.16-3.08,1.98-4.67,2
		c-10.66,0.17-21.33,0.09-33.73,0.09C2452.5,810.04,2466.21,794.25,2480.03,778.55z M2994.28,870.63c-204.55,0-408.79,0-613.36,0
		c0-7.08,0-13.84,0-21.09c204.29,0,408.53,0,613.36,0C2994.28,856.75,2994.28,863.51,2994.28,870.63z"/>
	<path d="M2557.81,712.86c9.08,12.45,20.92,18.45,36.53,15.57c5.02,0,10.05,0,15.07,0c0.46,0,0.92,0.01,1.37-0.03
		c6.51-0.53,10.93-4.94,10.96-10.9c0.03-5.98-4.37-10.58-10.87-10.93c-5.01-0.27-10.16-0.77-15.04,0.06
		c-10.61,1.82-18-2.78-23.75-10.82c-1.2-1.67-1.38-4.72-0.87-6.85c1.97-8.13,5.88-16.04,6.4-24.21
		c1.6-25.04-14.38-47.13-38.16-54.68c-23.63-7.5-49.49,1.89-62.82,22.82c-13.2,20.72-11.02,47.91,5.31,66.08
		c16.95,18.87,43.56,23.98,66.14,12.17C2552.46,708.87,2555.09,709.11,2557.81,712.86z M2497.33,682.93
		c-9.9-12.48-9.37-30.29,1.27-42.14c11.09-12.35,29.21-14.65,42.87-5.44c13.35,9,18.07,25.83,10.78,41.51
		c-6.6-6.83-12.84-13.42-19.24-19.85c-6.23-6.25-12.4-6.92-17.35-2.15c-5.15,4.96-4.52,11.33,2.06,17.83
		c6.3,6.23,12.81,12.26,19.44,18.59C2523.84,699.07,2507.06,695.2,2497.33,682.93z"/>
	<g>
		<path d="M668.17,621.7c-2.82-0.19-5.73-0.46-8.47,0.02c-6,1.05-8.13-1.9-9.66-7.21c-4.06-14.02-8.41-27.96-13.21-41.74
			c-1.74-5-0.92-7.82,3-11.44c37.08-34.24,53.81-76.48,48.4-126.92C681,367.04,625.7,312.25,558.7,306
			c-5.36-0.5-7.63-2.56-9.18-7.53c-13.14-42.02-26.53-83.95-39.85-125.91c-3.32-10.47-6.65-20.93-9.78-30.81
			c5.32-3.82,10.4-6.58,14.37-10.48c21.54-21.14,42.95-42.42,64.11-63.95c7.9-8.04,10.82-18.21,8.56-29.36
			c-2.59-12.79-10.13-21.75-22.66-25.71c-13.3-4.2-25.28-1.08-35.17,8.64c-17.49,17.19-34.84,34.53-51.99,52.06
			c-3.77,3.85-7.55,5.38-12.93,5.36c-45.27-0.2-90.55-0.19-135.82-0.08c-20.2,0.05-35.41,15.29-35.03,34.68
			c0.35,18.07,15.68,32.99,34.66,33.14c28.77,0.22,57.54,0.21,86.3-0.07c5.22-0.05,7.39,1.61,8.77,6.52
			c3.05,10.87,6.45,21.67,10.28,32.29c1.99,5.52,1.24,9.32-2.73,13.84c-42.78,48.73-85.36,97.64-127.82,146.65
			c-3.41,3.93-6.43,5.19-11.48,3.59c-5.81-1.84-11.93-2.68-17.92-3.96c-25.56-5.43-51.03-11.39-76.74-15.98
			c-8.1-1.45-12.58-3.36-14.91-11.97c-5.14-19.03-11.67-37.69-18-57.65c11.39,0,21.52,0.15,31.63-0.04
			c13.25-0.24,24.41-8.46,28.43-20.6c5.6-16.94-3.91-34.55-21.73-38.84c-32.5-7.83-65.05-15.48-97.72-22.55
			c-16.49-3.57-33.22-7.47-49.95-8.08c-24.53-0.89-44.09,20.39-44.06,44.91c0.03,24.49,19.59,44.52,44.23,45.16
			c7.54,0.19,15.12,0.44,22.63-0.08c5.09-0.35,6.79,1.74,8.17,6.22c7.85,25.42,15.89,50.78,24.17,76.06
			c1.48,4.53,0.96,6.89-3.1,9.86c-57.08,41.65-68.12,122.96-23.67,177.94c9.18,11.36,21.05,20.55,32.2,31.23
			c-11,12.65-22.86,26.33-34.76,39.97c-6.04,6.93-10.94,16.43-18.57,19.96c-7.62,3.52-18.01,1.04-27.18,1.18
			c-0.71,0.01-1.42-0.01-2.12,0.02c-10.15,0.5-19.66,6.93-20.87,16.87c-1.38,11.32-1.51,23.13,0.13,34.38
			c1.64,11.27,11.43,16.64,25.28,16.64c208.68,0.01,417.37,0,626.05,0c1.65,0,3.31,0.05,4.95-0.05
			c11.68-0.73,20.96-9.73,21.47-21.39c0.38-8.47,0.41-17-0.03-25.46C688.73,631.36,679.47,622.45,668.17,621.7z M661.81,417.25
			c13.05,44.2-1.47,97.39-34.65,124.74c-22.6-71.01-45.08-141.67-67.78-213.03C606.7,334.36,647.94,370.28,661.81,417.25z
			 M516.1,267.64c36.74,115.51,73.47,231.02,110.2,346.53c0.7,2.21,1.32,4.46,2.21,7.46c-10.09,0-19.7,0.38-29.22-0.31
			c-2.01-0.15-4.65-3.91-5.48-6.49c-16.48-51.32-32.72-102.71-49.05-154.07c-32.52-102.28-65.06-204.55-97.6-306.82
			c-0.76-2.4-1.51-4.81-2.45-7.79c10.2,0,19.63-0.32,29.01,0.26c1.96,0.12,4.66,3.28,5.4,5.56
			C491.6,190.47,503.83,229.06,516.1,267.64z M408.71,528.99c5.33-1.18,8.16-0.43,11.52,4.33c33.49,47.43,79.09,69.5,137.3,64.51
			c2.09-0.18,4.19-0.21,6.83-0.34c2.48,7.68,4.91,15.22,7.58,23.49c-137.09,0-273.75,0-411.58,0
			c13.17-15.13,25.63-29.59,38.31-43.85c1.55-1.75,4.19-2.99,6.53-3.5C273.03,558.72,340.9,543.99,408.71,528.99z M441.04,522.66
			c0.58-0.36,1.13-0.9,1.76-1.04c30.08-6.59,60.16-13.14,91.12-19.89c7.76,24.37,15.43,48.44,23.11,72.55
			C521.41,582.82,464.75,562.87,441.04,522.66z M483.19,342.3c5.51,17.27,10.87,34.03,16.41,51.4c-1.71,0-2.64,0.16-3.49-0.02
			c-18.3-3.99-36.6-8.03-55.94-12.28C451.39,364.58,465.51,352.42,483.19,342.3z M418.58,372.46c-0.96,1.46-3.4,3.17-4.8,2.91
			c-10.8-2.01-21.52-4.48-33.28-7.03c27.31-31.33,53.87-61.78,81.3-93.24c4.85,15.12,9.38,28.9,13.53,42.79
			c0.35,1.17-1.49,3.78-2.93,4.57C450.22,334.59,432.43,351.36,418.58,372.46z M403.39,123.49c-24.02,0-48.05,0.05-72.07-0.07
			c-2.98-0.01-7.03,0.09-8.7-1.65c-2.94-3.07-6.47-7.85-5.94-11.33c0.54-3.51,5.44-6.71,9-9.24c1.59-1.13,4.58-0.35,6.93-0.35
			c46.4-0.01,92.8-0.1,139.2,0.1c6.37,0.03,11.16-1.83,15.63-6.39c17.99-18.32,36.22-36.4,54.41-54.52c1.99-1.98,4.04-4.08,6.45-5.4
			c4.85-2.65,9.76-2.06,13.55,2.05c4,4.33,4.18,9.34,0.76,14.21c-1.21,1.72-2.79,3.19-4.28,4.68c-18.48,18.5-37.09,36.87-55.4,55.53
			c-8.44,8.61-18.22,12.63-30.3,12.46C449.56,123.26,426.47,123.49,403.39,123.49z M443.62,217.98c3.39,10.5,6.57,19.72,9.19,29.1
			c0.48,1.72-0.79,4.54-2.14,6.09c-30.68,35.41-61.44,70.75-92.39,105.91c-1.56,1.77-5.22,2.91-7.6,2.52
			c-8.73-1.42-17.33-3.62-27.19-5.79C363.8,309.57,403.29,264.25,443.62,217.98z M58,236.69c-14.84-0.04-25.15-9.55-25-22.91
			c0.15-13.04,10.51-23.41,24.82-22.04c15.11,1.44,30.07,5,44.95,8.31c30.31,6.75,60.51,14,90.78,20.91
			c4.96,1.13,9.58,2.6,9.03,8.72c-0.6,6.52-5.62,7.1-10.98,7.07c-22.38-0.1-44.77-0.04-67.15-0.04
			C102.29,236.7,80.14,236.74,58,236.69z M107.16,259.59c11.42,0,21.75,0,32.8,0c7.24,22.65,14.51,45.41,21.85,68.38
			c-9.94,2.69-19.61,5.3-30.24,8.17C123.55,311,115.52,285.82,107.16,259.59z M79.81,470.61c-9.9-58.2,27.99-111.14,85.04-119.66
			c21.01-3.14,40.71,2.37,60.67,6.72c91.77,19.98,183.49,40.16,275.27,60.08c5.25,1.14,7.78,3.35,9.33,8.59
			c5.19,17.6,11.01,35.01,16.95,53.59c-19.17,4.24-37.74,8.39-56.33,12.45c-14.48,3.16-28.96,6.33-43.44,9.5
			c-1.95-2.71-5.17-4.49-9.17-4.7c-5.17-0.27-10.49-0.8-15.53,0.06c-10.95,1.88-18.58-2.87-24.52-11.17
			c-1.23-1.73-1.43-4.87-0.89-7.07c2.03-8.39,6.07-16.56,6.61-24.99c1.65-25.85-14.85-48.65-39.39-56.45
			c-24.39-7.75-51.09,1.95-64.86,23.56c-13.63,21.39-11.37,49.46,5.48,68.22c17.5,19.48,44.97,24.75,68.28,12.57
			c4.51-2.36,7.22-2.1,10.04,1.76c2.95,4.05,6.18,7.43,9.73,10.08c-57.58,12.6-115.17,25.18-172.79,37.64
			C144.53,563.44,89.26,526.19,79.81,470.61z M321.94,462.21c6.51,6.43,13.22,12.66,20.07,19.19c-13.74,8.04-31.06,4.04-41.11-8.63
			c-10.22-12.88-9.67-31.27,1.31-43.5c11.45-12.75,30.16-15.13,44.25-5.61c13.78,9.3,18.65,26.67,11.13,42.85
			c-6.82-7.05-13.25-13.86-19.86-20.49c-6.43-6.45-12.8-7.14-17.91-2.22C314.49,448.91,315.15,455.49,321.94,462.21z M135.63,571.49
			c0.91-1.03,2.89-2.04,4.08-1.77c9.52,2.14,18.98,4.6,29,7.09c-12.49,14.38-24.76,28.59-37.2,42.66c-1.06,1.2-3.18,2.04-4.83,2.07
			c-11.01,0.18-22.02,0.09-34.82,0.09C107.21,604,121.36,587.69,135.63,571.49z M666.52,666.55c-211.17,0-422.02,0-633.21,0
			c0-7.31,0-14.29,0-21.77c210.9,0,421.75,0,633.21,0C666.52,652.22,666.52,659.2,666.52,666.55z"/>
	</g>
</g>
</svg>
