<?xml version="1.0" encoding="utf-8"?>
<!-- Generator: Adobe Illustrator 23.1.1, SVG Export Plug-In . SVG Version: 6.00 Build 0)  -->
<svg version="1.1" id="Layer_1" xmlns="http://www.w3.org/2000/svg" xmlns:xlink="http://www.w3.org/1999/xlink" x="0px" y="0px"
	 viewBox="0 0 700 700" style="enable-background:new 0 0 700 700;" xml:space="preserve">
<g>
	<path d="M400.47,471.68l-12.05-10.01l0-235.67c0.02-171.51-0.04-173.24-6.92-185.08c-0.47-0.81-0.97-1.66-1.49-2.61
		c-9.13-16.2-27.47-29.7-45.62-33.56C329.04,3.58,324.63,3,320.21,3c-4.56,0-9.12,0.62-14.71,1.87l-0.03,0.01
		c-25.82,5.55-46.92,26.86-52.48,53.03c-1.62,8.1-1.97,44.71-1.97,206.13v199.29l-8.4,6.17c-8.19,6.01-21.99,20.8-28.41,30.42
		c-6.83,10.18-13.47,24.71-16.91,37.01c-3.7,12.43-5.03,39.58-2.65,53.85c3.92,24.48,15.15,47.18,32.5,65.69
		c17.35,18.51,39.58,31.51,64.3,37.59c16.38,3.96,41.89,3.91,58.05-0.13c59.48-14.5,100.51-68.84,97.58-129.2
		C445.21,526.7,429.97,496.26,400.47,471.68z M414.79,620.19c-6.05,11.25-8.23,14.11-19.42,25.44
		c-11.41,11.69-25.72,20.52-42.51,26.21c-12.52,4.32-15.48,4.76-31.62,4.76c-20.84,0-30.73-2.21-48.09-10.75
		c-36.67-17.91-59.46-54.63-59.46-95.84c0-37.87,19.64-72.29,52.54-92.09l5.46-3.13V269.25L272.1,60.2l3.24-7.09
		c3.88-8.36,12.12-17.78,19.61-22.42c12.56-7.72,31.15-8.84,44.23-2.68l0,0c10.59,5,18.33,12.68,23.66,23.49l4.93,10l1.38,208.69
		l0.27,204.98l5.88,3.24c12.17,6.81,32.78,28.16,39.39,40.81c9.34,18.12,11.9,29.03,11.9,50.8
		C426.58,591.82,423.83,603.54,414.79,620.19z"/>
	<rect x="310.08" y="164.3" width="20.67" height="414.84"/>
	<rect x="441.93" y="76.4" width="64.61" height="19.29"/>
	<rect x="441.93" y="149.19" width="64.61" height="20.67"/>
	<rect x="441.93" y="221.98" width="64.61" height="20.66"/>
	<rect x="441.93" y="296.15" width="64.61" height="19.29"/>
	<rect x="441.93" y="368.94" width="64.61" height="20.67"/>
</g>
</svg>
