<?xml version="1.0" encoding="utf-8"?>
<!-- Generator: Adobe Illustrator 23.1.1, SVG Export Plug-In . SVG Version: 6.00 Build 0)  -->
<svg version="1.1" id="Layer_1" xmlns="http://www.w3.org/2000/svg" xmlns:xlink="http://www.w3.org/1999/xlink" x="0px" y="0px"
	 viewBox="0 0 700 700" style="enable-background:new 0 0 700 700;" xml:space="preserve">
<g>
	<path d="M598.79,460.17c-2.93,18.36-5.69,36.23-8.66,54.06c-3.71,22.31-6.22,44.94-11.65,66.83
		c-12.77,51.47-56.36,84.43-109.33,84.43c-79.4,0.01-158.81-0.69-238.2,0.23c-60.42,0.7-104.53-44.06-112.92-97.32
		c-5.34-33.88-10.69-67.77-16.07-101.64c-0.33-2.08-0.99-4.11-0.99-4.11c-13.35-3.43-26.16-4.94-37.4-9.97
		c-27.87-12.48-41.47-35.66-45.28-65.51c-4.19-32.85-9.37-65.57-13.57-98.42c-4.87-38.11,15.57-70.76,51.88-83.98
		c1.1-0.4,2.13-0.98,3.65-1.69c-0.97-6.81-1.48-13.7-2.98-20.36c-5.13-22.82,1.07-42.89,14.33-61.29
		c14.7-20.4,34.59-34.65,56.43-46.34c39.94-21.38,83-33.3,127.49-40.05c86.19-13.08,171.56-9.79,255.47,15.31
		c35.62,10.65,69.37,25.41,97.78,50.19c18.44,16.08,33,35.11,34.76,60.35c0.88,12.6-2.29,25.48-3.64,38.23
		c-0.12,1.16-0.35,2.3-0.53,3.44c0.71,0.6,1.18,1.28,1.79,1.46c35.66,10.76,60.06,47.77,53.63,87.78
		c-5.52,34.34-9.34,68.95-14.88,103.28c-6.18,38.32-37.49,64.44-76.43,65.07C602.28,460.19,601.1,460.17,598.79,460.17z
		 M139.68,91.6c-19.89,10.88-37.78,22.63-50.93,40.19c-9.06,12.11-15.07,25.36-12.62,41.14c5.82,37.42,11.45,74.87,17.36,112.28
		c14.8,93.63,29.58,187.26,44.62,280.86c6.98,43.47,42.53,80.14,93.53,79.56c78.9-0.91,157.83-0.82,236.74-0.03
		c51.85,0.52,84.95-36.92,91.83-74.42c6.79-37,12.41-74.22,18.31-111.39c14.3-90.09,28.22-180.25,42.88-270.28
		c3.3-20.28,3.68-39.17-9.49-56.45c-13.75-18.05-31.78-30.45-52.02-41.41c-18.75,36.81-37.27,73.18-55.96,109.88
		c2.9,1.77,5.54,2.98,7.7,4.76c9.88,8.15,20.62,15.56,29.19,24.93c11.7,12.79,17.62,28.58,13.79,46.21
		c-11.33,52.22-38.32,93.33-86.4,118.89c-4.57,2.43-6.95,5.22-6.74,10.49c0.27,6.43,0.32,12.89-0.04,19.31
		c-0.3,5.32,1.9,8.59,5.86,12.07c6.55,5.76,13.36,11.81,17.95,19.08c12.27,19.45,6.82,41.47-13.18,52.8
		c-8.95,5.07-19.1,9.18-29.18,10.91c-60.41,10.4-121.03,9.82-181.36-0.43c-13.01-2.21-26.15-7.74-37.52-14.58
		c-16.62-10-20.41-28.38-11.42-45.69c2.81-5.41,6.15-11.74,11.03-14.64c14.24-8.46,16.18-20.93,14.46-35.37
		c-0.06-0.47-0.06-0.96,0-1.43c0.94-6.61-1.82-10.5-7.97-13.32c-6.66-3.05-13.12-6.87-18.99-11.27
		c-27.86-20.89-46.66-48.54-59.26-80.72c-14.85-37.95-9.95-64.49,28.91-92.66c3.08-2.23,6.46-4.04,9.68-6.08
		c1.74-1.1,3.45-2.27,5.46-3.59C177.1,164.54,158.55,128.37,139.68,91.6z M361.3,508.23c13.79-0.73,34.28-1.36,54.69-3.03
		c15.42-1.26,30.85-3.6,44.65-11.4c11.67-6.59,14.17-17.48,6.3-28.31c-3.15-4.35-7.3-8.26-11.71-11.35
		c-9.89-6.92-14.43-16.01-13.86-28.01c0.34-7.14,0.02-14.3,0.11-21.45c0.14-11.53,5.26-20.12,15.66-25.24
		c41.18-20.26,63.57-55.26,76.45-97.62c4.62-15.19,0.96-28.68-9.82-40.29c-14.48-15.61-32.67-25.51-52.37-32.37
		c-76.23-26.54-153.18-26.83-230.37-4.48c-22.81,6.61-44.14,16.64-61.72,33.21c-11.85,11.17-18.51,24.58-13.94,41.08
		c11.9,42.97,34.1,78.45,75.17,99.33c11.92,6.06,17.95,15.04,17.62,28.42c-0.17,6.91-0.21,13.83-0.02,20.74
		c0.32,11.18-4.31,19.45-13.17,26.24c-5.37,4.11-10.49,9.17-14.05,14.85c-5.57,8.88-3.22,17.47,5.99,22.45
		c7.03,3.8,14.74,6.75,22.5,8.71C290.66,507.6,322.7,507.13,361.3,508.23z M541.4,83.59c-75.65-46.64-310.2-46.55-383.15,0.1
		c18.62,36.28,37.26,72.61,55.68,108.5c91.29-31.31,181.55-31.44,272.1,0.16C504.54,155.98,522.98,119.76,541.4,83.59z M97.5,439.24
		C86.17,367.3,74.91,295.79,63.64,224.23c-24.5,5.99-42.77,33.74-39.44,59.5c2.05,15.83,4.3,31.64,6.59,47.44
		c3.19,21.92,5.5,44.03,10.02,65.68C46.28,423.09,72.6,442.23,97.5,439.24z M602.04,439.43c28.2,2.22,53.98-19.61,58.2-48.38
		c3.84-26.17,7.87-52.31,11.11-78.55c1.83-14.8,4.07-29.93,2.87-44.64c-1.7-20.73-20.27-40.09-38.35-43.34
		C624.62,296.02,613.37,367.5,602.04,439.43z"/>
	<path d="M490.47,95.12c-0.64,1.51-1.58,4.18-2.87,6.68c-8.74,16.92-17.54,33.81-26.36,50.69c-4.47,8.55-6.97,9.89-16.58,7.98
		c-42.76-8.52-85.89-12.16-129.38-8.37c-20.13,1.75-40.15,4.95-60.13,8.08c-12.61,1.98-14.37,1.54-19.94-10.06
		c-7.83-16.31-15.7-32.6-23.5-48.92c-4.85-10.16-2.39-15.37,8.66-18.27c50.03-13.14,101.07-15.66,152.45-14.29
		c36.52,0.98,72.73,4.43,108.04,14.52C486.43,84.76,490.38,87.45,490.47,95.12z M233.34,99.8c5.88,12.24,11.35,22.82,16.03,33.74
		c2.23,5.19,4.95,6.35,10.28,5.32c31.93-6.16,64.24-9.55,96.68-7.98c27.06,1.31,54,5.16,81.01,7.74c2.83,0.27,7.53,0.63,8.34-0.79
		c7.06-12.26,13.42-24.93,20.52-38.49C387.96,83.92,311.24,84.43,233.34,99.8z"/>
</g>
</svg>
