<?xml version="1.0" encoding="utf-8"?>
<!-- Generator: Adobe Illustrator 23.1.1, SVG Export Plug-In . SVG Version: 6.00 Build 0)  -->
<svg version="1.1" id="Layer_1" xmlns="http://www.w3.org/2000/svg" xmlns:xlink="http://www.w3.org/1999/xlink" x="0px" y="0px"
	 viewBox="0 0 700 700" style="enable-background:new 0 0 700 700;" xml:space="preserve">
<g>
	<path d="M339.97,261.7c31.91,2.55,61.87-5.46,86.64-23.16c24.76-17.69,41.88-43.3,49.52-74.07c4.35-17.55,4.29-45.16-0.13-61.57
		c-3.25-12.43-11.91-31.66-18.91-42.03c-12.21-17.66-33.86-35.49-53.85-44.33c-20.67-9.2-51.09-12.96-72.35-8.94
		c-21.18,4.01-42.74,13.79-59.15,26.83c-19.91,15.87-37.09,43.01-43.77,69.15c-3.97,15.46-4.41,44.88-0.88,59.41
		C240.55,217.7,285.91,257.37,339.97,261.7z M462.5,109.65l1.39,14.67c4.15,44.16-21.15,88.89-61.53,108.78
		c-17.66,8.75-30.93,11.86-50.68,11.86c-29.68,0-54.93-10.08-77.21-30.8c-13.13-12.22-26.22-33.56-30.43-49.64
		c-0.93-3.86-1.93-7.69-2.3-8.81l-0.05-0.17c-0.63-2.21,0.17-3.8,0.71-4.54c2.02-2.8,5.18-3.16,22.03-3.89
		c37.48-1.58,66.24-14.62,90.51-41.04c3.76-4.07,7-7.62,8.59-9.37v-0.6l1.8-1.21c1.85-1.24,3.22-0.69,6.21,0.51
		c1.5,0.6,3.58,1.45,5.98,2.44l3.52,1.44c20.08,8.44,30.4,10.38,55.19,10.38H462.5z M240.89,123.09c0-3.6,1.6-11.78,3.1-17.65
		c10.34-40.45,44.97-73.41,86.16-82.01c15.44-3.24,39.58-1.89,54.96,3.08c7.02,2.24,16.84,6.51,22.35,9.72
		c13.33,7.75,33.43,27.86,40.57,40.6L456.45,92l-15.48,1.25c-22.96,1.85-47.74-3.64-66.29-14.67c-6.71-4.03-9.73-5.13-11.95-4.39
		c-2.89,0.96-6.57,5.47-11.96,12.94c-12.65,17.74-34.26,32.75-57.8,40.13c-7.59,2.48-16.45,3.74-29.6,4.2l-22.47,1.1V123.09z"/>
	<path d="M646.31,431.05c-7.69-15.96-17.09-27.97-41.93-53.55c-49.45-50.92-99.91-81.12-149.99-89.76
		c-11.7-2.05-26.25-2.36-103.75-2.21c-69.38,0.15-92.78,0.63-100.16,2.05l-0.01,0c-38.8,7.16-71.27,22.41-108.57,50.98
		c-23.42,17.9-59.09,53.56-73.39,73.39c-15.3,21.34-22.74,44.57-22.74,71.03c0,23.37,5.1,41.44,16.54,58.59
		c6.75,10.06,125.38,142.73,130.86,146.34c2.83,1.49,14.17,1.47,23.72,1.28c20.36-0.44,20.36-0.44,22.88-3.84l2.47-3.38
		l-12.72-116.5c-6.3-57.23-13-116.23-14.91-119.84c-2.03-3.29-6.8-4.85-11.11-3.68c-1.92,0.8-15.26,13.01-32.01,29.92
		c-24.92,24.92-28.98,29.56-28.98,33.11c0,3.75,7.18,17.06,12.59,26.75c8.2,14.48,13.43,23.2,14.18,24.05
		c0.66,0.66,3.02,1.78,5.64,2.4c3.03,0.5,4.51,0.04,7.46-2.37c5.48-4.85,5.52-7.92-6.6-29.28l-11.12-19.27l15.82-15.98
		c14.89-15.16,16.08-15.17,16.65-15.17l0.63,0l0.62,0.62c0.32,0.42,0.59,0.79,11.01,93.3c4.79,42.57,10.39,93.06,10.39,95.29
		c0,1.04-0.46,1.7-0.85,2.08c-1.28,1.22-3.8,1.32-8.62,1.08l-8.51-0.48l-60.3-67.18c-29.22-32.65-61.71-69.88-64.38-74.56
		c-7.43-13.03-10.45-25.3-10.45-42.36c0-18.12,2.51-29.31,9.97-44.36c12.27-25.29,56.71-70.69,93.24-95.24
		c20.64-13.76,37.71-22.43,55.36-28.12c23.06-7.69,24.95-8.32,27.15-2.51c2.71,7.37,62.76,138.32,65.56,143l3.63,5.81l-8.38,7.54
		c-4.09,3.65-9.24,9.71-11.49,13.09c-4.26,6.95-5,7.36-13.15,7.36c-8.45,0-13.96,1.79-18.43,5.98c-8.32,7.76-10.04,21.14-3.93,30.45
		c4.57,6.92,10.22,9.74,21.6,10.76c7.73,0.59,10.6,1.35,12.35,4.67c6.08,11.72,19.88,22.83,34.35,27.65
		c11.7,3.85,30.32,2.55,41.5-2.9c9.94-4.9,20.8-14.59,25.81-23.04c9.62-16.61,10.62-38.73,2.47-55.01
		c-4.42-8.99-12.33-18.68-18.81-23.05l-4.97-3.31l4.05-4.87c3.2-4.4,65.42-139.87,66.96-145.83c0.04-0.76,0.39-1.42,1-1.86
		c1.81-1.3,5.65-0.87,23.59,5.17c36.47,11.96,74.91,37.83,111.15,74.82c31.34,31.79,42.48,48.21,47.65,70.26
		c4.94,20.52,1.6,50.57-7.3,65.61c-2.23,3.67-31.43,37.52-63.77,73.94l-60.3,68.09l-9.25,0.48c-5.66,0.27-8.09-0.04-9.29-1.18
		c-0.51-0.49-0.78-1.12-0.78-1.83c0-5.13,19.6-179.9,20.56-183.33c0.37-1.42,0.76-2.92,2.23-3.32c2.19-0.59,4.19,1.36,15.92,13.21
		l15.52,15.52l-11.12,19.58c-6.22,11-10.22,19.63-10.35,20.98c0,1.25,1.39,4.02,3.09,6.14c1.79,2.04,4.39,3.33,7.09,3.5
		c2.43,0.14,4.73-0.63,6.46-2.19c5.26-4.78,27.75-47.47,27.88-51.18c0-3.04-7.06-10.58-29.72-33.25
		c-27.77-27.77-30.04-29.72-34.59-29.72c-6.12,0-9.46,3.18-10.53,10.01c-1.84,12.22-24.65,223.46-24.65,228.3
		c0,7.13,1.01,9.01,25.55,9.48c13.68,0.3,21.79-0.05,24.12-1.04c2.62-1.76,29.88-31.24,66.55-72.6
		c53.57-60.41,63.89-72.77,69.03-82.61C662.53,503.35,662.17,463.35,646.31,431.05z M288.08,515.7c-2.52,0-4.49-1.32-4.49-3.01
		c0-1.77,1.85-3.01,4.49-3.01s4.49,1.24,4.49,3.01C292.57,514.38,290.6,515.7,288.08,515.7z M387.62,524.25
		c-2.55,8.92-12.51,20.43-20.91,24.16c-4.06,1.88-9.23,2.82-14.48,2.82c-5.55,0-11.19-1.04-15.74-3.12
		c-14.99-6.79-23.78-20.79-22.92-36.54c0.88-16.1,11.43-29.37,27.54-34.65c5.9-1.97,20.47-0.66,26,2.33
		C384.12,488,392.55,506.5,387.62,524.25z M365.53,448.39c-3.64,3.64-6.16,4.16-13.56,4.16c-7.39,0-9.91-0.52-13.56-4.16
		c-3.66-3.66-65.23-135.39-65.23-139.56c0-1.74,1.3-1.78,7.56-2.02c3.86-0.14,9.46-0.27,16.64-0.37c13.96-0.2,33.35-0.32,54.59-0.32
		c20.14,0,39.53,0.13,54.59,0.37c24.19,0.39,24.19,0.39,24.19,2.34C430.76,313,369.19,444.73,365.53,448.39z"/>
	<path d="M351.98,485.98c-3.98,0-5.46,0.65-7.58,3.29l-0.01,0.01c-2.34,2.85-2.78,5.32-2.78,15.53c0,11.41,0.37,12.2,3.25,14.95
		c1.93,2.05,4.64,3.29,7.12,3.29c2.49,0,5.19-1.24,7.06-3.23c2.94-2.81,3.3-3.6,3.3-15.01C362.34,488.7,359.15,485.98,351.98,485.98
		z"/>
</g>
</svg>
