<?xml version="1.0" encoding="utf-8"?>
<!-- Generator: Adobe Illustrator 23.1.1, SVG Export Plug-In . SVG Version: 6.00 Build 0)  -->
<svg version="1.1" id="Layer_1" xmlns="http://www.w3.org/2000/svg" xmlns:xlink="http://www.w3.org/1999/xlink" x="0px" y="0px"
	 viewBox="0 0 700 700" style="enable-background:new 0 0 700 700;" xml:space="preserve">
<path d="M683.67,77.01c-1.73-1.48-2.36-4.32-2.36-6.29c-0.23-5.43-0.31-10.96-0.38-16.3c-0.04-2.69-0.08-5.39-0.13-8.11
	c-0.49-14.79-11.6-29.2-25.3-32.78c-7.15-1.83-15.06-1.99-22.55-1.99H192.47c-11.63,0.04-23.27,0.07-34.93,0.11
	c-34.34,0.09-69.86,0.19-104.82,0.58c-17.35,0.16-32.85,15.92-33.17,33.74c0,2.3-0.04,4.65-0.07,7.02
	c-0.07,4.66-0.15,9.49,0.07,14.22c0.19,4.19-1.14,7.56-4.18,10.61C7.83,85.35,4.17,93.38,4.17,102.36s-0.04,17.96-0.09,26.95
	C4.04,138.29,4,147.26,4,156.24c0.05,16.12,0.07,32.22,0.09,48.33c0.05,39.57,0.1,80.49,0.59,120.8
	c0.16,17.06,8.98,30.45,25.52,38.73c2.27,1.22,5.17,3.5,6.7,6.33c8.31,15.35,16.72,31.03,24.86,46.18
	c13.43,25.03,27.33,50.92,41.26,76.26c13.22,24.02,26.58,47.22,44.65,66.99c14.92,16.34,31.9,29.13,50.46,38.02
	c14.97,7.12,31.63,12.06,52.42,15.56c2.08,0.26,4.13,1.99,5.03,3.57c1.59,2.72,3.16,5.48,4.74,8.24c3.09,5.41,6.29,11,9.58,16.33
	c9.79,15.84,20.9,27.19,33.96,34.7c17.65,10.05,36.81,13.83,58.57,11.54c23.97-2.63,43.31-13.35,59.11-32.78
	c8.41-10.23,14.83-21.93,21.04-33.25c0.78-1.41,1.55-2.83,2.33-4.24c0.99-1.74,3.2-3.44,5.05-3.9c3.5-0.79,6.99-1.44,10.37-2.08
	c3.34-0.63,6.8-1.28,10.18-2.04c39.49-9.55,71.98-30.98,96.55-63.71c18.9-25.06,32.91-53.62,46.46-81.24l1.01-2.07
	c7.43-15.05,14.9-30.39,22.12-45.23c7.23-14.84,14.7-30.19,22.13-45.25c1.2-2.6,3.96-5.21,6.84-6.45
	c20.45-8.29,30.37-23.27,30.37-45.84V106.98C696,94.5,691.97,84.7,683.67,77.01z M39,64.11c0.1-1.81,0.14-3.69,0.18-5.51
	c0.09-4.22,0.19-8.57,1.06-12.7c1.31-7.13,6.49-11.09,14.57-11.09h586.97c8.58,0,15.56,6.98,15.56,15.56v15.9H38.88L39,64.11z
	 M233.02,585.14c-2.1-0.75-4.19-1.47-6.28-2.19c-4.5-1.54-9.15-3.14-13.66-5.04c-24.09-10.56-43.95-27.35-60.74-51.34
	c-18.77-26.65-34.01-54.59-50.58-85.73c-5.72-10.76-11.44-21.56-17.17-32.37c-5.74-10.83-11.47-21.66-17.21-32.45
	c-0.54-1.07-1.06-2.13-1.94-4.05l-1.36-3l3.29,0.1c1.88,0.06,3.74,0.11,5.58,0.17c8.68,0.26,16.88,0.5,24.98,1.21
	c11.65,1,24.08,2.21,36.09,4.3c25.09,4.3,40.55,19.62,45.95,45.55c5.02,23.95,10.82,49.42,17.26,75.7
	c6.67,27.36,19.53,51.75,32.45,74.03c2.5,4.23,4.34,8.07,5.96,12.46l1.53,4.12L233.02,585.14z M630.62,373.08
	c-2.18,4.36-4.27,8.59-6.32,12.73c-1.97,3.98-3.89,7.87-5.82,11.73c-5.34,10.91-10.71,22.07-15.91,32.86
	c-9.78,20.3-19.89,41.29-30.28,61.73c-12.2,24.2-25.93,43.24-41.99,58.21c-17.94,16.73-39.11,28.39-62.92,34.63
	c-0.25,0.1-0.53,0.17-0.83,0.17c-0.3,0-0.63-0.06-0.96-0.22h-3.12l1.71-3.05c2.16-3.85,4.34-7.67,6.51-11.47
	c4.1-7.18,8.35-14.6,12.28-22.01c10.92-20.5,19.17-44.41,25.98-75.25c4.46-19.54,8.8-39.51,13-58.83
	c4.6-20.62,17.95-33.69,39.67-38.84c15.7-3.71,31.38-4.62,48.79-5.36c3.9-0.12,7.8-0.08,11.93-0.04c2.1,0.02,4.25,0.04,6.45,0.04
	h3.31L630.62,373.08z M672.73,323.43c0,12.99-8.89,21.96-22.11,22.34c-2.98,0.06-5.95,0.11-8.93,0.17
	c-14.41,0.26-29.3,0.52-43.99,1.38c-18.4,0.99-33.29,3.21-46.87,6.98c-26.74,7.5-44.14,25.36-51.72,53.09
	c-3.41,12.21-6.13,24.87-8.77,37.12c-1.21,5.63-2.47,11.45-3.77,17.15c-0.45,2-0.9,4-1.36,6c-4.63,20.56-9.41,41.83-18.93,61.18
	c-5.07,10.37-10.84,20.58-16.41,30.45c-2.78,4.92-5.65,10-8.39,15.03c-3.99,7.16-7.97,14.45-11.82,21.5
	c-6.62,12.12-13.46,24.66-20.54,36.85c-9.87,17.07-22.1,27.29-37.38,31.23c-8.4,2.19-16.32,3.28-23.79,3.28
	c-14.26,0-26.91-3.99-38.27-12.02c-8.09-5.65-14.69-13.38-21.41-25.08l-3.83-6.81c-17.15-30.52-34.89-62.08-51.42-93.53
	c-11.03-21.16-16.14-45.1-20.66-66.23l-0.59-2.67c-3.88-17.45-7.88-35.49-12.46-52.97c-8.06-30.45-28.3-48.93-60.15-54.92
	c-15.08-2.95-30.68-4.32-45.36-5.47c-10.68-0.84-21.49-1.1-31.95-1.34c-4.49-0.11-9.12-0.22-13.71-0.37
	c-12.21-0.38-19.96-5.91-22.39-16.01c-0.92-3.48-0.92-7.2-0.92-10.8c0-34.16,0-69.49,0.17-104.24c0-33.57,0-68.29,0.34-102.69
	c0-2.38,0-4.87,0.18-7.35c0.39-8.89,5.12-13.42,14.08-13.42h617.99c10.6,0,15.12,4.88,15.12,16.32V323.43z"/>
</svg>
