<?xml version="1.0" encoding="utf-8"?>
<!-- Generator: Adobe Illustrator 23.1.1, SVG Export Plug-In . SVG Version: 6.00 Build 0)  -->
<svg version="1.1" id="Layer_1" xmlns="http://www.w3.org/2000/svg" xmlns:xlink="http://www.w3.org/1999/xlink" x="0px" y="0px"
	 viewBox="0 0 700 700" style="enable-background:new 0 0 700 700;" xml:space="preserve">
<g>
	<path d="M438.39,605.62c0.4,9.28-0.27,18.15,1.33,26.63c2.52,13.65,11.79,23.19,22.66,31.27c4.51,3.31,9.01,6.23,13.52,9.54
		c1.33,0.93,2.65,2.12,3.58,3.45c1.99,3.18,1.99,6.63-0.13,9.81c-2.25,3.31-5.83,3.45-9.41,2.78c-7.02-1.46-12.46-5.83-18.02-9.94
		c-15.37-11.53-26.24-26.1-30.48-45.19c-1.72-7.95-1.06-15.77-0.13-23.59c0.13-1.59,0.4-3.05,0.53-4.9
		c-13.25-3.18-22.13-11.26-27.16-23.06c-4.51,5.17-8.35,11-13.65,14.97c-5.17,3.84-11.79,5.83-18.42,8.88c0,2.12-0.4,5.3,0,8.35
		c2.92,20.67-4.64,36.97-21.2,49.03c-7.16,5.17-15.24,8.88-22.92,13.12c-1.06,0.66-2.52,0.8-3.71,1.19
		c-3.98,1.06-7.69,1.06-10.47-2.52c-2.39-3.05-2.52-8.35,0.27-11.79c1.19-1.59,3.45-2.52,5.3-3.18
		c12.06-4.37,22.13-11.26,29.68-21.73c3.98-5.57,5.7-12.06,5.7-18.95c0-4.51,0-9.14,0-13.78c-0.93-0.13-1.72-0.4-2.39-0.4
		c-13.78,0-27.69,0.53-41.48-0.27c-12.19-0.66-24.38-1.99-36.31-4.51c-15.64-3.31-22.79-13.12-22.92-29.81
		c0-3.45-0.27-6.23-3.58-8.48c-4.51-3.05-6.36-7.82-6.36-13.38c0-17.09-0.13-34.19-0.27-51.28c0-13.65-0.27-27.16,0.13-40.81
		c0.13-6.76,1.19-13.52,2.39-20.27c0.93-5.17-0.13-8.88-4.11-12.32c-5.57-4.9-10.6-10.34-15.64-15.77
		c-20.8-22.26-39.75-45.85-55.65-71.82c-16.56-26.9-28.49-55.65-34.98-86.53c-6.63-31.8-5.17-62.94,9.28-92.49
		c7.29-14.97,17.76-27.3,33.13-34.06c5.43-2.39,7.42-5.17,8.08-11.26c4.11-33.53,21.07-58.7,50.35-75.53
		c17.09-9.81,35.65-15.37,54.73-19.48c31.67-6.89,63.87-7.95,95.94-6.23c37.77,1.86,75.27,6.49,111.97,16.43
		c12.59,3.45,24.78,7.82,36.18,14.44c15.11,8.88,27.03,20.94,35.91,36.04c10.87,18.42,16.7,38.43,18.68,59.63
		c2.12,22.13,1.59,44.13,0,66.26c-1.59,21.33-3.31,42.8-5.96,64c-5.3,42.4-16.17,83.35-33.13,122.57
		c-4.11,9.54-9.14,18.68-13.91,27.96c-2.65,5.17-2.65,10.2,0.4,15.37c3.98,6.76,5.7,14.05,5.7,22c-0.13,31.27,0,62.54,0,93.82
		c0,3.84-0.53,7.69-3.71,10.07c-5.7,4.24-6.63,9.67-6.49,16.3c0.27,9.81-4.11,17.49-13.12,21.73c-4.64,2.25-9.81,3.71-14.84,4.77
		c-16.56,3.58-33.39,3.18-50.22,3.05C441.83,605.62,440.64,605.62,438.39,605.62z M234.12,192.85c-0.8,10.6,0.53,21.07,3.84,31.27
		c0.4,1.33,1.72,2.92,3.05,3.58c24.78,12.85,41.61,32.73,52.08,58.17c10.34,25.04,10.73,50.88,5.17,76.86
		c-5.3,24.65-17.09,45.45-39.09,59.1c-4.37,2.65-5.04,5.7-3.98,10.2c0.66,0.13,1.33,0.27,1.99,0.27
		c22.13,0.13,44.26,0.27,66.39,0.53c3.31,0,3.58-1.86,3.58-4.51c-0.13-11.13-0.27-22.39-0.13-33.53c0.13-31.01,0.4-62.01,0.66-93.02
		c0-4.24,0-8.75,0.8-12.85c2.12-11.93,7.55-22.13,16.56-30.21c18.82-16.96,41.34-18.95,65.19-15.64
		c14.71,1.99,26.1,9.54,35.51,20.67c8.22,9.67,13.25,20.94,13.25,33.66c0.13,43.46,0,87.06,0,130.52c0,4.64,0,4.77,4.77,4.9
		c12.46,0.13,25.04,0.27,37.5,0.27c0.8,0,1.59-0.13,2.52-0.27c-0.13-0.66-0.27-1.19-0.4-1.59c-1.99-8.35-3.18-16.56,3.98-23.32
		c1.19-1.06,1.99-2.78,2.78-4.24c12.85-23.32,22.26-48.1,29.68-73.54c6.36-21.86,10.47-44.13,12.99-66.65
		c1.99-17.49,4.51-34.98,5.43-52.47c1.06-19.61,1.06-39.36,0.93-59.1c-0.13-15.5-3.18-30.61-8.61-45.19
		c-6.63-17.36-15.9-32.86-31.4-43.6c-14.18-9.81-30.34-15.24-47.04-18.55c-18.02-3.58-36.31-6.36-54.46-8.75
		c-14.71-1.99-29.55-3.71-44.39-4.24c-21.07-0.66-42.27-1.19-63.34,1.99c-14.71,2.25-29.55,4.64-43.99,8.08
		c-17.49,4.11-33.53,12.06-47.04,24.51c-13.91,12.85-21.47,29.15-24.65,47.57c-1.19,6.89-1.72,6.1,4.51,7.55
		c0.93-4.77,1.72-9.54,3.05-14.31c0.8-2.92,3.05-4.51,6.23-4.51c3.05-0.13,5.3,1.33,6.49,4.11c0.8,1.86,1.59,3.71,2.25,5.7
		c2.65,8.88,4.77,18.02,7.69,26.77c8.75,25.84,26.9,43.33,50.62,55.12c26.24,13.12,54.86,17.89,83.75,20.27
		c21.2,1.72,42.27,0.53,63.21-2.78c26.24-4.24,49.82-14.31,69.04-33.13c8.75-8.61,17.23-17.49,23.06-28.49
		c3.58-6.76,6.76-13.78,10.73-20.27c1.59-2.65,4.51-5.04,7.42-6.49c4.37-2.25,7.95,0.27,7.95,5.04c0,3.18-0.27,6.49-0.66,9.67
		c-0.4,3.18-0.93,6.23-1.46,9.41c0.4-0.27,0.66-0.53,1.06-0.66c1.46,1.46,3.71,2.78,4.24,4.64c1.99,6.49-1.06,12.32-7.42,14.58
		c-1.86,0.66-3.84,0.8-5.43,1.72c-2.12,1.06-4.24,2.25-5.83,3.84c-3.18,3.31-6.1,7.16-9.14,10.73
		c-17.36,19.74-37.77,34.85-63.21,42.67c-23.72,7.29-47.97,9.81-72.62,10.07c-18.55,0.27-36.84-1.72-55.12-4.64
		c-22.26-3.45-43.6-9.67-63.21-20.8C251.88,204.51,243.13,198.55,234.12,192.85z M251.35,256.06c1.33,5.83,2.52,10.73,3.45,15.77
		c0.8,3.98-1.06,5.43-4.9,4.24c-5.3-1.59-9.28-4.9-12.46-9.28c-17.89-24.51-25.18-52.08-23.19-82.16c0.53-9.14,0.27-18.29-3.31-26.9
		c-4.9-11.66-17.36-21.33-32.2-16.96c-11,3.18-18.42,11-24.12,20.41c-14.97,24.78-16.56,51.81-11.93,79.51
		c4.24,25.57,13.65,49.43,26.1,72.09c19.48,35.65,44.26,67.18,73.54,95.27c1.59,1.59,2.78,1.33,4.24,0.27
		c12.19-7.95,21.73-18.15,27.56-31.4c5.57-12.46,8.08-25.71,9.01-39.22c1.19-16.17-0.93-31.8-7.42-46.64
		C270.03,277.92,262.21,266.39,251.35,256.06z M328,549.96c0-1.86,0-3.05,0-4.24c-0.13-29.15-0.27-58.44-0.53-87.59
		c0-1.33-0.13-2.65-0.27-3.98c-0.27-2.65-1.46-3.84-4.37-3.71c-9.67,0.27-19.21,0.27-28.89,0.27c-11-0.13-21.86-0.13-32.73-0.53
		c-8.48-0.27-10.07-1.99-10.07,9.14c-0.13,29.02,0,57.91,0,86.93c0,1.19,0,2.39,0,4.37C276.72,551.29,302.17,550.1,328,549.96z
		 M261.88,569.04c-1.46,8.08,0.66,11.93,7.95,14.18c2.92,0.93,5.96,1.72,9.01,1.99c12.59,1.19,25.31,2.52,38.03,3.05
		c8.22,0.4,16.56-0.4,24.78-0.8c1.06,0,2.39-1.59,2.78-2.78c2.25-7.02,4.37-14.05,6.36-21.2c0.8-2.78,1.33-5.83,1.46-8.75
		c0.13-6.36,1.86-8.88,8.22-9.41c7.55-0.8,12.46-5.43,17.49-10.34c-4.9-6.1-9.67-11.93-17.76-13.52c-5.04-1.06-7.55-3.58-7.82-8.35
		c-0.4-7.55,1.59-11.93,6.76-12.99c7.02-1.46,11.4-6.63,17.76-9.94c-2.39-1.72-4.24-3.31-6.23-4.51c-4.11-2.39-8.08-4.9-12.32-6.89
		c-4.37-1.99-5.7-5.7-5.83-9.94c-0.13-3.98,0.27-7.69,4.24-10.34c6.49-4.37,12.59-9.14,19.61-14.18
		c-6.76-5.3-12.99-10.2-19.21-14.84c-2.92-2.12-4.77-6.76-3.84-10.87c0.93-3.98,2.92-5.7,7.55-6.36c0.93-0.13,1.99-0.4,2.65-0.93
		c4.24-2.92,8.35-5.96,12.85-9.14c-5.7-3.45-9.81-8.61-16.56-10.2c-4.51-1.06-7.29-6.36-7.42-12.72c0-5.43,1.86-7.16,6.76-9.81
		c5.96-3.18,11.53-7.29,17.76-11.4c-7.42-5.17-13.91-9.67-20.54-14.31c-3.58-2.52-4.11-6.36-3.84-10.34
		c0.27-3.71,1.59-6.76,5.3-8.61c6.49-3.31,12.59-7.02,19.74-11.13c-7.16-3.84-13.38-7.42-19.74-10.6
		c-3.84-1.86-6.23-6.76-5.04-11.53c1.06-4.77,3.84-7.02,8.88-6.23c2.92,0.4,5.83,1.99,8.48,3.45c4.77,2.52,9.41,5.43,14.84,8.61
		c0-12.32,0-23.72,0-35.38c-1.46-0.13-2.25-0.27-3.05-0.27c-17.36-1.06-32.46,13.12-35.91,24.91c-1.86,6.23-2.92,12.85-2.92,19.35
		c-0.13,28.75,0.4,57.51,0.53,86.13c0.13,51.55,0,103.09,0.13,154.77c0,2.12,0.53,4.24,1.19,6.23c2.92,8.48-1.46,14.84-10.34,14.97
		c-6.36,0.13-12.72,0.53-19.08,0.53c-16.3,0.13-32.73,0.13-49.03,0.13C264.93,568.78,263.34,568.91,261.88,569.04z M501.59,569.37
		c-3.45,0-6.76,0-9.94,0c-12.46,0-25.04,0.13-37.5,0c-11.26-0.13-15.5-5.57-13.12-15.24c1.33-5.17,2.25-10.6,2.25-15.77
		c0-38.16-0.53-76.19-0.53-114.36c0-40.15,0.4-80.3,0.66-120.45c0-12.19-3.71-22.79-12.59-31.4c-7.55-7.29-16.43-11-27.03-10.07
		c-1.33,0.13-3.45,1.33-3.45,2.12c-0.27,11.4-0.13,22.92-0.13,35.25c6.36-3.84,12.06-7.42,17.76-10.87
		c2.12-1.19,4.37-2.39,6.76-3.05c3.84-1.19,7.29,0.27,8.61,3.98c1.06,3.05,1.46,6.49,1.06,9.67c-0.27,1.72-2.52,4.24-4.24,4.51
		c-8.08,1.33-13.91,6.89-21.73,10.34c6.63,3.71,10.87,9.28,18.02,10.47c5.04,0.8,7.42,3.71,8.08,8.61c0.8,5.04-1.46,9.67-5.3,12.06
		c-6.89,4.24-13.52,8.61-20.54,12.99c5.3,5.83,11.53,9.67,18.68,11.93c3.84,1.19,5.43,3.71,5.83,7.29c0.27,2.25,0.27,4.64,0,6.89
		c-0.53,3.58-1.59,7.42-5.7,8.35c-6.89,1.46-11.13,6.89-17.49,10.2c6.36,4.24,11.13,9.41,18.29,10.6c3.84,0.53,5.43,3.05,5.7,6.36
		c0.4,4.11,0.66,8.22-3.45,11c-7.29,4.9-14.44,9.81-22.26,14.97c6.76,4.64,12.85,9.14,19.21,12.99c5.7,3.58,7.55,7.42,6.1,14.18
		c-0.8,3.45-2.25,6.23-5.83,7.02c-7.02,1.59-11.79,6.89-18.29,10.87c6.89,4.24,12.99,8.22,19.21,11.79c2.92,1.59,4.64,3.58,5.3,6.76
		c1.59,8.48-1.59,12.59-10.2,13.25c-0.53,0-1.33,0-1.72,0.27c-4.51,4.11-9.01,8.35-13.65,12.59c1.99,1.59,3.31,2.65,4.64,3.71
		c1.33,1.19,2.78,2.25,4.11,3.58c2.39,2.52,5.17,3.58,8.61,3.71c4.64,0,6.36,1.72,7.16,6.23c1.33,7.29,2.92,14.44,4.51,21.73
		c0.8,3.58,1.86,7.16,2.39,10.87c0.27,2.52,1.33,3.05,3.71,3.05c14.44,0.13,28.75,0,43.07-2.25
		C498.68,584.08,502.39,580.37,501.59,569.37z M512.19,549.1c0-1.99,0-3.18,0-4.37c0-29.28,0-58.7,0-87.99
		c0-5.7-0.53-6.36-6.36-6.36c-13.78,0-27.69,0.27-41.48,0.4c-4.9,0.13-4.9,0.27-4.9,5.04c-0.27,28.75-0.53,57.51-0.8,86.13
		c-0.13,7.55-0.27,7.55,7.42,7.55c11.4,0,22.79,0,34.32,0C504.11,549.76,507.95,549.36,512.19,549.1z M383.2,555.26
		c-14.05,7.29-20.8,17.76-19.08,29.15C376.31,581.63,380.94,573.15,383.2,555.26z M405.19,556.72
		c-0.93,13.65,6.76,26.77,16.03,28.09C422.29,575.14,415,562.29,405.19,556.72z M384.98,473.77c0-5.04,0-9.41,0-14.58
		c-4.37,2.65-8.35,5.04-12.85,7.82C376.77,469.53,380.74,471.52,384.98,473.77z M372.66,379.95c4.51,2.12,8.35,3.98,12.32,5.83
		c0-4.51,0-8.35,0-12.85C380.88,375.32,377.17,377.44,372.66,379.95z M384.98,518.56c0-4.77,0-8.88,0-13.38
		c-3.71,2.39-7.02,4.51-10.73,6.76C378.09,514.32,381.41,516.31,384.98,518.56z M400.89,461.71c0,4.24,0,7.95,0,12.19
		c3.84-2.25,7.29-4.24,11.13-6.49C408.31,465.42,404.73,463.57,400.89,461.71z M400.89,341c3.84-2.92,7.02-5.17,10.47-7.69
		c-3.84-1.46-7.02-2.65-10.47-3.98C400.89,333.18,400.89,336.49,400.89,341z M400.89,506.77c0,3.98,0,7.55,0,11.93
		c3.45-2.39,6.23-4.37,9.41-6.63C406.85,510.08,403.93,508.49,400.89,506.77z M411.62,379.82c-3.84-1.72-7.16-3.18-10.73-4.77
		c0,3.98,0,7.42,0,11.13C404.33,384.06,407.51,382.21,411.62,379.82z M384.98,339.93c0-3.84,0-7.02,0-10.34
		c-3.58,1.59-7.02,3.18-10.87,4.9C378.09,336.36,381.41,338.08,384.98,339.93z M385.45,428.32c0.27-3.84,0.4-7.16,0.66-10.87
		c-3.84,2.12-7.16,3.84-10.87,5.96C378.69,425.14,381.74,426.6,385.45,428.32z M400.89,418.38c0,2.92,0,5.43,0,8.88
		c3.31-1.59,6.1-2.92,9.28-4.37C406.58,421.16,403.67,419.71,400.89,418.38z"/>
</g>
<g>
	<path d="M439.81,609.73c0.4,9.42-0.27,18.45,1.35,27.06c2.56,13.87,11.98,23.56,23.02,31.78c4.58,3.37,9.16,6.33,13.73,9.69
		c1.35,0.94,2.69,2.15,3.64,3.5c2.02,3.23,2.02,6.73-0.13,9.96c-2.29,3.37-5.92,3.5-9.56,2.83c-7.14-1.48-12.66-5.92-18.31-10.1
		c-15.62-11.71-26.66-26.52-30.97-45.91c-1.75-8.08-1.08-16.02-0.13-23.97c0.13-1.62,0.4-3.1,0.54-4.98
		c-13.46-3.23-22.48-11.44-27.6-23.43c-4.58,5.25-8.48,11.18-13.87,15.21c-5.25,3.9-11.98,5.92-18.72,9.02c0,2.15-0.4,5.39,0,8.48
		c2.96,21-4.71,37.56-21.54,49.82c-7.27,5.25-15.48,9.02-23.29,13.33c-1.08,0.67-2.56,0.81-3.77,1.21
		c-4.04,1.08-7.81,1.08-10.64-2.56c-2.42-3.1-2.56-8.48,0.27-11.98c1.21-1.62,3.5-2.56,5.39-3.23
		c12.25-4.44,22.49-11.44,30.16-22.08c4.04-5.65,5.79-12.25,5.79-19.25c0-4.58,0-9.29,0-14c-0.94-0.13-1.75-0.4-2.42-0.4
		c-14,0-28.14,0.54-42.14-0.27c-12.39-0.67-24.77-2.02-36.89-4.58c-15.89-3.37-23.16-13.33-23.29-30.29c0-3.5-0.27-6.33-3.64-8.62
		c-4.58-3.1-6.46-7.94-6.46-13.6c0-17.37-0.13-34.74-0.27-52.11c0-13.87-0.27-27.6,0.13-41.47c0.13-6.87,1.21-13.73,2.42-20.6
		c0.94-5.25-0.13-9.02-4.17-12.52c-5.65-4.98-10.77-10.5-15.89-16.02c-21.14-22.62-40.39-46.59-56.55-72.98
		c-16.83-27.33-28.95-56.55-35.55-87.92c-6.73-32.31-5.25-63.95,9.42-93.98c7.41-15.21,18.04-27.74,33.66-34.6
		c5.52-2.42,7.54-5.25,8.21-11.44c4.17-34.06,21.41-59.65,51.16-76.75c17.37-9.96,36.22-15.62,55.61-19.79
		c32.18-7,64.9-8.08,97.48-6.33c38.37,1.88,76.48,6.6,113.77,16.7c12.79,3.5,25.18,7.94,36.76,14.68
		c15.35,9.02,27.47,21.27,36.49,36.62c11.04,18.72,16.96,39.05,18.98,60.59c2.15,22.49,1.62,44.84,0,67.32
		c-1.62,21.68-3.37,43.49-6.06,65.03c-5.39,43.09-16.43,84.69-33.66,124.54c-4.17,9.69-9.29,18.98-14.14,28.41
		c-2.69,5.25-2.69,10.37,0.4,15.62c4.04,6.87,5.79,14.27,5.79,22.35c-0.13,31.78,0,63.55,0,95.33c0,3.9-0.54,7.81-3.77,10.23
		c-5.79,4.31-6.73,9.83-6.6,16.56c0.27,9.96-4.17,17.77-13.33,22.08c-4.71,2.29-9.96,3.77-15.08,4.85
		c-16.83,3.64-33.93,3.23-51.03,3.1C443.31,609.73,442.1,609.73,439.81,609.73z M232.26,190.32c-0.81,10.77,0.54,21.41,3.9,31.78
		c0.4,1.35,1.75,2.96,3.1,3.64c25.18,13.06,42.28,33.26,52.91,59.11c10.5,25.45,10.91,51.7,5.25,78.09
		c-5.39,25.04-17.37,46.18-39.72,60.05c-4.44,2.69-5.12,5.79-4.04,10.37c0.67,0.13,1.35,0.27,2.02,0.27
		c22.49,0.13,44.97,0.27,67.46,0.54c3.37,0,3.64-1.88,3.64-4.58c-0.13-11.31-0.27-22.75-0.13-34.06c0.13-31.51,0.4-63.01,0.67-94.52
		c0-4.31,0-8.89,0.81-13.06c2.15-12.12,7.67-22.49,16.83-30.7c19.12-17.23,42.01-19.25,66.24-15.89c14.95,2.02,26.52,9.69,36.08,21
		c8.35,9.83,13.46,21.27,13.46,34.2c0.13,44.16,0,88.46,0,132.62c0,4.71,0,4.85,4.85,4.98c12.66,0.13,25.45,0.27,38.1,0.27
		c0.81,0,1.62-0.13,2.56-0.27c-0.13-0.67-0.27-1.21-0.4-1.62c-2.02-8.48-3.23-16.83,4.04-23.7c1.21-1.08,2.02-2.83,2.83-4.31
		c13.06-23.7,22.62-48.87,30.16-74.73c6.46-22.22,10.64-44.84,13.19-67.72c2.02-17.77,4.58-35.55,5.52-53.32
		c1.08-19.93,1.08-39.99,0.94-60.05c-0.13-15.75-3.23-31.1-8.75-45.91c-6.73-17.64-16.16-33.39-31.91-44.3
		c-14.41-9.96-30.83-15.48-47.8-18.85c-18.31-3.64-36.89-6.46-55.34-8.89c-14.95-2.02-30.02-3.77-45.1-4.31
		c-21.41-0.67-42.95-1.21-64.36,2.02c-14.95,2.29-30.02,4.71-44.7,8.21c-17.77,4.17-34.06,12.25-47.8,24.91
		c-14.14,13.06-21.81,29.62-25.04,48.34c-1.21,7-1.75,6.19,4.58,7.67c0.94-4.85,1.75-9.69,3.1-14.54c0.81-2.96,3.1-4.58,6.33-4.58
		c3.1-0.13,5.39,1.35,6.6,4.17c0.81,1.88,1.62,3.77,2.29,5.79c2.69,9.02,4.85,18.31,7.81,27.2c8.89,26.25,27.33,44.03,51.43,56.01
		c26.66,13.33,55.74,18.18,85.09,20.6c21.54,1.75,42.95,0.54,64.22-2.83c26.66-4.31,50.62-14.54,70.15-33.66
		c8.89-8.75,17.5-17.77,23.43-28.95c3.64-6.87,6.87-14,10.91-20.6c1.62-2.69,4.58-5.12,7.54-6.6c4.44-2.29,8.08,0.27,8.08,5.12
		c0,3.23-0.27,6.6-0.67,9.83c-0.4,3.23-0.94,6.33-1.48,9.56c0.4-0.27,0.67-0.54,1.08-0.67c1.48,1.48,3.77,2.83,4.31,4.71
		c2.02,6.6-1.08,12.52-7.54,14.81c-1.88,0.67-3.9,0.81-5.52,1.75c-2.15,1.08-4.31,2.29-5.92,3.9c-3.23,3.37-6.19,7.27-9.29,10.91
		c-17.64,20.06-38.37,35.41-64.22,43.35c-24.1,7.41-48.74,9.96-73.78,10.23c-18.85,0.27-37.43-1.75-56.01-4.71
		c-22.62-3.5-44.3-9.83-64.22-21.14C250.3,202.17,241.41,196.11,232.26,190.32z M249.76,254.55c1.35,5.92,2.56,10.91,3.5,16.02
		c0.81,4.04-1.08,5.52-4.98,4.31c-5.39-1.62-9.42-4.98-12.66-9.42c-18.18-24.91-25.58-52.91-23.56-83.48
		c0.54-9.29,0.27-18.58-3.37-27.33c-4.98-11.85-17.64-21.68-32.72-17.23c-11.18,3.23-18.72,11.18-24.5,20.73
		c-15.21,25.18-16.83,52.64-12.12,80.78c4.31,25.99,13.87,50.22,26.52,73.24c19.79,36.22,44.97,68.26,74.73,96.81
		c1.62,1.62,2.83,1.35,4.31,0.27c12.39-8.08,22.08-18.45,28.01-31.91c5.65-12.66,8.21-26.12,9.16-39.85
		c1.21-16.43-0.94-32.31-7.54-47.39C268.75,276.76,260.8,265.05,249.76,254.55z M327.65,553.18c0-1.88,0-3.1,0-4.31
		c-0.13-29.62-0.27-59.38-0.54-89c0-1.35-0.13-2.69-0.27-4.04c-0.27-2.69-1.48-3.9-4.44-3.77c-9.83,0.27-19.52,0.27-29.35,0.27
		c-11.18-0.13-22.22-0.13-33.26-0.54c-8.62-0.27-10.23-2.02-10.23,9.29c-0.13,29.49,0,58.84,0,88.32c0,1.21,0,2.42,0,4.44
		C275.55,554.53,301.4,553.31,327.65,553.18z M260.47,572.57c-1.48,8.21,0.67,12.12,8.08,14.41c2.96,0.94,6.06,1.75,9.16,2.02
		c12.79,1.21,25.72,2.56,38.64,3.1c8.35,0.4,16.83-0.4,25.18-0.81c1.08,0,2.42-1.62,2.83-2.83c2.29-7.14,4.44-14.27,6.46-21.54
		c0.81-2.83,1.35-5.92,1.48-8.89c0.13-6.46,1.88-9.02,8.35-9.56c7.67-0.81,12.66-5.52,17.77-10.5c-4.98-6.19-9.83-12.12-18.04-13.73
		c-5.12-1.08-7.67-3.64-7.94-8.48c-0.4-7.67,1.62-12.12,6.87-13.19c7.14-1.48,11.58-6.73,18.04-10.1c-2.42-1.75-4.31-3.37-6.33-4.58
		c-4.17-2.42-8.21-4.98-12.52-7c-4.44-2.02-5.79-5.79-5.92-10.1c-0.13-4.04,0.27-7.81,4.31-10.5c6.6-4.44,12.79-9.29,19.93-14.41
		c-6.87-5.39-13.19-10.37-19.52-15.08c-2.96-2.15-4.85-6.87-3.9-11.04c0.94-4.04,2.96-5.79,7.67-6.46c0.94-0.13,2.02-0.4,2.69-0.94
		c4.31-2.96,8.48-6.06,13.06-9.29c-5.79-3.5-9.96-8.75-16.83-10.37c-4.58-1.08-7.41-6.46-7.54-12.93c0-5.52,1.88-7.27,6.87-9.96
		c6.06-3.23,11.71-7.41,18.04-11.58c-7.54-5.25-14.14-9.83-20.87-14.54c-3.64-2.56-4.17-6.46-3.9-10.5
		c0.27-3.77,1.62-6.87,5.39-8.75c6.6-3.37,12.79-7.14,20.06-11.31c-7.27-3.9-13.6-7.54-20.06-10.77c-3.9-1.88-6.33-6.87-5.12-11.71
		c1.08-4.85,3.9-7.14,9.02-6.33c2.96,0.4,5.92,2.02,8.62,3.5c4.85,2.56,9.56,5.52,15.08,8.75c0-12.52,0-24.1,0-35.95
		c-1.48-0.13-2.29-0.27-3.1-0.27c-17.64-1.08-32.99,13.33-36.49,25.31c-1.88,6.33-2.96,13.06-2.96,19.66
		c-0.13,29.22,0.4,58.43,0.54,87.52c0.13,52.38,0,104.75,0.13,157.26c0,2.15,0.54,4.31,1.21,6.33c2.96,8.62-1.48,15.08-10.5,15.21
		c-6.46,0.13-12.93,0.54-19.39,0.54c-16.56,0.13-33.26,0.13-49.82,0.13C263.56,572.3,261.95,572.43,260.47,572.57z M504.03,572.9
		c-3.5,0-6.87,0-10.1,0c-12.66,0-25.45,0.13-38.1,0c-11.44-0.13-15.75-5.65-13.33-15.48c1.35-5.25,2.29-10.77,2.29-16.02
		c0-38.78-0.54-77.42-0.54-116.2c0-40.8,0.4-81.59,0.67-122.39c0-12.39-3.77-23.16-12.79-31.91c-7.67-7.41-16.7-11.18-27.47-10.23
		c-1.35,0.13-3.5,1.35-3.5,2.15c-0.27,11.58-0.13,23.29-0.13,35.81c6.46-3.9,12.25-7.54,18.04-11.04c2.15-1.21,4.44-2.42,6.87-3.1
		c3.9-1.21,7.41,0.27,8.75,4.04c1.08,3.1,1.48,6.6,1.08,9.83c-0.27,1.75-2.56,4.31-4.31,4.58c-8.21,1.35-14.14,7-22.08,10.5
		c6.73,3.77,11.04,9.42,18.31,10.64c5.12,0.81,7.54,3.77,8.21,8.75c0.81,5.12-1.48,9.83-5.39,12.25c-7,4.31-13.73,8.75-20.87,13.19
		c5.39,5.92,11.71,9.83,18.98,12.12c3.9,1.21,5.52,3.77,5.92,7.41c0.27,2.29,0.27,4.71,0,7c-0.54,3.64-1.62,7.54-5.79,8.48
		c-7,1.48-11.31,7-17.77,10.37c6.46,4.31,11.31,9.56,18.58,10.77c3.9,0.54,5.52,3.1,5.79,6.46c0.4,4.17,0.67,8.35-3.5,11.18
		c-7.41,4.98-14.68,9.96-22.62,15.21c6.87,4.71,13.06,9.29,19.52,13.19c5.79,3.64,7.67,7.54,6.19,14.41
		c-0.81,3.5-2.29,6.33-5.92,7.14c-7.14,1.62-11.98,7-18.58,11.04c7,4.31,13.19,8.35,19.52,11.98c2.96,1.62,4.71,3.64,5.39,6.87
		c1.62,8.62-1.62,12.79-10.37,13.46c-0.54,0-1.35,0-1.75,0.27c-4.58,4.17-9.16,8.48-13.87,12.79c2.02,1.62,3.37,2.69,4.71,3.77
		c1.35,1.21,2.83,2.29,4.17,3.64c2.42,2.56,5.25,3.64,8.75,3.77c4.71,0,6.46,1.75,7.27,6.33c1.35,7.41,2.96,14.68,4.58,22.08
		c0.81,3.64,1.88,7.27,2.42,11.04c0.27,2.56,1.35,3.1,3.77,3.1c14.68,0.13,29.22,0,43.76-2.29
		C501.07,587.85,504.84,584.08,504.03,572.9z M514.8,552.3c0-2.02,0-3.23,0-4.44c0-29.76,0-59.65,0-89.4c0-5.79-0.54-6.46-6.46-6.46
		c-14,0-28.14,0.27-42.14,0.4c-4.98,0.13-4.98,0.27-4.98,5.12c-0.27,29.22-0.54,58.43-0.81,87.52c-0.13,7.67-0.27,7.67,7.54,7.67
		c11.58,0,23.16,0,34.87,0C506.59,552.97,510.49,552.57,514.8,552.3z M383.73,558.56c-14.27,7.41-21.14,18.04-19.39,29.62
		C376.73,585.36,381.44,576.74,383.73,558.56z M406.08,560.05c-0.94,13.87,6.87,27.2,16.29,28.54
		C423.45,578.76,416.04,565.7,406.08,560.05z M385.55,475.76c0-5.12,0-9.56,0-14.81c-4.44,2.69-8.48,5.12-13.06,7.94
		C377.2,471.45,381.24,473.47,385.55,475.76z M373.02,380.43c4.58,2.15,8.48,4.04,12.52,5.92c0-4.58,0-8.48,0-13.06
		C381.37,375.72,377.6,377.88,373.02,380.43z M385.55,521.27c0-4.85,0-9.02,0-13.6c-3.77,2.42-7.14,4.58-10.91,6.87
		C378.55,516.96,381.91,518.98,385.55,521.27z M401.7,463.51c0,4.31,0,8.08,0,12.39c3.9-2.29,7.41-4.31,11.31-6.6
		C409.24,467.28,405.61,465.39,401.7,463.51z M401.7,340.85c3.9-2.96,7.14-5.25,10.64-7.81c-3.9-1.48-7.14-2.69-10.64-4.04
		C401.7,332.91,401.7,336.27,401.7,340.85z M401.7,509.29c0,4.04,0,7.67,0,12.12c3.5-2.42,6.33-4.44,9.56-6.73
		C407.76,512.65,404.8,511.04,401.7,509.29z M412.61,380.3c-3.9-1.75-7.27-3.23-10.91-4.85c0,4.04,0,7.54,0,11.31
		C405.2,384.61,408.44,382.72,412.61,380.3z M385.55,339.77c0-3.9,0-7.14,0-10.5c-3.64,1.62-7.14,3.23-11.04,4.98
		C378.55,336.14,381.91,337.89,385.55,339.77z M386.02,429.58c0.27-3.9,0.4-7.27,0.67-11.04c-3.9,2.15-7.27,3.9-11.04,6.06
		C379.15,426.35,382.25,427.83,386.02,429.58z M401.7,419.48c0,2.96,0,5.52,0,9.02c3.37-1.62,6.19-2.96,9.42-4.44
		C407.49,422.31,404.53,420.83,401.7,419.48z"/>
</g>
</svg>
