<?xml version="1.0" encoding="utf-8"?>
<!-- Generator: Adobe Illustrator 23.1.1, SVG Export Plug-In . SVG Version: 6.00 Build 0)  -->
<svg version="1.1" id="Layer_1" xmlns="http://www.w3.org/2000/svg" xmlns:xlink="http://www.w3.org/1999/xlink" x="0px" y="0px"
	 viewBox="0 0 700 700" style="enable-background:new 0 0 700 700;" xml:space="preserve">
<g>
	<path d="M611.58,44.21c0-3.88-0.08-7.97-0.99-11.69c-4.05-16.45-16.85-25.51-36.05-25.51C424.81,7,275.07,7,125.34,7.01l-0.7,0
		c-1.94,0-3.95-0.01-5.88,0.21c-12.52,1.39-21.49,7.23-25.92,16.91c-2.83,6.18-4.4,13.79-4.4,21.43
		c-0.2,177.98-0.19,358.95-0.18,533.95l0,72.47c0,2.46,0.01,4.86,0.18,7.29c0.82,11.73,6.5,20.75,16.89,26.8
		c2.01,1.17,4.22,2.14,6.35,3.08c0.95,0.42,1.89,0.83,2.83,1.27h470.9c17.98-6.84,26.35-18.63,26.33-37.09
		c-0.13-138.96-0.14-280.24-0.14-416.87C611.6,172.36,611.6,108.29,611.58,44.21z M590.78,650.51c0,15.72-3.34,19.11-18.81,19.11
		c-68.18,0-136.37,0-204.55,0c-79.95,0-159.9,0-239.86,0c-14.83,0-18.45-3.56-18.45-18.13c0-201.87,0-403.74,0-605.6
		c0-14.55,3.63-18.11,18.47-18.11c148.14,0,296.27,0,444.41,0c15.27,0,18.79,3.45,18.79,18.46l0,389.17L590.78,650.51z"/>
	<path d="M550.11,52.61c-68.37,0-136.75,0-205.12,0c-65.04,0-130.06,0-195.11,0c-13.1,0-15.93,2.84-15.93,15.99l0,354.47l0,205.61
		c0,13.09,2.96,16.1,15.83,16.1c133.41,0.01,266.81,0.01,400.22,0c13.1,0,15.93-2.84,15.93-15.99c0-186.69,0-373.39,0-560.08
		C565.93,55.62,562.97,52.61,550.11,52.61z M544.93,623.49H155.2V73.91h389.73V623.49z"/>
	<path d="M226.8,467.54c2.01,3.45,6,5.61,10.7,5.81c0.57-0.4,1.23-0.82,1.97-1.31c2.16-1.4,4.84-3.14,7.05-5.33
		c75.72-75.54,153.17-153.01,221.5-221.37c1.49-1.49,3.35-3.35,4.61-5.38c2.84-4.57,2.29-8.96-1.6-12.7c-2.07-1.99-4.37-3-6.77-3
		c-1.8,0-3.65,0.57-5.48,1.7c-1.92,1.19-3.65,2.85-5.39,4.6c-80.94,80.88-153.37,153.31-221.44,221.42
		c-1.99,1.99-4.04,4.04-5.32,6.43C225.06,461.33,225.12,464.66,226.8,467.54z"/>
	<path d="M197.75,198.94c27.08-26.9,53.76-53.61,79.31-79.4c1.32-1.34,2.25-3.22,3.32-5.41c0.48-0.99,1.02-2.09,1.65-3.24
		c-0.74-0.93-1.43-1.87-2.1-2.79c-1.67-2.3-3.25-4.46-5.27-5.73c-1.51-0.94-2.97-1.32-4.35-1.32c-3.31,0-6.1,2.17-7.73,3.79
		l-7.39,7.38c-23.61,23.57-48.02,47.94-71.95,72c-2.58,2.6-3.99,5.67-3.95,8.66c0.03,2.63,1.15,5.07,3.22,7.05
		C186.98,204.22,192.82,203.84,197.75,198.94z"/>
	<path d="M420.61,596.92c1.98,3.42,5.99,5.51,10.76,5.6c0.5-0.32,1.08-0.66,1.74-1.05c1.99-1.17,4.46-2.62,6.43-4.57
		c25.99-25.73,52.14-51.95,75.2-75.09c0.28-0.28,0.57-0.56,0.87-0.85c1.57-1.52,3.34-3.25,3.56-4.83c0.36-2.67,0.68-7.58-1.22-10.37
		c-1.43-2.12-5.31-3.96-8.21-3.96c-0.14,0-0.28,0-0.41,0.01c-2.49,0.16-5.8,2.06-8.86,5.09c-22.78,22.52-45.78,45.57-68.03,67.87
		l-7.66,7.68c-1.42,1.42-3.01,3.08-4.06,4.92C418.92,590.47,418.89,593.96,420.61,596.92z"/>
</g>
</svg>
