<?xml version="1.0" encoding="utf-8"?>
<!-- Generator: Adobe Illustrator 23.1.1, SVG Export Plug-In . SVG Version: 6.00 Build 0)  -->
<svg version="1.1" id="Layer_1" xmlns="http://www.w3.org/2000/svg" xmlns:xlink="http://www.w3.org/1999/xlink" x="0px" y="0px"
	 viewBox="0 0 700 700" style="enable-background:new 0 0 700 700;" xml:space="preserve">
<g>
	<path d="M172.99,695.54c-20.62-7.11-19.35-24.43-18.55-41.5c-5.02-0.53-9.47-0.75-13.81-1.5c-17.54-3.04-30.45-17.96-31.06-35.7
		c-0.1-2.92-0.05-5.85-0.05-8.77c0-185.76,0-371.53,0-557.29c0-27.16,6.14-36.32,31.07-46.32c139.49,0,278.97,0,418.46,0
		c6.59,3.65,13.87,6.46,19.61,11.15c7.78,6.37,11.31,15.61,11.38,25.73c0.16,21.37,0.12,42.74,0.05,64.1
		c-0.02,7.29-4.08,11.77-10.17,11.71c-6.05-0.06-9.99-4.57-10.02-11.91c-0.08-20.02,0.01-40.04-0.04-60.06
		c-0.03-13.57-6.78-20.48-20.18-20.48c-133.17-0.03-266.33-0.02-399.5,0c-13.07,0-20.35,6.64-20.37,18.91
		c-0.08,62.98-0.04,125.96-0.03,188.94c0,1.1,0.12,2.19,0.24,4.22c2.55,0,4.92,0,7.3,0c30.59,0,61.18,0,91.78,0.01
		c2.25,0,4.56-0.19,6.72,0.27c5.51,1.18,8.88,4.68,8.53,10.43c-0.34,5.65-3.74,9.03-9.53,9.43c-3.36,0.23-6.75,0.09-10.12,0.09
		c-31.25,0-62.51,0-94.6,0c-0.12,2.61-0.32,4.97-0.32,7.32c-0.02,115.84-0.02,231.67-0.01,347.51c0,14.69,6.65,21.32,21.51,21.32
		c132.27,0.02,264.53,0.02,396.8,0c15.24,0,21.78-6.56,21.78-21.74c0.01-115.61,0.01-231.22,0.01-346.84c0-2.22,0-4.43,0-7.58
		c-3.08,0-5.69,0-8.3,0c-91.55,0-183.1,0-274.66,0c-10.41,0-15.25-3.16-15.3-9.96c-0.04-6.89,4.93-10.29,15.14-10.29
		c91.1,0,182.2,0,273.31,0c2.92,0,5.83,0,9.8,0c0-2.64,0-5,0-7.36c0-24.29,0.05-48.58-0.03-72.88c-0.02-5.21,1.56-9.39,6.58-11.42
		c6.07-2.46,12.63,1.53,13.55,8.14c0.34,2.43,0.15,4.94,0.15,7.41c0,148.45-0.44,296.9,0.37,445.35
		c0.17,30.33-16.02,48.43-45.09,47.75c0.26,16.71,2.25,34.65-18.75,41.76c-13.05,0-26.1,0-39.15,0c-20.98-7.07-19.01-25-18.75-41.64
		c-79.77,0-158.58,0-238.06,0c0.83,17.25,2.04,34.53-18.56,41.64C199.08,695.54,186.04,695.54,172.99,695.54z M174.58,653.76
		c0,5.78,0.02,10.89-0.01,16c-0.03,3.93,1.85,5.62,5.8,5.57c8.29-0.12,16.59,0.24,24.86-0.25c1.84-0.11,4.83-2.74,5.04-4.49
		c0.66-5.44,0.24-11.02,0.24-16.83 M524.18,654.03c-11.65,0-23.16,0-34.59,0c-2.16,21.27-2.16,21.27,16.93,21.27
		c20.19,0,20.19,0,18.32-20.33C524.82,654.77,524.59,654.6,524.18,654.03z"/>
	<path d="M145.84,328.94c0-11.32-0.05-22.65,0.01-33.97c0.07-12.93,8.91-22.45,20.95-22.69c12.54-0.24,21.94,8.79,22.08,22
		c0.24,23.32,0.25,46.64,0,69.96c-0.14,13.21-9.58,22.2-22.15,21.92c-12.03-0.27-20.81-9.79-20.87-22.76
		C145.8,351.93,145.84,340.43,145.84,328.94z M161.07,329.25c0,11.14-0.03,22.28,0.01,33.42c0.02,5.46,2.01,8.1,6.07,8.25
		c4.23,0.16,6.56-2.61,6.57-8.28c0.05-22.28,0.05-44.56,0-66.84c-0.01-5.67-2.37-8.44-6.6-8.26c-4.05,0.18-6.02,2.81-6.04,8.29
		C161.04,306.97,161.07,318.11,161.07,329.25z"/>
	<path d="M188.75,159.51c0,12.5,0.41,25.03-0.13,37.51c-0.43,9.94-7.98,17.32-18.01,19.1c-8.75,1.55-18.35-3.18-22.26-11.54
		c-1.46-3.11-2.36-6.78-2.39-10.21c-0.2-23.32-0.18-46.65-0.08-69.97c0.05-12.42,9.15-21.81,21.09-22.15
		c11.76-0.33,21.23,8.85,21.96,21.26c0.03,0.51,0.04,1.01,0.04,1.52c0,11.49,0,22.99,0,34.48
		C188.89,159.51,188.82,159.51,188.75,159.51z M173.74,159.67c0-10.98,0.03-21.95-0.01-32.93c-0.02-6.2-2.07-9.15-6.24-9.21
		c-4.16-0.06-6.42,3.07-6.42,9.03c-0.01,21.95-0.02,43.91,0,65.86c0,5.59,2.23,8.65,6.23,8.73c4,0.07,6.39-2.97,6.42-8.54
		C173.78,181.62,173.74,170.65,173.74,159.67z"/>
</g>
</svg>
