<?xml version="1.0" encoding="utf-8"?>
<!-- Generator: Adobe Illustrator 23.1.1, SVG Export Plug-In . SVG Version: 6.00 Build 0)  -->
<svg version="1.1" id="Layer_1" xmlns="http://www.w3.org/2000/svg" xmlns:xlink="http://www.w3.org/1999/xlink" x="0px" y="0px"
	 viewBox="0 0 700 700" style="enable-background:new 0 0 700 700;" xml:space="preserve">
<path d="M693.5,6.5H6.5v687h687V6.5z M672.16,184.19c0.01,34.41,0.02,70-0.16,104.99c-0.02,3.74-1.7,8.03-4.08,10.43
	c-39.23,39.52-79.27,79.54-118,118.25l-19.57,19.56c-0.74,0.74-1.5,1.42-2.01,1.87l-1.49,1.36l-73.12-73.18l84.85-84.86
	l133.58-133.59L672.16,184.19z M503.07,133.04l75.76,75.8L201.49,586.22l-75.77-75.79L503.07,133.04z M28.29,572.95l-0.25-3.37
	c-0.01-0.19-0.04-0.45-0.07-0.76c-0.1-0.97-0.25-2.44-0.25-3.92l-0.01-18.36c-0.02-43.68-0.05-88.84,0.15-133.26
	c0.02-3.75,1.72-8.03,4.13-10.41c63.54-62.8,128.28-126.51,190.9-188.12l21.26-20.92c0.57-0.56,1.17-1.07,1.8-1.61
	c0.29-0.25,0.59-0.51,0.9-0.78l1.1-0.96l81.44,81.53L28.29,572.95z M613.23,27.81c13.94-0.31,27.66-0.27,42.19-0.23
	c5,0.01,10.05,0.03,15.16,0.03h1.55l0,16.97c0.01,23.81,0.01,46.3-0.09,69.15c-0.01,1.98-1,4.36-2.41,5.78
	c-20.31,20.43-40.85,40.94-60.7,60.78l-12.54,12.53l-77.28-77.33l0.97-1.09c0.07-0.08,0.18-0.21,0.33-0.39
	c0.54-0.65,1.56-1.85,2.66-2.96l14.08-14.1c21.12-21.16,42.95-43.04,64.63-64.36C604.55,29.86,609.26,27.9,613.23,27.81z
	 M418.21,27.8c41.31-0.23,83.32-0.21,123.94-0.19l24.35,0.01c0.88,0,1.75,0.06,2.76,0.12c0.51,0.03,1.07,0.07,1.69,0.1l3.48,0.18
	L346.37,256.12l-81.98-81.94l1.04-1.1c0.32-0.34,0.68-0.73,1.06-1.14c0.94-1.01,2-2.16,3.13-3.27l17.22-16.95
	c39.7-39.08,80.75-79.5,121.25-119.12C410.51,30.23,414.58,27.82,418.21,27.8z M221.74,28.79c42.99-0.2,86.71-0.18,128.98-0.16
	l20.64,0.01c1,0,1.95,0.08,3.28,0.19c0.73,0.06,1.58,0.13,2.61,0.2l3.44,0.24L144.89,261.38l-86.03-86.05l1.72-1.02
	c0.24-0.14,0.55-0.3,0.89-0.47c0.73-0.36,1.63-0.81,2.27-1.41c15.14-14.24,30.28-28.48,45.41-42.72
	c33.7-31.71,68.55-64.5,102.9-96.68C214.3,30.93,218.17,28.8,221.74,28.79z M27.95,28.2h157.71L27.95,176.78V28.2z M41.84,193.69
	l1.06-0.72l85.07,85.07L27.69,376.7v-12.71c0-12.96,0.04-25.92,0.09-38.88c0.12-33.85,0.24-68.85-0.49-103.25
	C27.03,209.16,31.38,200.74,41.84,193.69z M121.56,667.7c-1.95,1.93-4.87,4.24-7.67,4.27c-16.45,0.15-33.18,0.19-49.67,0.19
	c-5.68,0-11.33,0-16.93-0.01c-5.78,0-11.57-0.01-17.39-0.01h-1.38l-0.17-1.37c-0.08-0.63-0.17-1.24-0.26-1.82
	c-0.19-1.28-0.38-2.48-0.38-3.74l-0.01-5.32c-0.04-15.7-0.08-31.93,0.09-47.9c0.03-2.51,0.79-6.19,2.85-8.27
	c21.9-22.14,44.32-44.51,66-66.13l9.01-8.99l-0.35-0.35l1.36-0.59c0.52-0.35,1.29-0.63,1.97-0.36l0.95,0.39l0.01,0.45l76.57,76.63
	l-1.24,1.09c-1.09,0.96-2.26,1.95-3.47,2.98c-2.79,2.37-5.67,4.82-8.38,7.51c-8.15,8.08-16.41,16.33-24.39,24.31
	C139.82,649.55,130.64,658.73,121.56,667.7z M288.67,672.25c-0.03,0-0.06,0-0.09,0c-33.42-0.13-67.41-0.12-100.27-0.11
	c-9.71,0-19.43,0.01-29.14,0.01h-10.05l287.59-287.63l75.07,75.08l-1.85,0.99c-0.54,0.29-1.14,0.54-1.77,0.82
	c-1.33,0.57-2.83,1.21-3.8,2.19c-73.09,72.94-139.66,139.52-203.51,203.54C297.26,670.71,293.62,672.25,288.67,672.25z
	 M505.99,653.31c-1.43,1.38-2.86,2.8-4.31,4.22c-3.85,3.79-7.83,7.71-11.98,11.43c-2.04,1.83-5.04,3.06-7.45,3.07
	c-30,0.09-60.33,0.11-90.31,0.11c-14.08,0-28.07,0-41.92-0.01l-15.88-0.01c-0.81,0-1.59-0.13-1.84-0.17l-3-0.49l2.07-2.16
	l96.43-96.44l79.33,79.34L505.99,653.31z M671.89,671.63H521.04l150.86-150.87V671.63z M672.03,480.9
	c-0.03,2.84-1.02,6.67-3.16,8.82c-42.67,42.89-86.19,86.36-128.28,128.4l-14.35,14.33l0.5,0.5l-1.97,0.95
	c-0.02,0.01-0.04,0.02-0.05,0.03c-0.31,0.22-0.65,0.33-0.99,0.33c-0.19,0-0.38-0.03-0.56-0.11l-0.95-0.37l-0.04-1l-77.31-77.32
	l227.27-227.3v89.38c0,4.93,0.01,9.87,0.01,14.8C672.18,448.26,672.19,464.72,672.03,480.9z"/>
</svg>
