<?xml version="1.0" encoding="utf-8"?>
<!-- Generator: Adobe Illustrator 23.1.1, SVG Export Plug-In . SVG Version: 6.00 Build 0)  -->
<svg version="1.1" id="Layer_1" xmlns="http://www.w3.org/2000/svg" xmlns:xlink="http://www.w3.org/1999/xlink" x="0px" y="0px"
	 viewBox="0 0 700 700" style="enable-background:new 0 0 700 700;" xml:space="preserve">
<g>
	<g>
		<path d="M341.52,697.15c-7.2,0-19.09,0-21.08,0h1.43v-25.38c0-7.11-0.91-13.28-3.65-17.71c-5.27-8.64-10.33-17.5-15.39-26.36
			c-13.49-23.4-28.89-45.54-44.28-67.89c-14.13-20.45-28.25-41.11-40.27-63.04c-15.39-28.04-27.2-57.14-33.95-88.56
			c-5.27-25.51-6.96-51.24-5.06-77.17c2.95-39.43,15.39-75.9,32.89-110.9c11.81-23.61,25.93-45.75,40.06-67.89
			c22.77-36.48,45.33-73.16,68.1-109.64c1.27-2.11,2.11-4.85,2.11-7.59c0.21-8.86,0.21-17.71,0.11-26.78V5.57c0,0,11.78,0,18.98,0
			c0,10.47,0,20.94,0,31.63c5.62,0,11.02,0,16.87,0c0-10.47,0-20.94,0-31.63c6.97,0,16.27,0.14,16.27,0.14v2.03
			c0,9.14,0.21,12.54,0,19.29c-0.21,7.59,4.07,14.72,8.07,21.05c10.75,17.71,21.3,35.42,32.26,52.92
			c16.87,26.78,34.58,53.13,51.24,80.12c17.08,27.41,31.21,56.51,41.33,87.29c5.69,17.29,9.91,35,11.81,53.13
			c2.32,21.08,2.11,42.17-0.21,63.04c-4.22,37.74-17.08,72.53-34.58,105.84c-12.86,24.46-28.04,47.44-44.07,70
			c-14.97,21.08-29.1,42.8-42.17,64.94c-5.27,8.86-10.33,17.5-15.81,26.14c-3.8,6.11-5.48,12.44-5.48,19.61
			c0.21,8.01,0,15.81,0.33,23.83v2.19c0,0-12,0-18.98,0c0-12.65,0-25.09,0-37.95c-5.85,0-11.25,0-16.87,0
			C341.52,671.85,341.52,684.5,341.52,697.15z M385.48,582.37c1.9,0.42,3.58,0.84,5.27,1.05c6.11,1.05,10.96-0.63,14.55-5.9
			c8.64-12.23,17.08-24.46,25.51-36.9c13.49-19.61,26.78-39.64,37.95-60.72c16.87-32.26,28.46-66.42,32.26-102.68
			c2.74-26.14,0.63-52.08-4.85-77.8c-5.9-27.83-16.45-53.77-29.73-78.86c-19.4-36.9-43.22-70.84-66.21-105.42
			c-1.05-1.48-3.16-2.95-4.85-3.16c-4.85-0.42-9.91-0.21-15.18-0.21c0.21,2.53,0.21,5.27,0.63,7.8c1.05,6.54,2.32,13.07,3.37,19.61
			c3.16,18.77,6.54,37.32,9.49,56.09c2.74,16.87,5.69,33.74,8.22,50.81c2.53,16.24,4.85,32.47,7.38,48.49
			c3.58,22.77,5.27,45.54,4.22,68.31c-0.63,12.23-1.27,24.46-2.11,36.69c-1.05,13.49-2.32,26.78-3.8,40.27
			c-1.9,15.81-4.43,31.42-6.96,47.23c-3.58,22.56-7.38,45.33-10.96,67.89C388.43,564.03,386.95,573.09,385.48,582.37z
			 M314.42,582.03c-1.69-9.91-3.37-19.82-5.06-29.73c-2.74-17.08-5.69-33.95-8.22-51.02c-2.32-14.55-4.43-28.89-6.33-43.43
			c-2.53-18.98-5.06-37.74-6.75-56.72c-1.48-15.18-2.32-30.57-2.32-45.75c-0.21-24.25,2.11-48.28,5.48-72.11
			c2.53-18.98,5.69-37.74,8.64-56.72c3.12-19.71,7.07-39.15,10.28-58.63c2.6-14.74,5.19-29.47,7.79-44.21
			c0.77-4.17,1.37-8.35,1.96-12.71c-4.01,0-7.59,0-11.17,0c-4.22-0.21-7.38,1.69-9.7,5.06c-13.07,19.82-26.14,39.85-39.22,59.67
			c-13.7,21.08-26.78,42.59-37.11,65.57c-16.02,35-24.88,71.69-25.09,110.27c0,27.2,4.43,53.77,12.86,79.49
			c10.54,32.26,26.57,61.99,45.54,90.24c12.23,18.34,25.09,36.48,37.74,54.61C299.45,584.14,304.93,585.61,314.42,582.03z
			 M333.86,583.29c10.3,0,20.19,0,30.07,0c0.63,0,1.68-0.84,1.68-1.47c1.26-6.1,2.52-12.41,3.57-18.5
			c2.52-15.14,4.84-30.49,7.36-45.84c2.1-13.88,4.42-27.97,6.31-41.84c2.1-14.3,4-28.6,5.89-42.89c1.26-10.93,2.52-22.08,3.36-33.01
			c1.05-13.88,2.1-27.55,2.73-41.42c1.26-33.22-3.36-65.81-8.62-98.41c-2.52-15.56-5.05-31.33-7.78-46.89
			c-0.84-4.42-1.47-9.04-2.31-13.46c-17.45,0-34.69,0-51.94,0c-0.21,0.63-0.42,1.47-0.63,2.1c-1.05,6.94-2.31,13.88-3.36,20.82
			c-3.36,20.4-6.73,41-10.09,61.4c-2.94,18.08-5.26,36.38-5.26,54.67c0,14.3,0.42,28.39,0.84,42.68
			c0.63,17.66,2.73,35.11,5.26,52.36c1.89,13.04,3.57,25.86,5.47,38.9c1.68,11.14,3.15,22.5,4.84,33.64
			c2.1,13.67,4.21,27.12,6.52,40.58C329.66,558.9,331.76,570.89,333.86,583.29z M372.47,178.47c-3.77-22.63-7.75-45.05-11.52-67.47
			c-7.12,0-14.04,0-20.74,0c-1.47,0-1.68,0.84-1.68,1.89c-2.51,15.92-5.24,32.06-7.96,47.98c-1.05,5.87-1.89,11.73-2.93,17.6
			C342.51,178.47,357.39,178.47,372.47,178.47z M313.37,606.27c0.63,1.05,1.05,2.11,1.48,2.95c4.43,7.8,9.07,15.6,13.28,23.4
			c2.11,3.79,5.26,5.48,9.26,5.48c7.4-0.01,14.79-0.03,22.19-0.04c5.08,0.33,8.63-1.3,10.93-5.44c3.37-5.69,6.96-11.39,10.33-17.29
			c1.69-2.95,2.74-6.11,4.01-9.28C361.02,606.27,337.4,606.27,313.37,606.27z M316.74,85.7c22.14,0,44.07,0,65.99,0
			c-0.42-0.84-0.84-1.48-1.05-2.11c-4.64-7.8-9.49-15.6-14.13-23.61c-1.69-2.74-4.01-4.22-7.38-4.22
			c-4.85-0.21-9.91-0.21-14.76-0.42c-7.38-0.21-12.65,2.95-16.24,9.49c-2.11,4.01-4.64,8.01-6.96,11.81
			C320.53,79.79,318.64,82.53,316.74,85.7z"/>
	</g>
	<g>
	</g>
</g>
</svg>
