<?xml version="1.0" encoding="utf-8"?>
<!-- Generator: Adobe Illustrator 23.1.1, SVG Export Plug-In . SVG Version: 6.00 Build 0)  -->
<svg version="1.1" id="Layer_1" xmlns="http://www.w3.org/2000/svg" xmlns:xlink="http://www.w3.org/1999/xlink" x="0px" y="0px"
	 viewBox="0 0 700 700" style="enable-background:new 0 0 700 700;" xml:space="preserve">
<g>
	<g transform="translate(0.000000,512.000000) scale(0.100000,-0.100000)">
		<path d="M1455.03,3432.22c-65.92-21.53-178.94-137.23-199.12-205.84c-9.42-30.94-16.14-115.7-16.14-188.35v-133.19l-176.24,5.38
			c-227.37,5.38-278.49-8.07-368.63-98.21c-94.18-95.52-100.9-125.12-100.9-470.88v-290.6H464.83
			c-172.21,0-226.02-17.49-308.09-100.9c-86.1-84.76-100.9-134.54-100.9-329.62s14.8-244.86,100.9-329.62
			c82.07-83.41,135.88-100.9,308.09-100.9h129.16v-290.6c0-345.76,6.73-375.36,100.9-470.88c90.14-90.14,141.26-103.59,368.63-98.21
			l176.24,5.38V201.97c0-72.65,6.73-157.41,16.14-188.35c21.53-74,133.19-185.66,207.19-207.19c82.07-24.22,349.8-21.53,426.48,5.38
			c76.69,25.56,172.21,125.12,195.08,204.5c10.76,37.67,16.14,219.3,16.14,613.49v559.68H3500h1399.19V629.8
			c0-400.92,4.04-575.82,16.14-616.18c21.53-74,133.19-185.66,207.19-207.19c82.07-24.22,349.8-21.53,426.48,5.38
			c76.69,25.56,172.21,125.12,195.08,204.5c9.42,28.25,16.14,113.01,16.14,185.66v133.19l180.28-4.04
			c230.06-6.73,290.6,10.76,375.36,104.94c32.29,34.98,65.92,88.79,74,118.39c10.76,33.63,16.14,157.41,16.14,344.42v290.6h131.85
			c173.55,0,239.48,22.87,316.16,107.63c75.34,83.41,90.14,137.23,90.14,322.89s-14.8,239.48-90.14,322.89
			c-76.69,84.76-142.61,107.63-316.16,107.63h-131.85v290.6c0,187.01-5.38,310.78-16.14,344.42c-8.07,29.6-41.71,83.41-74,118.39
			c-84.76,94.18-145.3,111.67-375.36,104.94l-180.28-4.04v133.19c0,72.65-6.73,157.41-16.14,185.66
			c-22.87,79.38-118.39,178.94-195.08,204.5c-76.69,26.91-344.42,29.6-426.48,5.38c-74-21.53-185.66-133.19-207.19-207.19
			c-12.11-40.36-16.14-215.26-16.14-616.18v-559.68H3500H2100.81v559.68c0,394.2-5.38,575.82-16.14,613.49
			c-22.87,79.38-118.39,178.94-195.08,204.5C1815.59,3453.75,1530.37,3456.44,1455.03,3432.22z M1851.91,3196.93l33.63-32.29
			V1616.11V67.58l-33.63-32.29C1820.97,3,1810.21,1.66,1670.29,1.66S1519.6,3,1488.66,35.29l-33.63,32.29v1548.53v1548.53
			l33.63,32.29c30.94,32.29,41.71,33.63,181.63,33.63S1820.97,3229.22,1851.91,3196.93z M5511.34,3196.93l33.63-32.29V1616.11V67.58
			l-33.63-32.29C5480.4,3,5469.63,1.66,5329.71,1.66c-139.92,0-150.68,1.35-181.63,33.63l-33.63,32.29v1548.53v1548.53l33.63,32.29
			c30.94,32.29,41.71,33.63,181.63,33.63C5469.63,3230.57,5480.4,3229.22,5511.34,3196.93z M1206.13,2658.78l33.63-32.29V1616.11
			V605.73l-33.63-32.29c-30.94-32.29-41.71-33.63-181.63-33.63s-150.68,1.35-181.63,33.63l-33.63,32.29v1010.38v1010.38l33.63,32.29
			c30.94,32.29,41.71,33.63,181.63,33.63S1175.19,2691.07,1206.13,2658.78z M6157.12,2658.78l33.63-32.29V1616.11V605.73
			l-33.63-32.29c-30.94-32.29-41.71-33.63-181.63-33.63c-139.92,0-150.68,1.35-181.63,33.63l-33.63,32.29v1010.38v1010.38
			l33.63,32.29c30.94,32.29,41.71,33.63,181.63,33.63C6115.41,2692.41,6126.18,2691.07,6157.12,2658.78z M593.98,1620v-215.26
			H466.17c-118.39,0-131.85,2.69-161.45,33.63c-32.29,30.94-33.63,41.71-33.63,181.63s1.35,150.68,33.63,181.63
			c29.6,30.94,43.05,33.63,161.45,33.63h127.81V1620z M4899.19,1620v-215.26H3500H2100.81V1620v215.26H3500h1399.19V1620z
			 M6695.27,1801.63c32.29-30.94,33.63-41.71,33.63-181.63s-1.35-150.68-33.63-181.63c-29.6-30.94-43.05-33.63-161.45-33.63h-127.81
			V1620v215.26h127.81C6652.22,1835.26,6665.67,1832.57,6695.27,1801.63z"/>
	</g>
</g>
</svg>
