<?xml version="1.0" encoding="utf-8"?>
<!-- Generator: Adobe Illustrator 23.1.1, SVG Export Plug-In . SVG Version: 6.00 Build 0)  -->
<svg version="1.1" id="Layer_1" xmlns="http://www.w3.org/2000/svg" xmlns:xlink="http://www.w3.org/1999/xlink" x="0px" y="0px"
	 viewBox="0 0 700 700" style="enable-background:new 0 0 700 700;" xml:space="preserve">
<g>
	<path d="M692.93,71.11c0-21.6-17.53-39.21-39.08-39.25c-4.68,0.01-9.44,0.17-14.06,0.33c-4.55,0.17-9.25,0.34-13.9,0.34
		c-195.32,0.23-393.69,0.23-585.53,0.23c-14.48,0-27.2,8.88-32.4,22.62c-2.72,6.48-2.56,13.18-2.39,20.26
		C5.63,77.36,5.07,618.24,5,629.09c0,18.59,11.21,33.31,28.57,37.5c5.49,1.33,11.63,1.3,17.57,1.28l2.26-0.01h600.9l0.12,0.01
		c10.44,0.98,18.31-0.8,24.76-5.59c10.51-7.54,15.82-18.56,15.82-32.78C695,617.39,692.93,71.11,692.93,71.11z M673,614.01
		c-0.02,5.18-0.05,10.35-0.05,15.52c0,8.85-7.2,16.05-16.05,16.05c-100.36,0-204.14,0-306.33,0.23h-0.01
		c-97.15,0-197.6,0-296.4,0.23H43.14c-9.06,0-15.4-6.33-15.4-15.4l0-0.67c-0.22-90.4-0.45-183.88-0.45-275.71
		c0-46.81,0.06-94.41,0.11-140.44c0.06-46.03,0.11-93.62,0.11-140.44c0-5.33,1.69-9.8,4.88-12.92c3.13-3.06,7.56-4.61,12.83-4.5
		c15.26,0.22,30.59,0.22,45.4,0.22c85.07,0,171.51,0.06,255.11,0.11c83.59,0.06,170.03,0.11,255.11,0.11h55.59
		c8.38,0,14.95,6.17,14.95,14.05c0.22,85.29,0.51,172.02,0.79,255.89c0.28,83.87,0.56,170.6,0.79,255.9
		C673.1,592.89,673.05,603.63,673,614.01z"/>
	<path d="M619.31,182.18c0.01-16.33,0.03-32.66,0.03-48.99c0-1.52-0.18-2.87-0.58-4.25c-2.41-8.42-9.57-13.45-19.15-13.45h-246.8
		v0.22l-2.58-0.01c-44.25-0.22-132.7-2.44-133.58-2.46l-118.41,0c-11.09,0-18.54,9.23-18.54,17.86c0.15,25.72,0.1,51.76,0.05,76.95
		c-0.03,12.78-0.05,25.55-0.05,38.33c0,8.93-0.03,17.86-0.05,26.78c-0.05,17.55-0.1,35.69,0.05,53.52c0,5.09,0.66,8.97,2.03,11.86
		c3.12,7.1,9,10.1,19.69,10.1h498.83h0.27c11.89-0.42,19.05-10.25,19.05-19.51C619.23,280.16,619.27,230.35,619.31,182.18z
		 M596.91,320.42c0,2.15-0.53,3.73-1.63,4.82c-1.47,1.46-3.44,1.56-5.11,1.56c-0.12,0-0.25,0-0.37,0l-0.39,0H105.15v-2.57
		c0-59.65,0-121.32,0.22-182.1l0.01-2.56h491.52V320.42z"/>
	<path d="M224.41,456.39c0.01-7.63,0.03-15.26,0.03-22.91c0-7.48-3.31-13.91-9.83-19.13c-6.1-4.67-13.06-5.06-20.88-5.06
		c-17.25,0.13-34.9,0.03-51.97-0.08c-11.42-0.07-23.22-0.14-34.84-0.14c-0.08,0-0.16,0-0.24,0c-13.56,0-24.59,11.05-24.59,24.63
		v46.08c0,4.92,0.05,9.96,0.1,14.83c0.1,9.88,0.2,20.1-0.1,30.21c-0.33,7.14,2.1,13.98,6.66,18.82c4.71,4.99,11.4,7.67,19.35,7.76
		c30.04,0.45,60.49,0.45,90.53,0c7.69-0.1,14.27-2.77,19.04-7.73c4.6-4.78,7.08-11.41,6.98-18.67
		C224.33,502.07,224.37,478.85,224.41,456.39z M201.25,529.13h-97.3v-97.3h97.3V529.13z"/>
	<path d="M616.7,494.7c0.04-4.3,0.07-8.59,0.07-12.88c0-5.08-0.03-10.17-0.05-15.26c-0.05-10.07-0.1-20.49,0.05-30.86
		c0.12-7.71-2.8-15.29-7.81-20.27c-4.86-4.83-11.34-7.2-19.24-7.02c-16.01,0.36-32.27,0.27-48,0.18c-7.11-0.04-14.34-0.08-21.6-0.08
		c-6.48,0-12.99,0.03-19.43,0.13c-15.44,0.41-26.25,11.09-26.25,25.98c0,7.58-0.01,15.17-0.03,22.75
		c-0.04,22.37-0.08,45.51,0.25,68.25c0.2,4.36,1.63,9.18,3.93,13.14c4.61,8.11,12.7,12.21,24.08,12.21h81.6
		c4.5,0,8.49-0.28,12.19-0.87c11.92-1.82,20.94-11.82,20.54-22.77C616.51,516.36,616.6,505.35,616.7,494.7z M594.66,529.13h-97.3
		v-97.3h97.3V529.13z"/>
	<path d="M392.99,409.51c-13.28,0.45-26.67,0.3-39.63,0.15c-6.48-0.07-13.18-0.15-19.79-0.15c-2.54,0-5.08-0.02-7.61-0.04
		c-2.46-0.02-4.95-0.04-7.45-0.04c-6.22,0-12.5,0.13-18.59,0.74c-10.4,0.96-20.22,11.75-20.22,22.21c0,15.83,0.06,32.03,0.11,47.7
		c0.06,15.69,0.11,31.92,0.11,47.8c0,4.68,1.21,8.62,3.8,12.4c5.05,7,12.6,10.72,21.79,10.72c29.21,0.22,58.81,0.22,88,0
		c14.58,0,25.15-10.66,25.15-25.36v-90.81c-0.09-6.99-2.89-13.48-7.89-18.25C405.87,411.88,399.38,409.31,392.99,409.51z
		 M396.83,524.77c0,0.51,0,1.21-0.3,2.42l-0.49,1.95h-94.27v-96.74l2.2-0.31c1.75-0.25,3.21-0.25,4.62-0.25h81.28
		c1.5-0.13,3.7-0.29,5.3,1.17c1.1,1.01,1.64,2.49,1.64,4.53V524.77z"/>
</g>
</svg>
