<?xml version="1.0" encoding="utf-8"?>
<!-- Generator: Adobe Illustrator 23.1.1, SVG Export Plug-In . SVG Version: 6.00 Build 0)  -->
<svg version="1.1" id="Layer_1" xmlns="http://www.w3.org/2000/svg" xmlns:xlink="http://www.w3.org/1999/xlink" x="0px" y="0px"
	 viewBox="0 0 700 700" style="enable-background:new 0 0 700 700;" xml:space="preserve">
<g>
	<g transform="translate(0.000000,512.000000) scale(0.100000,-0.100000)">
		<path d="M229.63,3497.89c-68.12-33.65-150.14-120.59-182.12-193.5c-22.24-46.27-23.63-207.52-27.8-1794.77L15.56-194.84
			l44.31-47.08l45.69-45.69h3394.63h3386.83l44.31,52.52l53.12,45.69V30.76c-10.2,228.47-21.27,329.54-48.97,357.24
			c-9.69,9.69-78.92,19.38-164.77,23.54l-146.27,6.92V551.1c0,130.69-1.41,139.13-37.94,175.66
			c-36.54,36.54-43.56,37.94-236.09,43.56l-196.74,7.03v118.9c0,108-4.17,132.93-29.22,164.77l-27.83,36h-256.02h-254.63v1091
			c0,0-4.66,1085.56-26.81,1127.1c-127.39,236.77-404.31,283.85-571.86,98.31c-74.77-83.08-91.39-137.08-99.69-304.62l-6.92-156.36
			H3615.11H2349.55l-24.92,66.36c-13.85,31.85-48.46,80.31-76.16,106.62l-51.23,62.41l-488.78-13.85l-491.79,4.21l-54.22-53.28
			c-51.44-50.48-76.46-89.74-94.53-147.23c-6.95-22.43-27.8-25.24-182.12-25.24H712.03v130.4c0,77.12-8.34,161.25-22.24,204.72
			C634.18,3475.45,400.62,3583.42,229.63,3497.89z M434.58,3277.84l42.07-22.15V2177.05V1097.03H370.9H255.1v1081.3l4.21,1067.66
			l33.65,26.31C332.22,3304.15,379.89,3305.53,434.58,3277.84z M5323.63,3263.99c19.85-19.39,22.69-128.77,26.94-1086.94
			l5.67-1066.17h-118.33h-122.73v1074.38l4.25,1060.73l35.45,27.69C5196.01,3305.53,5285.34,3301.38,5323.63,3263.99z
			 M2103.59,2938.6c4.15-8.31,4.15-58.15-1.38-110.77l-9.69-96.92h-398.78h-400.16v110.77v110.77h400.16
			C1947.13,2952.45,2098.05,2946.91,2103.59,2938.6z M1069.27,2681.06c5.54-42.92,90-137.08,146.77-163.39
			c40.15-19.39,110.77-22.15,502.62-22.15h454.16l52.62,42.92c29.08,23.54,67.85,73.39,87.23,110.77l33.23,67.85h1266.94h1266.94
			v-389.38v-415.14l-112.16,4.28l-112.16,4.28l-18,54.21c-20.77,64.2-65.08,116.98-124.62,149.79c-36,21.4-99.69,24.25-501.24,24.25
			h-458.32l-60.92-42.8c-38.77-29.96-72-69.9-94.16-118.41l-34.62-74.18h-1325.1H712.03v401.55v402.93l177.23-4.15
			C1056.8,2710.14,1065.11,2708.75,1069.27,2681.06z M4422.86,1803.2v-110.77h-409.85h-411.24l9.69,73.39
			c4.15,38.77,8.31,88.62,8.31,110.77v37.39h401.55h401.55V1803.2z M3011.41,1689.56l364.16-8.31l40.15-72
			c22.15-38.77,62.31-87.23,88.62-108l49.85-44.21h443.59c239.54,0,455.55,4.15,479.08,8.31c60.92,12.46,150.93,98.31,174.46,164.77
			l18,55.39l112.16,4.15l112.16,4.15v-292.26v-290.67H2805.1H725.88v294.83v286.72h956.28
			C2213.86,1699.25,2812.02,1695.09,3011.41,1689.56z M5336.72,411.63V-52.22H2795.91H255.1v463.85v463.85h2540.81h2540.81V411.63z
			 M5922.43,742.56c5.54-80.31,18-146.77,29.08-164.77c24.92-37.39,92.77-48.46,293.54-48.46h144V396.4
			c0-127.39,1.38-134.31,40.15-173.08c38.77-38.77,45.69-40.15,173.08-40.15h132.93V65.47V-52.22h-574.63h-574.62v463.85v463.85
			h163.39h164.77L5922.43,742.56z"/>
	</g>
</g>
</svg>
