<?xml version="1.0" encoding="utf-8"?>
<!-- Generator: Adobe Illustrator 23.1.1, SVG Export Plug-In . SVG Version: 6.00 Build 0)  -->
<svg version="1.1" id="Layer_1" xmlns="http://www.w3.org/2000/svg" xmlns:xlink="http://www.w3.org/1999/xlink" x="0px" y="0px"
	 viewBox="0 0 700 700" style="enable-background:new 0 0 700 700;" xml:space="preserve">
<g>
	<path d="M688.35,414.76c-7.34-8.15-7.09-17.33-6.85-26.22l0.03-1.15c0.22-8.51-2.18-16.2-7.32-23.51
		c-2.54-3.61-4.04-7.85-3.99-11.34c0.49-38.65-1.77-68.04-7.3-95.29c-7.84-38.6-20.83-73.35-38.62-103.29
		c-18.86-31.75-43.69-59.09-73.82-81.28C463.67,8.75,365.38-8.93,258.34,20.13C144.46,51.04,71.28,125.31,40.82,240.87
		c-8.49,32.2-11.95,67.78-10.89,111.97l0,0.22c0.07,2.77,0.15,6.21-1.57,7.93c-10.11,10.1-10.41,22.79-9.8,35.99
		c0.23,5.03-1.42,8.93-4.16,13.58c-4.62,7.86-6.99,14.79-7.03,20.61c-0.48,73.24-0.4,143.87-0.26,228.6
		c0.03,18.87,14.48,33.27,33.6,33.51c14.39,0.18,29.57,0.18,45.12,0c19.55-0.22,33.76-14.54,33.79-34.05
		c0.1-68.55,0.17-148.35-0.17-227.89c-0.02-5.65-1.34-13.19-4.94-17.43c-6.43-7.55-6.64-15.3-6.27-23.93
		c0.52-11.93-2.46-20.93-9.38-28.3c-1.46-1.56-2.02-4.09-2.05-5.79c-0.57-30.65-0.45-60.59,7.18-89.96
		c2.74-10.54,6.01-21.12,9.18-31.35c1.43-4.62,2.91-9.39,4.32-14.09l0.25-0.82l4.2,0.51l-0.04,0.94
		c-2.69,66.83,18.09,124.24,61.77,170.63c45.01,47.81,101.26,72.06,167.21,72.08c0.02,0,0.04,0,0.06,0
		c57.7,0,108.62-19.62,151.36-58.31c26.68-24.15,46.68-52.22,59.46-83.4c12.4-30.26,18.36-64.38,17.73-101.42l-0.09-5.36l2.05,4.96
		c0.47,1.14,0.96,2.28,1.44,3.42c1.03,2.42,2.09,4.92,3.03,7.43c12.96,34.61,18.67,72.24,17.46,115.04
		c-0.02,0.65-0.03,1.31-0.05,1.95c-0.14,6.91-0.28,13.44-6.14,19.1c-2.44,2.36-3.73,6.57-4.12,9.72c-0.5,4.04-0.65,8.21-0.79,12.25
		c-0.12,3.45-0.24,7.01-0.59,10.51c-0.34,3.48-1.63,6.97-3.43,9.35c-5.3,6.98-7.88,14.12-7.88,21.84l-0.01,54.3
		c-0.02,57.13-0.03,116.21,0.05,174.31c0.03,18.98,14.37,33.49,33.36,33.75c15.25,0.21,30.67,0.21,45.83,0
		c18.94-0.26,33.25-14.48,33.29-33.07c0.19-83.59,0.15-158.6-0.12-229.32C692.74,423.82,691.09,417.8,688.35,414.76z M660.61,388.19
		c0.01,1.59,0.01,3.18,0,4.91l0,3.64h-47.88v-1.02c0-1.21-0.01-2.38-0.03-3.51c-0.03-2.4-0.05-4.67,0.05-6.94
		c0.39-8.11,5.07-12.71,13.17-12.97c4.76-0.15,9.6-0.11,14.28-0.08c1.44,0.01,2.87,0.02,4.31,0.03
		C656.33,372.3,660.54,376.47,660.61,388.19z M39.5,384.48c0.5-7.31,5.16-11.86,12.47-12.15c5.43-0.22,10.95-0.16,16.29-0.11
		l3.74,0.04c10.75,0.08,15.19,4.51,15.31,15.27c0.02,1.75,0.01,3.49,0.01,5.44l0,3.99H39.45v-1.02c0-1.24-0.02-2.45-0.04-3.65
		C39.37,389.6,39.32,387.06,39.5,384.48z M98.77,656.56c-0.03,11.37-4.38,15.81-15.51,15.86c-7.2,0.03-14.52,0.06-21.93,0.06
		c-6.48,0-13.02-0.02-19.58-0.09c-8.34-0.08-13.56-4.6-13.63-11.79c-0.19-19.41-0.16-38.38-0.13-58.46
		c0.01-7.35,0.02-14.74,0.02-22.17v-1.02h70.76l0.01,45.01C98.79,634.83,98.8,645.69,98.77,656.56z M28.29,557.36v-35.51h70.01
		v35.51H28.29z M98.72,431.7c0.11,15.83,0.09,31.36,0.07,47.79c-0.01,6.47-0.02,12.99-0.02,19.57v1.02H27.95l0-26.01
		c0-13.24-0.01-26.48,0.01-39.72c0.02-11.95,4.16-16.2,15.83-16.23l2.24-0.01c12.63-0.04,25.7-0.08,38.54,0.03
		C93.77,418.23,98.66,422.91,98.72,431.7z M134.55,153.29c-1.19,1.39-2.41,2.84-3.49,4.3c-36.51,49.53-55.09,105.96-55.21,167.72
		c-0.01,5.55-0.01,11.09-0.01,16.77l0,8.86H51.22l-0.04-0.98c-2.32-54.83,5.84-103.58,24.93-149.03
		c22.27-53.02,64.84-102.38,108.44-125.74l5.31-2.85l-4.08,4.43c-18.56,20.15-33.65,42.84-44.85,67.44
		C139.41,147.57,136.94,150.48,134.55,153.29z M496.91,381.89c-39.08,39.37-91.14,61.1-146.59,61.19c-0.11,0-0.23,0-0.34,0
		c-55.72,0-107.82-21.68-146.76-61.08c-39.01-39.47-60.53-92.41-60.62-149.08c-0.07-51.67,22.48-103.76,61.88-142.9
		c39.4-39.14,91.95-61.66,144.17-61.79c27.7-0.06,54.87,5.49,80.68,16.54c24.86,10.64,47.28,25.81,66.65,45.11
		c39.54,39.4,61.36,90.74,61.42,144.58C557.47,290.16,535.99,342.52,496.91,381.89z M599.84,210.13c-0.55-1.23-1.09-2.48-1.64-3.72
		c-2.18-5.02-4.44-10.21-7.52-14.66c-9.96-14.38-19.04-29.66-27.81-44.45c-14.01-23.61-28.5-48.02-46.87-69.09l-2.04-2.34l3.03,0.67
		c25.84,5.77,82.07,69.38,103.73,117.36c20.98,46.48,30.22,97.56,28.24,156.16l-0.03,0.98h-24.75l0-8.83
		c-0.01-5.52-0.01-10.98,0.01-16.44C624.3,285.34,616.11,246.43,599.84,210.13z M672.06,656.56c-0.03,11.37-4.38,15.81-15.51,15.86
		c-7.2,0.03-14.52,0.06-21.93,0.06c-6.48,0-13.01-0.02-19.57-0.09c-8.34-0.08-13.56-4.6-13.63-11.79
		c-0.19-19.41-0.16-38.38-0.13-58.46c0.01-7.35,0.02-14.74,0.02-22.17v-1.02h70.76l0.01,45.01
		C672.09,634.83,672.09,645.69,672.06,656.56z M601.69,557.25V521.7h70.06v35.56H601.69z M672.07,479.64
		c-0.01,6.45-0.02,12.94-0.02,19.48v1.02h-70.8v-39.67c0-2.8-0.01-5.59-0.01-8.39c-0.02-6.4-0.03-13.01,0.04-19.52
		c0.11-9.6,4.7-14.31,14.03-14.4c14.18-0.13,28.63-0.13,42.94,0c8.52,0.08,13.65,4.74,13.73,12.48
		C672.13,446.89,672.1,462.8,672.07,479.64z"/>
	<path d="M350.28,53.2c-0.06,0-0.11,0-0.17,0c-46.64,0.05-93.27,19.84-127.94,54.3c-34.67,34.46-54.57,80.8-54.6,127.13
		c-0.03,49.11,18.88,95.2,53.26,129.79c34.37,34.59,80.21,53.65,129.07,53.68c0.03,0,0.07,0,0.11,0c48.7,0,94.46-18.94,128.85-53.35
		c34.6-34.61,53.63-80.75,53.58-129.92c-0.04-46.4-19.95-92.82-54.62-127.36C443.18,72.98,396.71,53.2,350.28,53.2z M464.03,349.47
		c-30.62,30.78-71.12,47.73-114.03,47.73c-42.92,0-83.4-16.94-114.01-47.7c-30.6-30.76-47.48-71.48-47.53-114.66
		c-0.04-40.99,17.54-82.03,48.25-112.59c30.71-30.56,72-48.11,113.28-48.16c0.06,0,0.13,0,0.19,0c41.27,0,82.54,17.59,113.26,48.27
		c30.58,30.55,48.11,71.54,48.1,112.46C511.52,277.98,494.65,318.69,464.03,349.47z"/>
</g>
</svg>
