<?xml version="1.0" encoding="utf-8"?>
<!-- Generator: Adobe Illustrator 23.1.1, SVG Export Plug-In . SVG Version: 6.00 Build 0)  -->
<svg version="1.1" id="Layer_1" xmlns="http://www.w3.org/2000/svg" xmlns:xlink="http://www.w3.org/1999/xlink" x="0px" y="0px"
	 viewBox="0 0 700 700" style="enable-background:new 0 0 700 700;" xml:space="preserve">
<style type="text/css">
	.st0{fill:#FFFFFF;}
</style>
<g>
	<g>
		<path class="st0" d="M243.35,697.32l0.35,0.08H453.8l0.66-0.34c0.25-0.13,0.5-0.28,0.75-0.43c0.13-0.08,0.25-0.16,0.38-0.22"/>
	</g>
	<path d="M513.85,227.06c-0.03-38.59-26.07-66.61-64.78-69.72c-4.06-0.33-8.25-3.28-10.28-6.04c-7.48-10.11-14.97-20.48-22.2-30.5
		c-13.09-18.14-26.63-36.9-40.64-54.77c-13.1-16.71-17.83-31.65-15.33-48.45c0.99-6.66-1.4-11.59-7.3-15.04h-6.59
		c-5.68,3.32-7.97,8.06-7.4,15.26c0.51,6.43,0.49,13.26-0.04,20.31c-0.33,4.4-1.72,8.59-3.81,11.49
		C326.7,61.77,317.7,74.09,308.99,86c-13.38,18.31-27.22,37.25-40.51,56.07c-6.49,9.19-12.5,13.62-28.22,16.66
		c-0.17,0-0.72,0.18-1.09,0.3c-0.4,0.13-0.8,0.25-1.19,0.35c-31.94,7.86-51.79,34.05-51.8,68.35
		c-0.03,83.89-0.03,167.78-0.02,251.67l0,91.19c0,5.95-0.02,11.9-0.03,17.86c-0.04,13.65-0.08,27.77,0.09,41.64
		c0.26,20.89,8.54,38.43,24.63,52.13c10.25,8.74,22.95,12.63,34.08,15.26h209.7c0.51-0.3,1.17-0.66,1.99-0.84
		c36.88-8.02,57.21-33.1,57.24-70.62c0.02-20.46,0.01-40.93,0.01-61.39l0-26.2c0-29.45,0.01-58.89,0.01-88.34
		C513.9,376.98,513.91,301.39,513.85,227.06z M414.49,314.11c17.53,0.04,34.68,0.03,52.82,0.02l24.8-0.01v226.44H207.83V314.13
		l31.59,0.01c15.14,0.01,30.79,0.02,46.18-0.03c4.41-0.01,8.1-1.3,10.41-3.62c1.8-1.82,2.71-4.16,2.7-6.96
		c-0.03-6.49-5.09-10.53-13.21-10.55c-15.75-0.03-31.5-0.03-47.25-0.02l-30.51,0.01v-41.19h284.59v41.19l-32-0.01
		c-15.28-0.01-30.56-0.02-45.84,0.02c-8,0.02-13.17,4.17-13.16,10.59C401.34,310.05,406.38,314.09,414.49,314.11z M361.04,80.91
		l55.49,76.07h-55.49V80.91z M338.85,81.11v76.1h-55.46L338.85,81.11z M207,226.36c0.26-1.61,0.46-3.23,0.66-4.8
		c0.45-3.56,0.88-6.93,1.87-10.29c5.72-19.4,23.12-32.49,43.29-32.57c78.16-0.32,138.13-0.31,194.43,0.03
		c12.73,0.08,24.93,5.51,33.47,14.91c8.33,9.17,12.48,21.38,11.38,33.49l-0.26,2.83H206.43L207,226.36z M207.56,562.45h284.59v40.77
		H207.56V562.45z M492.96,628.55c-0.22,1.52-0.4,3.06-0.56,4.55c-0.37,3.25-0.75,6.61-1.64,9.85c-5.36,19.5-22.97,33.16-42.83,33.23
		c-37.31,0.12-71.17,0.18-102.58,0.18c-33.42,0-64.07-0.07-93.24-0.21c-12.18-0.06-24.01-5.36-32.44-14.56
		c-8.48-9.25-12.78-21.54-11.79-33.74l0.23-2.86h285.37L492.96,628.55z"/>
	<path d="M348.97,290.39c-0.05,0-0.1,0-0.15,0c-5.42,0-10.32,4.73-10.53,10.2c-0.21,5.46,4.48,10.45,10.04,10.67
		c2.87,0.11,5.58-0.91,7.63-2.87c2.04-1.96,3.16-4.61,3.17-7.46C359.15,295.2,354.59,290.48,348.97,290.39z"/>
</g>
</svg>
