<?xml version="1.0" encoding="utf-8"?>
<!-- Generator: Adobe Illustrator 23.1.1, SVG Export Plug-In . SVG Version: 6.00 Build 0)  -->
<svg version="1.1" id="Layer_1" xmlns="http://www.w3.org/2000/svg" xmlns:xlink="http://www.w3.org/1999/xlink" x="0px" y="0px"
	 viewBox="0 0 700 700" style="enable-background:new 0 0 700 700;" xml:space="preserve">
<g>
	<path d="M637.98,414.88c0-130.85-0.21-266.22-1.75-278.16c-3.86-31.59-17.26-60.71-38.76-84.25
		c-21.48-23.53-49.04-39.3-79.71-45.62c-12-2.43-20.43-2.98-75.68-2.82c-52.14,0-63.32,0.44-74.83,2.96L367.22,7
		c-30.09,6.43-55.6,20.89-77.98,44.21c-19.91,21.01-33.57,47.94-38.45,75.8l-2.3,14.24l-92.07,22.8
		c-64.64,16.21-90.54,23.06-93.07,23.99c-4.54,1.74-5.01,1.92-5.86,6.73c-1.32,7.44-1.38,21.76-1.38,50.88
		c0,27.28,0.06,43.1,1.37,50.94c0.84,5.05,1.43,5.52,4.89,7.01c20.26,3.15,373.81,3.15,394.07,0c3.45-1.49,4.04-1.92,4.89-7.01
		c1.3-7.84,1.37-23.66,1.37-50.94c0-26.78-0.06-42.32-1.22-50.17c-0.78-5.28-1.33-5.53-4.37-6.91
		c-7.12-2.86-125.82-32.39-136.49-33.96c-0.8,0.21-2.85,1.26-5.26,3.67c-3.55,3.55-3.7,4.51-3.7,7.6c0,5.87,0,5.87,4.7,7.99
		c7.87,3.55,24.36,7.7,57.22,15.98l1.23,0.31l67.04,18.05l0.04,36.06v38.9H78.08l0.47-39.07V207l94.83-23.65
		c51-12.71,88.73-22.45,92.78-23.78c1.99-1.01,4.63-4.11,5.6-17.81c1.7-24.08,11.16-47.25,27.35-67.02
		c16.08-19.63,37.63-34.45,62.33-42.88l14.1-5.55h66.53c65.58,0,66.84,0,79.73,4.06c42.4,13.34,72.54,42.3,87.16,83.75l4.95,14.14
		l0.82,277.93c0.53,175.33,1.07,267.42,2.53,277.99c1.49,2.21,4.04,3.89,6.97,4.56c3.03,0.69,6,0.24,8.12-1.25
		c0.42-0.3,0.86-0.59,1.29-0.87c0.3-0.19,0.71-0.46,0.81-0.56c3.55-5.04,3.55-55.07,3.54-241.22L637.98,414.88z"/>
	<path d="M107.75,355.26c-2.19-1.15-3.88-1.73-5.53-1.73c-1.77,0-3.5,0.67-5.73,2.02l0,0c-3.92,2.37-5.76,5.8-5.76,26.97
		c0,22.19,2.51,24.43,6.94,26.47l0.18,0.09c1.87,0.93,3.6,1.57,4.51,1.85c0.92-0.27,2.65-0.91,4.51-1.85l0.18-0.09
		c4.43-2.04,6.94-4.29,6.94-26.63C113.98,360.17,111.51,357.23,107.75,355.26z"/>
	<path d="M317.44,355.26c-2.19-1.15-3.88-1.73-5.53-1.73c-1.77,0-3.5,0.67-5.73,2.02l0,0c-3.92,2.37-5.76,5.8-5.76,26.97
		c0,22.19,2.51,24.43,6.94,26.47l0.18,0.09c1.86,0.93,3.6,1.57,4.51,1.84c0.92-0.27,2.65-0.91,4.51-1.85l0.18-0.09
		c4.43-2.04,6.94-4.29,6.94-26.63C323.67,360.18,321.2,357.23,317.44,355.26z"/>
	<path d="M211.89,389.8l-0.12-0.06c-4.79-2.34-4.79-2.34-9.41-0.03h0c-4.33,2.17-6.79,4.48-6.79,26.72
		c0,15.61,1.24,20.77,1.82,22.31c1.51,3.39,6.34,6.68,9.81,6.68c3.47,0,8.3-3.29,9.81-6.68c0.58-1.55,1.82-6.7,1.82-22.31
		C218.82,394.09,216.32,391.85,211.89,389.8z"/>
	<path d="M421.57,389.8l-0.12-0.06c-4.79-2.34-4.79-2.34-9.41-0.03h0c-4.33,2.17-6.79,4.48-6.79,26.72
		c0,15.61,1.24,20.77,1.82,22.31c1.51,3.39,6.34,6.68,9.81,6.68c3.47,0,8.3-3.29,9.81-6.68c0.58-1.54,1.82-6.7,1.82-22.31
		C428.51,394.09,426,391.85,421.57,389.8z"/>
	<path d="M107.75,460.11c-2.19-1.15-3.88-1.73-5.53-1.73c-1.77,0-3.5,0.67-5.73,2.02l0,0c-3.92,2.37-5.76,5.8-5.76,26.97
		c0,22.19,2.51,24.42,6.93,26.47l0.18,0.09c1.86,0.93,3.6,1.57,4.51,1.85c0.92-0.27,2.65-0.91,4.51-1.85l0.18-0.09
		c4.43-2.04,6.93-4.29,6.93-26.63C113.98,465.02,111.51,462.07,107.75,460.11z"/>
	<path d="M317.44,460.11c-2.19-1.15-3.88-1.73-5.53-1.73c-1.77,0-3.5,0.67-5.73,2.02l0,0c-3.92,2.37-5.76,5.8-5.76,26.97
		c0,22.19,2.51,24.42,6.94,26.47l0.18,0.09c1.86,0.93,3.6,1.57,4.51,1.84c0.92-0.27,2.65-0.91,4.51-1.85l0.18-0.09
		c4.43-2.04,6.93-4.29,6.93-26.63C323.67,465.02,321.2,462.07,317.44,460.11z"/>
	<path d="M211.89,494.65l-0.12-0.06c-4.79-2.34-4.79-2.34-9.41-0.03h0c-4.33,2.17-6.79,4.48-6.79,26.72
		c0,15.61,1.24,20.77,1.82,22.31c1.51,3.39,6.34,6.68,9.81,6.68c3.47,0,8.3-3.29,9.81-6.68c0.58-1.55,1.82-6.7,1.82-22.31
		C218.82,498.93,216.32,496.69,211.89,494.65z"/>
	<path d="M421.57,494.65l-0.12-0.06c-4.79-2.34-4.79-2.34-9.41-0.03h0c-4.33,2.17-6.79,4.48-6.79,26.72
		c0,15.61,1.24,20.77,1.82,22.31c1.51,3.39,6.34,6.68,9.81,6.68c3.47,0,8.3-3.29,9.81-6.68c0.58-1.54,1.82-6.7,1.82-22.31
		C428.51,498.93,426,496.69,421.57,494.65z"/>
	<path d="M107.75,564.95c-2.19-1.15-3.88-1.73-5.53-1.73c-1.77,0-3.5,0.67-5.73,2.02l0,0c-3.92,2.37-5.76,5.8-5.76,26.97
		c0,22.19,2.51,24.42,6.93,26.47l0.18,0.09c1.86,0.93,3.6,1.57,4.51,1.85c0.92-0.27,2.65-0.91,4.51-1.85l0.18-0.09
		c4.43-2.04,6.93-4.29,6.93-26.63C113.98,569.86,111.51,566.91,107.75,564.95z"/>
	<path d="M317.44,564.95c-2.19-1.15-3.88-1.73-5.53-1.73c-1.77,0-3.5,0.67-5.73,2.02l0,0c-3.92,2.37-5.76,5.8-5.76,26.97
		c0,22.19,2.51,24.42,6.94,26.47l0.18,0.09c1.86,0.93,3.6,1.57,4.51,1.84c0.92-0.27,2.65-0.91,4.51-1.85l0.18-0.09
		c4.43-2.04,6.93-4.29,6.93-26.63C323.67,569.86,321.2,566.91,317.44,564.95z"/>
	<path d="M211.89,599.49l-0.12-0.06c-4.79-2.34-4.79-2.34-9.41-0.03h0c-4.33,2.17-6.79,4.48-6.79,26.72
		c0,15.62,1.24,20.77,1.82,22.31c1.51,3.39,6.34,6.68,9.81,6.68c3.47,0,8.3-3.29,9.81-6.68c0.58-1.55,1.82-6.7,1.82-22.31
		C218.82,603.78,216.32,601.53,211.89,599.49z"/>
	<path d="M421.57,599.49l-0.12-0.06c-4.79-2.34-4.79-2.34-9.41-0.03h0c-4.33,2.17-6.79,4.48-6.79,26.72
		c0,15.62,1.24,20.77,1.82,22.31c1.51,3.39,6.34,6.68,9.81,6.68s8.3-3.29,9.81-6.68c0.58-1.55,1.82-6.7,1.82-22.31
		C428.51,603.78,426,601.53,421.57,599.49z"/>
</g>
</svg>
