<?xml version="1.0" encoding="utf-8"?>
<!-- Generator: Adobe Illustrator 23.1.1, SVG Export Plug-In . SVG Version: 6.00 Build 0)  -->
<svg version="1.1" id="Layer_1" xmlns="http://www.w3.org/2000/svg" xmlns:xlink="http://www.w3.org/1999/xlink" x="0px" y="0px"
	 viewBox="0 0 700 700" style="enable-background:new 0 0 700 700;" xml:space="preserve">
<path d="M690.9,97.3c-0.02-5.48-0.04-10.95-0.06-16.42c0-7.77-2.82-14.41-8.38-19.76c-3.43-3.19-6.43-5.72-9.46-7.98
	c-12.57-9.32-27.66-14.08-40.98-18.28c-23.79-7.52-47.88-11.66-66.2-14.42c-2.98-0.46-5.96-0.93-8.94-1.4
	c-10.52-1.66-21.4-3.37-32.19-4.58c-16.46-1.88-33.29-3.16-49.57-4.4l-0.41-0.03c-4.76-0.36-9.52-0.73-14.28-1.11
	c-15.64-1.24-31.81-2.53-47.72-2.96c-22.79-0.59-45.97-0.7-68.37-0.81c-9.75-0.05-19.49-0.09-29.23-0.18
	c-3.46-0.07-6.92,0-10.3,0.21c-6.52,0.38-13.04,0.74-19.56,1.11c-16.29,0.91-33.13,1.86-49.73,2.97c-14,0.95-28.9,2.01-43.66,3.66
	c-14.96,1.65-30.15,3.79-44.83,5.85l-4.86,0.68c-28.3,3.97-50.96,8.62-71.32,14.63c-14.94,4.36-30.67,9.76-44.49,19.75
	C13.67,62.96,8.34,73.37,9.07,87.57c0.55,10.8,0.35,21.82,0.14,32.48C9.11,125.61,9,131.36,9,137.02c0,4.95,0.08,9.78,0.99,14.5
	c2.16,11.41,10.56,18.52,17.64,23.44c10.96,7.53,23.97,13.71,40.95,19.46c38.21,12.69,79.22,18.17,115.4,23
	c17.76,2.35,35.94,3.83,54.56,5.27c24.32,1.84,44.71,3.11,64.17,4.01c8.51,0.38,16.84,0.28,25.66,0.17c3.85-0.05,7.83-0.1,11.8-0.1
	c0,4.2,0,7.89-0.06,11.55c-12.83,3.88-23.76,14.72-27.91,27.72c-4.04,12.66-1.4,25.77,7.42,36.91c0.59,0.77,0.86,2.42,0.55,3.4
	c-7.41,23.14-18.15,53.28-35.57,81.12c-2.82,4.5-5.65,9-8.49,13.5c-17.01,27.01-34.6,54.93-49.22,83.93
	c-9.8,19.54-15.54,40.05-17.06,60.97c-1.51,21.64,2.74,43.05,12.63,63.64c14.95,31.15,40.21,55.65,75.07,72.82
	c17.15,8.48,34.42,12.73,51.63,12.73c9.95,0,19.88-1.42,29.75-4.27c46.98-13.55,80.26-41.61,98.91-83.41
	c11.05-24.86,14.68-44.97,11.77-65.21c-3.59-25.07-9.71-44.66-19.24-61.66c-13.23-23.56-27.44-48.59-42.81-72.75
	c-17.55-27.65-36.84-61.19-46.88-100.34c-0.57-2.23-0.59-3.87,0.98-6.12c10.93-15.41,11.15-30.99,0.64-46.32
	c-5.52-8.14-12.89-13.72-21.91-16.6v-13.32c4.72,0,9.41,0.02,14.08,0.04c10.97,0.04,22.31,0.09,33.41-0.11
	c15.45-0.27,31.2-0.8,48.15-1.62c11.21-0.56,22.56-1.64,33.54-2.67l5.2-0.47c9.55-0.86,19.43-1.75,29.05-3.19
	c16.18-2.42,33.67-5.39,53.49-9.07c21.41-4.01,44.09-8.63,65.44-17.1c13.53-5.34,28.88-12.57,40.18-25.79
	c5.5-6.45,8.06-12.35,8.06-18.6C691.03,130.12,690.97,113.43,690.9,97.3z M670.93,107.92c0.03,2.75,0.06,5.49,0.06,8.22
	c-3.38-1.52-6.74-3.12-10-4.67c-7.74-3.69-15.04-7.17-22.78-9.72c-13.49-4.41-28.36-8.2-44.19-11.26
	c-21.38-4.05-43.24-7.29-63.69-10.19c-16.88-2.32-33.6-3.96-47.73-5.27c-3.25-0.3-6.51-0.6-9.77-0.91
	c-17.23-1.61-35.04-3.28-52.59-3.87c-32.37-1.12-65.27-1.34-97.09-1.55l-0.1,0c-13.39-0.15-26.6,0.48-40.08,1.2
	c-15.81,0.8-32.53,1.91-49.69,3.3l-3.22,0.25c-13.98,1.09-28.43,2.22-42.49,4.18c-30.46,4.19-55.23,8.01-77.95,12.02
	c-26.73,4.68-46.64,10.44-64.56,18.66c-3.66,1.65-7.16,3.44-10.87,5.33c-1.74,0.89-3.49,1.78-5.28,2.68c0-2.9-0.03-5.82-0.06-8.75
	c-0.08-8.44-0.17-17.18,0.34-25.75c0.23-3.24,4.32-6.82,6.07-8.22c9.42-7.64,20.85-13.14,33.95-16.34
	c20.45-5.04,41.58-9.65,62.79-13.7c14.73-2.78,30.44-5.17,49.44-7.51c16.19-1.95,32.76-3.23,48.79-4.47l0.3-0.02
	c14.94-1.15,32.33-2.43,49.66-3.16c18.83-0.76,35.97-1.12,52.4-1.12c25.96,0,53.84,0.12,81.78,0.98
	c25.95,0.83,46.86,2.12,65.81,4.07c23.66,2.45,47.63,5.61,70.8,8.67c6.17,0.81,12.33,1.63,18.49,2.43
	c27.61,3.55,49.85,8.99,70,17.11c7.67,3.09,15.08,7.29,22.24,11.36l2.85,1.61c4.68,2.69,6.83,6.81,6.56,12.61
	C670.79,93.38,670.86,100.77,670.93,107.92z M372.52,159.37c-14.85,6.11-30.24,6.22-45.78,0.33
	C342.27,153.66,357.66,153.55,372.52,159.37z M361.78,206.8c-0.66-0.01-1.36-0.01-2.11-0.02v-21.91c2.68-0.97,5.35-1.84,7.93-2.69
	c6.33-2.08,12.3-4.04,17.74-7.06c6.52-3.63,10.3-8.87,10.64-14.76c0.35-6.12-3.15-12.29-9.61-16.94
	c-6.74-4.77-14.72-7.52-24.42-8.38c-13.07-1.16-26.96-1.48-40.01,3.97c-4.36,1.82-8.56,4.5-11.81,7.54
	c-4.01,3.74-6.15,8.42-6.02,13.18c0.13,4.94,2.65,9.71,7.1,13.44c8.15,6.81,18.13,8.96,26.79,10.16c0.58,0.11,1.16,0.19,1.7,0.24
	v22.48c-0.18,0.02-0.37,0.03-0.56,0.05c-0.8,0.08-1.63,0.17-2.44,0.12c-8-0.25-16.02-0.45-24.03-0.66
	c-19.06-0.49-38.77-0.99-58.1-2.08c-22.68-1.24-44.61-3.23-65.17-5.9c-33.01-4.2-67.15-8.53-100.12-18.67
	c-12.31-3.73-25.12-8.5-41.55-15.44c-4.46-1.88-9.12-5.2-14.25-10.15c-2.68-2.65-3.96-5.05-3.92-7.33c0.04-2.38,1.46-4.78,4.47-7.53
	c8.5-7.81,19.62-13.54,33.02-17.03c25.76-6.68,47.09-11.57,67.15-15.38c18.82-3.62,39.37-6.68,62.85-9.34
	c13.61-1.55,27.5-2.45,40.92-3.31c6.04-0.39,12.29-0.79,18.43-1.25c41.77-3.09,82.77-2.91,128.2-2.39
	c23.55,0.29,47.7,1.82,68.49,3.23c20.23,1.29,38.49,3.04,55.83,5.34c23.39,3.06,47.08,6.82,69.99,10.46l7.16,1.14
	c18.96,3.02,39.07,6.99,57.7,15.49c7.36,3.35,14.78,7.75,22.04,13.09c2.69,1.98,4.13,4.19,4.28,6.56c0.15,2.46-1.15,5.08-3.77,7.56
	c-5.48,5.16-10.66,8.97-15.84,11.66c-16.01,8.4-34.5,14.66-58.19,19.7c-22.27,4.74-44.42,8.74-65.81,11.87
	c-19.47,2.79-39.34,4.85-59.06,6.11c-24.43,1.52-49.3,2.58-73.35,3.61c-9.44,0.4-18.89,0.81-28.32,1.24
	C364.49,206.82,363.23,206.81,361.78,206.8z M305.89,390.72c0.02-0.03,0.04-0.06,0.07-0.09c0.02,0.02,0.04,0.03,0.07,0.05
	c-1.96,7.69-3.94,15.38-5.92,23.07c-4.44,17.26-9.04,35.11-13.32,52.63c-4.63,19.14-9.42,38.94-12.94,58.64
	c-2.96,16.89-3.39,34.91-1.27,53.55c3.15,27.67,11.66,53.34,25.3,76.31c0.34,0.56,0.69,1.11,1.04,1.67c1.19,1.89,2.41,3.83,3.4,6.13
	c-2.59-1.67-5.23-3.32-7.79-4.92c-6.51-4.07-13.24-8.27-19.38-13.02c-24.64-18.93-39.78-45.54-44.99-79.08
	c-2.84-18.09-0.01-36.82,8.89-58.97c7-17.32,16.88-33.46,26.43-49.07c1.77-2.89,3.54-5.79,5.29-8.69
	c11.59-19.18,23.19-38.44,34.78-57.69C305.66,391.06,305.77,390.89,305.89,390.72z M291.85,539.78c1.44-13.75,4.47-27.1,8-41.89
	c2.45-10.31,5.23-20.72,7.92-30.79c3.32-12.42,6.74-25.27,9.58-38.01c3.47-15.66,6.32-31.68,9.08-47.18
	c1.16-6.49,2.35-13.21,3.57-19.81c0.76-4.17,1.47-8.31,2.22-12.68c0.51-2.98,1.03-6.01,1.58-9.13c0.48,0.36,0.95,0.71,1.4,1.04
	c0.82,0.6,1.59,1.17,2.28,1.74c0.58,0.5,1.11,1.02,1.72,1.62c0.28,0.28,0.58,0.57,0.89,0.87c-0.71,0.65-1.42,1.26-2.11,1.86
	c-1.26,1.09-2.45,2.12-3.56,3.28c-1.53,1.63-2.21,3.04-2.15,4.44c0.06,1.26,0.73,2.44,2.04,3.59c3.3,2.92,5.84,2.91,8.77-0.01
	c1.3-1.25,2.5-2.62,3.78-4.06c0.43-0.49,0.88-1,1.34-1.51c3.21,2.55,5.99,4.78,8.83,7.08c3.92,3.19,6.68,0.35,8.69-1.73
	c1.04-1.07,1.53-2.1,1.5-3.17c-0.04-1.58-1.25-2.91-2.44-4.02c-1.19-1.07-2.41-2.12-3.68-3.21c-0.93-0.79-1.88-1.61-2.85-2.46
	c1.4-1.22,2.75-2.4,4.18-3.64l3.42-2.98c0.28,1.7,0.55,3.36,0.81,4.98c0.51,3.22,1,6.27,1.57,9.31c1.52,8.36,3,16.88,4.43,25.12
	c3.39,19.51,6.89,39.69,11.24,59.36c2.89,13.11,6.59,26.28,10.16,39.01c3.29,11.71,6.68,23.81,9.44,35.82
	c11.11,48.61,4.44,93.88-19.83,134.54c-4.75,7.92-11.54,14.77-16.92,19.85c-10.19,9.58-24.54,9.18-35.71-0.99
	c-15.22-13.85-23.02-32.1-28.11-46.45C292.82,591.2,289.2,565.09,291.85,539.78z M359.54,316.95c0.2,0.96,0.5,1.97,0.79,2.96
	c0.74,2.54,1.51,5.16,0.63,6.69c-1.73,3.18-5.03,5.58-8.21,7.9c-0.72,0.52-1.43,1.04-2.12,1.56c-0.56,0.42-2.64-0.01-3.84-0.78
	c-3.09-2.14-5.86-4.59-8.17-6.7c-0.67-0.61-1.01-1.92-0.89-2.72c0.31-2.45,0.81-4.83,1.3-7.12c0.13-0.61,0.25-1.21,0.37-1.78H359.54
	z M359.44,316.45c0,0,0,0.01,0.01,0.01c0,0.01,0,0.02,0,0.02C359.45,316.48,359.44,316.47,359.44,316.45z M349.74,297.92
	c-0.04,0-0.08,0-0.12,0c-4.79,0-9.38-1.94-12.93-5.46c-3.89-3.87-6.12-9.3-6.12-14.9c0-11.19,8.91-20.65,19.45-20.65
	c10.49,0.07,19.03,9.27,19.03,20.5C369.05,288.72,360.39,297.92,349.74,297.92z M422.54,600.21c6.63-25,7.46-51.25,2.54-80.25
	c-4.07-24.12-10.52-48.03-16.75-71.16c-2.93-10.85-5.95-22.07-8.69-33.16c-1.82-7.35-3.86-15.58-5.46-23.91
	c2.41,3.95,4.84,7.88,7.26,11.82c6.39,10.38,13,21.11,19.27,31.79c1.82,3.12,3.65,6.25,5.48,9.37c9.93,16.97,20.2,34.51,29.29,52.23
	c10.95,21.46,15.75,43.69,14.28,66.07c-1.22,18.53-9.02,34.74-15.68,46.8c-11.79,21.38-29.01,37.74-52.63,50.04l-0.22,0.11
	c-1.06,0.56-2.15,1.12-3.59,1.89C408.6,642.33,416.75,622.15,422.54,600.21z"/>
</svg>
