<?xml version="1.0" encoding="utf-8"?>
<!-- Generator: Adobe Illustrator 23.1.1, SVG Export Plug-In . SVG Version: 6.00 Build 0)  -->
<svg version="1.1" id="Layer_1" xmlns="http://www.w3.org/2000/svg" xmlns:xlink="http://www.w3.org/1999/xlink" x="0px" y="0px"
	 viewBox="0 0 700 700" style="enable-background:new 0 0 700 700;" xml:space="preserve">
<g>
	<path d="M35.54,6.75l-7.34,6.29v631.01l3.62,3.1c2.93,2.55,4.74,3.19,12.78,3.19h11.72v19.26c0,17.27,0.24,17.5,3.23,20.37
		c3.09,3.22,3.15,3.28,30.03,3.28c26.88,0,26.94-0.06,29.98-3.24c3.03-2.91,3.28-3.14,3.28-20.41v-19.26h455.79v19.26
		c0,17.27,0.24,17.5,3.23,20.37c3.09,3.22,3.15,3.28,30.03,3.28c26.88,0,26.94-0.06,29.98-3.24c3.03-2.91,3.28-3.14,3.28-20.41
		v-19.26h10.24c8.04,0,9.85-0.64,12.77-3.18l3.62-3.11V13.04l-7.34-6.29H35.54z M102.19,672.59H76.98v-22.25h25.21V672.59z
		 M236.83,629.68H48.86V443.19h187.97V629.68z M236.83,422.51l-94.02,1.5l-93.94-0.46l-0.45-92.62c-0.1-33.72-0.16-90.16,0.53-93.55
		l-0.01,0c0.7-2.11,0.94-2.83,94.28-2.83h93.61V422.51z M236.83,213.9H48.86V27.41h187.97V213.9z M443.99,629.68H257.49V443.19
		h186.49V629.68z M443.99,422.53H257.49V234.56h186.49V422.53z M443.99,213.9H257.49V27.41h186.49V213.9z M463.17,234.54l94.69,1.5
		h93.28v184.99l-93.28,1.5h-93.18h-1.51V234.54z M624.5,672.59h-25.21v-22.25h25.21V672.59z M652.62,629.68H464.64V443.19h187.97
		V629.68z M652.62,213.9H464.64V27.41h187.97V213.9z"/>
	<path d="M79.46,82.59c-3.95,0-5.44,0.64-7.54,3.27c-2.47,3.26-2.79,5.1-2.79,28.81c0,25.1,0.06,25.16,3.24,28.21
		c2.24,2.3,5.16,3.52,8.04,3.38c2.61-0.13,4.96-1.33,6.6-3.38c2.46-3.24,2.78-5.04,2.78-28.5s-0.32-25.27-2.8-28.53
		C84.91,83.23,83.42,82.59,79.46,82.59z"/>
	<path d="M281.16,84.05c-3.83,3.06-4.88,9.57-4.88,30.17c0,21.19,1.24,28.63,5.1,30.62c3.94,2.03,10.4,1.44,13.04-1.21
		c2.35-2.35,2.52-4.27,2.52-29.27c0-25-0.16-26.91-2.52-29.27C291.59,82.27,284.42,81.7,281.16,84.05z"/>
	<path d="M501.85,85.07c-2.02-1.64-4.54-2.45-7-2.45c-2.69,0-5.3,0.97-7.09,2.89l-0.01,0.01c-2.6,2.72-2.84,3.7-2.84,29
		c0,26,0.22,26.21,2.94,28.8c3.69,3.43,9.97,3.6,13.99,0.36c2.93-2.32,2.99-2.37,2.99-29.31S504.78,87.39,501.85,85.07z"/>
	<path d="M75.11,352.96c3.81,2.54,8.34,1.63,12.13-2.43c2.36-2.49,2.55-4.62,2.55-28.56c0-25.84,0-25.84-3.24-28.95
		c-3.76-3.89-9.5-4.21-13.68-0.81c-2.77,2.29-3,2.49-3.44,27.71C68.98,347.88,69.65,349.41,75.11,352.96z"/>
	<path d="M287.47,289.83c-2.43,0-4.76,1.09-6.8,3.27l-0.01,0.01c-3.07,3.2-3.13,3.26-3.13,29.29c0,25.13,0.2,25.94,2.84,28.7
		c1.96,1.96,5.01,3.05,8.15,2.88c2.72-0.15,5.07-1.22,6.46-2.94c2.2-2.72,2.48-6.03,2.48-29.53v-26.48l-3.26-2.51
		C291.95,290.73,289.67,289.83,287.47,289.83z"/>
	<path d="M494.86,289.74c-1.49,0-4.39,1.32-6.15,3.22l-0.06,0.06c-3.17,3.05-3.24,3.11-3.24,28.36c0,15.11,0.48,26.56,0.82,27.81
		c0.71,1.82,7.09,5.61,10.25,5.61c0.68-0.02,3.39-1.49,5.74-3.85l3.85-3.85V323C506.07,292.2,504.38,289.74,494.86,289.74z"/>
	<path d="M79.37,496.89c-0.71,0.02-3.43,1.54-5.71,3.96l-0.03,0.03l-3.99,3.99l0.43,26.14c0.44,25.97,0.67,26.16,3.45,28.46
		c4.18,3.4,9.92,3.07,13.64-0.77c3.22-3.09,3.28-3.15,3.28-28.4c0-15.11-0.48-26.56-0.82-27.81
		C88.91,500.67,82.54,496.89,79.37,496.89z"/>
	<path d="M283.51,497.03L283.51,497.03c-6.15,2.62-6.72,3.69-6.72,32.67v26.8l3.75,3.21c4.76,4.06,8.8,4.19,13.5,0.43l3.41-2.62
		v-27.36c0-23.77-0.29-27.7-2.25-30.04C292.44,496.84,287.19,495.45,283.51,497.03z"/>
	<path d="M495.72,497.08c-1.34,0-2.76,0.48-4.44,1.39l-0.01,0.01c-5.45,2.91-5.86,3.79-5.86,31.22c0,25.84,0,25.84,3.24,28.95
		c3.29,3.41,8.99,4.17,12.24,1.67c4.5-3.44,5.18-7.59,5.18-31.65v-24.09l-3.85-3.85C499.74,498.25,497.82,497.08,495.72,497.08z"/>
</g>
</svg>
