<?xml version="1.0" encoding="utf-8"?>
<!-- Generator: Adobe Illustrator 23.1.1, SVG Export Plug-In . SVG Version: 6.00 Build 0)  -->
<svg version="1.1" id="Layer_1" xmlns="http://www.w3.org/2000/svg" xmlns:xlink="http://www.w3.org/1999/xlink" x="0px" y="0px"
	 viewBox="0 0 700 700" style="enable-background:new 0 0 700 700;" xml:space="preserve">
<g>
	<g transform="translate(0.000000,512.000000) scale(0.100000,-0.100000)">
		<path d="M6333.03,4565.99c-89.69-41.17-129.39-108.81-226.44-392.59c-51.46-149.98-97.05-276.43-102.93-282.31
			c-4.41-4.41-239.67-49.99-520.52-98.52c-282.31-49.99-530.81-99.99-551.39-110.28c-85.28-44.11-149.98-152.92-149.98-247.02
			c1.47-99.99,88.22-224.97,180.86-260.26c60.29-23.53,122.04-20.59,313.19,14.7c94.1,16.17,173.51,27.94,176.45,23.53
			c4.41-4.41,167.62-2564.35,167.62-2636.4c0-14.7-17.64-20.59-54.4-20.59c-163.21-1.47-304.37-161.74-279.37-317.6l7.35-47.05
			l-111.75-8.82c-61.76-5.88-1168.96-72.05-2459.96-148.51C916.13-73.08,360.32-111.31,307.39-128.95
			C160.35-178.94,36.84-340.69,22.13-502.43c-11.76-126.45,25-230.85,113.22-327.9C247.1-953.84,314.74-975.89,580.88-984.72
			l216.15-5.88v-146.57c0-204.38-11.76-197.03,341.13-202.91c388.18-5.88,394.06-2.94,394.06,226.44v123.51h1970.32h1970.32v-123.51
			c0-229.38,5.88-232.32,394.06-226.44c352.89,5.88,341.13-1.47,341.13,202.91v145.09l210.27,7.35
			c185.27,5.88,217.62,10.29,289.67,44.11c113.22,49.99,182.33,116.16,230.85,214.68C6980-643.59,6980-639.18,6980-362.74
			c0,263.2-1.47,283.78-35.29,357.3c-55.88,122.04-176.45,217.62-333.78,260.26c-10.29,2.94-25,69.11-35.29,149.98
			c-8.82,79.4-98.52,773.42-197.03,1540.96l-179.39,1396.87l83.81,26.47c141.16,42.64,164.68,82.34,307.31,488.17
			c166.15,480.82,169.09,557.28,23.53,674.91c-44.11,36.76-69.11,45.58-145.57,48.52
			C6412.43,4583.64,6359.5,4577.75,6333.03,4565.99z M6498.43,4358.67c22.06-32.35,10.29-82.34-107.34-423.47
			c-107.34-313.19-123.51-348.48-158.8-361.71c-72.05-27.94-1164.55-211.74-1201.31-202.91c-22.06,5.88-38.23,23.53-44.11,47.05
			c-19.12,74.99,7.35,83.81,574.92,182.33c291.14,49.99,545.51,98.52,566.1,107.34c30.88,14.7,52.93,66.17,147.04,339.66
			c85.28,251.44,116.16,324.96,139.69,332.31C6446.96,4391.02,6482.25,4382.19,6498.43,4358.67z M5995.56,3288.23
			c0-10.29,76.46-617.56,170.56-1348.34c92.63-730.78,167.62-1329.23,164.68-1332.17c-4.41-4.41-502.87-35.29-507.28-30.88
			c-2.94,1.47-166.15,2620.23-166.15,2661.4c0,13.23,39.7,26.47,122.04,41.17C5933.8,3308.81,5995.56,3311.75,5995.56,3288.23z
			 M6369.03,348.92c20.59-102.93,52.93-94.1-426.41-122.04c-361.72-22.06-438.18-22.06-448.47-5.88
			c-20.59,30.88-14.7,64.7,13.23,98.52c23.53,27.94,51.46,32.35,348.48,51.46c177.92,10.29,364.66,20.59,413.18,22.06
			C6358.74,394.51,6360.21,394.51,6369.03,348.92z M6617.53,35.73c63.23-26.47,139.69-114.69,149.98-174.98
			c5.88-26.47,7.35-145.57,4.41-261.73c-4.41-208.79-5.88-216.15-45.58-267.61c-22.06-30.88-61.76-66.17-88.22-80.87
			c-44.11-23.53-226.44-25-3118.69-29.41c-2079.13-1.47-3089.28,1.47-3127.51,11.76c-157.33,42.64-224.97,245.55-120.57,367.6
			c63.23,76.46,101.46,86.75,360.24,102.93c132.33,7.35,514.64,30.88,849.88,51.46c610.21,36.76,954.28,57.35,2359.97,141.16
			c413.18,23.53,1163.08,69.11,1668.89,99.99C6598.41,63.67,6557.24,62.2,6617.53,35.73z M1323.43-1059.23l-4.41-70.58l-157.33-4.41
			l-158.8-4.41v74.99v73.52h163.21h161.74L1323.43-1059.23z M6002.19-1063.64v-74.99l-157.33,4.41l-158.8,4.41l-4.41,70.58
			l-4.41,69.11h161.74h163.21V-1063.64z"/>
		<path d="M5760.29-458.32c-36.76-36.76-38.23-89.69-1.47-133.81c27.94-33.82,35.29-35.29,251.44-35.29
			c216.15,0,223.5,1.47,251.44,35.29c36.76,44.11,35.29,97.05-1.47,133.81c-26.47,26.47-48.52,29.41-249.97,29.41
			S5786.76-431.85,5760.29-458.32z"/>
	</g>
</g>
</svg>
