<?xml version="1.0" encoding="utf-8"?>
<!-- Generator: Adobe Illustrator 23.1.1, SVG Export Plug-In . SVG Version: 6.00 Build 0)  -->
<svg version="1.1" id="Layer_1" xmlns="http://www.w3.org/2000/svg" xmlns:xlink="http://www.w3.org/1999/xlink" x="0px" y="0px"
	 viewBox="0 0 700 700" style="enable-background:new 0 0 700 700;" xml:space="preserve">
<path d="M621.87,267.03c-21.12-7.55-43.85-10.98-69.48-10.45c-45.69,0.92-92.21,13.74-142.19,39.17c-2.2,1.12-4.4,2.22-6.82,3.44
	l-9.12,4.59l0.41-6.11c0.05-0.79,0.07-1.4,0.08-1.88c0.03-1.01,0.05-1.88,0.39-2.83c11.8-33.47,26.18-61.88,43.95-86.85
	c12.93-18.17,29.52-30.6,49.28-36.94c11.72-3.76,23.84-6.71,35.57-9.57c4.89-1.19,9.95-2.42,14.89-3.7c10.88-2.8,19-9.54,22.27-18.5
	c3.25-8.9,1.42-19.2-5.04-28.27c-14.63-20.55-33.3-38.45-55.51-53.21c-53.02-35.21-104.66-47.8-157.88-38.46
	c-42.41,7.44-68.24,30.79-78.95,71.39c-11.8,44.74-9.27,91.19,7.74,141.99c5.39,16.1,11.95,31.52,18.9,47.86
	c3.1,7.28,6.3,14.82,9.38,22.4l2.94,7.24l-7.36-2.62c-37.78-13.45-66.97-28.39-91.85-47c-18.13-13.56-30.61-32.1-37.1-55.09
	c-2.84-10.05-5.24-20.37-7.56-30.34c-0.83-3.57-1.66-7.14-2.51-10.7c-2.87-12-9.5-20.47-18.68-23.85
	c-9.19-3.38-19.76-1.23-29.76,6.07C87.7,159.53,70.25,177.9,56,199.43c-34.96,52.8-47.57,104.2-38.53,157.14
	c6.77,39.68,27.16,64.83,62.34,76.91c22.78,7.82,47.14,11,74.48,9.72c44.27-2.08,89.36-15.21,137.87-40.13
	c1.7-0.88,3.42-1.68,5.41-2.61c1-0.47,2.08-0.97,3.27-1.54l6.25-2.98l-1.3,6.8c-0.18,0.95-0.3,1.68-0.4,2.29
	c-0.19,1.16-0.33,2-0.65,2.91c-11.34,31.84-25.16,59.31-42.25,83.99c-14.38,20.77-34.14,34.81-58.72,41.74
	c-8.54,2.41-17.3,4.44-25.77,6.41c-5.53,1.29-11.25,2.62-16.82,4.03c-10.78,2.73-18.82,9.42-22.08,18.36
	c-3.27,8.98-1.39,19.34,5.15,28.43c16.64,23.12,38.09,42.81,63.75,58.54c50.81,31.13,99.78,41.95,149.7,33.08
	c38.85-6.91,63.6-27.07,75.64-61.64c7.29-20.93,10.57-43.42,10.01-68.77c-1-45.75-13.87-92.26-39.34-142.17
	c-1.09-2.14-2.16-4.29-3.36-6.71l-5.39-10.81l7.47,1.96c27.89,7.31,77,32.34,97.3,49.6c16.57,14.09,27.9,31.74,33.65,52.46
	c2.58,9.3,4.81,18.83,6.96,28.04c1.06,4.53,2.15,9.21,3.27,13.79c2.77,11.34,9.52,19.74,18.54,23.05c9.01,3.31,19.6,1.28,29.05-5.57
	c20.39-14.77,38.06-33.31,52.51-55.1c34.99-52.76,47.6-104.16,38.55-157.13C675.83,304.24,655.99,279.23,621.87,267.03z
	 M287.03,381.31c-22.61,12.33-45,21.77-68.46,28.87c-26.19,7.92-50.78,11.87-74.3,11.87c-14.25,0-28.09-1.45-41.67-4.33
	c-41.46-8.82-62.25-32.15-65.4-73.42c-2.79-36.61,3.17-70.82,17.72-101.67c13.73-29.1,35.51-56.08,64.75-80.19
	c3.16-2.6,6.54-5.05,10.03-3.9c3.53,1.16,4.81,5.2,5.92,9.59c1.32,5.24,2.58,10.57,3.8,15.73c1.71,7.22,3.47,14.68,5.4,21.94
	c8.4,31.51,26.08,56.66,52.56,74.74c22.81,15.59,48.67,29,76.86,39.86c2.05,0.79,4.09,1.62,6.41,2.57c1.14,0.47,2.35,0.96,3.67,1.49
	l2.96,1.19l-0.92,3.06c-5.02,16.75-4.29,32.52,2.21,48.19l1.21,2.91L287.03,381.31z M289.79,218.52
	c-12.73-42.08-15.19-80.03-7.53-115.99c8.83-41.49,32.15-62.28,73.38-65.43c36.61-2.79,70.81,3.17,101.66,17.72
	c29.1,13.73,56.08,35.51,80.18,64.75c2.62,3.18,5.08,6.57,3.92,10.09c-1.17,3.54-5.19,4.82-9.58,5.92
	c-5.22,1.31-10.53,2.55-15.67,3.76c-7.24,1.7-14.72,3.45-21.99,5.4c-33.66,8.99-58.81,26.92-74.75,53.28
	c-10.44,17.27-19.63,35.79-28.51,53.69c-3.72,7.49-7.56,15.24-11.46,22.81c-0.9,1.75-1.62,3.68-2.47,5.92
	c-0.45,1.19-0.92,2.46-1.47,3.82l-1.19,2.97l-3.06-0.92c-16.74-5.01-32.49-4.29-48.17,2.21l-2.9,1.2l-1.51-2.75
	C306.4,264.59,296.95,242.2,289.79,218.52z M403.67,462.28c16.96,44.85,22.13,85.71,15.82,124.9c-2.07,12.85-5.06,23.75-9.13,33.32
	c-10.83,25.47-32.91,39.67-65.62,42.23c-5.99,0.47-11.91,0.7-17.77,0.7c-30.06,0-58.32-6.15-84.21-18.35
	c-29.2-13.76-56.25-35.62-80.39-64.99c-2.4-2.92-4.86-6.33-3.7-9.86c1.19-3.61,5.42-4.95,9.65-6.01c5.05-1.27,10.19-2.47,15.16-3.64
	c7.39-1.74,15.03-3.53,22.45-5.54c33.69-9.13,58.81-27.06,74.67-53.3c10.44-17.26,19.62-35.76,28.5-53.65
	c3.72-7.48,7.56-15.22,11.45-22.78c0.91-1.77,1.65-3.75,2.44-5.85c0.41-1.09,0.83-2.22,1.3-3.39l1.08-2.69l2.84,0.56
	c24.37,4.79,29.66,3.3,43.79-0.69c1.99-0.56,4.14-1.17,6.53-1.81l2.92-0.79l1.2,2.77c2.16,4.98,4.44,10.06,6.64,14.97
	C394.22,439.4,399.32,450.76,403.67,462.28z M395.89,349.64c0.12,12.16-4.66,23.73-13.45,32.57c-8.76,8.8-20.25,13.65-32.36,13.65
	c-0.07,0-0.15,0-0.22,0c-24.96-0.12-45.47-20.57-45.72-45.59c-0.12-12.17,4.66-23.73,13.45-32.57c8.81-8.85,20.4-13.69,32.57-13.63
	C375.13,304.19,395.64,324.64,395.89,349.64L395.89,349.64z M644.94,457.49c-13.72,29-35.43,55.85-64.53,79.81
	c-2.5,2.06-5.35,4.17-8.3,4.17c-0.62,0-1.24-0.09-1.87-0.3c-3.61-1.18-4.97-5.43-5.96-9.32c-1.3-5.11-2.52-10.32-3.71-15.35
	c-2.1-8.9-4.27-18.11-6.88-26.97c-8.68-29.5-26.08-53.26-51.69-70.6c-24.92-16.88-53.15-31.08-86.3-43.43l-3.09-1.15l0.97-3.16
	c5.09-16.56,4.4-32.31-2.12-48.13l-1.19-2.89l2.73-1.51c24.29-13.42,49.7-23.85,75.54-31.01c39.32-10.9,74.89-12.69,108.73-5.47
	c41.75,8.91,62.59,32.46,65.59,74.12C665.48,392.75,659.45,426.8,644.94,457.49z"/>
</svg>
