<?xml version="1.0" encoding="utf-8"?>
<!-- Generator: Adobe Illustrator 23.1.1, SVG Export Plug-In . SVG Version: 6.00 Build 0)  -->
<svg version="1.1" id="Layer_1" xmlns="http://www.w3.org/2000/svg" xmlns:xlink="http://www.w3.org/1999/xlink" x="0px" y="0px"
	 viewBox="0 0 700 700" style="enable-background:new 0 0 700 700;" xml:space="preserve">
<g>
	<path d="M616.39,241.47c-40.27-29.98-82.06-51.83-127.75-66.81c-45.99-15.08-94.95-22.87-149.66-23.82c-3.06,0.3-6.61,0.63-10.54,1
		c-13.35,1.23-31.63,2.92-49.48,5.51c-42.07,5.98-83.7,19.33-127.27,40.82C101.03,223.1,54.04,260.36,8.05,312.09
		c-4.74,5.31-4.73,13.02,0.01,17.56c2.65,2.53,5.44,3.73,8.29,3.53c3.73-0.25,7.76-2.85,11.33-7.33
		c20.65-25.84,45.49-49.58,73.83-70.57c68.33-50.37,148.43-77.43,238.08-80.44c4.12-0.13,8.24-0.2,12.37-0.2
		c39.12,0,78.62,5.88,117.62,17.51c61.18,18.26,114.45,47.94,158.35,88.24c12.87,11.75,24.74,24.8,36.21,37.42
		c2.93,3.23,5.86,6.45,8.81,9.65c3.93,4.26,10.21,7.7,16.04,4.54c3.55-1.91,5.73-4.8,6.34-8.38c0.73-4.28-0.9-9-4.49-12.95
		C663.92,281.27,640.26,259.27,616.39,241.47z"/>
	<path d="M539.92,380.04c-54.96-45.8-118.9-69.31-190.03-69.86l-0.08,0c-21-0.33-41.94,2.06-64.03,7.26
		c-33.12,7.68-64.31,20.76-92.76,38.91c-27.12,17.3-52.64,39.77-75.86,66.79c-4.33,5-3.72,12.11,1.37,16.58
		c4.78,4.23,11.18,3.75,15.96-1.15l0.1-0.1c1.4-1.4,2.55-2.67,3.41-3.76c14.61-18.49,32.54-35.23,54.84-51.21
		c38.8-27.77,82.4-44.3,129.6-49.13c8.56-0.92,17.25-1.38,26.14-1.38c13.89,0,28.27,1.12,43.43,3.38
		c49.87,7.46,95.08,28.18,134.37,61.58c10.82,9.27,20.59,19.71,30.04,29.81c2.91,3.11,5.81,6.21,8.74,9.27
		c5.97,6.18,9.47,5.95,12.28,5.23c4.64-1.19,7.81-3.92,8.89-7.67c1.25-4.31-0.39-9.27-4.5-13.61
		C566.8,405.06,554.16,391.93,539.92,380.04z"/>
	<path d="M358.01,467.81c-32.24,0.02-57.69,5.79-82.5,18.7c-19.42,10.02-36.57,24.07-50.99,41.77c-3.26,4.02-4.63,8.3-3.83,12.06
		c0.66,3.1,2.81,5.66,6.22,7.39c3,1.55,7.93,4.1,16.97-6.76c32.21-38.45,73.87-54.92,123.86-48.96
		c35.98,4.29,66.57,21.72,90.92,51.81c4.49,5.51,11.06,6.75,15.96,2.99c2.63-2.04,4.29-4.86,4.64-7.94
		c0.36-3.14-0.68-6.36-2.91-9.08C444.8,491.43,402.77,469.42,358.01,467.81z"/>
</g>
</svg>
